<svg width="329" height="267" viewBox="0 0 329 267" fill="none" xmlns="http://www.w3.org/2000/svg">
<g clip-path="url(#clip0_69_7275)">
<path d="M37.9978 54.1358C45.3839 49.5823 48.132 40.5959 44.1357 34.0641C40.1395 27.5323 30.9123 25.9285 23.5261 30.482C16.14 35.0355 13.3919 44.0219 17.3882 50.5537C21.3844 57.0855 30.6117 58.6893 37.9978 54.1358Z" fill="#ECECEC"/>
<path d="M60.2577 27.3076C63.712 25.1781 64.9793 20.9462 63.0884 17.8555C61.1974 14.7648 56.8642 13.9856 53.4099 16.1151C49.9557 18.2446 48.6883 22.4765 50.5793 25.5672C52.4702 28.6579 56.8034 29.4371 60.2577 27.3076Z" fill="#ECECEC"/>
<path d="M298.538 236.452C316.56 223.281 320.885 193.226 314.768 172.017C309.468 153.647 298.756 136.852 299.353 117.063C299.895 99.1185 309.024 86.7783 309.937 68.9372C311.754 33.442 277.301 4.26954 237.148 18.6748C219.302 25.0773 202.793 37.6563 184.485 41.095C158.807 45.9174 140.487 27.4789 116.022 26.6969C94.6758 26.0166 73.248 33.417 55.9117 49.648C42.277 62.4128 32.0307 79.9432 26.6321 98.9488C21.9217 115.534 24.3257 132.628 30.4626 147.609L298.538 236.452Z" fill="#ECECEC"/>
<path d="M112.757 136.734L30.4626 147.609C43.4094 181.838 87.0149 224.601 144.76 243.738C202.505 262.875 271.529 256.023 298.538 236.452L297.475 213.905L112.757 136.734Z" fill="#ECECEC"/>
<path d="M22.7211 235.837C13.4784 225.646 8.15761 211.598 8.19551 197.487C8.20993 192.103 9.02324 186.577 11.6173 181.943C14.2113 177.308 18.8307 173.705 23.9265 173.55C31.0935 173.331 36.8192 179.485 41.563 185.162C44.7301 188.952 47.8969 192.742 51.0635 196.532C55.6636 202.011 61.6567 206.137 68.4058 208.471C73.5065 210.254 78.1161 212.984 80.7708 217.776C84.714 224.895 82.5848 234.489 77.3636 240.622C74.2074 244.33 70.2999 247.677 65.8059 249.328C61.5138 250.905 54.1607 252.453 45.2849 250.439C41.198 249.512 37.4382 247.349 33.8371 245.107C29.7229 242.547 25.9819 239.428 22.7211 235.837Z" fill="#ECECEC"/>
<path d="M225.143 255.916C199.824 255.916 174.271 251.992 151.828 244.554C124.779 235.59 99.1793 220.91 77.7958 202.101C58.4111 185.05 44.0574 165.936 37.3787 148.28C32.6112 136.642 28.073 118.72 33.5422 99.4649C39.0158 80.1943 49.4383 62.6454 62.8899 50.0514C79.5013 34.5001 100.906 26.3133 123.175 27.0346C133.839 27.3751 143.454 31.1021 152.753 34.7062C164.735 39.35 177.126 44.1527 191.586 41.4368C202.435 39.3993 212.851 34.0377 222.924 28.8534C229.824 25.3011 236.96 21.6289 244.211 19.0271C262.978 12.2936 282.118 14.6882 296.727 25.5936C303.505 30.6435 308.933 37.2982 312.527 44.9646C316.121 52.6311 317.77 61.071 317.327 69.5323C316.877 78.3093 314.413 85.8647 312.03 93.1719C309.566 100.727 307.018 108.539 306.743 117.654C306.342 130.946 311.158 143.124 315.817 154.901C318.079 160.622 320.419 166.537 322.149 172.531C328.329 193.957 323.914 224.016 305.827 237.234C292.322 247.02 268.452 253.654 240.336 255.439C235.299 255.758 230.225 255.916 225.143 255.916ZM120.503 27.4835C99.3272 27.4835 79.0783 35.5667 63.2228 50.4102C49.8358 62.9447 39.4615 80.414 34.0117 99.5987C28.5821 118.718 33.0929 136.526 37.8335 148.099C44.4864 165.687 58.7918 184.731 78.1165 201.731C99.4513 220.497 124.993 235.144 151.98 244.087C178.869 253 210.234 256.86 240.303 254.948C268.33 253.169 292.107 246.568 305.538 236.835C323.45 223.746 327.81 193.93 321.676 172.667C319.953 166.695 317.618 160.792 315.36 155.082C310.683 143.258 305.847 131.032 306.252 117.638C306.529 108.453 309.088 100.606 311.563 93.0179C313.936 85.7424 316.39 78.2185 316.836 69.5069C317.275 61.1266 315.642 52.7673 312.082 45.1742C308.523 37.581 303.147 30.9898 296.434 25.988C281.958 15.1823 262.985 12.8146 244.375 19.4896C237.154 22.0806 230.034 25.7453 223.147 29.2899C213.042 34.4904 202.594 39.8683 191.675 41.9203C177.079 44.6573 164.622 39.8328 152.575 35.1649C143.315 31.5748 133.74 27.8634 123.159 27.5258C122.273 27.4971 121.388 27.483 120.504 27.4835H120.503Z" fill="#C6E5FD"/>
<path d="M60.8923 252.225C58.0264 252.222 55.1698 251.899 52.3752 251.262C48.1503 250.302 44.212 247.99 40.8523 245.899C36.7185 243.328 32.96 240.193 29.6843 236.585C20.3745 226.32 15.0568 212.282 15.0951 198.069C15.1128 191.649 16.2423 186.526 18.5483 182.406C21.4062 177.299 26.2019 174.036 31.0632 173.887C38.3313 173.654 44.068 179.811 48.8947 185.586L58.395 196.956C62.9699 202.398 68.9251 206.497 75.6306 208.821C81.7072 210.946 85.7955 214.026 88.1288 218.239C92.3342 225.831 89.5838 235.619 84.6936 241.363C81.0019 245.701 77.0782 248.654 73.0345 250.14C69.1382 251.537 65.0295 252.242 60.8923 252.225ZM31.4406 174.372C31.3207 174.372 31.2001 174.374 31.0789 174.378C26.388 174.521 21.7501 177.689 18.9753 182.646C16.7114 186.691 15.6021 191.737 15.5851 198.07C15.5473 212.163 20.8183 226.08 30.0473 236.255C33.2923 239.829 37.0157 242.934 41.1111 245.481C44.4367 247.553 48.333 249.84 52.4839 250.782C61.8356 252.906 69.2684 251.003 72.867 249.681C76.8316 248.224 80.6857 245.318 84.3226 241.046C89.1028 235.43 91.7988 225.874 87.7032 218.478C85.4305 214.376 81.4293 211.369 75.4715 209.286C68.683 206.933 62.654 202.783 58.0221 197.273L48.5207 185.903C43.8496 180.313 38.3028 174.372 31.4406 174.372Z" fill="#C6E5FD"/>
<path d="M30.3625 148.379C30.8142 148.378 31.2563 148.247 31.6355 148.001C32.0148 147.754 32.3149 147.403 32.4999 146.989C32.6849 146.576 32.7469 146.117 32.6784 145.669C32.6099 145.221 32.4137 144.802 32.1136 144.463C29.9159 141.974 28.7024 138.763 28.7024 135.438C28.7024 132.112 29.9159 128.901 32.1136 126.413C32.3181 126.182 32.4752 125.913 32.576 125.621C32.6768 125.329 32.7194 125.02 32.7012 124.711C32.683 124.403 32.6045 124.101 32.4701 123.823C32.3357 123.545 32.1481 123.296 31.9179 123.091C31.6878 122.885 31.4196 122.728 31.1287 122.627C30.8378 122.525 30.53 122.483 30.2226 122.501C29.9153 122.519 29.6146 122.598 29.3377 122.733C29.0607 122.868 28.8129 123.056 28.6085 123.287C25.6484 126.637 24.0138 130.96 24.0138 135.437C24.0138 139.915 25.6484 144.238 28.6085 147.587C28.8286 147.836 29.0987 148.035 29.401 148.172C29.7034 148.308 30.031 148.379 30.3625 148.379Z" fill="#FFD96E"/>
<path d="M21.3724 156.368C21.824 156.368 22.2659 156.237 22.6451 155.991C23.0242 155.744 23.3243 155.393 23.5095 154.98C23.6946 154.566 23.7568 154.108 23.6886 153.66C23.6204 153.211 23.4247 152.793 23.125 152.453C18.9814 147.761 16.6934 141.708 16.6934 135.438C16.6934 129.168 18.9814 123.115 23.125 118.423C23.3293 118.191 23.4863 117.922 23.587 117.63C23.6876 117.338 23.73 117.029 23.7116 116.72C23.6932 116.412 23.6145 116.11 23.4799 115.832C23.3453 115.554 23.1575 115.305 22.9272 115.1C22.6969 114.895 22.4286 114.737 22.1376 114.636C21.8466 114.535 21.5386 114.493 21.2313 114.511C20.9239 114.53 20.6232 114.609 20.3463 114.744C20.0694 114.879 19.8216 115.067 19.6173 115.299C14.713 120.852 12.005 128.016 12.005 135.438C12.005 142.859 14.713 150.023 19.6173 155.577C19.8375 155.826 20.1078 156.025 20.4103 156.161C20.7128 156.298 21.0407 156.368 21.3724 156.368Z" fill="#FFD96E"/>
<path d="M12.3826 164.362C12.8341 164.362 13.2761 164.23 13.6552 163.984C14.0343 163.738 14.3344 163.387 14.5196 162.974C14.7047 162.56 14.7669 162.102 14.6986 161.654C14.6304 161.206 14.4347 160.787 14.135 160.448C8.04867 153.549 4.68841 144.653 4.68841 135.438C4.68841 126.223 8.04867 117.327 14.135 110.428C14.3414 110.198 14.5004 109.928 14.6028 109.635C14.7051 109.343 14.7488 109.033 14.7313 108.723C14.7138 108.413 14.6355 108.11 14.5009 107.831C14.3663 107.552 14.178 107.302 13.9469 107.096C13.7157 106.891 13.4464 106.733 13.1542 106.632C12.8621 106.531 12.5529 106.489 12.2445 106.508C11.9361 106.527 11.6346 106.608 11.3573 106.745C11.08 106.882 10.8324 107.072 10.6287 107.305C3.78087 115.064 0 125.072 0 135.438C0 145.804 3.78087 155.811 10.6287 163.57C10.8487 163.819 11.1187 164.018 11.421 164.155C11.7234 164.291 12.0511 164.362 12.3826 164.362Z" fill="#FFD96E"/>
<path d="M77.3829 149.23H72.1112V121.645H77.3829C78.6689 121.645 79.9023 122.158 80.8116 123.071C81.721 123.984 82.2318 125.222 82.2318 126.513V144.363C82.2318 145.654 81.721 146.892 80.8116 147.805C79.9023 148.718 78.6689 149.23 77.3829 149.23Z" fill="#FFD96E"/>
<path d="M40.6432 166.163L68.2819 149.231V121.645L40.6432 104.713V166.163Z" fill="#FFD96E"/>
<path d="M85.3365 193.832L267.947 193.832C271.107 193.832 273.669 191.26 273.669 188.088V82.1376C273.669 78.9653 271.107 76.3936 267.947 76.3936L85.3365 76.3936C82.1762 76.3936 79.6143 78.9653 79.6143 82.1376V188.088C79.6143 191.26 82.1762 193.832 85.3365 193.832Z" fill="#85CBF5"/>
<path d="M262.189 159.327V97.7517C262.189 95.016 261.106 92.3924 259.179 90.4579C257.252 88.5235 254.638 87.4368 251.913 87.4368H102.267C99.5415 87.4368 96.9278 88.5236 95.0007 90.458C93.0736 92.3924 91.9909 95.016 91.9908 97.7517V159.327H262.189Z" fill="#059586"/>
<path d="M177.09 193.831H248.433L244.223 179.261C243.7 176.747 242.332 174.491 240.347 172.872C238.363 171.253 235.883 170.369 233.325 170.369H120.854C118.297 170.369 115.817 171.253 113.832 172.872C111.848 174.491 110.479 176.747 109.957 179.261L105.747 193.831H177.09Z" fill="#99D3F7"/>
<path d="M266.739 189.048C268.052 189.048 269.116 187.979 269.116 186.662C269.116 185.344 268.052 184.275 266.739 184.275C265.426 184.275 264.362 185.344 264.362 186.662C264.362 187.979 265.426 189.048 266.739 189.048Z" fill="#059586"/>
<path d="M86.5446 189.048C87.8575 189.048 88.9217 187.979 88.9217 186.662C88.9217 185.344 87.8575 184.275 86.5446 184.275C85.2318 184.275 84.1675 185.344 84.1675 186.662C84.1675 187.979 85.2318 189.048 86.5446 189.048Z" fill="#059586"/>
<path d="M266.739 85.9499C268.052 85.9499 269.116 84.8815 269.116 83.5637C269.116 82.2458 268.052 81.1775 266.739 81.1775C265.426 81.1775 264.362 82.2458 264.362 83.5637C264.362 84.8815 265.426 85.9499 266.739 85.9499Z" fill="#059586"/>
<path d="M86.5446 85.9499C87.8575 85.9499 88.9217 84.8815 88.9217 83.5637C88.9217 82.2458 87.8575 81.1775 86.5446 81.1775C85.2318 81.1775 84.1675 82.2458 84.1675 83.5637C84.1675 84.8815 85.2318 85.9499 86.5446 85.9499Z" fill="#059586"/>
<path d="M125.057 141.189H229.122C233.3 141.189 236.687 137.79 236.687 133.596V113.166C236.687 108.973 233.3 105.573 229.122 105.573L125.057 105.573C120.88 105.573 117.493 108.973 117.493 113.166V133.596C117.493 137.79 120.88 141.189 125.057 141.189Z" fill="#92D0F6"/>
<path d="M218.768 134.062C224.644 134.062 229.407 129.28 229.407 123.381C229.407 117.483 224.644 112.701 218.768 112.701C212.892 112.701 208.128 117.483 208.128 123.381C208.128 129.28 212.892 134.062 218.768 134.062Z" fill="#ECECEC"/>
<path d="M135.412 134.062C141.288 134.062 146.051 129.28 146.051 123.381C146.051 117.483 141.288 112.701 135.412 112.701C129.536 112.701 124.772 117.483 124.772 123.381C124.772 129.28 129.536 134.062 135.412 134.062Z" fill="#ECECEC"/>
<path d="M153.842 115.546H200.338C200.572 115.546 200.804 115.592 201.02 115.682C201.236 115.772 201.433 115.904 201.598 116.07C201.764 116.236 201.895 116.434 201.985 116.651C202.074 116.868 202.121 117.101 202.121 117.336V129.427C202.121 129.902 201.933 130.357 201.598 130.693C201.264 131.028 200.811 131.217 200.338 131.217H153.842C153.369 131.217 152.915 131.028 152.581 130.693C152.247 130.357 152.059 129.902 152.059 129.427V117.336C152.059 116.861 152.247 116.406 152.581 116.07C152.915 115.735 153.369 115.546 153.842 115.546Z" fill="#ECECEC"/>
<path d="M158.198 73.5423C178.429 73.5423 194.829 57.0793 194.829 36.7712C194.829 16.463 178.429 0 158.198 0C137.967 0 121.567 16.463 121.567 36.7712C121.567 57.0793 137.967 73.5423 158.198 73.5423Z" fill="#7FC8F4"/>
<path d="M158.198 38.7343C159.278 38.7343 160.154 37.8554 160.154 36.7712C160.154 35.687 159.278 34.8081 158.198 34.8081C157.118 34.8081 156.242 35.687 156.242 36.7712C156.242 37.8554 157.118 38.7343 158.198 38.7343Z" fill="#ECECEC"/>
<path d="M165.573 14.9835C165.573 13.3934 165.103 11.839 164.223 10.517C163.343 9.19492 162.092 8.16454 160.629 7.55613C159.165 6.94772 157.555 6.78861 156.001 7.09891C154.448 7.40921 153.021 8.17499 151.901 9.29941C150.781 10.4238 150.018 11.8564 149.709 13.416C149.4 14.9755 149.559 16.592 150.165 18.061C150.771 19.53 151.798 20.7856 153.115 21.6689C154.432 22.5523 155.981 23.0237 157.565 23.0236C159.688 23.0213 161.724 22.1734 163.225 20.6661C164.727 19.1587 165.571 17.115 165.573 14.9835Z" fill="#ECECEC"/>
<path d="M178.177 21.9775C176.593 21.9775 175.044 22.4491 173.727 23.3325C172.41 24.216 171.384 25.4717 170.777 26.9408C170.171 28.4099 170.012 30.0265 170.322 31.5861C170.631 33.1457 171.393 34.5783 172.514 35.7027C173.634 36.8271 175.061 37.5928 176.615 37.9031C178.168 38.2133 179.779 38.0541 181.242 37.4455C182.706 36.837 183.957 35.8065 184.837 34.4843C185.717 33.1622 186.187 31.6077 186.187 30.0175C186.184 27.886 185.339 25.8424 183.838 24.3351C182.336 22.8279 180.301 21.98 178.177 21.9775Z" fill="#ECECEC"/>
<path d="M170.304 46.301C168.719 46.3011 167.171 46.7726 165.854 47.6561C164.537 48.5396 163.51 49.7953 162.904 51.2644C162.298 52.7336 162.139 54.3501 162.448 55.9097C162.757 57.4693 163.52 58.9019 164.64 60.0263C165.761 61.1507 167.188 61.9164 168.741 62.2266C170.295 62.5368 171.906 62.3775 173.369 61.769C174.833 61.1604 176.083 60.1299 176.963 58.8077C177.844 57.4855 178.313 55.931 178.313 54.3409C178.311 52.2092 177.466 50.1657 175.965 48.6584C174.463 47.1512 172.427 46.3034 170.304 46.301Z" fill="#ECECEC"/>
<path d="M144.825 46.301C143.241 46.3011 141.692 46.7726 140.375 47.6561C139.058 48.5396 138.031 49.7953 137.425 51.2644C136.819 52.7336 136.66 54.3501 136.969 55.9097C137.278 57.4693 138.041 58.9019 139.161 60.0263C140.282 61.1507 141.709 61.9164 143.263 62.2266C144.816 62.5368 146.427 62.3775 147.89 61.769C149.354 61.1604 150.605 60.1299 151.485 58.8077C152.365 57.4855 152.834 55.931 152.834 54.3409C152.832 52.2092 151.988 50.1654 150.486 48.6581C148.984 47.1508 146.948 46.3031 144.825 46.301Z" fill="#ECECEC"/>
<path d="M144.961 30.017C144.961 28.4269 144.491 26.8725 143.611 25.5504C142.731 24.2283 141.48 23.1979 140.016 22.5894C138.553 21.981 136.943 21.8218 135.389 22.1321C133.835 22.4424 132.408 23.2081 131.288 24.3326C130.168 25.457 129.405 26.8896 129.096 28.4491C128.787 30.0087 128.946 31.6252 129.552 33.0943C130.159 34.5633 131.185 35.8189 132.503 36.7022C133.82 37.5855 135.368 38.057 136.952 38.0569C139.076 38.0544 141.111 37.2065 142.613 35.6993C144.114 34.192 144.959 32.1485 144.961 30.017Z" fill="#ECECEC"/>
<path d="M329 164.752V94.4849H248.316V164.752H329Z" fill="#7FC8F4"/>
<path d="M321.757 99.229H313.642C312.931 99.229 312.355 99.8072 312.355 100.521V105.173C312.355 105.887 312.931 106.465 313.642 106.465H321.757C322.467 106.465 323.043 105.887 323.043 105.173V100.521C323.043 99.8072 322.467 99.229 321.757 99.229Z" fill="#ECECEC"/>
<path d="M302.396 99.229H294.281C293.57 99.229 292.994 99.8072 292.994 100.521V105.173C292.994 105.887 293.57 106.465 294.281 106.465H302.396C303.106 106.465 303.682 105.887 303.682 105.173V100.521C303.682 99.8072 303.106 99.229 302.396 99.229Z" fill="#ECECEC"/>
<path d="M283.035 99.229H274.92C274.209 99.229 273.633 99.8072 273.633 100.521V105.173C273.633 105.887 274.209 106.465 274.92 106.465H283.035C283.745 106.465 284.321 105.887 284.321 105.173V100.521C284.321 99.8072 283.745 99.229 283.035 99.229Z" fill="#ECECEC"/>
<path d="M263.674 99.229H255.559C254.848 99.229 254.272 99.8072 254.272 100.521V105.173C254.272 105.887 254.848 106.465 255.559 106.465H263.674C264.384 106.465 264.96 105.887 264.96 105.173V100.521C264.96 99.8072 264.384 99.229 263.674 99.229Z" fill="#ECECEC"/>
<path d="M321.757 152.772H313.642C312.931 152.772 312.355 153.351 312.355 154.064V158.717C312.355 159.43 312.931 160.008 313.642 160.008H321.757C322.467 160.008 323.043 159.43 323.043 158.717V154.064C323.043 153.351 322.467 152.772 321.757 152.772Z" fill="#ECECEC"/>
<path d="M302.396 152.772H294.281C293.57 152.772 292.994 153.351 292.994 154.064V158.717C292.994 159.43 293.57 160.008 294.281 160.008H302.396C303.106 160.008 303.682 159.43 303.682 158.717V154.064C303.682 153.351 303.106 152.772 302.396 152.772Z" fill="#ECECEC"/>
<path d="M283.035 152.772H274.92C274.209 152.772 273.633 153.351 273.633 154.064V158.717C273.633 159.43 274.209 160.008 274.92 160.008H283.035C283.745 160.008 284.321 159.43 284.321 158.717V154.064C284.321 153.351 283.745 152.772 283.035 152.772Z" fill="#ECECEC"/>
<path d="M263.674 152.772H255.559C254.848 152.772 254.272 153.351 254.272 154.064V158.717C254.272 159.43 254.848 160.008 255.559 160.008H263.674C264.384 160.008 264.96 159.43 264.96 158.717V154.064C264.96 153.351 264.384 152.772 263.674 152.772Z" fill="#ECECEC"/>
<path d="M326.8 148.583V110.654H250.516V148.583H326.8Z" fill="#ECECEC"/>
<path d="M300.783 129.608L280.577 117.897V141.318L300.783 129.608Z" fill="#7FC8F4"/>
<path d="M229.407 73.4752C243.308 73.4752 254.576 62.1637 254.576 48.2102C254.576 34.2566 243.308 22.9451 229.407 22.9451C215.507 22.9451 204.238 34.2566 204.238 48.2102C204.238 62.1637 215.507 73.4752 229.407 73.4752Z" fill="#7FC8F4"/>
<path d="M229.407 68.8331C225.344 68.8331 221.372 67.6236 217.993 65.3576C214.615 63.0915 211.981 59.8706 210.426 56.1022C208.871 52.3339 208.465 48.1872 209.257 44.1867C210.05 40.1863 212.007 36.5116 214.88 33.6273C217.753 30.7431 221.414 28.779 225.399 27.9832C229.384 27.1874 233.515 27.5958 237.269 29.1567C241.023 30.7176 244.232 33.361 246.49 36.7524C248.747 40.1439 249.952 44.1311 249.952 48.21C249.946 53.6776 247.779 58.9195 243.928 62.7857C240.076 66.6519 234.854 68.8267 229.407 68.8331ZM229.407 29.2298C225.668 29.2297 222.012 30.3429 218.902 32.4285C215.793 34.514 213.369 37.4784 211.938 40.9466C210.507 44.4148 210.133 48.2312 210.862 51.913C211.592 55.5949 213.393 58.9769 216.037 61.6314C218.681 64.2858 222.051 66.0936 225.718 66.8259C229.386 67.5583 233.188 67.1824 236.643 65.7458C240.098 64.3092 243.051 61.8764 245.129 58.755C247.207 55.6337 248.316 51.964 248.316 48.21C248.31 43.1778 246.316 38.3532 242.771 34.7948C239.227 31.2364 234.421 29.2348 229.407 29.229V29.2298Z" fill="#ECECEC"/>
<path d="M241.954 48.2004L223.089 37.2671V59.1336L241.954 48.2004Z" fill="#ECECEC"/>
<path d="M101.509 191.608C97.4383 191.608 94.0991 188.345 94.0645 184.334V184.251C94.0665 181.762 95.052 179.376 96.8047 177.615C98.5575 175.855 100.934 174.864 103.414 174.86C103.483 174.86 103.551 174.86 103.618 174.862C104.967 171.974 107.176 169.577 109.941 168.005C112.707 166.432 115.89 165.762 119.052 166.086C122.213 166.41 125.196 167.713 127.588 169.814C129.979 171.915 131.66 174.711 132.399 177.814C132.463 177.812 132.528 177.811 132.592 177.811C134.8 177.814 136.918 178.696 138.479 180.263C140.041 181.831 140.92 183.957 140.922 186.174V186.223C140.915 187.652 140.345 189.02 139.337 190.029C138.329 191.038 136.964 191.606 135.54 191.608H101.509Z" fill="#059586"/>
<path d="M119.887 171.861H115.098V179.69H119.887V171.861Z" fill="#ECECEC"/>
<path d="M117.493 184.155L122.327 178.799H112.658L117.493 184.155Z" fill="#ECECEC"/>
<path d="M123.492 185.753H111.494V183.856H112.358V184.886H122.628V183.856H123.492V185.753Z" fill="#ECECEC"/>
<path d="M209.065 252.171C204.709 252.166 200.532 250.426 197.452 247.334C194.371 244.242 192.638 240.049 192.633 235.676V227.936C192.633 227.645 192.748 227.365 192.954 227.159C193.159 226.953 193.438 226.837 193.729 226.837C194.019 226.837 194.298 226.953 194.503 227.159C194.709 227.365 194.824 227.645 194.824 227.936V235.676C194.837 239.459 196.344 243.082 199.013 245.752C201.682 248.422 205.297 249.921 209.065 249.921C212.834 249.921 216.448 248.422 219.118 245.752C221.787 243.082 223.293 239.459 223.307 235.676V227.936C223.307 227.645 223.422 227.365 223.628 227.159C223.833 226.953 224.112 226.837 224.402 226.837C224.693 226.837 224.971 226.953 225.177 227.159C225.382 227.365 225.498 227.645 225.498 227.936V235.676C225.493 240.049 223.76 244.242 220.679 247.334C217.599 250.426 213.422 252.166 209.065 252.171Z" fill="#059586"/>
<path d="M210.709 251.071H207.422V265.897H210.709V251.071Z" fill="#059586"/>
<path d="M217.15 267C216.243 265.691 215.035 264.621 213.627 263.883C212.219 263.144 210.654 262.758 209.066 262.758C207.477 262.758 205.912 263.144 204.505 263.883C203.097 264.621 201.888 265.691 200.981 267H217.15Z" fill="#7FC8F4"/>
<path d="M227.254 229.586H190.674C190.239 229.586 189.821 229.412 189.513 229.103C189.204 228.794 189.031 228.374 189.031 227.937C189.031 227.499 189.204 227.08 189.513 226.77C189.821 226.461 190.239 226.287 190.674 226.287H227.254C227.69 226.287 228.108 226.461 228.416 226.77C228.724 227.08 228.897 227.499 228.897 227.937C228.897 228.374 228.724 228.794 228.416 229.103C228.108 229.412 227.69 229.586 227.254 229.586Z" fill="#7FC8F4"/>
<path d="M216.77 224.429C216.496 224.429 216.234 224.32 216.041 224.126C215.848 223.932 215.739 223.669 215.739 223.394C215.739 223.12 215.848 222.856 216.041 222.662C216.234 222.468 216.496 222.359 216.77 222.359H218.923V220.2C218.923 220.094 218.919 219.988 218.916 219.882H216.77C216.634 219.884 216.498 219.858 216.371 219.807C216.245 219.756 216.13 219.68 216.032 219.584C215.935 219.487 215.858 219.373 215.805 219.246C215.753 219.12 215.726 218.984 215.726 218.847C215.726 218.71 215.753 218.574 215.805 218.448C215.858 218.321 215.935 218.207 216.032 218.111C216.13 218.014 216.245 217.938 216.371 217.887C216.498 217.836 216.634 217.81 216.77 217.812H218.626C218.097 215.669 216.868 213.764 215.136 212.403C213.403 211.042 211.267 210.303 209.067 210.303C206.867 210.303 204.73 211.042 202.997 212.403C201.265 213.764 200.036 215.669 199.507 217.812H201.363C201.499 217.81 201.635 217.836 201.761 217.887C201.888 217.938 202.003 218.014 202.1 218.111C202.198 218.207 202.275 218.321 202.327 218.448C202.38 218.574 202.407 218.71 202.407 218.847C202.407 218.984 202.38 219.12 202.327 219.246C202.275 219.373 202.198 219.487 202.1 219.584C202.003 219.68 201.888 219.756 201.761 219.807C201.635 219.858 201.499 219.884 201.363 219.882H199.211C199.209 219.988 199.205 220.094 199.205 220.2V222.359H201.363C201.636 222.359 201.898 222.468 202.092 222.662C202.285 222.856 202.394 223.12 202.394 223.394C202.394 223.669 202.285 223.932 202.092 224.126C201.898 224.32 201.636 224.429 201.363 224.429H199.205V235.677C199.205 238.302 200.243 240.819 202.092 242.676C203.941 244.532 206.449 245.574 209.064 245.574C211.679 245.574 214.187 244.532 216.036 242.676C217.885 240.819 218.923 238.302 218.923 235.677V224.429H216.77Z" fill="#7FC8F4"/>
<path d="M184.623 209.067C183.954 209.067 183.312 209.334 182.84 209.808C182.367 210.283 182.101 210.927 182.101 211.598V217.728C182.101 218.061 182.166 218.39 182.293 218.697C182.42 219.004 182.605 219.283 182.84 219.518C183.074 219.753 183.352 219.939 183.658 220.067C183.963 220.194 184.291 220.259 184.623 220.259H186.207V209.067H184.623Z" fill="#FFD96E"/>
<path d="M193.212 204.604H191.105C190.442 204.604 189.786 204.735 189.173 204.989C188.561 205.244 188.005 205.617 187.536 206.087C187.068 206.558 186.696 207.116 186.442 207.731C186.189 208.345 186.058 209.004 186.058 209.669V219.658C186.058 220.323 186.189 220.982 186.442 221.596C186.696 222.211 187.068 222.769 187.536 223.24C188.005 223.71 188.561 224.083 189.173 224.338C189.786 224.592 190.442 224.723 191.105 224.723H193.212C193.505 224.723 193.795 224.666 194.065 224.553C194.336 224.441 194.582 224.276 194.789 224.068C194.996 223.86 195.16 223.613 195.272 223.341C195.384 223.07 195.442 222.779 195.442 222.485V206.843C195.442 206.249 195.207 205.679 194.789 205.259C194.37 204.839 193.803 204.604 193.212 204.604Z" fill="#99D3F7"/>
<path d="M233.103 209.067C233.772 209.067 234.413 209.334 234.886 209.809C235.359 210.283 235.624 210.927 235.625 211.598V217.728C235.625 218.399 235.359 219.043 234.886 219.518C234.413 219.993 233.772 220.259 233.103 220.259H231.518V209.067H233.103Z" fill="#FFD96E"/>
<path d="M224.514 204.604H226.621C227.284 204.604 227.94 204.735 228.552 204.989C229.164 205.244 229.721 205.617 230.189 206.087C230.658 206.558 231.03 207.116 231.283 207.731C231.537 208.345 231.667 209.004 231.667 209.669V219.658C231.667 221.001 231.136 222.29 230.189 223.24C229.243 224.19 227.959 224.723 226.621 224.723H224.514C223.922 224.723 223.355 224.488 222.937 224.068C222.519 223.648 222.284 223.078 222.284 222.485V206.843C222.284 206.549 222.341 206.257 222.453 205.986C222.565 205.714 222.73 205.467 222.937 205.259C223.144 205.051 223.39 204.887 223.66 204.774C223.931 204.661 224.221 204.604 224.514 204.604Z" fill="#99D3F7"/>
<path d="M234.939 207.464H231.879C231.879 201.337 229.454 195.46 225.138 191.127C220.821 186.794 214.967 184.36 208.862 184.36C202.758 184.36 196.904 186.794 192.587 191.127C188.271 195.46 185.846 201.337 185.846 207.464H182.785C182.785 193.031 194.483 181.288 208.862 181.288C223.24 181.288 234.939 193.031 234.939 207.464Z" fill="#FFD96E"/>
</g>
<defs>
<clipPath id="clip0_69_7275">
<rect width="329" height="267" fill="white"/>
</clipPath>
</defs>
</svg>
