<svg width="85" height="86" viewBox="0 0 85 86" fill="none" xmlns="http://www.w3.org/2000/svg">
<g clip-path="url(#clip0_1_243)">
<path opacity="0.3" d="M40.86 85.94C63.4264 85.94 81.72 67.6463 81.72 45.08C81.72 22.5136 63.4264 4.21997 40.86 4.21997C18.2936 4.21997 0 22.5136 0 45.08C0 67.6463 18.2936 85.94 40.86 85.94Z" fill="#E6E6E6"/>
<path fill-rule="evenodd" clip-rule="evenodd" d="M47.72 33.15L38.49 42.5499C33.59 37.57 27.21 34.22 20.35 32.99C13.4 31.76 6.29 32.66 0 35.68C1.39 27.67 4.98 20.15 10.38 14.11C15.78 8.06995 22.8 3.72995 30.56 1.52995C38.4 -0.590049 46.66 -0.510049 54.34 1.85995C62.1 4.22995 69.05 8.71995 74.28 14.85C79.59 20.98 83.02 28.58 84.17 36.59C85.4 44.68 84.25 52.85 80.98 60.29C77.71 67.7299 72.4 74.08 65.7 78.58C59 83.07 51.16 85.6099 43.07 85.77C47.07 79.4799 48.95 72.04 48.46 64.61C47.97 57.17 45.11 50.07 40.29 44.3499L49.36 35.1199C50.91 36.5099 52.87 37.24 54.92 37.24C56.8 37.24 58.52 36.67 59.99 35.52C61.46 34.38 62.52 32.82 63.01 31.03C63.5 29.48 63.42 27.5199 62.68 25.7999C62.03 24.08 60.72 22.6099 59.17 21.7099C57.62 20.8099 55.74 20.4 53.94 20.65C52.14 20.9 50.43 21.71 49.12 23.02C47.81 24.33 47 26.04 46.67 27.84C46.41 29.7199 46.74 31.51 47.72 33.15Z" fill="white"/>
<path d="M12.4201 55.13C16.1801 55.13 19.2001 52.02 19.2001 48.18C19.2001 44.34 16.1801 41.23 12.4201 41.23C8.66006 41.23 5.56006 44.42 5.56006 48.26C5.56006 52.02 8.66006 55.13 12.4201 55.13Z" fill="white"/>
<path d="M31.05 77.03C34.81 77.03 37.83 73.92 37.83 70.08C37.83 66.24 34.81 63.13 31.05 63.13C27.29 63.13 24.27 66.24 24.27 70.08C24.27 73.92 27.29 77.03 31.05 77.03Z" fill="white"/>
</g>
<defs>
<clipPath id="clip0_1_243">
<rect width="84.64" height="85.93" fill="white"/>
</clipPath>
</defs>
</svg>
