<svg width="449" height="95" viewBox="0 0 449 95" fill="none" xmlns="http://www.w3.org/2000/svg">
<g clip-path="url(#clip0_35_3)">
<path opacity="0.3" d="M40.86 94.38C63.4264 94.38 81.72 76.0864 81.72 53.52C81.72 30.9536 63.4264 12.66 40.86 12.66C18.2936 12.66 0 30.9536 0 53.52C0 76.0864 18.2936 94.38 40.86 94.38Z" fill="#E6E6E6"/>
<path fill-rule="evenodd" clip-rule="evenodd" d="M47.72 41.59L38.49 50.99C33.59 46.01 27.21 42.66 20.35 41.43C13.4 40.2 6.29 41.1 0 44.12C1.39 36.11 4.98 28.59 10.38 22.55C15.78 16.51 22.8 12.17 30.56 9.97C38.4 7.85 46.66 7.93 54.34 10.3C62.1 12.67 69.05 17.16 74.28 23.29C79.59 29.42 83.02 37.02 84.17 45.03C85.4 53.12 84.25 61.29 80.98 68.73C77.71 76.17 72.4 82.53 65.7 87.02C59 91.51 51.16 94.05 43.07 94.21C47.07 87.92 48.95 80.48 48.46 73.05C47.97 65.61 45.11 58.51 40.29 52.79L49.36 43.56C50.91 44.95 52.87 45.68 54.92 45.68C56.8 45.68 58.52 45.11 59.99 43.96C61.46 42.82 62.52 41.26 63.01 39.47C63.5 37.92 63.42 35.96 62.68 34.24C62.03 32.52 60.72 31.05 59.17 30.15C57.62 29.25 55.74 28.84 53.94 29.09C52.14 29.34 50.43 30.15 49.12 31.46C47.81 32.77 47 34.48 46.67 36.28C46.41 38.16 46.74 39.96 47.72 41.59Z" fill="#079585"/>
<path d="M12.42 63.57C16.18 63.57 19.2 60.46 19.2 56.62C19.2 52.78 16.18 49.67 12.42 49.67C8.66 49.67 5.56 52.86 5.56 56.7C5.56 60.47 8.66 63.57 12.42 63.57Z" fill="#079585"/>
<path d="M31.05 85.47C34.81 85.47 37.83 82.36 37.83 78.52C37.83 74.68 34.81 71.57 31.05 71.57C27.29 71.57 24.27 74.68 24.27 78.52C24.27 82.36 27.29 85.47 31.05 85.47Z" fill="#079585"/>
<path d="M449 91.03C447.04 91.85 445.16 92.5 443.44 93.07C441.72 93.64 439.52 93.97 436.98 93.97C433.22 93.97 430.61 93.07 429.05 91.19C427.5 89.31 426.76 86.61 426.76 83.18V52.78H418.67V48.37H426.92V34.48H435.17V48.45H448V52.78H435.25V77.78C435.25 79.66 435.33 81.21 435.41 82.52C435.57 83.75 435.9 84.89 436.39 85.79C436.88 86.69 437.62 87.34 438.6 87.75C439.58 88.24 440.89 88.4 442.52 88.4C443.26 88.4 444.4 88.32 445.87 88.24C447.34 88.08 448.4 87.91 448.98 87.67C449 87.68 449 91.03 449 91.03Z" fill="#231F20"/>
<path d="M414.93 70.19C414.93 73.38 414.44 76.4 413.46 79.51C412.48 82.53 411.01 85.15 409.21 87.19C407.09 89.64 404.72 91.44 401.94 92.58C399.16 93.72 396.06 94.38 392.71 94.38C389.85 94.38 387.15 93.89 384.62 92.83C382.09 91.77 379.8 90.13 377.76 88.09C375.8 86.05 374.25 83.6 373.02 80.65C371.88 77.71 371.3 74.44 371.3 70.76C371.3 63.73 373.34 58.01 377.35 53.6C381.44 49.19 386.75 46.9 393.37 46.9C399.66 46.9 404.81 49.02 408.81 53.27C412.88 57.52 414.93 63.16 414.93 70.19ZM405.53 70.27C405.53 67.98 405.28 65.61 404.88 63.08C404.39 60.55 403.74 58.42 402.84 56.62C401.86 54.74 400.63 53.27 399 52.13C397.45 50.99 395.49 50.41 393.2 50.41C390.83 50.41 388.87 50.98 387.24 52.13C385.61 53.28 384.3 54.83 383.24 56.87C382.26 58.75 381.61 60.79 381.2 63.16C380.79 65.53 380.63 67.82 380.63 70.02C380.63 72.96 380.88 75.66 381.28 78.11C381.77 80.56 382.51 82.77 383.57 84.73C384.63 86.69 385.86 88.16 387.41 89.31C388.96 90.37 390.92 90.94 393.21 90.94C396.97 90.94 399.99 89.14 402.2 85.47C404.39 81.71 405.53 76.73 405.53 70.27Z" fill="#231F20"/>
<path d="M357.24 63C359.12 64.31 360.67 65.94 361.9 67.98C363.13 70.02 363.78 72.56 363.78 75.5C363.78 78.52 363.13 81.14 361.82 83.34C360.51 85.54 358.8 87.34 356.75 88.81C354.71 90.2 352.42 91.26 349.89 92C347.36 92.74 344.74 93.06 341.96 93.06H311.48V89.87C312.22 89.79 313.28 89.71 314.67 89.54C316.06 89.29 317.04 89.05 317.69 88.8C318.59 88.39 319.32 87.82 319.65 87.08C320.06 86.34 320.22 85.45 320.22 84.3V37.91C320.22 36.85 320.06 35.95 319.65 35.21C319.32 34.39 318.67 33.82 317.61 33.33C316.71 32.84 315.65 32.51 314.59 32.27C313.45 32.02 312.55 31.86 311.81 31.78V28.6H341.55C343.84 28.6 346.04 28.85 348.17 29.25C350.29 29.74 352.34 30.48 354.22 31.62C356.02 32.68 357.49 34.15 358.63 35.95C359.77 37.75 360.35 39.95 360.35 42.57C360.35 44.86 359.94 46.9 359.12 48.62C358.3 50.34 357.16 51.89 355.69 53.2C354.3 54.43 352.67 55.41 350.87 56.31C349.07 57.13 347.11 57.78 345.07 58.19V58.6C346.95 58.85 348.99 59.25 351.28 59.99C353.48 60.71 355.52 61.69 357.24 63ZM346.37 53.28C347.51 51.97 348.25 50.58 348.66 49.03C349.15 47.48 349.31 45.68 349.31 43.56C349.31 40.05 348.33 37.27 346.37 35.23C344.41 33.19 341.39 32.21 337.22 32.21C336.24 32.21 335.01 32.21 333.54 32.29C332.07 32.29 330.84 32.37 329.86 32.37V57.13H335.66C338.11 57.13 340.24 56.8 342.03 56.15C343.84 55.48 345.23 54.5 346.37 53.28ZM352.58 73.87C352.58 70.03 351.27 66.92 348.74 64.47C346.21 62.02 342.53 60.79 337.79 60.79C335.83 60.79 334.19 60.79 332.89 60.87C331.58 60.87 330.52 60.95 329.87 60.95V83.67C329.87 85.55 330.61 87.02 332.16 88C333.71 88.98 335.84 89.47 338.62 89.47C343.11 89.47 346.55 88.16 349 85.55C351.44 82.85 352.58 78.93 352.58 73.87Z" fill="#231F20"/>
<path d="M304.94 92.99H283.29V89.97C284.03 89.89 284.68 89.89 285.41 89.81C286.15 89.73 286.8 89.65 287.37 89.48C288.19 89.23 288.84 88.74 289.25 88.09C289.66 87.35 289.9 86.54 289.9 85.39V57.69C289.9 56.71 289.65 55.81 289.25 55.08C288.84 54.26 288.19 53.61 287.45 53.04C286.88 52.71 286.06 52.39 284.92 52.14C283.86 51.89 282.8 51.73 281.9 51.65V48.7L297.67 47.72L298.32 48.37V84.9C298.32 85.96 298.48 86.86 298.89 87.51C299.3 88.25 299.95 88.74 300.85 89.06C301.5 89.31 302.16 89.55 302.81 89.71C303.46 89.87 304.12 89.96 304.93 90.04V92.99H304.94Z" fill="#231F20"/>
<path d="M279.29 54.01C279.29 55.56 278.88 56.95 278.15 58.18C277.41 59.32 276.19 59.98 274.64 59.98C272.92 59.98 271.62 59.57 270.72 58.67C269.82 57.77 269.41 56.79 269.41 55.73C269.41 55.08 269.49 54.42 269.57 53.93C269.65 53.36 269.82 52.87 269.9 52.3C268.51 52.3 266.79 52.87 264.92 54.02C263.04 55.16 261.41 56.8 260.1 58.92V84.99C260.1 86.05 260.26 86.95 260.67 87.6C261.08 88.25 261.73 88.74 262.63 89.07C263.37 89.4 264.35 89.56 265.57 89.72C266.8 89.88 267.86 89.97 268.68 90.05V93.07H245.07V90.05C245.72 89.97 246.46 89.97 247.19 89.89C247.93 89.81 248.58 89.73 249.15 89.56C249.97 89.31 250.62 88.82 251.03 88.17C251.44 87.43 251.68 86.62 251.68 85.47V57.69C251.68 56.79 251.43 55.81 251.03 54.91C250.62 54.01 249.97 53.28 249.23 52.7C248.66 52.37 248 52.05 247.19 51.96C246.37 51.8 245.56 51.63 244.66 51.63V48.7L259.53 47.72L260.18 48.37V54.66H260.43C262.31 52.21 264.43 50.33 266.72 49.1C269.01 47.79 271.13 47.22 273.01 47.22C274.89 47.22 276.44 47.87 277.67 49.1C278.72 50.25 279.29 51.89 279.29 54.01Z" fill="#231F20"/>
<path d="M241.21 54.01C241.21 55.56 240.8 56.95 240.07 58.18C239.33 59.32 238.11 59.98 236.56 59.98C234.84 59.98 233.54 59.57 232.64 58.67C231.74 57.77 231.33 56.79 231.33 55.73C231.33 55.08 231.41 54.42 231.49 53.93C231.57 53.36 231.74 52.87 231.82 52.3C230.43 52.3 228.72 52.87 226.84 54.02C224.96 55.16 223.33 56.8 222.02 58.92V84.99C222.02 86.05 222.18 86.95 222.59 87.6C223 88.25 223.65 88.74 224.55 89.07C225.29 89.4 226.27 89.56 227.49 89.72C228.72 89.88 229.78 89.97 230.59 90.05V93.07H206.98V90.05C207.72 89.97 208.37 89.97 209.1 89.89C209.84 89.81 210.49 89.73 211.06 89.56C211.88 89.31 212.53 88.82 212.94 88.17C213.35 87.43 213.59 86.62 213.59 85.47V57.69C213.59 56.79 213.34 55.81 212.94 54.91C212.53 54.01 211.88 53.28 211.14 52.7C210.57 52.37 209.91 52.05 209.1 51.96C208.28 51.8 207.47 51.63 206.57 51.63V48.7L221.44 47.72L222.09 48.37V54.66H222.34C224.22 52.21 226.34 50.33 228.63 49.1C230.92 47.79 233.04 47.22 234.92 47.22C236.8 47.22 238.35 47.87 239.58 49.1C240.56 50.25 241.21 51.89 241.21 54.01Z" fill="#231F20"/>
<path d="M201.74 82.45C199.86 86.05 197.33 88.91 194.22 90.95C191.03 93.07 187.44 94.14 183.35 94.14C179.75 94.14 176.57 93.49 173.87 92.26C171.17 90.95 168.97 89.24 167.17 87.11C165.45 84.9 164.07 82.37 163.25 79.51C162.43 76.57 161.94 73.55 161.94 70.28C161.94 67.34 162.43 64.56 163.33 61.78C164.23 59 165.62 56.47 167.42 54.18C169.14 52.06 171.26 50.34 173.79 49.03C176.32 47.72 179.26 47.07 182.45 47.07C185.72 47.07 188.5 47.56 190.87 48.62C193.24 49.68 195.12 51.07 196.51 52.87C197.9 54.59 198.96 56.55 199.61 58.83C200.35 61.12 200.67 63.65 200.67 66.35V69.37H171.01C171.01 72.31 171.26 75.01 171.83 77.38C172.4 79.75 173.3 81.87 174.53 83.67C175.67 85.39 177.23 86.86 179.19 87.84C181.07 88.82 183.36 89.31 185.97 89.31C188.67 89.31 190.95 88.66 192.92 87.43C194.88 86.12 196.76 83.92 198.56 80.65L201.74 82.45ZM191.69 65.37C191.69 63.65 191.53 61.86 191.2 59.9C190.95 57.94 190.46 56.3 189.81 55.08C189.07 53.69 188.18 52.55 186.95 51.65C185.72 50.75 184.17 50.34 182.29 50.34C179.1 50.34 176.49 51.65 174.36 54.34C172.32 56.95 171.17 60.63 171.01 65.37H191.69Z" fill="#231F20"/>
<path d="M147.98 63C149.86 64.31 151.41 65.94 152.64 67.98C153.87 70.02 154.52 72.56 154.52 75.5C154.52 78.52 153.87 81.14 152.56 83.34C151.25 85.54 149.54 87.34 147.49 88.81C145.45 90.2 143.16 91.26 140.63 92C138.1 92.74 135.48 93.06 132.7 93.06H102.14V89.87C102.88 89.79 103.94 89.71 105.33 89.54C106.72 89.29 107.7 89.05 108.35 88.8C109.25 88.39 109.98 87.82 110.31 87.08C110.72 86.34 110.88 85.45 110.88 84.3V37.91C110.88 36.85 110.72 35.95 110.31 35.21C109.98 34.39 109.33 33.82 108.27 33.33C107.37 32.84 106.31 32.51 105.25 32.27C104.11 32.02 103.21 31.86 102.47 31.78V28.6H132.21C134.5 28.6 136.7 28.85 138.83 29.25C140.95 29.74 143 30.48 144.88 31.62C146.68 32.68 148.15 34.15 149.29 35.95C150.43 37.75 151.01 39.95 151.01 42.57C151.01 44.86 150.6 46.9 149.78 48.62C148.96 50.34 147.82 51.89 146.35 53.2C144.96 54.43 143.33 55.41 141.53 56.31C139.73 57.13 137.77 57.78 135.73 58.19V58.6C137.61 58.85 139.65 59.25 141.94 59.99C144.14 60.71 146.18 61.69 147.98 63ZM137.03 53.28C138.17 51.97 138.91 50.5 139.32 49.03C139.81 47.48 139.97 45.68 139.97 43.56C139.97 40.05 138.99 37.27 137.03 35.23C135.07 33.19 132.05 32.21 127.88 32.21C126.9 32.21 125.67 32.21 124.2 32.29C122.73 32.29 121.5 32.37 120.52 32.37V57.13H126.32C128.77 57.13 130.9 56.8 132.69 56.15C134.5 55.48 135.97 54.5 137.03 53.28ZM143.32 73.87C143.32 70.03 142.01 66.92 139.48 64.47C136.95 62.02 133.27 60.79 128.53 60.79C126.57 60.79 124.93 60.79 123.63 60.87C122.32 60.87 121.26 60.95 120.61 60.95V83.67C120.61 85.55 121.35 87.02 122.9 88C124.45 88.98 126.58 89.47 129.36 89.47C133.85 89.47 137.29 88.16 139.74 85.55C142.09 82.85 143.32 78.93 143.32 73.87Z" fill="#231F20"/>
<path fill-rule="evenodd" clip-rule="evenodd" d="M291.87 11.68C290.97 22.71 288.44 25.65 279.29 26.96C288.44 28.27 290.97 31.13 291.87 42.24C292.77 31.21 295.3 28.27 304.45 26.96C295.3 25.66 292.77 22.72 291.87 11.68Z" fill="#079585"/>
<path fill-rule="evenodd" clip-rule="evenodd" d="M304.45 12.01C304.04 16.59 303.06 17.81 299.22 18.38C303.06 18.95 304.12 20.1 304.45 24.75C304.86 20.17 305.84 18.95 309.68 18.38C305.84 17.81 304.78 16.59 304.45 12.01Z" fill="#079585"/>
<path fill-rule="evenodd" clip-rule="evenodd" d="M297.84 9.15001C298.09 5.80001 298.9 4.98001 301.6 4.57001C298.82 4.16001 298.09 3.34001 297.84 -0.00999451C297.59 3.34001 296.78 4.16001 294.08 4.57001C296.77 4.98001 297.51 5.80001 297.84 9.15001Z" fill="#079585"/>
</g>
<defs>
<clipPath id="clip0_35_3">
<rect width="449" height="94.38" fill="white"/>
</clipPath>
</defs>
</svg>
