<svg width="36" height="36" viewBox="0 0 36 36" fill="none" xmlns="http://www.w3.org/2000/svg">
<g clip-path="url(#clip0_295_6890)">
<path d="M35.6772 9.21866C35.3874 9.02249 35.0192 8.98283 34.6942 9.11277L26.9531 12.2092V23.7905L34.6942 26.8869C34.8206 26.9375 34.9535 26.9624 35.0859 26.9624C35.2937 26.9624 35.5001 26.9009 35.6772 26.781C35.967 26.5848 36.1406 26.2577 36.1406 25.9077V10.092C36.1406 9.74207 35.967 9.4149 35.6772 9.21866Z" fill="#212B36"/>
<path d="M21.3891 29.2218H3.31411C1.48676 29.2218 0 27.7351 0 25.9077V10.0921C0 8.2647 1.48676 6.77802 3.31411 6.77802H21.3891C23.2164 6.77802 24.7031 8.2647 24.7031 10.0921V25.9077C24.7031 27.7351 23.2164 29.2218 21.3891 29.2218Z" fill="#212B36"/>
</g>
<defs>
<clipPath id="clip0_295_6890">
<rect width="36" height="36" fill="white"/>
</clipPath>
</defs>
</svg>
