<svg width="37" height="34" viewBox="0 0 37 34" fill="none" xmlns="http://www.w3.org/2000/svg">
<path d="M35.7241 8.21866C35.4343 8.02249 35.0661 7.98283 34.7411 8.11277L27 11.2092V22.7905L34.7411 25.8869C34.8675 25.9375 35.0004 25.9624 35.1328 25.9624C35.3406 25.9624 35.547 25.9009 35.7241 25.781C36.0139 25.5848 36.1875 25.2577 36.1875 24.9077V9.09201C36.1875 8.74207 36.0139 8.4149 35.7241 8.21866Z" fill="#212B36"/>
<path fill-rule="evenodd" clip-rule="evenodd" d="M17.0255 5.77802H3.31411C1.48676 5.77802 0 7.2647 0 9.09205V24.9077C0 26.7351 1.48676 28.2218 3.31411 28.2218H4.82722L17.0255 5.77802ZM8.59778 28.2218H21.3891C23.2164 28.2218 24.7031 26.7351 24.7031 24.9077V9.09205C24.7031 7.2647 23.2164 5.77802 21.3891 5.77802H20.796L8.59778 28.2218Z" fill="#212B36"/>
<line x1="21.399" y1="1.35675" x2="4.35675" y2="32.601" stroke="#212B36" stroke-width="2" stroke-linecap="round"/>
</svg>
