<svg width="36" height="36" viewBox="0 0 36 36" fill="none" xmlns="http://www.w3.org/2000/svg">
<g clip-path="url(#clip0_202_7531)">
<path d="M30.4266 0H5.57336C2.50021 0 0 2.50021 0 5.57336V7.98294H36V5.57336C36 2.50021 33.4998 0 30.4266 0ZM5.57336 5.04602C4.99329 5.04602 4.51868 4.57361 4.51868 3.99133C4.51868 3.40933 4.99329 2.93665 5.57336 2.93665C6.15344 2.93665 6.62805 3.40933 6.62805 3.99133C6.62805 4.57361 6.15344 5.04602 5.57336 5.04602ZM10.092 5.04602C9.51196 5.04602 9.03735 4.57361 9.03735 3.99133C9.03735 3.40933 9.51196 2.93665 10.092 2.93665C10.6721 2.93665 11.1467 3.40933 11.1467 3.99133C11.1467 4.57361 10.6721 5.04602 10.092 5.04602ZM14.611 5.04602C14.0309 5.04602 13.5563 4.57361 13.5563 3.99133C13.5563 3.40933 14.0309 2.93665 14.611 2.93665C15.1911 2.93665 15.6657 3.40933 15.6657 3.99133C15.6657 4.57361 15.1911 5.04602 14.611 5.04602Z" fill="#61F3F3"/>
<path d="M0 30.4264C0 33.4995 2.50021 35.9998 5.57336 35.9998H30.4266C33.4998 35.9998 36 33.4995 36 30.4264V10.0918H0V30.4264ZM24.0323 16.4861C23.6203 16.0744 23.6203 15.4064 24.0323 14.9947C24.4443 14.5827 25.112 14.5827 25.524 14.9947L30.0427 19.5134C30.4547 19.9254 30.4547 20.5931 30.0427 21.0051L25.524 25.5237C25.318 25.7297 25.048 25.8327 24.778 25.8327C24.5083 25.8327 24.2383 25.7297 24.0323 25.5237C23.6206 25.112 23.6206 24.4441 24.0323 24.0323L27.8053 20.2594L24.0323 16.4861ZM14.7972 24.3062L19.3162 15.2686C19.5765 14.7478 20.2102 14.5366 20.7309 14.797C21.252 15.0573 21.4632 15.691 21.2028 16.212L16.6838 25.2496C16.4993 25.619 16.1266 25.8327 15.7398 25.8327C15.5814 25.8327 15.4204 25.797 15.2691 25.7212C14.748 25.4608 14.5368 24.8272 14.7972 24.3062ZM5.95734 19.5134L10.476 14.9944C10.888 14.5827 11.5557 14.5827 11.9677 14.9944C12.3794 15.4064 12.3794 16.0741 11.9677 16.4861L8.1947 20.2591L11.9674 24.0321C12.3794 24.4438 12.3794 25.1118 11.9674 25.5237C11.7617 25.7295 11.4917 25.8325 11.2217 25.8325C10.952 25.8325 10.682 25.7295 10.476 25.5237L5.95734 21.0048C5.54535 20.5931 5.54535 19.9254 5.95734 19.5134Z" fill="#61F3F3"/>
</g>
<defs>
<clipPath id="clip0_202_7531">
<rect width="36" height="36" fill="white"/>
</clipPath>
</defs>
</svg>
