<svg width="48" height="48" viewBox="0 0 48 48" fill="none" xmlns="http://www.w3.org/2000/svg">
<g id="icons/solid/ic-icon-park-outline:loading-one" opacity="0.98">
<path id="primary-shape" fill-rule="evenodd" clip-rule="evenodd" d="M24 2C25.1046 2 26 2.89543 26 4V8C26 9.10457 25.1046 10 24 10C22.8954 10 22 9.10457 22 8V4C22 2.89543 22.8954 2 24 2ZM13 4.94796C13.9566 4.39566 15.1797 4.7234 15.732 5.67998L17.732 9.14398C18.2843 10.1006 17.9566 11.3237 17 11.876C16.0434 12.4283 14.8203 12.1006 14.268 11.144L12.268 7.68002C11.7157 6.72344 12.0434 5.50026 13 4.94796ZM35 4.94796C35.9566 5.50026 36.2843 6.72344 35.732 7.68002L33.732 11.144C33.1797 12.1006 31.9566 12.4283 31 11.876C30.0434 11.3237 29.7157 10.1006 30.268 9.14398L32.268 5.67998C32.8203 4.7234 34.0434 4.39566 35 4.94796ZM4.94796 13C5.50026 12.0434 6.72344 11.7157 7.68002 12.268L11.144 14.268C12.1006 14.8203 12.4283 16.0434 11.876 17C11.3237 17.9566 10.1006 18.2843 9.14398 17.732L5.67998 15.732C4.7234 15.1797 4.39566 13.9566 4.94796 13ZM43.052 13C43.6043 13.9566 43.2766 15.1797 42.32 15.732L38.856 17.732C37.8994 18.2843 36.6763 17.9566 36.124 17C35.5717 16.0434 35.8994 14.8203 36.856 14.268L40.32 12.268C41.2766 11.7157 42.4997 12.0434 43.052 13ZM2 24C2 22.8954 2.89543 22 4 22H8C9.10457 22 10 22.8954 10 24C10 25.1046 9.10457 26 8 26H4C2.89543 26 2 25.1046 2 24ZM38 24C38 22.8954 38.8954 22 40 22H44C45.1046 22 46 22.8954 46 24C46 25.1046 45.1046 26 44 26H40C38.8954 26 38 25.1046 38 24ZM11.876 31C12.4283 31.9566 12.1006 33.1797 11.144 33.732L7.68002 35.732C6.72344 36.2843 5.50026 35.9566 4.94796 35C4.39566 34.0434 4.7234 32.8203 5.67998 32.268L9.14398 30.268C10.1006 29.7157 11.3237 30.0434 11.876 31ZM36.124 31C36.6763 30.0434 37.8994 29.7157 38.856 30.268L42.32 32.268C43.2766 32.8203 43.6043 34.0434 43.052 35C42.4997 35.9566 41.2766 36.2843 40.32 35.732L36.856 33.732C35.8994 33.1797 35.5717 31.9566 36.124 31ZM17 36.124C17.9566 36.6763 18.2843 37.8994 17.732 38.856L15.732 42.32C15.1797 43.2766 13.9566 43.6043 13 43.052C12.0434 42.4997 11.7157 41.2766 12.268 40.32L14.268 36.856C14.8203 35.8994 16.0434 35.5717 17 36.124ZM31 36.124C31.9566 35.5717 33.1797 35.8994 33.732 36.856L35.732 40.32C36.2843 41.2766 35.9566 42.4997 35 43.052C34.0434 43.6043 32.8203 43.2766 32.268 42.32L30.268 38.856C29.7157 37.8994 30.0434 36.6763 31 36.124ZM24 38C25.1046 38 26 38.8954 26 40V44C26 45.1046 25.1046 46 24 46C22.8954 46 22 45.1046 22 44V40C22 38.8954 22.8954 38 24 38Z" fill="url(#paint0_linear_14_7738)"/>
</g>
<defs>
<linearGradient id="paint0_linear_14_7738" x1="2" y1="2" x2="46" y2="46" gradientUnits="userSpaceOnUse">
<stop stop-color="#5BE49B"/>
<stop offset="1" stop-color="#00A76F"/>
</linearGradient>
</defs>
</svg>
