<svg width="48" height="48" viewBox="0 0 48 48" fill="none" xmlns="http://www.w3.org/2000/svg">
<g id="icons/solid/ic-solar:eye-closed-bold" opacity="0.98">
<path id="primary-shape" fill-rule="evenodd" clip-rule="evenodd" d="M3.21197 12.16C3.45347 12.0566 3.71296 12.0018 3.97564 11.9987C4.23832 11.9956 4.49904 12.0443 4.7429 12.142C4.98675 12.2397 5.20898 12.3844 5.39687 12.568C5.58477 12.7516 5.73465 12.9704 5.83797 13.212L3.99997 14L5.83997 13.212L5.84597 13.228L5.88797 13.318C5.92797 13.402 5.98997 13.534 6.07597 13.706C6.24797 14.05 6.51397 14.554 6.87597 15.164C7.83013 16.7678 8.94957 18.2673 10.216 19.638C10.5954 20.0462 10.989 20.4412 11.396 20.822C14.36 23.6 18.502 26 24 26C26.2035 26.0097 28.3888 25.6012 30.44 24.796C32.894 23.83 34.948 22.376 36.632 20.8C38.8825 18.6614 40.7334 16.1385 42.098 13.35L42.152 13.234L42.162 13.212C42.3759 12.732 42.7701 12.3555 43.2595 12.1639C43.7488 11.9722 44.2938 11.9809 44.7768 12.188C45.2598 12.395 45.6419 12.7839 45.8405 13.2704C46.039 13.7569 46.0381 14.3021 45.838 14.788L45.834 14.798L45.826 14.814L45.804 14.866L45.724 15.04C45.2796 15.965 44.7848 16.865 44.242 17.736C43.2426 19.3421 42.097 20.8525 40.82 22.248L42.414 23.842C42.7893 24.217 43.0002 24.7257 43.0004 25.2563C43.0006 25.7868 42.79 26.2957 42.415 26.671C42.04 27.0462 41.5312 27.2572 41.0007 27.2574C40.4701 27.2576 39.9613 27.047 39.586 26.672L37.906 24.992C36.7251 25.9494 35.4545 26.7907 34.112 27.504L35.676 29.908C35.8235 30.128 35.9259 30.3752 35.9771 30.6351C36.0283 30.8951 36.0274 31.1626 35.9744 31.4222C35.9213 31.6817 35.8172 31.9282 35.6682 32.1472C35.5191 32.3662 35.328 32.5534 35.1059 32.698C34.8839 32.8425 34.6354 32.9415 34.3747 32.9892C34.1141 33.0368 33.8466 33.0323 33.5878 32.9757C33.329 32.9191 33.084 32.8117 32.867 32.6596C32.6501 32.5076 32.4655 32.3139 32.324 32.09L30.352 29.062C28.994 29.478 27.544 29.772 26 29.91V33C26 33.5304 25.7893 34.0391 25.4142 34.4142C25.0391 34.7892 24.5304 35 24 35C23.4695 35 22.9608 34.7892 22.5858 34.4142C22.2107 34.0391 22 33.5304 22 33V29.912C20.45 29.772 19 29.478 17.646 29.062L15.676 32.09C15.3802 32.5189 14.9286 32.8155 14.4175 32.9166C13.9063 33.0177 13.3759 32.9153 12.9391 32.6312C12.5022 32.3472 12.1935 31.9038 12.0787 31.3956C11.9638 30.8873 12.0518 30.3543 12.324 29.91L13.888 27.504C12.488 26.764 11.224 25.904 10.094 24.99L8.41397 26.67C8.03677 27.0343 7.53156 27.2359 7.00717 27.2313C6.48277 27.2268 5.98115 27.0164 5.61033 26.6456C5.23952 26.2748 5.02918 25.7732 5.02462 25.2488C5.02007 24.7244 5.22165 24.2192 5.58597 23.842L7.17997 22.248C5.76512 20.7003 4.51196 19.0122 3.43997 17.21C3.01176 16.4907 2.61733 15.7519 2.25797 14.996C2.23562 14.9481 2.21362 14.9001 2.19197 14.852L2.17197 14.81L2.16797 14.796L2.16597 14.792C2.15997 14.792 2.15997 14.788 3.99997 14L2.16197 14.79C2.05821 14.5485 2.00306 14.2889 1.99968 14.0261C1.9963 13.7633 2.04475 13.5024 2.14227 13.2583C2.23978 13.0143 2.38445 12.7918 2.568 12.6037C2.75155 12.4156 2.97037 12.2635 3.21197 12.16Z" fill="url(#paint0_linear_14_7846)"/>
</g>
<defs>
<linearGradient id="paint0_linear_14_7846" x1="1.99951" y1="11.9985" x2="20.8892" y2="48.1242" gradientUnits="userSpaceOnUse">
<stop stop-color="#5BE49B"/>
<stop offset="1" stop-color="#00A76F"/>
</linearGradient>
</defs>
</svg>
