<svg width="48" height="48" viewBox="0 0 48 48" fill="none" xmlns="http://www.w3.org/2000/svg">
<g id="icons/solid/ic-solar:microphone-bold" opacity="0.98">
<g id="primary-shape">
<path d="M24 4.00024C20.95 4.00024 18.0249 5.21185 15.8683 7.36852C13.7116 9.52518 12.5 12.4503 12.5 15.5002V21.5002C12.4995 24.4205 13.61 27.2315 15.6061 29.3629C17.6022 31.4944 20.3344 32.7867 23.2484 32.9775C26.1624 33.1684 29.0398 32.2435 31.2969 30.3906C33.5539 28.5377 35.0216 25.8956 35.402 23.0002H26C25.6022 23.0002 25.2206 22.8422 24.9393 22.5609C24.658 22.2796 24.5 21.8981 24.5 21.5002C24.5 21.1024 24.658 20.7209 24.9393 20.4396C25.2206 20.1583 25.6022 20.0002 26 20.0002H35.5V17.0002H26C25.6022 17.0002 25.2206 16.8422 24.9393 16.5609C24.658 16.2796 24.5 15.8981 24.5 15.5002C24.5 15.1024 24.658 14.7209 24.9393 14.4396C25.2206 14.1583 25.6022 14.0002 26 14.0002H35.402C35.0377 11.234 33.6802 8.69457 31.5826 6.85485C29.485 5.01514 26.7901 4.00061 24 4.00024Z" fill="url(#paint0_linear_14_7765)"/>
<path fill-rule="evenodd" clip-rule="evenodd" d="M8 18.0002C8.39782 18.0002 8.77936 18.1583 9.06066 18.4396C9.34196 18.7209 9.5 19.1024 9.5 19.5002V21.5002C9.5 23.4044 9.87505 25.2899 10.6037 27.0492C11.3324 28.8084 12.4005 30.4068 13.747 31.7533C15.0934 33.0997 16.6919 34.1678 18.4511 34.8965C20.2103 35.6252 22.0958 36.0002 24 36.0002C25.9042 36.0002 27.7897 35.6252 29.5489 34.8965C31.3081 34.1678 32.9066 33.0997 34.253 31.7533C35.5995 30.4068 36.6676 28.8084 37.3963 27.0492C38.1249 25.2899 38.5 23.4044 38.5 21.5002V19.5002C38.5 19.1024 38.658 18.7209 38.9393 18.4396C39.2206 18.1583 39.6022 18.0002 40 18.0002C40.3978 18.0002 40.7794 18.1583 41.0607 18.4396C41.342 18.7209 41.5 19.1024 41.5 19.5002V21.5002C41.5001 25.8819 39.8565 30.1042 36.8939 33.3327C33.9314 36.5611 29.8656 38.5607 25.5 38.9362V43.5002C25.5 43.8981 25.342 44.2796 25.0607 44.5609C24.7794 44.8422 24.3978 45.0002 24 45.0002C23.6022 45.0002 23.2206 44.8422 22.9393 44.5609C22.658 44.2796 22.5 43.8981 22.5 43.5002V38.9362C18.1344 38.5607 14.0686 36.5611 11.1061 33.3327C8.14354 30.1042 6.4999 25.8819 6.5 21.5002V19.5002C6.5 19.1024 6.65804 18.7209 6.93934 18.4396C7.22064 18.1583 7.60218 18.0002 8 18.0002Z" fill="url(#paint1_linear_14_7765)"/>
</g>
</g>
<defs>
<linearGradient id="paint0_linear_14_7765" x1="6.5" y1="4.00024" x2="46.9921" y2="38.5667" gradientUnits="userSpaceOnUse">
<stop stop-color="#5BE49B"/>
<stop offset="1" stop-color="#00A76F"/>
</linearGradient>
<linearGradient id="paint1_linear_14_7765" x1="6.5" y1="4.00024" x2="46.9921" y2="38.5667" gradientUnits="userSpaceOnUse">
<stop stop-color="#5BE49B"/>
<stop offset="1" stop-color="#00A76F"/>
</linearGradient>
</defs>
</svg>
