<svg width="48" height="48" viewBox="0 0 48 48" fill="none" xmlns="http://www.w3.org/2000/svg">
<g id="icons/solid/ic-solar:bell-bing-bold" opacity="0.98">
<g id="primary-shape">
<path d="M16.7039 40.484C17.5742 41.5845 18.6832 42.4728 19.9471 43.0819C21.211 43.691 22.5968 44.005 23.9999 44C25.4029 44.005 26.7887 43.691 28.0527 43.0819C29.3166 42.4728 30.4256 41.5845 31.2959 40.484C26.454 41.1403 21.5457 41.1403 16.7039 40.484Z" fill="url(#paint0_linear_14_7819)"/>
<path fill-rule="evenodd" clip-rule="evenodd" d="M37.4999 19.408V18C37.4999 10.268 31.4539 4 23.9999 4C16.5459 4 10.4999 10.268 10.4999 18V19.408C10.4999 21.098 10.0199 22.75 9.11588 24.156L6.89988 27.602C4.87788 30.75 6.42188 35.028 9.93988 36.022C19.1324 38.6259 28.8674 38.6259 38.0599 36.022C41.5779 35.028 43.1219 30.75 41.0999 27.602L38.8839 24.156C37.9768 22.7387 37.4978 21.0907 37.4999 19.408ZM23.9999 10.5C24.3977 10.5 24.7792 10.658 25.0605 10.9393C25.3418 11.2206 25.4999 11.6022 25.4999 12V20C25.4999 20.3978 25.3418 20.7794 25.0605 21.0607C24.7792 21.342 24.3977 21.5 23.9999 21.5C23.6021 21.5 23.2205 21.342 22.9392 21.0607C22.6579 20.7794 22.4999 20.3978 22.4999 20V12C22.4999 11.6022 22.6579 11.2206 22.9392 10.9393C23.2205 10.658 23.6021 10.5 23.9999 10.5Z" fill="url(#paint1_linear_14_7819)"/>
</g>
</g>
<defs>
<linearGradient id="paint0_linear_14_7819" x1="5.99976" y1="4" x2="45.7788" y2="39.8014" gradientUnits="userSpaceOnUse">
<stop stop-color="#5BE49B"/>
<stop offset="1" stop-color="#00A76F"/>
</linearGradient>
<linearGradient id="paint1_linear_14_7819" x1="5.99976" y1="4" x2="45.7788" y2="39.8014" gradientUnits="userSpaceOnUse">
<stop stop-color="#5BE49B"/>
<stop offset="1" stop-color="#00A76F"/>
</linearGradient>
</defs>
</svg>
