<svg width="48" height="48" viewBox="0 0 48 48" fill="none" xmlns="http://www.w3.org/2000/svg">
<g id="icons/solid/ic-solar:user-rounded-bold" opacity="0.98">
<g id="primary-shape">
<path d="M24 20C28.4183 20 32 16.4183 32 12C32 7.58172 28.4183 4 24 4C19.5817 4 16 7.58172 16 12C16 16.4183 19.5817 20 24 20Z" fill="url(#paint0_linear_14_7711)"/>
<path d="M24 42C31.732 42 38 38.4183 38 34C38 29.5817 31.732 26 24 26C16.268 26 10 29.5817 10 34C10 38.4183 16.268 42 24 42Z" fill="url(#paint1_linear_14_7711)"/>
</g>
</g>
<defs>
<linearGradient id="paint0_linear_14_7711" x1="10" y1="4" x2="46.2944" y2="30.7433" gradientUnits="userSpaceOnUse">
<stop stop-color="#5BE49B"/>
<stop offset="1" stop-color="#00A76F"/>
</linearGradient>
<linearGradient id="paint1_linear_14_7711" x1="10" y1="4" x2="46.2944" y2="30.7433" gradientUnits="userSpaceOnUse">
<stop stop-color="#5BE49B"/>
<stop offset="1" stop-color="#00A76F"/>
</linearGradient>
</defs>
</svg>
