<svg width="22" height="35" viewBox="0 0 22 35" fill="none" xmlns="http://www.w3.org/2000/svg">
<path d="M11.0002 26.5384C14.5205 26.5384 17.3843 23.7345 17.3843 20.2883V6.25008C17.3843 2.80352 14.5205 0 11.0002 0C7.47991 0 4.61642 2.80352 4.61642 6.25008V20.2887C4.61642 23.7349 7.47991 26.5384 11.0002 26.5384Z" fill="#212B36"/>
<path d="M21.2607 16.5521H19.9897C19.5814 16.5521 19.25 16.8765 19.25 17.2762V19.8212C19.25 24.2747 15.5489 27.8983 10.9998 27.8983C6.45071 27.8983 2.75032 24.2747 2.75032 19.8212V17.2762C2.75032 16.8765 2.41897 16.5521 2.01069 16.5521H0.739632C0.331355 16.5521 0 16.8765 0 17.2762V19.8212C0 25.1462 4.22811 29.8387 9.62484 30.5045V32.3076H3.94816C3.53988 32.3076 3.20853 32.6321 3.20853 33.0318V34.2759C3.20853 34.6756 3.53988 35 3.94816 35H18.0522C18.4605 35 18.7918 34.6756 18.7918 34.2759V33.0318C18.7918 32.6321 18.4605 32.3076 18.0522 32.3076H12.3752V30.5045C17.7723 29.839 22 25.1462 22 19.8212V17.2762C22.0004 16.8761 21.669 16.5521 21.2607 16.5521Z" fill="#212B36"/>
</svg>
