<svg width="142" height="180" viewBox="0 0 142 180" fill="none" xmlns="http://www.w3.org/2000/svg">
<g clip-path="url(#clip0_14_8750)">
<path d="M45.1296 100.522H38.1267V163.427H45.1296V100.522Z" fill="#CCCCCC"/>
<path d="M57.7121 0H25.5444C17.1306 0 10.3098 6.76592 10.3098 15.1121V80.088C10.3098 88.4341 17.1306 95.2001 25.5444 95.2001H57.7121C66.126 95.2001 72.9467 88.4341 72.9467 80.088V15.1121C72.9467 6.76592 66.126 0 57.7121 0Z" fill="#00A76F"/>
<path d="M72.7415 17.5859H57.8604V25.7614H72.7415V17.5859Z" fill="#CEC6AE"/>
<path d="M72.7415 43.5122H57.8604V51.6876H72.7415V43.5122Z" fill="#007C52"/>
<path d="M24.791 17.5859H9.90991V25.7614H24.791V17.5859Z" fill="#007C52"/>
<path d="M72.7415 69.4387H57.8604V77.6142H72.7415V69.4387Z" fill="#007C52"/>
<path d="M24.791 69.4387H9.90991V77.6142H24.791V69.4387Z" fill="#007C52"/>
<path d="M24.791 43.5122H9.90991V51.6876H24.791V43.5122Z" fill="#007C52"/>
<path d="M56.5093 89.8784H26.7471V100.522H56.5093V89.8784Z" fill="#007C52"/>
<path d="M62.6369 174.07H20.6196V168.118C20.6196 166.481 21.2749 164.912 22.4414 163.755C23.6079 162.598 25.19 161.948 26.8396 161.948H56.4169C58.0665 161.948 59.6486 162.598 60.8151 163.755C61.9816 164.912 62.6369 166.481 62.6369 168.118V174.07Z" fill="#7A94CA"/>
<path d="M83.2565 174.07H0V180H83.2565V174.07Z" fill="#C7C7C7"/>
<path d="M142 15.2957H51.29V44.5541H142V15.2957Z" fill="#FFD96E"/>
<path d="M103.591 36.8151C107.427 33.0097 107.427 26.8399 103.591 23.0345C99.7549 19.2291 93.5351 19.2291 89.6988 23.0345C85.8626 26.8399 85.8626 33.0097 89.6988 36.8151C93.5351 40.6205 99.7549 40.6205 103.591 36.8151Z" fill="#007C52"/>
<path d="M92.1982 34.3358V25.5137L101.092 29.9247L92.1982 34.3358Z" fill="#CCCCCC"/>
<path d="M114.257 34.3358V25.5137L120.509 29.9247L114.257 34.3358Z" fill="#7A94CA"/>
<path d="M126.88 34.3358V25.5137L133.132 29.9247L126.88 34.3358Z" fill="#7A94CA"/>
<path d="M79.0332 34.3358V25.5137L72.7808 29.9247L79.0332 34.3358Z" fill="#7A94CA"/>
<path d="M66.4102 34.3358V25.5137L60.1577 29.9247L66.4102 34.3358Z" fill="#7A94CA"/>
</g>
<defs>
<clipPath id="clip0_14_8750">
<rect width="142" height="180" fill="white"/>
</clipPath>
</defs>
</svg>
