<svg width="36" height="36" viewBox="0 0 36 36" fill="none" xmlns="http://www.w3.org/2000/svg">
<path d="M24.4287 20.8685V16.144L14.3899 26.1836C15.42 26.8856 16.6631 27.2968 18.0005 27.2968C21.5451 27.2968 24.4287 24.4132 24.4287 20.8685Z" fill="#61F3F3"/>
<path d="M28.3327 17.0249H27.0523C26.6412 17.0249 26.3075 17.3586 26.3075 17.7697V20.3874C26.3075 24.9682 22.5807 28.6953 17.9996 28.6953C16.2664 28.6953 14.6557 28.1609 13.3225 27.2496L11.3691 29.2029C12.8726 30.3514 14.6673 31.1309 16.615 31.376V33.2306H10.8984C10.4872 33.2306 10.1536 33.5643 10.1536 33.9754V35.2551C10.1536 35.6662 10.4872 35.9999 10.8984 35.9999H25.1016C25.5128 35.9999 25.8464 35.6662 25.8464 35.2551V33.9754C25.8464 33.5643 25.5128 33.2306 25.1016 33.2306H19.3846V31.376C24.8197 30.6915 29.0772 25.8646 29.0772 20.3874V17.7697C29.0775 17.3582 28.7438 17.0249 28.3327 17.0249Z" fill="#61F3F3"/>
<path d="M32.0174 2.86537C31.2182 2.06579 29.9203 2.06579 29.1211 2.86537L24.4287 7.55782V6.42865C24.4287 2.88362 21.5451 0 18 0C14.455 0 11.5714 2.88362 11.5714 6.42865V20.4144L9.87615 22.1096C9.75809 21.5536 9.69217 20.9782 9.69217 20.3876V17.7698C9.69217 17.3587 9.35849 17.025 8.94734 17.025H7.66735C7.2562 17.025 6.92251 17.3587 6.92251 17.7698V20.3876C6.92251 21.7543 7.19289 23.079 7.67554 24.3102L3.98229 28.0031C3.18234 28.8031 3.18234 30.1002 3.98229 30.9001C4.38189 31.2997 4.90625 31.4997 5.43061 31.4997C5.95498 31.4997 6.47897 31.2997 6.87894 30.9001L32.017 5.76203C32.8177 4.96208 32.8177 3.66532 32.0174 2.86537Z" fill="#61F3F3"/>
</svg>
