<svg width="63" height="64" viewBox="0 0 63 64" fill="none" xmlns="http://www.w3.org/2000/svg">
<g clip-path="url(#clip0_202_7544)">
<path d="M14.39 38.2854C17.894 37.789 20.7441 36.6629 20.7778 33.1514L20.7854 31.0435C20.7969 29.5066 18.6919 24.7745 31.4081 24.8624C44.1141 24.9436 41.9513 29.654 41.9321 31.1865L41.92 33.302C41.8995 36.8066 44.7328 37.9748 48.2309 38.5177L50.3468 38.8497C53.8454 39.3815 56.6903 39.11 56.718 35.6026L56.7263 33.7015C56.8607 32.2589 56.9452 27.97 53.5186 23.891C49.4091 18.9946 41.9863 16.4697 31.4623 16.3988C20.9413 16.3191 13.482 18.746 9.30405 23.5907C5.83153 27.6166 5.84843 31.9116 5.96245 33.3507L5.95201 35.2569C5.92753 38.758 8.76744 39.0727 12.2765 38.5785L14.39 38.2854Z" fill="#61F3F3"/>
</g>
<defs>
<clipPath id="clip0_202_7544">
<rect width="44.5201" height="44.5201" fill="white" transform="translate(63 30) rotate(131.397)"/>
</clipPath>
</defs>
</svg>
