<svg width="36" height="36" viewBox="0 0 36 36" fill="none" xmlns="http://www.w3.org/2000/svg">
<g clip-path="url(#clip0_202_7549)">
<path d="M35.6772 9.21842C35.3874 9.02225 35.0192 8.98259 34.6942 9.11253L26.9531 12.2089V23.7903L34.6942 26.8867C34.8207 26.9372 34.9536 26.9621 35.0859 26.9621C35.2937 26.9621 35.5002 26.9007 35.6772 26.7808C35.967 26.5846 36.1406 26.2575 36.1406 25.9074V10.0918C36.1406 9.74182 35.967 9.41466 35.6772 9.21842Z" fill="#61F3F3"/>
<path d="M21.3891 29.2216H3.31411C1.48676 29.2216 0 27.7349 0 25.9075V10.0919C0 8.26452 1.48676 6.77783 3.31411 6.77783H21.3891C23.2164 6.77783 24.7031 8.26452 24.7031 10.0919V25.9075C24.7031 27.7349 23.2164 29.2216 21.3891 29.2216Z" fill="#61F3F3"/>
</g>
<defs>
<clipPath id="clip0_202_7549">
<rect width="36" height="36" fill="white"/>
</clipPath>
</defs>
</svg>
