<svg width="611" height="87" viewBox="0 0 611 87" fill="none" xmlns="http://www.w3.org/2000/svg">
<g clip-path="url(#clip0_1_110)">
<path d="M149.46 55.48C151.32 56.74 152.86 58.38 154.09 60.42C155.32 62.46 155.93 64.93 155.93 67.83C155.93 70.79 155.29 73.37 154 75.56C152.71 77.75 151.04 79.54 148.97 80.95C146.96 82.33 144.69 83.38 142.17 84.09C139.64 84.81 137.03 85.17 134.33 85.17H104.14V81.98C104.86 81.92 105.91 81.79 107.28 81.6C108.66 81.41 109.65 81.17 110.24 80.9C111.17 80.48 111.83 79.92 112.22 79.22C112.61 78.52 112.8 77.61 112.8 76.5V30.69C112.8 29.67 112.63 28.77 112.28 27.99C111.94 27.21 111.25 26.58 110.24 26.1C109.34 25.65 108.34 25.31 107.23 25.07C106.12 24.83 105.19 24.68 104.44 24.62V21.43H133.86C136.14 21.43 138.31 21.65 140.4 22.1C142.48 22.55 144.47 23.34 146.35 24.48C148.12 25.53 149.57 26.95 150.71 28.75C151.85 30.55 152.42 32.73 152.42 35.31C152.42 37.56 152.02 39.56 151.21 41.31C150.4 43.06 149.26 44.57 147.8 45.82C146.42 47.02 144.84 48.03 143.06 48.85C141.28 49.67 139.35 50.31 137.29 50.76V51.16C139.12 51.37 141.16 51.83 143.42 52.53C145.68 53.24 147.69 54.22 149.46 55.48ZM138.6 45.86C139.71 44.57 140.47 43.16 140.91 41.63C141.34 40.1 141.56 38.28 141.56 36.18C141.56 32.67 140.6 29.92 138.69 27.92C136.78 25.93 133.76 24.93 129.64 24.93C128.68 24.93 127.48 24.95 126.03 25C124.58 25.04 123.36 25.08 122.38 25.11V49.64H128.07C130.52 49.64 132.62 49.33 134.37 48.7C136.11 48.07 137.52 47.12 138.6 45.86ZM144.83 66.22C144.83 62.45 143.56 59.35 141.03 56.92C138.5 54.49 134.88 53.28 130.18 53.28C128.26 53.28 126.65 53.3 125.33 53.35C124.01 53.39 123.02 53.43 122.37 53.46V75.92C122.37 77.81 123.13 79.23 124.66 80.19C126.19 81.15 128.31 81.63 131.04 81.63C135.5 81.63 138.92 80.33 141.28 77.72C143.65 75.11 144.83 71.28 144.83 66.22Z" fill="white"/>
<path d="M202.6 74.75C200.74 78.28 198.26 81.1 195.14 83.2C192.03 85.3 188.45 86.34 184.4 86.34C180.84 86.34 177.71 85.71 175.03 84.45C172.35 83.19 170.14 81.49 168.4 79.33C166.66 77.17 165.37 74.66 164.51 71.78C163.66 68.9 163.23 65.87 163.23 62.66C163.23 59.79 163.69 56.96 164.6 54.19C165.51 51.42 166.85 48.93 168.62 46.71C170.33 44.58 172.45 42.87 174.98 41.57C177.51 40.27 180.35 39.62 183.49 39.62C186.72 39.62 189.49 40.13 191.8 41.15C194.11 42.17 195.98 43.56 197.42 45.33C198.8 47.01 199.82 48.98 200.5 51.26C201.17 53.54 201.51 56.01 201.51 58.67V61.63H172.18C172.18 64.54 172.46 67.18 173.01 69.55C173.56 71.92 174.44 74.01 175.64 75.81C176.81 77.55 178.34 78.92 180.22 79.93C182.11 80.94 184.35 81.44 186.96 81.44C189.63 81.44 191.92 80.82 193.86 79.57C195.79 78.32 197.66 76.07 199.45 72.82L202.6 74.75ZM192.68 57.86C192.68 56.19 192.54 54.4 192.25 52.49C191.96 50.58 191.51 48.98 190.88 47.7C190.19 46.33 189.25 45.21 188.05 44.34C186.85 43.47 185.31 43.04 183.42 43.04C180.28 43.04 177.66 44.35 175.58 46.96C173.5 49.57 172.37 53.21 172.19 57.87H192.68V57.86Z" fill="white"/>
<path d="M241.64 46.59C241.64 48.12 241.27 49.47 240.52 50.66C239.77 51.84 238.62 52.43 237.06 52.43C235.38 52.43 234.1 52 233.22 51.13C232.34 50.26 231.89 49.3 231.89 48.26C231.89 47.6 231.94 47 232.05 46.46C232.15 45.92 232.25 45.38 232.34 44.84C230.93 44.84 229.29 45.41 227.4 46.55C225.51 47.69 223.91 49.31 222.59 51.4V77.19C222.59 78.24 222.79 79.09 223.2 79.75C223.61 80.41 224.24 80.9 225.11 81.23C225.86 81.53 226.82 81.75 228.01 81.9C229.19 82.05 230.22 82.15 231.09 82.21V85.17H207.73V82.21C208.42 82.15 209.13 82.09 209.86 82.03C210.59 81.97 211.23 81.85 211.77 81.67C212.61 81.4 213.23 80.93 213.63 80.26C214.03 79.59 214.24 78.71 214.24 77.63V50.31C214.24 49.38 214.02 48.47 213.59 47.57C213.16 46.67 212.55 45.95 211.77 45.42C211.2 45.06 210.53 44.8 209.75 44.64C208.97 44.48 208.13 44.36 207.23 44.3V41.34L221.96 40.35L222.59 40.98V47.22H222.81C224.67 44.79 226.73 42.95 229.01 41.69C231.29 40.43 233.37 39.8 235.25 39.8C237.13 39.8 238.67 40.41 239.86 41.64C241.05 42.88 241.64 44.52 241.64 46.59Z" fill="white"/>
<path d="M279.33 46.59C279.33 48.12 278.96 49.47 278.21 50.66C277.46 51.84 276.31 52.43 274.75 52.43C273.07 52.43 271.79 52 270.91 51.13C270.03 50.26 269.58 49.3 269.58 48.26C269.58 47.6 269.63 47 269.74 46.46C269.84 45.92 269.94 45.38 270.03 44.84C268.62 44.84 266.98 45.41 265.09 46.55C263.2 47.69 261.6 49.31 260.28 51.4V77.19C260.28 78.24 260.48 79.09 260.89 79.75C261.3 80.41 261.93 80.9 262.8 81.23C263.55 81.53 264.51 81.75 265.7 81.9C266.88 82.05 267.91 82.15 268.78 82.21V85.17H245.42V82.21C246.11 82.15 246.82 82.09 247.55 82.03C248.28 81.97 248.92 81.85 249.46 81.67C250.3 81.4 250.92 80.93 251.32 80.26C251.72 79.59 251.93 78.71 251.93 77.63V50.31C251.93 49.38 251.71 48.47 251.28 47.57C250.85 46.67 250.24 45.95 249.46 45.42C248.89 45.06 248.22 44.8 247.44 44.64C246.66 44.48 245.82 44.36 244.92 44.3V41.34L259.65 40.35L260.28 40.98V47.22H260.5C262.36 44.79 264.42 42.95 266.7 41.69C268.98 40.43 271.06 39.8 272.94 39.8C274.82 39.8 276.36 40.41 277.55 41.64C278.74 42.88 279.33 44.52 279.33 46.59Z" fill="white"/>
<path d="M304.58 85.18H283.2V82.22C283.89 82.16 284.6 82.1 285.33 82.04C286.06 81.98 286.7 81.86 287.24 81.68C288.08 81.41 288.7 80.94 289.1 80.27C289.5 79.6 289.71 78.72 289.71 77.64V50.31C289.71 49.35 289.49 48.48 289.06 47.68C288.63 46.89 288.02 46.22 287.24 45.68C286.67 45.32 285.85 45.01 284.77 44.76C283.69 44.51 282.7 44.35 281.81 44.29V41.33L297.44 40.34L298.07 40.97V77.09C298.07 78.14 298.27 79.01 298.67 79.7C299.07 80.39 299.7 80.9 300.57 81.23C301.22 81.5 301.86 81.72 302.49 81.88C303.11 82.04 303.81 82.16 304.59 82.22V85.18H304.58ZM298.96 22.87C298.96 24.58 298.4 26.07 297.28 27.34C296.16 28.61 294.77 29.25 293.12 29.25C291.59 29.25 290.27 28.64 289.14 27.43C288.02 26.22 287.46 24.83 287.46 23.27C287.46 21.62 288.02 20.19 289.14 18.96C290.26 17.73 291.59 17.12 293.12 17.12C294.83 17.12 296.23 17.7 297.32 18.85C298.41 20 298.96 21.34 298.96 22.87Z" fill="white"/>
<path d="M360.01 37.15C360.01 40.47 359.36 43.42 358.06 45.98C356.76 48.54 354.95 50.66 352.65 52.34C350.37 54.02 347.87 55.24 345.15 56.02C342.42 56.8 339.53 57.19 336.48 57.19H329.34V76.51C329.34 77.56 329.51 78.48 329.86 79.27C330.2 80.06 330.92 80.67 331.99 81.09C332.53 81.3 333.48 81.49 334.84 81.67C336.2 81.85 337.45 81.96 338.59 81.98V85.17H311.23V81.98C311.95 81.92 312.99 81.82 314.35 81.67C315.71 81.52 316.66 81.33 317.2 81.09C318.1 80.7 318.75 80.13 319.15 79.38C319.56 78.63 319.76 77.67 319.76 76.5V30.5C319.76 29.45 319.61 28.51 319.31 27.67C319.01 26.83 318.31 26.2 317.2 25.78C316.06 25.39 314.93 25.11 313.81 24.95C312.69 24.79 311.72 24.67 310.91 24.61V21.42H340.02C345.95 21.42 350.76 22.85 354.46 25.71C358.16 28.58 360.01 32.39 360.01 37.15ZM346.35 48.03C347.37 46.59 348.04 45.1 348.37 43.56C348.7 42.02 348.86 40.63 348.86 39.4C348.86 37.69 348.66 35.96 348.25 34.19C347.85 32.42 347.15 30.88 346.16 29.56C345.11 28.15 343.73 27.06 342.03 26.28C340.32 25.5 338.2 25.11 335.65 25.11H329.32V53.28H333.9C337.13 53.28 339.76 52.78 341.78 51.78C343.82 50.77 345.34 49.52 346.35 48.03Z" fill="white"/>
<path d="M400.08 46.59C400.08 48.12 399.71 49.47 398.96 50.66C398.21 51.84 397.06 52.43 395.5 52.43C393.82 52.43 392.54 52 391.66 51.13C390.78 50.26 390.33 49.3 390.33 48.26C390.33 47.6 390.38 47 390.49 46.46C390.59 45.92 390.69 45.38 390.78 44.84C389.37 44.84 387.73 45.41 385.84 46.55C383.95 47.69 382.35 49.31 381.03 51.4V77.19C381.03 78.24 381.23 79.09 381.64 79.75C382.05 80.41 382.68 80.9 383.55 81.23C384.3 81.53 385.26 81.75 386.45 81.9C387.63 82.05 388.66 82.15 389.53 82.21V85.17H366.17V82.21C366.86 82.15 367.57 82.09 368.3 82.03C369.03 81.97 369.67 81.85 370.21 81.67C371.05 81.4 371.67 80.93 372.07 80.26C372.47 79.59 372.68 78.71 372.68 77.63V50.31C372.68 49.38 372.46 48.47 372.03 47.57C371.6 46.67 370.99 45.95 370.21 45.42C369.64 45.06 368.97 44.8 368.19 44.64C367.41 44.48 366.57 44.36 365.67 44.3V41.34L380.4 40.35L381.03 40.98V47.22H381.25C383.11 44.79 385.17 42.95 387.45 41.69C389.73 40.43 391.81 39.8 393.69 39.8C395.57 39.8 397.11 40.41 398.3 41.64C399.49 42.88 400.08 44.52 400.08 46.59Z" fill="white"/>
<path d="M447.07 62.58C447.07 65.7 446.57 68.76 445.59 71.77C444.6 74.78 443.19 77.33 441.36 79.43C439.29 81.83 436.89 83.61 434.16 84.78C431.43 85.95 428.37 86.53 424.99 86.53C422.17 86.53 419.49 86 416.94 84.94C414.39 83.88 412.13 82.33 410.15 80.29C408.2 78.28 406.65 75.84 405.5 72.95C404.35 70.06 403.77 66.82 403.77 63.22C403.77 56.3 405.79 50.64 409.82 46.24C413.85 41.84 419.14 39.64 425.67 39.64C431.87 39.64 436.99 41.73 441.03 45.91C445.07 50.09 447.07 55.63 447.07 62.58ZM437.77 62.67C437.77 60.42 437.54 58.05 437.09 55.55C436.64 53.05 435.96 50.93 435.06 49.19C434.1 47.33 432.84 45.84 431.28 44.72C429.72 43.6 427.82 43.04 425.57 43.04C423.26 43.04 421.29 43.61 419.65 44.75C418.02 45.89 416.69 47.45 415.67 49.42C414.71 51.25 414.03 53.33 413.64 55.66C413.25 58 413.05 60.26 413.05 62.44C413.05 65.32 413.28 67.97 413.75 70.41C414.21 72.85 414.96 75.03 415.98 76.95C417 78.87 418.28 80.37 419.83 81.46C421.38 82.55 423.29 83.1 425.57 83.1C429.32 83.1 432.29 81.29 434.48 77.66C436.67 74.05 437.77 69.05 437.77 62.67Z" fill="white"/>
<path d="M473.93 86.34C467.52 86.34 462.5 84.21 458.88 79.96C455.26 75.71 453.44 70 453.44 62.84C453.44 59.73 453.93 56.81 454.9 54.1C455.87 51.39 457.29 48.93 459.15 46.71C460.92 44.58 463.13 42.87 465.8 41.57C468.47 40.27 471.37 39.62 474.51 39.62C478.85 39.62 482.39 40.66 485.11 42.74C487.84 44.82 489.2 47.66 489.2 51.25C489.2 52.75 488.84 54.07 488.12 55.23C487.4 56.38 486.22 56.96 484.57 56.96C482.8 56.96 481.43 56.51 480.46 55.62C479.49 54.72 479 53.73 479 52.62C479 51.28 479.18 49.9 479.54 48.48C479.9 47.06 480.11 46.02 480.17 45.37C479.63 44.44 478.83 43.83 477.77 43.51C476.71 43.2 475.57 43.04 474.34 43.04C472.91 43.04 471.54 43.35 470.24 43.96C468.94 44.57 467.68 45.71 466.45 47.35C465.34 48.85 464.45 50.87 463.76 53.41C463.07 55.96 462.73 59 462.73 62.53C462.73 68.1 463.96 72.64 466.43 76.16C468.9 79.68 472.13 81.44 476.14 81.44C479.04 81.44 481.47 80.73 483.43 79.32C485.39 77.9 487.2 75.78 488.88 72.95L491.75 74.84C489.77 78.37 487.17 81.17 483.93 83.24C480.72 85.31 477.38 86.34 473.93 86.34Z" fill="white"/>
<path d="M522.58 83.24C520.63 84.05 518.79 84.73 517.05 85.28C515.31 85.83 513.19 86.11 510.67 86.11C506.96 86.11 504.34 85.17 502.83 83.3C501.32 81.43 500.56 78.79 500.56 75.37V45.38H492.56V41.07H500.74V27.27H508.92V41.06H521.63V45.37H509.01V70.12C509.01 71.98 509.08 73.53 509.21 74.77C509.34 76.01 509.67 77.1 510.18 78.03C510.66 78.9 511.38 79.56 512.34 80.01C513.3 80.46 514.59 80.68 516.2 80.68C516.95 80.68 518.05 80.61 519.5 80.48C520.95 80.35 521.98 80.17 522.58 79.96V83.24Z" fill="white"/>
<path d="M570.2 62.58C570.2 65.7 569.7 68.76 568.72 71.77C567.73 74.78 566.32 77.33 564.49 79.43C562.42 81.83 560.02 83.61 557.29 84.78C554.56 85.95 551.5 86.53 548.12 86.53C545.3 86.53 542.62 86 540.07 84.94C537.52 83.88 535.26 82.33 533.28 80.29C531.33 78.28 529.78 75.84 528.63 72.95C527.48 70.06 526.9 66.82 526.9 63.22C526.9 56.3 528.92 50.64 532.95 46.24C536.98 41.84 542.27 39.64 548.8 39.64C555 39.64 560.12 41.73 564.16 45.91C568.18 50.07 570.2 55.63 570.2 62.58ZM560.9 62.67C560.9 60.42 560.67 58.05 560.22 55.55C559.77 53.05 559.09 50.93 558.19 49.19C557.23 47.33 555.97 45.84 554.41 44.72C552.85 43.6 550.95 43.04 548.7 43.04C546.39 43.04 544.42 43.61 542.78 44.75C541.15 45.89 539.82 47.45 538.8 49.42C537.84 51.25 537.16 53.33 536.77 55.66C536.38 58 536.18 60.26 536.18 62.44C536.18 65.32 536.41 67.97 536.88 70.41C537.34 72.85 538.09 75.03 539.11 76.95C540.13 78.87 541.41 80.37 542.96 81.46C544.51 82.55 546.42 83.1 548.7 83.1C552.45 83.1 555.42 81.29 557.61 77.66C559.8 74.05 560.9 69.05 560.9 62.67Z" fill="white"/>
<path d="M610.49 46.59C610.49 48.12 610.12 49.47 609.37 50.66C608.62 51.84 607.47 52.43 605.91 52.43C604.23 52.43 602.95 52 602.07 51.13C601.19 50.26 600.74 49.3 600.74 48.26C600.74 47.6 600.79 47 600.9 46.46C601 45.92 601.1 45.38 601.19 44.84C599.78 44.84 598.14 45.41 596.25 46.55C594.36 47.69 592.76 49.31 591.44 51.4V77.19C591.44 78.24 591.64 79.09 592.05 79.75C592.46 80.41 593.09 80.9 593.96 81.23C594.71 81.53 595.67 81.75 596.86 81.9C598.04 82.05 599.07 82.15 599.94 82.21V85.17H576.58V82.21C577.27 82.15 577.98 82.09 578.71 82.03C579.44 81.97 580.08 81.85 580.62 81.67C581.46 81.4 582.08 80.93 582.48 80.26C582.88 79.59 583.09 78.71 583.09 77.63V50.31C583.09 49.38 582.87 48.47 582.44 47.57C582.01 46.67 581.4 45.95 580.62 45.42C580.05 45.06 579.38 44.8 578.6 44.64C577.82 44.48 576.98 44.36 576.08 44.3V41.34L590.81 40.35L591.44 40.98V47.22H591.66C593.52 44.79 595.58 42.95 597.86 41.69C600.14 40.43 602.22 39.8 604.1 39.8C605.98 39.8 607.52 40.41 608.71 41.64C609.9 42.88 610.49 44.52 610.49 46.59Z" fill="white"/>
<path opacity="0.3" d="M40.21 84.57C62.4174 84.57 80.42 66.5673 80.42 44.36C80.42 22.1526 62.4174 4.14996 40.21 4.14996C18.0026 4.14996 0 22.1526 0 44.36C0 66.5673 18.0026 84.57 40.21 84.57Z" fill="#E6E6E6"/>
<path fill-rule="evenodd" clip-rule="evenodd" d="M46.96 32.62L37.87 41.87C33.05 36.96 26.77 33.67 20.02 32.46C13.19 31.25 6.19 32.14 0 35.11C1.37 27.23 4.91 19.83 10.21 13.88C15.51 7.92998 22.44 3.66998 30.08 1.49998C37.8 -0.590021 45.92 -0.510021 53.48 1.81998C61.12 4.14998 67.95 8.56998 73.1 14.61C78.33 20.64 81.7 28.12 82.83 36C84.04 43.96 82.91 52 79.69 59.32C76.47 66.64 71.25 72.91 64.65 77.33C58.06 81.75 50.34 84.25 42.38 84.41C46.32 78.22 48.17 70.9 47.69 63.58C47.21 56.26 44.39 49.27 39.65 43.64L48.58 34.55C50.11 35.92 52.04 36.64 54.05 36.64C55.9 36.64 57.59 36.08 59.04 34.95C60.49 33.82 61.53 32.3 62.02 30.53C62.5 29 62.42 27.07 61.7 25.38C61.06 23.69 59.77 22.24 58.24 21.36C56.71 20.48 54.86 20.07 53.09 20.31C51.32 20.55 49.63 21.36 48.35 22.64C47.07 23.92 46.26 25.62 45.94 27.38C45.68 29.24 46 31.01 46.96 32.62Z" fill="white"/>
<path d="M12.22 54.2499C15.92 54.2499 18.89 51.1899 18.89 47.4099C18.89 43.6299 15.91 40.5699 12.22 40.5699C8.52997 40.5699 5.46997 43.7099 5.46997 47.4899C5.46997 51.1999 8.51997 54.2499 12.22 54.2499Z" fill="white"/>
<path d="M30.56 75.8C34.26 75.8 37.23 72.74 37.23 68.96C37.23 65.18 34.25 62.12 30.56 62.12C26.87 62.12 23.89 65.18 23.89 68.96C23.88 72.75 26.86 75.8 30.56 75.8Z" fill="white"/>
</g>
<defs>
<clipPath id="clip0_1_110">
<rect width="610.49" height="86.52" fill="white"/>
</clipPath>
</defs>
</svg>
