<svg width="352" height="34" viewBox="0 0 352 34" fill="none" xmlns="http://www.w3.org/2000/svg">
<g clip-path="url(#clip0_21_2910)">
<path fill-rule="evenodd" clip-rule="evenodd" d="M10.907 16.1064L8.80128 18.3395C7.67148 17.1701 6.21979 16.3901 4.64485 16.1064C3.06737 15.8237 1.44387 16.0579 0.00146484 16.7762C0.309955 14.8836 1.13403 13.1212 2.37703 11.6958C3.58538 10.2324 5.18046 9.16527 6.9667 8.62532C8.73499 8.1129 10.6079 8.13229 12.3659 8.68119C14.133 9.22993 15.7085 10.2964 16.9015 11.7517C18.1041 13.2128 18.8893 14.9913 19.1693 16.8879C19.4275 18.7804 19.1844 20.7099 18.466 22.4708C17.716 24.2198 16.4983 25.7109 14.9563 26.7684C13.4203 27.8378 11.6238 28.4377 9.77293 28.499C10.6858 27.0149 11.12 25.2698 11.0132 23.5145C10.9064 21.7591 10.2641 20.084 9.17856 18.7299L11.2302 16.5527C11.5668 16.8782 12.0112 17.0581 12.4721 17.0552C12.8988 17.0633 13.3162 16.9259 13.6598 16.6641C14.0157 16.4155 14.2671 16.0364 14.3632 15.6036C14.4818 15.1811 14.4628 14.7299 14.3092 14.3196C14.1476 13.9197 13.8629 13.5861 13.4993 13.3705C13.143 13.1469 12.7261 13.0488 12.3112 13.0912C11.8982 13.1373 11.515 13.3355 11.2315 13.6495C10.9374 13.95 10.7475 14.3426 10.6915 14.7662C10.5943 15.225 10.6717 15.7048 10.9076 16.1061L10.907 16.1064Z" fill="white"/>
<path d="M2.80739 21.2982C3.11724 21.2982 3.42014 21.2032 3.67777 21.0252C3.93541 20.8472 4.1362 20.5942 4.25478 20.2982C4.37336 20.0022 4.40439 19.6765 4.34394 19.3623C4.28349 19.0481 4.13427 18.7595 3.91517 18.5329C3.69607 18.3064 3.41693 18.1521 3.11302 18.0896C2.80912 18.0271 2.49411 18.0592 2.20784 18.1818C1.92157 18.3044 1.6769 18.512 1.50475 18.7784C1.33261 19.0448 1.24072 19.358 1.24072 19.6783C1.24985 20.105 1.41783 20.5115 1.70968 20.8133C2.00153 21.1151 2.39475 21.2888 2.80739 21.2982Z" fill="white"/>
<path d="M7.07301 26.4903C7.38287 26.4903 7.68576 26.3953 7.9434 26.2173C8.20103 26.0393 8.40183 25.7864 8.5204 25.4904C8.63898 25.1944 8.67002 24.8687 8.60957 24.5545C8.54912 24.2402 8.39989 23.9516 8.18079 23.7251C7.96169 23.4985 7.68255 23.3442 7.37865 23.2817C7.07475 23.2192 6.75974 23.2513 6.47347 23.3739C6.1872 23.4965 5.94253 23.7041 5.77038 23.9705C5.59823 24.2369 5.50635 24.5501 5.50635 24.8705C5.51555 25.2971 5.68356 25.7036 5.9754 26.0054C6.26723 26.3071 6.6604 26.4808 7.07301 26.4903Z" fill="white"/>
<path d="M35.3711 21.1598C35.8036 21.4653 36.1659 21.8654 36.4323 22.3317C36.7268 22.8663 36.873 23.4745 36.8547 24.0894C36.8699 24.7304 36.7169 25.3636 36.4119 25.9218C36.1243 26.4318 35.7299 26.8688 35.2576 27.2005C34.7802 27.5355 34.2529 27.7873 33.6967 27.946C33.1118 28.1172 32.5066 28.2033 31.8986 28.2019H24.9746V27.4455C25.1396 27.4312 25.38 27.4009 25.6959 27.3546C25.9285 27.3298 26.1571 27.2743 26.376 27.1893C26.5653 27.111 26.7246 26.9706 26.8293 26.7896C26.9259 26.59 26.972 26.3683 26.9633 26.1453V15.279C26.9674 15.0597 26.927 14.8419 26.8447 14.6397C26.7466 14.4363 26.5798 14.2772 26.376 14.1924C26.1567 14.0812 25.9248 13.9989 25.6857 13.9474C25.475 13.8976 25.2614 13.862 25.0462 13.8407V13.0843H31.7956C32.2995 13.0823 32.802 13.1359 33.2948 13.2443C33.7771 13.3527 34.2385 13.5435 34.6601 13.8089C35.0667 14.0587 35.4095 14.4057 35.6595 14.8208C35.9317 15.2897 36.0676 15.8297 36.0512 16.3762C36.0598 16.8654 35.9648 17.3506 35.7727 17.7977C35.5903 18.2094 35.3231 18.5748 34.9897 18.8685C34.6622 19.1602 34.2961 19.4023 33.9026 19.5875C33.4786 19.7883 33.0345 19.9402 32.5783 20.0404V20.1363C33.0559 20.1996 33.5269 20.3084 33.9851 20.4613C34.4801 20.6165 34.9479 20.8523 35.3711 21.1598ZM32.8792 18.8787C33.1243 18.5882 33.305 18.2458 33.4087 17.8754C33.5151 17.4539 33.5652 17.0194 33.5577 16.5838C33.5975 15.8667 33.3609 15.1624 32.8997 14.6251C32.461 14.1524 31.7689 13.9159 30.8234 13.9157C30.6036 13.9157 30.3277 13.921 29.9956 13.9316L29.1579 13.9583V19.7766H30.4633C30.9537 19.7882 31.4424 19.7124 31.9079 19.5525C32.2835 19.4203 32.6186 19.1881 32.8792 18.8787ZM34.3097 23.7053C34.3224 23.2951 34.2515 22.8867 34.1015 22.5067C33.9515 22.1268 33.7258 21.7837 33.439 21.4999C32.8584 20.9247 32.0289 20.6371 30.9506 20.6371C30.5111 20.6371 30.1402 20.6424 29.838 20.653C29.5357 20.6636 29.309 20.6725 29.1579 20.6798V26.0065C29.1488 26.2086 29.1928 26.4095 29.2854 26.5877C29.378 26.766 29.5156 26.9149 29.6835 27.0187C30.1313 27.2703 30.6378 27.3883 31.1466 27.3595C32.1697 27.3595 32.9527 27.051 33.4956 26.4339C34.0385 25.8168 34.3095 24.9075 34.3087 23.7059L34.3097 23.7053Z" fill="white"/>
<path d="M47.5603 25.7301C47.162 26.5358 46.5737 27.2247 45.8498 27.7331C45.1215 28.2345 44.2627 28.4947 43.3879 28.4789C42.6485 28.4956 41.9148 28.3428 41.2393 28.0313C40.6491 27.7528 40.1291 27.3371 39.7197 26.8167C39.3118 26.2864 39.0089 25.6783 38.8283 25.0269C38.6299 24.3245 38.5311 23.596 38.5348 22.8643C38.5348 22.1817 38.6409 21.5037 38.8491 20.856C39.0517 20.2127 39.3639 19.612 39.7711 19.0824C40.1682 18.5734 40.6652 18.1575 41.2294 17.8622C41.8346 17.5475 42.5044 17.3888 43.1817 17.3994C43.8346 17.3822 44.4839 17.5061 45.0879 17.763C45.5879 17.9821 46.0297 18.3223 46.3761 18.7548C46.7004 19.1697 46.9405 19.648 47.082 20.1611C47.2405 20.7324 47.3184 21.3244 47.3135 21.9188V22.6219H40.5845C40.5788 23.2539 40.6431 23.8845 40.7764 24.5013C40.8892 25.0295 41.0933 25.5322 41.379 25.9853C41.6451 26.3961 42.0063 26.7317 42.4297 26.9615C42.9083 27.2111 43.4394 27.334 43.9752 27.3192C44.5332 27.3345 45.0832 27.1799 45.5569 26.8746C46.1022 26.4547 46.5421 25.9056 46.8397 25.2736L47.5603 25.7301ZM45.2832 21.7244C45.2808 21.2977 45.2481 20.8718 45.1854 20.45C45.1369 20.0568 45.0309 19.6735 44.8711 19.3131C44.7206 18.997 44.4977 18.7236 44.2217 18.5168C43.9088 18.2998 43.537 18.1918 43.1606 18.2087C42.8111 18.2054 42.4659 18.288 42.1533 18.4495C41.8407 18.6111 41.5697 18.847 41.3624 19.1379C40.8423 19.8919 40.5697 20.7984 40.5845 21.7244H45.2832Z" fill="white"/>
<path d="M56.5145 19.0503C56.5204 19.3906 56.4309 19.7254 56.2569 20.0143C56.1735 20.1518 56.0557 20.2635 55.9161 20.3376C55.7764 20.4118 55.62 20.4456 55.4633 20.4354C55.304 20.4469 55.1441 20.4254 54.993 20.3724C54.8418 20.3193 54.7024 20.2357 54.5828 20.1263C54.4894 20.0405 54.4142 19.9357 54.3618 19.8184C54.3094 19.7011 54.281 19.5738 54.2784 19.4447C54.2772 19.3018 54.2894 19.1591 54.3148 19.0186C54.3385 18.8907 54.3608 18.7628 54.3817 18.6348C53.9757 18.6629 53.5844 18.8027 53.2482 19.0397C52.7979 19.3277 52.4201 19.7219 52.1458 20.1902V26.306C52.1371 26.5177 52.1851 26.7279 52.2846 26.9132C52.388 27.0783 52.5424 27.2023 52.7226 27.265C52.9369 27.3466 53.1602 27.4002 53.3873 27.4246C53.6584 27.4603 53.8937 27.4853 54.0929 27.4994V28.2025H48.7353V27.4994C48.8932 27.4851 49.055 27.4709 49.2248 27.4567C49.3735 27.4463 49.5204 27.4177 49.6625 27.3714C49.8407 27.319 49.9933 27.1994 50.0903 27.0362C50.1901 26.8456 50.2381 26.6306 50.2291 26.414V19.9346C50.2278 19.7092 50.1767 19.4872 50.0797 19.2853C49.9866 19.0805 49.8434 18.9045 49.6641 18.7746C49.5215 18.6847 49.3645 18.6216 49.2005 18.5885C49.0107 18.5481 48.8184 18.5215 48.625 18.5088V17.8043L52.0045 17.5699L52.149 17.719V19.1997H52.2005C52.5814 18.6657 53.0656 18.2194 53.6223 17.8893C54.0556 17.6179 54.5482 17.464 55.0544 17.442C55.25 17.4346 55.4449 17.4696 55.6266 17.5448C55.8084 17.6201 55.9728 17.7338 56.1095 17.8787C56.2483 18.0367 56.3556 18.2216 56.4251 18.4227C56.4947 18.6238 56.525 18.837 56.5145 19.0503Z" fill="white"/>
<path d="M65.1594 19.0503C65.1652 19.3906 65.0757 19.7254 64.9017 20.0143C64.8183 20.1518 64.7006 20.2635 64.561 20.3376C64.4214 20.4117 64.2651 20.4455 64.1084 20.4355C63.9491 20.4469 63.7892 20.4255 63.638 20.3724C63.4867 20.3194 63.3472 20.2357 63.2276 20.1264C63.1342 20.0405 63.059 19.9357 63.0066 19.8184C62.9542 19.7011 62.9258 19.5739 62.9232 19.4447C62.922 19.3018 62.9342 19.1591 62.9597 19.0186C62.9833 18.8907 63.0056 18.7628 63.0265 18.6348C62.6205 18.6629 62.2292 18.8027 61.893 19.0397C61.4428 19.3277 61.0649 19.7219 60.7906 20.1902V26.306C60.7819 26.5177 60.8299 26.7279 60.9294 26.9132C61.0328 27.0783 61.1872 27.2023 61.3674 27.265C61.5817 27.3466 61.805 27.4002 62.0321 27.4246C62.3033 27.4604 62.5385 27.4853 62.7378 27.4994V28.2025H57.3801V27.4994C57.5381 27.4852 57.6998 27.4709 57.8696 27.4567C58.0183 27.4463 58.1652 27.4177 58.3073 27.3714C58.4855 27.3191 58.6382 27.1995 58.7351 27.0362C58.8349 26.8456 58.8829 26.6306 58.8739 26.4141V19.9346C58.8726 19.7093 58.8215 19.4872 58.7246 19.2854C58.6311 19.0803 58.4872 18.9042 58.3073 18.7746C58.1647 18.6847 58.0077 18.6217 57.8437 18.5885C57.6534 18.5481 57.4605 18.5214 57.2666 18.5088V17.8043L60.6461 17.57L60.7906 17.719V19.1997H60.8421C61.223 18.6657 61.7072 18.2194 62.2639 17.8893C62.6972 17.6179 63.1898 17.464 63.696 17.442C63.8916 17.4346 64.0865 17.4696 64.2683 17.5448C64.45 17.62 64.6145 17.7338 64.7511 17.8787C64.8905 18.0365 64.9984 18.2212 65.0684 18.4223C65.1385 18.6234 65.1694 18.8368 65.1594 19.0503Z" fill="white"/>
<path d="M70.9493 28.2018H66.0447V27.4987C66.2026 27.4846 66.3658 27.4704 66.5342 27.456C66.683 27.4457 66.83 27.4171 66.9722 27.3707C67.1503 27.3183 67.3029 27.1987 67.3997 27.0355C67.4996 26.845 67.5477 26.63 67.5388 26.4134V19.9339C67.5411 19.7165 67.4896 19.5021 67.3891 19.3111C67.2886 19.1217 67.1462 18.9596 66.9735 18.8381C66.797 18.7346 66.6056 18.661 66.4066 18.6199C66.1833 18.5635 65.9558 18.5261 65.7266 18.5081V17.8043L69.3123 17.5699L69.4565 17.719V26.2845C69.4487 26.4994 69.4964 26.7127 69.5946 26.9023C69.6938 27.0725 69.8477 27.2012 70.0294 27.266C70.1726 27.3274 70.3196 27.379 70.4694 27.4203C70.6266 27.4617 70.7871 27.4885 70.949 27.5003L70.9493 28.2018Z" fill="white"/>
<path d="M90.0732 28.2018H83.6128V27.4454C83.8473 27.4381 84.1479 27.4132 84.5145 27.3707C84.7751 27.3557 85.0314 27.2945 85.2719 27.1896C85.4624 27.0771 85.6234 26.9182 85.7409 26.7267C85.8465 26.5261 85.898 26.2998 85.8899 26.0715V15.0766H85.7355L80.7478 27.9568H80.2327L75.4829 14.8102H75.3489V23.8351C75.3308 24.5032 75.3844 25.1713 75.5088 25.8272C75.5716 26.1979 75.7423 26.5398 75.9983 26.8074C76.2771 27.0183 76.5971 27.1638 76.936 27.2335C77.2388 27.3312 77.5489 27.4025 77.8632 27.4467V28.2031H71.9595V27.4467C72.287 27.4154 72.6122 27.3619 72.933 27.2867C73.2185 27.2338 73.4883 27.1136 73.7215 26.9353C73.9835 26.6979 74.1582 26.3742 74.2161 26.0189C74.3255 25.3361 74.3703 24.6439 74.3501 23.9521V16.2175C74.3613 15.8452 74.309 15.4737 74.1953 15.1203C74.1048 14.8554 73.9527 14.6176 73.7525 14.4277C73.5249 14.2279 73.2574 14.0824 72.9692 14.0016C72.6707 13.9109 72.3629 13.8572 72.0522 13.8416V13.0852H77.0374L81.2258 24.4325L84.8009 14.9401C84.9337 14.5833 85.0454 14.2184 85.1354 13.8475C85.2038 13.5977 85.2538 13.3428 85.285 13.0852H90.0528V13.8416C89.8053 13.8559 89.559 13.8879 89.3158 13.9375C89.0944 13.9749 88.8758 14.0284 88.6616 14.0975C88.5577 14.1291 88.4616 14.1836 88.3798 14.2571C88.298 14.3307 88.2326 14.4215 88.1878 14.5236C88.104 14.7292 88.0619 14.9504 88.0641 15.1735V26.0719C88.0576 26.2883 88.1 26.5033 88.1878 26.7C88.2969 26.8964 88.4625 27.0527 88.6616 27.1472C88.8711 27.2458 89.0933 27.3126 89.3212 27.3456C89.5693 27.3972 89.8206 27.4311 90.0732 27.4471V28.2018Z" fill="white"/>
<path d="M101.397 28.0101C101.074 28.1308 100.791 28.2285 100.547 28.303C100.277 28.381 99.9977 28.4186 99.7175 28.4147C99.2596 28.4392 98.8072 28.3021 98.4345 28.0259C98.1004 27.7401 97.8818 27.3354 97.8216 26.8914H97.7595C97.3534 27.3698 96.8657 27.767 96.3208 28.0633C95.744 28.3478 95.11 28.4865 94.4711 28.4679C94.1271 28.481 93.7839 28.4238 93.4612 28.2995C93.1386 28.1752 92.8428 27.9863 92.5908 27.7436C92.3458 27.4991 92.1537 27.2037 92.0269 26.8769C91.9002 26.55 91.8418 26.1992 91.8555 25.8474C91.85 25.4781 91.9057 25.1106 92.0201 24.7608C92.1293 24.4426 92.2973 24.1495 92.5148 23.8976C92.7069 23.6674 92.9372 23.4744 93.1948 23.3277C93.4494 23.1744 93.7146 23.0409 93.9884 22.9283C94.2972 22.8073 94.924 22.5835 95.8687 22.2569C96.523 22.0497 97.1618 21.7934 97.78 21.49V20.4354C97.7713 20.2568 97.7524 20.0788 97.7234 19.9025C97.6859 19.6411 97.6038 19.3885 97.481 19.1567C97.3374 18.8868 97.1389 18.6523 96.8992 18.4694C96.5836 18.2553 96.2093 18.1526 95.8326 18.1769C95.5314 18.1741 95.2324 18.2302 94.9514 18.3422C94.7396 18.4152 94.5449 18.5331 94.3797 18.6883C94.3901 18.9007 94.4229 19.1113 94.4775 19.3164C94.5395 19.5671 94.5723 19.8246 94.5754 20.0833C94.5718 20.2144 94.5409 20.3432 94.4849 20.4609C94.4289 20.5785 94.3491 20.6824 94.2509 20.7653C93.9999 20.984 93.6772 21.0946 93.3495 21.0741C93.2023 21.0851 93.0549 21.056 92.922 20.9896C92.7891 20.9232 92.6753 20.822 92.5921 20.6959C92.4195 20.4278 92.3352 20.1092 92.3518 19.7875C92.3685 19.4658 92.4852 19.1583 92.6845 18.9108C92.9278 18.5942 93.2225 18.3238 93.5555 18.1117C93.9072 17.8936 94.2847 17.7235 94.6787 17.6056C95.0956 17.4708 95.5296 17.4008 95.9665 17.398C96.4723 17.3921 96.9776 17.4331 97.4763 17.5203C97.9005 17.6002 98.3009 17.7813 98.6455 18.0493C99.0036 18.3217 99.2805 18.6925 99.4448 19.1197C99.6445 19.6765 99.7373 20.2683 99.7182 20.8619C99.7182 21.8774 99.7075 22.7776 99.6862 23.5624C99.6649 24.3472 99.6542 25.2048 99.6542 26.1353C99.6436 26.3645 99.6916 26.5926 99.7933 26.7965C99.8981 26.9715 100.046 27.1149 100.221 27.212C100.374 27.2878 100.542 27.3243 100.711 27.3185C100.933 27.3253 101.162 27.3288 101.395 27.3291L101.397 28.0101ZM97.8008 22.3849C97.2169 22.5627 96.7054 22.737 96.2661 22.9078C95.8357 23.0739 95.4245 23.2887 95.04 23.5485C94.7132 23.7727 94.4358 24.0656 94.2259 24.408C94.0202 24.7641 93.9165 25.1733 93.927 25.5879C93.9072 25.8254 93.9369 26.0646 94.0141 26.2893C94.0913 26.514 94.2143 26.719 94.3746 26.8904C94.689 27.174 95.0962 27.3229 95.5131 27.3069C95.968 27.3166 96.4156 27.1886 96.801 26.9387C97.1587 26.7052 97.4757 26.4111 97.7388 26.0686L97.8008 22.3849Z" fill="white"/>
<path d="M109.115 23.056C109.388 23.3007 109.609 23.6019 109.764 23.9403C109.925 24.3266 110.002 24.7448 109.99 25.1654C110.002 25.62 109.913 26.0713 109.73 26.4848C109.547 26.8984 109.275 27.2634 108.935 27.5519C108.317 28.029 107.591 28.3343 106.826 28.4388C106.061 28.5432 105.283 28.4433 104.567 28.1486C104.186 27.9971 103.827 27.7928 103.5 27.5413L103.294 28.2336H102.521L102.418 24.5796H103.129C103.206 24.9181 103.324 25.245 103.481 25.5525C103.654 25.915 103.873 26.2527 104.13 26.5572C104.405 26.8764 104.73 27.1441 105.093 27.3486C105.48 27.5654 105.915 27.6757 106.355 27.6689C106.901 27.7058 107.442 27.5406 107.88 27.2028C108.062 27.0372 108.205 26.8309 108.298 26.5997C108.39 26.3685 108.431 26.1184 108.416 25.8685C108.423 25.6004 108.365 25.3347 108.246 25.096C108.124 24.8691 107.953 24.6742 107.747 24.5264C107.486 24.345 107.206 24.1965 106.912 24.0841C106.582 23.9518 106.215 23.8222 105.809 23.6953C105.443 23.5795 105.084 23.4425 104.733 23.285C104.369 23.1299 104.027 22.9238 103.718 22.6725C103.414 22.4215 103.161 22.11 102.976 21.7564C102.777 21.3625 102.678 20.9225 102.688 20.4781C102.683 20.0666 102.762 19.6587 102.922 19.2819C103.082 18.9051 103.319 18.5682 103.615 18.2939C104.299 17.6726 105.19 17.3515 106.099 17.399C106.51 17.4007 106.92 17.4544 107.319 17.5587C107.672 17.6411 108.013 17.7701 108.334 17.9425L108.571 17.3884H109.313L109.468 20.7657H108.754C108.638 20.0648 108.312 19.4193 107.822 18.9204C107.591 18.6877 107.317 18.505 107.018 18.3828C106.718 18.2606 106.397 18.2014 106.075 18.2086C105.595 18.1803 105.121 18.337 104.746 18.6486C104.594 18.7772 104.471 18.9393 104.388 19.1231C104.304 19.3068 104.261 19.5076 104.262 19.7108C104.252 19.9865 104.307 20.2605 104.421 20.5098C104.534 20.7302 104.699 20.9173 104.901 21.0533C105.145 21.2153 105.406 21.3492 105.679 21.4526C105.991 21.5769 106.377 21.7172 106.838 21.8735C107.277 22.0166 107.705 22.1911 108.121 22.3954C108.48 22.5662 108.815 22.7885 109.115 23.056Z" fill="white"/>
<path d="M117.8 27.7437C117.354 27.9354 116.931 28.0969 116.533 28.2283C116.058 28.3709 115.564 28.4378 115.07 28.4266C114.217 28.4266 113.618 28.2046 113.272 27.7605C112.894 27.2143 112.711 26.5502 112.751 25.8801V18.763H110.917V17.7402H112.793V14.4697H114.668V17.7402H117.584V18.763H114.688V24.6332C114.684 25.0013 114.7 25.3693 114.734 25.7357C114.758 26.0058 114.833 26.2685 114.956 26.5083C115.067 26.7158 115.241 26.8802 115.45 26.977C115.731 27.0953 116.033 27.1498 116.336 27.1367C116.508 27.1367 116.76 27.1207 117.093 27.0888C117.332 27.0741 117.569 27.0331 117.799 26.9664L117.8 27.7437Z" fill="white"/>
<path d="M127.836 25.7301C127.438 26.5359 126.85 27.2248 126.126 27.7331C125.397 28.2345 124.539 28.4947 123.664 28.4789C122.924 28.4956 122.191 28.3428 121.515 28.0313C120.925 27.7527 120.405 27.337 119.996 26.8167C119.588 26.2863 119.285 25.6782 119.104 25.0269C118.906 24.3245 118.807 23.596 118.811 22.8643C118.811 22.1818 118.917 21.5037 119.125 20.856C119.328 20.2126 119.64 19.6119 120.047 19.0824C120.444 18.5734 120.941 18.1574 121.505 17.8622C122.111 17.5475 122.78 17.3888 123.458 17.3994C124.111 17.3823 124.76 17.5061 125.364 17.763C125.864 17.9821 126.306 18.3223 126.652 18.7548C126.976 19.1697 127.216 19.648 127.358 20.1611C127.516 20.7324 127.594 21.3244 127.589 21.9188V22.6219H120.861C120.855 23.2539 120.92 23.8845 121.053 24.5013C121.166 25.0294 121.37 25.5321 121.656 25.9853C121.922 26.3965 122.283 26.7324 122.707 26.9625C123.185 27.212 123.716 27.335 124.252 27.3202C124.81 27.3356 125.36 27.181 125.834 26.8756C126.379 26.4557 126.819 25.9066 127.116 25.2745L127.836 25.7301ZM125.559 21.7244C125.557 21.2974 125.525 20.8711 125.463 20.449C125.414 20.0558 125.308 19.6725 125.148 19.3121C124.998 18.9959 124.775 18.7225 124.499 18.5158C124.186 18.2987 123.814 18.1908 123.438 18.2077C123.088 18.2044 122.743 18.287 122.43 18.4485C122.118 18.6101 121.847 18.846 121.64 19.1369C121.119 19.8909 120.847 20.7974 120.862 21.7234L125.559 21.7244Z" fill="white"/>
<path d="M136.79 19.0503C136.796 19.3906 136.706 19.7254 136.532 20.0143C136.449 20.1518 136.331 20.2635 136.192 20.3376C136.052 20.4117 135.896 20.4455 135.739 20.4355C135.58 20.4469 135.42 20.4254 135.269 20.3724C135.117 20.3193 134.978 20.2357 134.858 20.1264C134.765 20.0405 134.69 19.9356 134.637 19.8183C134.585 19.701 134.557 19.5738 134.554 19.4447C134.553 19.3018 134.565 19.1591 134.59 19.0186C134.614 18.8907 134.636 18.7628 134.657 18.6348C134.251 18.6629 133.86 18.8027 133.524 19.0397C133.073 19.3277 132.696 19.7219 132.421 20.1902V26.306C132.413 26.5177 132.461 26.7279 132.56 26.9132C132.663 27.0783 132.818 27.2023 132.998 27.265C133.212 27.3466 133.436 27.4002 133.663 27.4246C133.934 27.4604 134.169 27.4853 134.368 27.4994V28.2025H129.011V27.4994C129.169 27.4853 129.333 27.471 129.501 27.4567C129.65 27.4463 129.797 27.4177 129.939 27.3714C130.117 27.3191 130.27 27.1995 130.366 27.0362C130.466 26.8456 130.514 26.6306 130.506 26.4141V19.9346C130.504 19.7092 130.453 19.4872 130.356 19.2854C130.263 19.0797 130.119 18.903 129.939 18.773C129.796 18.683 129.639 18.62 129.475 18.5868C129.285 18.5464 129.092 18.5198 128.898 18.5072V17.8043L132.277 17.57L132.422 17.719V19.1997H132.473C132.854 18.6657 133.339 18.2194 133.895 17.8893C134.329 17.6178 134.821 17.464 135.328 17.442C135.523 17.4346 135.718 17.4696 135.9 17.5448C136.082 17.62 136.246 17.7338 136.383 17.8787C136.522 18.0366 136.63 18.2214 136.7 18.4224C136.77 18.6235 136.8 18.8369 136.79 19.0503Z" fill="white"/>
<path d="M155.522 28.2018H149.062V27.4454C149.297 27.4381 149.597 27.4132 149.963 27.3707C150.224 27.3557 150.48 27.2945 150.721 27.1896C150.911 27.0771 151.072 26.9182 151.19 26.7267C151.296 26.5261 151.347 26.2998 151.339 26.0715V15.0766H151.184L146.197 27.9568H145.681L140.931 14.8102H140.797V23.8351C140.779 24.5032 140.833 25.1713 140.957 25.8272C141.02 26.1978 141.191 26.5397 141.447 26.8074C141.726 27.0183 142.046 27.1638 142.385 27.2335C142.687 27.3312 142.998 27.4025 143.312 27.4467V28.2031H137.408V27.4467C137.735 27.4154 138.06 27.3619 138.381 27.2867C138.667 27.2338 138.937 27.1136 139.17 26.9353C139.432 26.6979 139.606 26.3742 139.664 26.0189C139.774 25.3361 139.819 24.6439 139.798 23.9521V16.2175C139.81 15.8452 139.757 15.4737 139.644 15.1203C139.553 14.8554 139.401 14.6176 139.201 14.4277C138.973 14.2279 138.706 14.0824 138.418 14.0016C138.119 13.9109 137.811 13.8572 137.5 13.8416V13.0852H142.486L146.674 24.4325L150.249 14.9401C150.382 14.5833 150.494 14.2184 150.584 13.8475C150.652 13.5977 150.702 13.3429 150.733 13.0852H155.501V13.8416C155.253 13.8559 155.007 13.8879 154.764 13.9375C154.543 13.9748 154.324 14.0283 154.11 14.0975C154.006 14.1291 153.91 14.1835 153.828 14.2571C153.746 14.3306 153.681 14.4215 153.636 14.5236C153.552 14.7292 153.51 14.9504 153.512 15.1735V26.0719C153.506 26.2883 153.548 26.5033 153.636 26.7C153.745 26.8964 153.911 27.0528 154.11 27.1472C154.32 27.2459 154.542 27.3127 154.769 27.3456C155.018 27.3972 155.269 27.4311 155.522 27.4471L155.522 28.2018Z" fill="white"/>
<path d="M162.147 28.2018H157.243V27.4987C157.403 27.4845 157.563 27.4703 157.733 27.456C157.882 27.4457 158.029 27.417 158.171 27.3707C158.349 27.3183 158.502 27.1987 158.599 27.0355C158.698 26.8449 158.746 26.6299 158.737 26.4134V19.9339C158.74 19.7166 158.688 19.5022 158.588 19.3111C158.487 19.1217 158.344 18.9596 158.171 18.8381C157.994 18.7345 157.803 18.6608 157.604 18.6199C157.381 18.5635 157.153 18.5261 156.924 18.5081V17.8043L160.51 17.5699L160.654 17.719V26.2845C160.646 26.4994 160.694 26.7127 160.792 26.9023C160.891 27.0725 161.045 27.2012 161.227 27.266C161.37 27.3274 161.517 27.379 161.667 27.4203C161.824 27.4618 161.985 27.4886 162.148 27.5003L162.147 28.2018ZM160.859 13.4248C160.864 13.8157 160.726 14.1942 160.473 14.4846C160.357 14.6285 160.211 14.7439 160.046 14.8222C159.881 14.9005 159.701 14.9399 159.52 14.9375C159.347 14.9375 159.176 14.8989 159.018 14.8244C158.861 14.7499 158.721 14.6412 158.608 14.5058C158.36 14.2421 158.221 13.8885 158.222 13.5206C158.217 13.1409 158.356 12.7742 158.608 12.4978C158.72 12.3611 158.86 12.2512 159.018 12.1758C159.175 12.1004 159.346 12.0613 159.52 12.0611C159.699 12.0551 159.878 12.0886 160.044 12.1592C160.21 12.2299 160.36 12.3362 160.483 12.471C160.603 12.5967 160.699 12.7457 160.763 12.9094C160.828 13.0732 160.86 13.2486 160.859 13.4254V13.4248Z" fill="white"/>
<path d="M174.625 28.2018H169.659V27.4987C169.817 27.4846 169.99 27.4703 170.179 27.456C170.338 27.4474 170.495 27.4187 170.648 27.3707C170.826 27.3182 170.978 27.1985 171.075 27.0352C171.176 26.8444 171.224 26.629 171.215 26.4121V21.011C171.254 20.3904 171.072 19.7765 170.703 19.285C170.553 19.0939 170.363 18.9401 170.148 18.835C169.932 18.7299 169.697 18.6762 169.459 18.6777C169.117 18.6735 168.778 18.7331 168.457 18.8536C168.172 18.9612 167.901 19.1062 167.651 19.285C167.444 19.429 167.261 19.6071 167.109 19.8123C167.003 19.9572 166.904 20.1084 166.815 20.2652V26.3056C166.807 26.5147 166.857 26.7218 166.959 26.9023C167.064 27.0666 167.215 27.1936 167.392 27.266C167.541 27.3388 167.699 27.3924 167.86 27.4256C168.032 27.4617 168.206 27.4867 168.381 27.5003V28.2035H163.404V27.5003C163.562 27.4862 163.726 27.472 163.894 27.4577C164.043 27.4474 164.189 27.4187 164.332 27.3724C164.51 27.32 164.662 27.2004 164.759 27.0372C164.859 26.8466 164.907 26.6316 164.898 26.415V19.9356C164.901 19.7047 164.85 19.4766 164.749 19.2704C164.652 19.0715 164.509 18.901 164.332 18.7746C164.189 18.6846 164.032 18.6215 163.868 18.5885C163.678 18.5481 163.486 18.5215 163.292 18.5088V17.8043L166.672 17.5699L166.817 17.719V19.1997H166.868C167.033 19.0296 167.239 18.8254 167.486 18.5871C167.704 18.3738 167.938 18.1796 168.187 18.0066C168.469 17.8228 168.774 17.6795 169.094 17.5805C169.478 17.4618 169.877 17.4043 170.279 17.4099C171.254 17.4099 171.977 17.7242 172.448 18.3528C172.948 19.0836 173.197 19.9673 173.153 20.8619V26.3268C173.144 26.5349 173.187 26.742 173.277 26.9284C173.374 27.0941 173.523 27.2202 173.699 27.2854C173.837 27.3474 173.98 27.3973 174.127 27.4346C174.292 27.469 174.459 27.4904 174.627 27.4987L174.625 28.2018Z" fill="white"/>
<path d="M187 28.0101L183.446 28.2445L183.291 28.0954V27.1152L183.208 27.0937C182.836 27.5175 182.387 27.8614 181.886 28.1059C181.382 28.3637 180.828 28.4985 180.265 28.5C179.686 28.4994 179.114 28.3627 178.594 28.1003C178.054 27.8329 177.575 27.4498 177.189 26.9763C176.766 26.4527 176.44 25.8532 176.227 25.2077C175.983 24.474 175.863 23.7024 175.872 22.9267C175.868 22.1877 175.997 21.4544 176.253 20.764C176.493 20.1055 176.849 19.4987 177.302 18.9742C177.734 18.4886 178.257 18.1004 178.84 17.8341C179.423 17.5557 180.056 17.4104 180.698 17.4079C181.168 17.4078 181.637 17.4704 182.092 17.5944C182.503 17.7003 182.898 17.8595 183.27 18.0684V14.4089C183.274 14.1295 183.225 13.8521 183.126 13.592C183.046 13.3695 182.907 13.1751 182.724 13.0317C182.487 12.8795 182.222 12.7795 181.946 12.7381C181.597 12.6753 181.245 12.6311 180.891 12.6059V11.9447L185.054 11.7103L185.208 11.87V26.0292C185.202 26.2493 185.25 26.4674 185.348 26.6629C185.446 26.8427 185.586 26.9944 185.754 27.1043C185.929 27.2026 186.123 27.2574 186.321 27.2643C186.568 27.2863 186.795 27.3005 187.001 27.3069L187 28.0101ZM183.269 26.1681V20.0192C183.203 19.81 183.114 19.6097 183.002 19.4225C182.875 19.2055 182.72 19.0083 182.539 18.8367C182.33 18.6525 182.094 18.5032 181.84 18.3944C181.542 18.2714 181.224 18.2117 180.904 18.2189C180.503 18.216 180.109 18.3306 179.768 18.5494C179.398 18.7932 179.084 19.1166 178.847 19.4976C178.566 19.9648 178.362 20.4779 178.246 21.0153C178.092 21.6836 178.018 22.3687 178.024 23.0556C178.019 23.6018 178.074 24.1469 178.189 24.6801C178.297 25.1626 178.485 25.6223 178.744 26.0388C178.975 26.4275 179.29 26.7556 179.665 26.9975C180.066 27.2474 180.528 27.3735 180.996 27.3611C181.476 27.3805 181.951 27.2506 182.359 26.9882C182.697 26.7593 183.004 26.4833 183.269 26.1681Z" fill="white"/>
<path fill-rule="evenodd" clip-rule="evenodd" d="M67.3891 9.37769C67.1708 12.03 66.5706 12.707 64.4419 13.0472C66.5706 13.3857 67.1708 14.0627 67.3891 16.715C67.6075 14.0627 68.2079 13.3857 70.3364 13.0472C68.2079 12.707 67.6075 12.03 67.3891 9.37769Z" fill="white"/>
<path fill-rule="evenodd" clip-rule="evenodd" d="M70.3361 9.4342C70.2268 10.5628 70.0087 10.8448 69.1353 10.9579C70.0087 11.0706 70.2815 11.3546 70.3361 12.4815C70.4452 11.3529 70.6635 11.0706 71.5367 10.9579C70.6635 10.8448 70.3905 10.5645 70.3361 9.4342Z" fill="white"/>
<path fill-rule="evenodd" clip-rule="evenodd" d="M68.7534 8.75722C68.8077 7.96713 68.9714 7.74134 69.6265 7.62861C68.9714 7.51555 68.8077 7.34629 68.7534 6.5C68.6987 7.28976 68.535 7.51555 67.8799 7.62861C68.535 7.74134 68.6987 7.96713 68.7534 8.75722Z" fill="white"/>
</g>
<g clip-path="url(#clip1_21_2910)">
<mask id="mask0_21_2910" style="mask-type:luminance" maskUnits="userSpaceOnUse" x="251" y="6" width="102" height="24">
<path d="M251.033 6.97278H352.054V29.2273H251.033V6.97278Z" fill="white"/>
</mask>
<g mask="url(#mask0_21_2910)">
<mask id="mask1_21_2910" style="mask-type:luminance" maskUnits="userSpaceOnUse" x="251" y="6" width="102" height="24">
<path d="M251.033 6.97278H352.054V29.2273H251.033V6.97278Z" fill="white"/>
</mask>
<g mask="url(#mask1_21_2910)">
<path d="M304.871 11.3364H306.873V23.391H304.871V11.3364ZM297.566 11.0637C296.268 11.0637 295.077 11.5001 294.103 12.3182V11.3364H292.101V23.391H294.103V16.5728C294.103 14.6091 295.672 13.0819 297.566 13.0819C299.46 13.0819 301.029 14.6637 301.029 16.5728V23.391H303.031V16.5728C303.031 13.5182 300.596 11.0637 297.566 11.0637ZM288.097 11.2819H290.099V22.9001C290.045 26.3364 287.286 29.1182 283.877 29.1728C281.171 29.2273 278.682 27.4273 277.925 24.8091H280.089C280.792 26.2819 282.253 27.2091 283.877 27.1546C286.203 27.1001 288.043 25.191 288.151 22.8455V21.8637C285.608 24.2091 281.658 24.1 279.332 21.5364C277.005 18.9728 277.113 14.991 279.656 12.6455C282.037 10.4091 285.77 10.4091 288.151 12.6455L288.097 11.2819ZM288.097 17.3364C288.097 14.991 286.203 13.0273 283.877 13.0273C281.55 13.0273 279.602 14.9364 279.602 17.2819C279.602 19.6273 281.496 21.591 283.877 21.591C286.203 21.591 288.097 19.6819 288.097 17.3364ZM257.255 13.0273C258.878 13.0273 260.393 14.0091 261.097 15.4819H263.207C262.233 12.1546 258.716 10.2455 255.415 11.2819C252.115 12.2637 250.221 15.8091 251.249 19.1364C252.277 22.4637 255.74 24.3728 259.041 23.3364C261.043 22.7364 262.612 21.1546 263.207 19.1364H261.097C260.123 21.2637 257.58 22.191 255.469 21.2091C253.359 20.2273 252.439 17.6637 253.413 15.5364C254.117 14.0091 255.578 13.0273 257.255 13.0273ZM276.68 17.3364C276.68 20.8273 273.866 23.6091 270.458 23.6091C266.995 23.6091 264.235 20.7728 264.235 17.3364C264.235 13.9001 266.941 11.0637 270.404 11.0637C273.866 11.0637 276.68 13.8455 276.68 17.3364ZM274.678 17.3364C274.678 14.991 272.784 13.0273 270.458 13.0273C268.131 13.0273 266.183 14.9364 266.183 17.2819C266.183 19.6273 268.077 21.591 270.404 21.591C272.784 21.591 274.678 19.6819 274.678 17.3364ZM339.88 11.0637C338.581 11.0637 337.39 11.5001 336.417 12.3182V11.3364H334.414V23.391H336.417V16.5728C336.417 14.6091 337.986 13.0273 339.88 13.0273C341.827 13.0273 343.397 14.6091 343.397 16.5182V23.3364H345.399V16.5728C345.345 13.5182 342.91 11.0637 339.88 11.0637ZM330.41 11.3364H332.412V23.391H330.41V21.9728C327.867 24.3182 323.917 24.2091 321.591 21.6455C319.264 19.0819 319.372 15.1001 321.915 12.7546C323.052 11.6637 324.567 11.0637 326.136 11.0637C327.705 11.0637 329.22 11.6637 330.41 12.7546V11.3364ZM330.41 17.3364C330.41 14.991 328.517 13.0819 326.136 13.0819C323.809 13.0819 321.915 14.991 321.915 17.391C321.915 19.7364 323.809 21.6455 326.136 21.6455C328.517 21.591 330.41 19.6819 330.41 17.3364ZM352 13.3001V11.2819H349.024V8.00914H347.022V19.3546C347.022 21.591 348.808 23.391 351.026 23.391H352V21.3728H351.026C349.944 21.3728 349.024 20.4455 349.024 19.3546V13.3001H352ZM305.845 6.97278C305.087 6.97278 304.546 7.57278 304.546 8.28187C304.546 9.04551 305.142 9.59096 305.845 9.59096C306.602 9.59096 307.144 8.99096 307.144 8.28187C307.198 7.57278 306.602 6.97278 305.845 6.97278C305.899 6.97278 305.899 6.97278 305.845 6.97278ZM318.831 11.3364H308.875V13.3546H316.234L308.875 21.3728V23.391H318.831V21.3728H311.418L318.777 13.3546L318.831 11.3364Z" fill="white"/>
</g>
</g>
<mask id="mask2_21_2910" style="mask-type:luminance" maskUnits="userSpaceOnUse" x="219" y="5" width="29" height="25">
<path d="M219 5.5H247.191V29.5H219V5.5Z" fill="white"/>
</mask>
<g mask="url(#mask2_21_2910)">
<mask id="mask3_21_2910" style="mask-type:luminance" maskUnits="userSpaceOnUse" x="219" y="17" width="17" height="13">
<path d="M219 17.5L227.279 29.5L235.828 24.3182L231.012 17.5H219Z" fill="white"/>
</mask>
<g mask="url(#mask3_21_2910)">
<path d="M219 17.5H235.828V29.5H219V17.5Z" fill="url(#paint0_linear_21_2910)"/>
</g>
<mask id="mask4_21_2910" style="mask-type:luminance" maskUnits="userSpaceOnUse" x="227" y="17" width="21" height="13">
<path d="M227.279 29.5H239.075L247.191 17.5L227.279 29.5Z" fill="white"/>
</mask>
<g mask="url(#mask4_21_2910)">
<path d="M227.279 17.5H247.191V29.5H227.279V17.5Z" fill="url(#paint1_linear_21_2910)"/>
</g>
<mask id="mask5_21_2910" style="mask-type:luminance" maskUnits="userSpaceOnUse" x="219" y="5" width="17" height="13">
<path d="M227.279 5.5L219 17.5H231.012L235.828 10.6818L227.279 5.5Z" fill="white"/>
</mask>
<g mask="url(#mask5_21_2910)">
<path d="M219 5.5H235.828V17.5H219V5.5Z" fill="url(#paint2_linear_21_2910)"/>
</g>
<mask id="mask6_21_2910" style="mask-type:luminance" maskUnits="userSpaceOnUse" x="227" y="5" width="21" height="13">
<path d="M227.279 5.5L247.191 17.5L239.075 5.5H227.279Z" fill="white"/>
</mask>
<g mask="url(#mask6_21_2910)">
<path d="M227.279 5.5H247.191V17.5H227.279V5.5Z" fill="url(#paint3_linear_21_2910)"/>
</g>
</g>
</g>
<rect x="202" y="0.5" width="2" height="33" fill="#D9D9D9"/>
<defs>
<linearGradient id="paint0_linear_21_2910" x1="219.004" y1="23.4865" x2="235.835" y2="23.4865" gradientUnits="userSpaceOnUse">
<stop stop-color="#3D54CE"/>
<stop offset="1" stop-color="#35CACF"/>
</linearGradient>
<linearGradient id="paint1_linear_21_2910" x1="227.275" y1="23.4865" x2="247.213" y2="23.4865" gradientUnits="userSpaceOnUse">
<stop stop-color="#13457D"/>
<stop offset="1" stop-color="#279698"/>
</linearGradient>
<linearGradient id="paint2_linear_21_2910" x1="218.997" y1="11.491" x2="235.842" y2="11.491" gradientUnits="userSpaceOnUse">
<stop stop-color="#090086"/>
<stop offset="1" stop-color="#2F96A9"/>
</linearGradient>
<linearGradient id="paint3_linear_21_2910" x1="227.275" y1="11.491" x2="247.213" y2="11.491" gradientUnits="userSpaceOnUse">
<stop stop-color="#3B62CA"/>
<stop offset="1" stop-color="#93DFE3"/>
</linearGradient>
<clipPath id="clip0_21_2910">
<rect width="187" height="22" fill="white" transform="translate(0 6.5)"/>
</clipPath>
<clipPath id="clip1_21_2910">
<rect width="133" height="24" fill="white" transform="translate(219 5.5)"/>
</clipPath>
</defs>
</svg>
