<svg width="352" height="33" viewBox="0 0 352 33" fill="none" xmlns="http://www.w3.org/2000/svg">
<g clip-path="url(#clip0_12_7236)">
<path fill-rule="evenodd" clip-rule="evenodd" d="M10.907 15.6064L8.80128 17.8395C7.67148 16.6701 6.21979 15.8901 4.64485 15.6064C3.06737 15.3237 1.44387 15.5579 0.00146484 16.2762C0.309955 14.3836 1.13403 12.6212 2.37703 11.1958C3.58538 9.73236 5.18046 8.66527 6.9667 8.12532C8.73499 7.6129 10.6079 7.63229 12.3659 8.18119C14.133 8.72993 15.7085 9.79643 16.9015 11.2517C18.1041 12.7128 18.8893 14.4913 19.1693 16.3879C19.4275 18.2804 19.1844 20.2099 18.466 21.9708C17.716 23.7198 16.4983 25.2109 14.9563 26.2684C13.4203 27.3378 11.6238 27.9377 9.77293 27.999C10.6858 26.5149 11.12 24.7698 11.0132 23.0145C10.9064 21.2591 10.2641 19.584 9.17856 18.2299L11.2302 16.0527C11.5668 16.3782 12.0112 16.5581 12.4721 16.5552C12.8988 16.5633 13.3162 16.4259 13.6598 16.1641C14.0157 15.9155 14.2671 15.5364 14.3632 15.1036C14.4818 14.6811 14.4628 14.2299 14.3092 13.8196C14.1476 13.4197 13.8629 13.0861 13.4993 12.8705C13.143 12.6469 12.7261 12.5488 12.3112 12.5912C11.8982 12.6373 11.515 12.8355 11.2315 13.1495C10.9374 13.45 10.7475 13.8426 10.6915 14.2662C10.5943 14.725 10.6717 15.2048 10.9076 15.6061L10.907 15.6064Z" fill="#059586"/>
<path d="M2.80763 20.7982C3.11749 20.7982 3.42038 20.7032 3.67802 20.5252C3.93565 20.3473 4.13645 20.0943 4.25502 19.7983C4.3736 19.5023 4.40464 19.1766 4.34419 18.8624C4.28374 18.5481 4.13451 18.2595 3.91541 18.033C3.69631 17.8064 3.41717 17.6521 3.11327 17.5896C2.80937 17.5271 2.49436 17.5592 2.20809 17.6818C1.92182 17.8044 1.67714 18.012 1.505 18.2784C1.33285 18.5448 1.24097 18.858 1.24097 19.1784C1.25009 19.605 1.41807 20.0116 1.70992 20.3134C2.00177 20.6151 2.39499 20.7888 2.80763 20.7982Z" fill="#059586"/>
<path d="M7.07301 25.9904C7.38287 25.9904 7.68576 25.8954 7.9434 25.7174C8.20103 25.5394 8.40183 25.2864 8.5204 24.9904C8.63898 24.6944 8.67002 24.3687 8.60957 24.0545C8.54912 23.7403 8.39989 23.4516 8.18079 23.2251C7.96169 22.9986 7.68255 22.8443 7.37865 22.7818C7.07475 22.7193 6.75974 22.7514 6.47347 22.874C6.1872 22.9966 5.94253 23.2042 5.77038 23.4706C5.59823 23.737 5.50635 24.0501 5.50635 24.3705C5.51555 24.7971 5.68356 25.2037 5.9754 25.5054C6.26723 25.8071 6.6604 25.9809 7.07301 25.9904Z" fill="#059586"/>
<path d="M35.3714 20.6597C35.8039 20.9653 36.1661 21.3654 36.4326 21.8316C36.7271 22.3662 36.8732 22.9744 36.8549 23.5894C36.8702 24.2303 36.7172 24.8636 36.4121 25.4218C36.1245 25.9318 35.7301 26.3687 35.2579 26.7005C34.7804 27.0354 34.2532 27.2873 33.697 27.446C33.112 27.6172 32.5068 27.7033 31.8988 27.7018H24.9749V26.9454C25.1398 26.9311 25.3803 26.9008 25.6961 26.8545C25.9287 26.8298 26.1573 26.7742 26.3762 26.6892C26.5656 26.6109 26.7249 26.4705 26.8296 26.2896C26.9261 26.0899 26.9722 25.8683 26.9636 25.6453V14.779C26.9677 14.5596 26.9273 14.3418 26.8449 14.1396C26.7468 13.9363 26.5801 13.7772 26.3762 13.6923C26.1569 13.5812 25.925 13.4989 25.6859 13.4474C25.4752 13.3976 25.2616 13.3619 25.0465 13.3406V12.5842H31.7959C32.2997 12.5822 32.8023 12.6359 33.2951 12.7442C33.7774 12.8526 34.2388 13.0435 34.6603 13.3089C35.067 13.5587 35.4097 13.9057 35.6598 14.3208C35.9319 14.7897 36.0679 15.3296 36.0514 15.8762C36.06 16.3654 35.965 16.8505 35.773 17.2977C35.5905 17.7093 35.3233 18.0748 34.99 18.3685C34.6624 18.6602 34.2964 18.9023 33.9029 19.0875C33.4789 19.2883 33.0348 19.4402 32.5786 19.5404V19.6362C33.0562 19.6996 33.5271 19.8083 33.9854 19.9612C34.4803 20.1165 34.9482 20.3523 35.3714 20.6597ZM32.8794 18.3787C33.1246 18.0882 33.3053 17.7457 33.4089 17.3754C33.5153 16.9539 33.5654 16.5193 33.5579 16.0838C33.5977 15.3666 33.3611 14.6623 32.8999 14.1251C32.4612 13.6524 31.7691 13.4159 30.8236 13.4156C30.6039 13.4156 30.3279 13.4209 29.9958 13.4315L29.1581 13.4583V19.2766H30.4636C30.954 19.2881 31.4426 19.2123 31.9081 19.0524C32.2837 18.9202 32.6188 18.688 32.8794 18.3787ZM34.3099 23.2052C34.3227 22.795 34.2518 22.3867 34.1018 22.0067C33.9518 21.6267 33.726 21.2837 33.4393 20.9999C32.8587 20.4247 32.0292 20.1371 30.9508 20.1371C30.5113 20.1371 30.1405 20.1424 29.8382 20.1529C29.536 20.1635 29.3093 20.1724 29.1581 20.1797V25.5064C29.149 25.7085 29.1931 25.9094 29.2856 26.0877C29.3782 26.2659 29.5158 26.4149 29.6838 26.5187C30.1315 26.7702 30.638 26.8882 31.1468 26.8595C32.17 26.8595 32.953 26.5509 33.4959 25.9339C34.0388 25.3168 34.3098 24.4074 34.3089 23.2059L34.3099 23.2052Z" fill="black"/>
<path d="M47.5606 25.23C47.1623 26.0358 46.574 26.7247 45.85 27.233C45.1217 27.7345 44.263 27.9946 43.3881 27.9788C42.6488 27.9956 41.915 27.8427 41.2396 27.5312C40.6494 27.2527 40.1293 26.837 39.7199 26.3167C39.3121 25.7863 39.0092 25.1782 38.8285 24.5269C38.6302 23.8244 38.5313 23.096 38.535 22.3642C38.535 21.6817 38.6411 21.0036 38.8493 20.3559C39.0519 19.7126 39.3642 19.1119 39.7714 18.5823C40.1684 18.0734 40.6655 17.6575 41.2297 17.3622C41.8348 17.0475 42.5046 16.8887 43.1819 16.8993C43.8349 16.8822 44.4841 17.006 45.0881 17.263C45.5882 17.4821 46.03 17.8222 46.3763 18.2547C46.7007 18.6696 46.9408 19.1479 47.0823 19.661C47.2407 20.2324 47.3187 20.8244 47.3137 21.4187V22.1219H40.5848C40.579 22.7539 40.6434 23.3845 40.7766 24.0013C40.8894 24.5294 41.0936 25.0322 41.3793 25.4852C41.6454 25.8961 42.0065 26.2316 42.4299 26.4615C42.9086 26.711 43.4396 26.8339 43.9755 26.8191C44.5334 26.8344 45.0835 26.6798 45.5572 26.3745C46.1024 25.9546 46.5423 25.4056 46.8399 24.7735L47.5606 25.23ZM45.2835 21.2244C45.281 20.7977 45.2483 20.3717 45.1856 19.95C45.1371 19.5567 45.0311 19.1734 44.8713 18.8131C44.7208 18.4969 44.4979 18.2235 44.222 18.0167C43.9091 17.7997 43.5373 17.6918 43.1608 17.7086C42.8114 17.7054 42.4662 17.7879 42.1536 17.9495C41.841 18.111 41.5699 18.3469 41.3627 18.6379C40.8426 19.3919 40.5699 20.2984 40.5848 21.2244H45.2835Z" fill="black"/>
<path d="M56.5145 18.5503C56.5204 18.8906 56.4309 19.2254 56.2569 19.5142C56.1735 19.6518 56.0557 19.7635 55.9161 19.8376C55.7764 19.9117 55.62 19.9455 55.4633 19.9354C55.304 19.9469 55.1441 19.9254 54.993 19.8724C54.8418 19.8193 54.7024 19.7357 54.5828 19.6263C54.4894 19.5405 54.4142 19.4356 54.3618 19.3183C54.3094 19.201 54.281 19.0738 54.2784 18.9447C54.2772 18.8017 54.2894 18.659 54.3148 18.5185C54.3385 18.3907 54.3608 18.2628 54.3817 18.1347C53.9757 18.1629 53.5844 18.3027 53.2482 18.5397C52.7979 18.8276 52.4201 19.2219 52.1458 19.6901V25.8059C52.1371 26.0177 52.1851 26.2279 52.2846 26.4132C52.388 26.5782 52.5424 26.7022 52.7226 26.7649C52.9369 26.8465 53.1602 26.9002 53.3873 26.9246C53.6584 26.9603 53.8937 26.9852 54.0929 26.9993V27.7025H48.7353V26.9993C48.8932 26.9851 49.055 26.9709 49.2248 26.9567C49.3735 26.9463 49.5204 26.9177 49.6625 26.8714C49.8407 26.819 49.9933 26.6993 50.0903 26.5362C50.1901 26.3456 50.2381 26.1306 50.2291 25.914V19.4346C50.2278 19.2092 50.1767 18.9871 50.0797 18.7853C49.9866 18.5805 49.8434 18.4044 49.6641 18.2746C49.5215 18.1846 49.3645 18.1216 49.2005 18.0884C49.0107 18.0481 48.8184 18.0215 48.625 18.0088V17.3043L52.0045 17.0699L52.149 17.219V18.6997H52.2005C52.5814 18.1656 53.0656 17.7194 53.6223 17.3893C54.0556 17.1179 54.5482 16.964 55.0544 16.942C55.25 16.9346 55.4449 16.9696 55.6266 17.0448C55.8084 17.12 55.9728 17.2337 56.1095 17.3787C56.2483 17.5367 56.3556 17.7216 56.4251 17.9227C56.4947 18.1237 56.525 18.337 56.5145 18.5503Z" fill="black"/>
<path d="M65.1591 18.5503C65.165 18.8906 65.0755 19.2254 64.9014 19.5142C64.8181 19.6517 64.7004 19.7634 64.5608 19.8376C64.4212 19.9117 64.2648 19.9455 64.1082 19.9354C63.9489 19.9469 63.7889 19.9255 63.6377 19.8724C63.4865 19.8193 63.347 19.7357 63.2273 19.6263C63.134 19.5405 63.0587 19.4356 63.0063 19.3183C62.954 19.201 62.9256 19.0738 62.923 18.9446C62.9218 18.8017 62.934 18.659 62.9594 18.5185C62.9831 18.3907 63.0053 18.2628 63.0262 18.1347C62.6203 18.1629 62.229 18.3027 61.8928 18.5397C61.4425 18.8276 61.0647 19.2219 60.7904 19.6901V25.8059C60.7816 26.0177 60.8296 26.2279 60.9291 26.4132C61.0325 26.5782 61.1869 26.7022 61.3672 26.7649C61.5815 26.8465 61.8048 26.9002 62.0319 26.9246C62.303 26.9603 62.5382 26.9852 62.7375 26.9993V27.7025H57.3799V26.9993C57.5378 26.9851 57.6996 26.9709 57.8694 26.9567C58.018 26.9463 58.165 26.9177 58.3071 26.8714C58.4853 26.819 58.6379 26.6994 58.7349 26.5362C58.8347 26.3456 58.8826 26.1306 58.8736 25.914V19.4346C58.8724 19.2092 58.8213 18.9871 58.7243 18.7853C58.6309 18.5802 58.487 18.4041 58.3071 18.2746C58.1644 18.1846 58.0074 18.1216 57.8435 18.0884C57.6531 18.048 57.4603 18.0214 57.2664 18.0088V17.3043L60.6459 17.0699L60.7904 17.219V18.6997H60.8419C61.2228 18.1656 61.7069 17.7194 62.2637 17.3893C62.697 17.1179 63.1896 16.964 63.6957 16.942C63.8913 16.9345 64.0863 16.9695 64.268 17.0447C64.4498 17.12 64.6142 17.2337 64.7508 17.3787C64.8903 17.5365 64.9981 17.7212 65.0682 17.9223C65.1383 18.1234 65.1692 18.3368 65.1591 18.5503Z" fill="black"/>
<path d="M70.9493 27.7018H66.0447V26.9987C66.2026 26.9846 66.3658 26.9703 66.5342 26.956C66.683 26.9457 66.83 26.917 66.9722 26.8707C67.1503 26.8183 67.3029 26.6987 67.3997 26.5355C67.4996 26.3449 67.5477 26.1299 67.5388 25.9133V19.4339C67.5411 19.2165 67.4896 19.0021 67.3891 18.8111C67.2886 18.6217 67.1462 18.4596 66.9735 18.338C66.797 18.2346 66.6056 18.1609 66.4066 18.1198C66.1833 18.0635 65.9558 18.0261 65.7266 18.0081V17.3043L69.3123 17.0699L69.4565 17.219V25.7844C69.4487 25.9994 69.4964 26.2127 69.5946 26.4023C69.6938 26.5725 69.8477 26.7012 70.0294 26.7659C70.1726 26.8274 70.3196 26.8789 70.4694 26.9203C70.6266 26.9617 70.7871 26.9885 70.949 27.0003L70.9493 27.7018Z" fill="black"/>
<path d="M90.0732 27.7018H83.6128V26.9454C83.8473 26.9382 84.1479 26.9133 84.5145 26.8707C84.7751 26.8558 85.0314 26.7945 85.2719 26.6896C85.4624 26.5772 85.6234 26.4183 85.7409 26.2267C85.8465 26.0261 85.898 25.7998 85.8899 25.5715V14.5767H85.7355L80.7478 27.4568H80.2327L75.4829 14.3102H75.3489V23.3351C75.3308 24.0032 75.3844 24.6713 75.5088 25.3272C75.5716 25.6979 75.7423 26.0399 75.9983 26.3074C76.2771 26.5184 76.5971 26.6638 76.936 26.7335C77.2388 26.8312 77.5489 26.9025 77.8632 26.9468V27.7031H71.9595V26.9468C72.287 26.9154 72.6122 26.862 72.933 26.7868C73.2185 26.7338 73.4883 26.6136 73.7215 26.4354C73.9835 26.1979 74.1582 25.8742 74.2161 25.519C74.3255 24.8362 74.3703 24.144 74.3501 23.4522V15.7175C74.3613 15.3452 74.309 14.9738 74.1953 14.6203C74.1048 14.3554 73.9527 14.1176 73.7525 13.9277C73.5249 13.7279 73.2574 13.5824 72.9692 13.5016C72.6707 13.4109 72.3629 13.3572 72.0522 13.3416V12.5852H77.0374L81.2258 23.9325L84.8009 14.4401C84.9337 14.0833 85.0454 13.7184 85.1354 13.3475C85.2038 13.0977 85.2538 12.8429 85.285 12.5852H90.0528V13.3416C89.8053 13.3559 89.559 13.3879 89.3158 13.4375C89.0944 13.4749 88.8758 13.5284 88.6616 13.5975C88.5577 13.6292 88.4616 13.6836 88.3798 13.7571C88.298 13.8307 88.2326 13.9216 88.1878 14.0236C88.104 14.2292 88.0619 14.4504 88.0641 14.6735V25.5719C88.0576 25.7883 88.1 26.0033 88.1878 26.2C88.2969 26.3964 88.4625 26.5527 88.6616 26.6473C88.8711 26.7459 89.0933 26.8127 89.3212 26.8456C89.5693 26.8972 89.8206 26.9311 90.0732 26.9471V27.7018Z" fill="#059586"/>
<path d="M101.397 27.5101C101.074 27.6308 100.791 27.7285 100.547 27.803C100.277 27.881 99.998 27.9186 99.7178 27.9147C99.2598 27.9392 98.8074 27.8021 98.4347 27.5259C98.1007 27.2401 97.882 26.8354 97.8218 26.3914H97.7598C97.3536 26.8698 96.866 27.267 96.321 27.5633C95.7442 27.8478 95.1102 27.9865 94.4714 27.9679C94.1273 27.981 93.7841 27.9238 93.4615 27.7995C93.1388 27.6752 92.843 27.4863 92.5911 27.2436C92.3461 26.9991 92.1539 26.7037 92.0272 26.3769C91.9004 26.05 91.842 25.6992 91.8557 25.3474C91.8502 24.9781 91.9059 24.6106 92.0204 24.2608C92.1296 23.9426 92.2976 23.6495 92.515 23.3976C92.7071 23.1674 92.9374 22.9744 93.1951 22.8277C93.4496 22.6744 93.7149 22.5409 93.9886 22.4283C94.2975 22.3073 94.9242 22.0835 95.8689 21.7569C96.5232 21.5497 97.162 21.2934 97.7803 20.99V19.9354C97.7715 19.7568 97.7527 19.5788 97.7237 19.4025C97.6862 19.1411 97.6041 18.8885 97.4813 18.6567C97.3377 18.3868 97.1392 18.1523 96.8994 17.9694C96.5838 17.7553 96.2096 17.6526 95.8328 17.6769C95.5316 17.6741 95.2327 17.7302 94.9516 17.8422C94.7399 17.9152 94.5452 18.0331 94.38 18.1883C94.3903 18.4007 94.4231 18.6113 94.4778 18.8164C94.5397 19.0671 94.5726 19.3246 94.5756 19.5833C94.572 19.7144 94.5412 19.8432 94.4852 19.9609C94.4292 20.0785 94.3494 20.1824 94.2511 20.2653C94.0001 20.484 93.6774 20.5946 93.3498 20.5741C93.2026 20.5851 93.0551 20.556 92.9222 20.4896C92.7893 20.4232 92.6756 20.322 92.5924 20.1959C92.4197 19.9278 92.3354 19.6092 92.3521 19.2875C92.3687 18.9658 92.4854 18.6583 92.6848 18.4108C92.9281 18.0942 93.2228 17.8238 93.5557 17.6117C93.9074 17.3936 94.2849 17.2235 94.6789 17.1056C95.0959 16.9708 95.5299 16.9008 95.9667 16.898C96.4725 16.8921 96.9778 16.9331 97.4765 17.0203C97.9008 17.1002 98.3011 17.2813 98.6457 17.5493C99.0038 17.8217 99.2808 18.1925 99.4451 18.6197C99.6447 19.1765 99.7376 19.7683 99.7184 20.3619C99.7184 21.3774 99.7078 22.2776 99.6864 23.0624C99.6651 23.8472 99.6545 24.7048 99.6545 25.6353C99.6438 25.8645 99.6918 26.0926 99.7936 26.2965C99.8983 26.4715 100.046 26.6149 100.221 26.712C100.374 26.7878 100.542 26.8243 100.711 26.8185C100.934 26.8253 101.162 26.8288 101.396 26.8291L101.397 27.5101ZM97.801 21.8849C97.2172 22.0627 96.7056 22.237 96.2663 22.4078C95.836 22.5739 95.4247 22.7887 95.0402 23.0485C94.7135 23.2727 94.4361 23.5656 94.2262 23.908C94.0204 24.2641 93.9167 24.6733 93.9272 25.0879C93.9074 25.3254 93.9372 25.5646 94.0144 25.7893C94.0916 26.014 94.2145 26.219 94.3748 26.3904C94.6893 26.674 95.0964 26.8229 95.5134 26.8069C95.9682 26.8166 96.4158 26.6886 96.8012 26.4387C97.1589 26.2052 97.476 25.9111 97.739 25.5686L97.801 21.8849Z" fill="#059586"/>
<path d="M109.114 22.556C109.388 22.8007 109.609 23.1019 109.763 23.4403C109.925 23.8266 110.002 24.2448 109.99 24.6654C110.002 25.12 109.912 25.5713 109.73 25.9848C109.547 26.3984 109.275 26.7634 108.935 27.0519C108.317 27.529 107.591 27.8343 106.826 27.9388C106.061 28.0432 105.283 27.9433 104.566 27.6486C104.186 27.4971 103.827 27.2928 103.5 27.0413L103.293 27.7336H102.521L102.418 24.0796H103.129C103.205 24.4181 103.324 24.745 103.481 25.0525C103.654 25.415 103.872 25.7527 104.13 26.0572C104.404 26.3764 104.73 26.6441 105.093 26.8486C105.48 27.0654 105.915 27.1757 106.355 27.1689C106.901 27.2058 107.442 27.0406 107.88 26.7028C108.062 26.5372 108.204 26.3309 108.297 26.0997C108.39 25.8685 108.431 25.6184 108.416 25.3685C108.423 25.1004 108.364 24.8347 108.246 24.596C108.124 24.3691 107.953 24.1742 107.746 24.0264C107.486 23.845 107.206 23.6965 106.912 23.5841C106.582 23.4518 106.214 23.3222 105.809 23.1953C105.443 23.0795 105.084 22.9425 104.733 22.785C104.369 22.6299 104.027 22.4238 103.717 22.1725C103.413 21.9215 103.161 21.61 102.976 21.2564C102.776 20.8625 102.677 20.4225 102.688 19.9781C102.682 19.5666 102.762 19.1587 102.922 18.7819C103.082 18.4051 103.318 18.0682 103.615 17.7939C104.299 17.1726 105.19 16.8515 106.098 16.899C106.51 16.9007 106.92 16.9544 107.319 17.0587C107.672 17.1411 108.013 17.2701 108.334 17.4425L108.571 16.8884H109.313L109.468 20.2657H108.754C108.638 19.5648 108.311 18.9193 107.821 18.4204C107.591 18.1877 107.317 18.005 107.017 17.8828C106.717 17.7606 106.397 17.7014 106.075 17.7086C105.594 17.6803 105.121 17.837 104.746 18.1486C104.594 18.2772 104.471 18.4393 104.387 18.6231C104.304 18.8068 104.26 19.0076 104.261 19.2108C104.252 19.4865 104.307 19.7605 104.421 20.0098C104.534 20.2302 104.699 20.4173 104.901 20.5533C105.145 20.7153 105.406 20.8492 105.679 20.9526C105.991 21.0769 106.377 21.2172 106.838 21.3735C107.276 21.5166 107.705 21.6911 108.12 21.8954C108.48 22.0662 108.815 22.2885 109.114 22.556Z" fill="#059586"/>
<path d="M117.8 27.2436C117.354 27.4354 116.932 27.5969 116.533 27.7283C116.058 27.8709 115.565 27.9378 115.07 27.9266C114.217 27.9266 113.618 27.7046 113.272 27.2605C112.895 26.7143 112.711 26.0502 112.752 25.3801V18.263H110.918V17.2402H112.793V13.9697H114.668V17.2402H117.584V18.263H114.688V24.1332C114.685 24.5013 114.7 24.8693 114.734 25.2357C114.758 25.5058 114.833 25.7685 114.956 26.0082C115.067 26.2157 115.241 26.3802 115.45 26.477C115.731 26.5953 116.033 26.6497 116.336 26.6367C116.508 26.6367 116.761 26.6207 117.094 26.5887C117.332 26.5741 117.569 26.5331 117.8 26.4664L117.8 27.2436Z" fill="#059586"/>
<path d="M127.836 25.2301C127.438 26.0359 126.85 26.7248 126.126 27.233C125.398 27.7345 124.539 27.9947 123.664 27.9789C122.925 27.9956 122.191 27.8427 121.515 27.5312C120.925 27.2526 120.405 26.837 119.996 26.3167C119.588 25.7863 119.285 25.1781 119.104 24.5269C118.906 23.8244 118.807 23.096 118.811 22.3642C118.811 21.6817 118.917 21.0037 119.125 20.3559C119.328 19.7125 119.64 19.1118 120.048 18.5823C120.444 18.0733 120.941 17.6574 121.506 17.3622C122.111 17.0475 122.781 16.8887 123.458 16.8993C124.111 16.8822 124.76 17.006 125.364 17.263C125.864 17.4821 126.306 17.8222 126.652 18.2547C126.977 18.6696 127.217 19.1479 127.358 19.661C127.517 20.2324 127.595 20.8244 127.59 21.4187V22.1219H120.861C120.856 22.7539 120.92 23.3845 121.053 24.0013C121.166 24.5293 121.37 25.032 121.656 25.4853C121.922 25.8965 122.283 26.2324 122.707 26.4625C123.185 26.712 123.716 26.8349 124.252 26.8202C124.81 26.8356 125.36 26.6809 125.834 26.3755C126.379 25.9556 126.819 25.4066 127.117 24.7745L127.836 25.2301ZM125.559 21.2244C125.557 20.7974 125.525 20.3711 125.463 19.949C125.414 19.5557 125.308 19.1724 125.148 18.8121C124.998 18.4959 124.775 18.2225 124.499 18.0157C124.186 17.7987 123.814 17.6907 123.438 17.7076C123.089 17.7044 122.743 17.7869 122.431 17.9485C122.118 18.11 121.847 18.346 121.64 18.6369C121.12 19.3909 120.847 20.2974 120.862 21.2234L125.559 21.2244Z" fill="#059586"/>
<path d="M136.79 18.5503C136.796 18.8906 136.707 19.2254 136.533 19.5142C136.449 19.6517 136.332 19.7634 136.192 19.8376C136.052 19.9117 135.896 19.9455 135.739 19.9354C135.58 19.9468 135.42 19.9254 135.269 19.8723C135.118 19.8193 134.978 19.7356 134.859 19.6263C134.765 19.5405 134.69 19.4356 134.638 19.3183C134.585 19.201 134.557 19.0738 134.554 18.9446C134.553 18.8017 134.565 18.659 134.591 18.5185C134.614 18.3907 134.637 18.2628 134.657 18.1347C134.251 18.1629 133.86 18.3027 133.524 18.5397C133.074 18.8276 132.696 19.2219 132.422 19.6901V25.8059C132.413 26.0177 132.461 26.2279 132.56 26.4132C132.664 26.5782 132.818 26.7022 132.998 26.7649C133.213 26.8465 133.436 26.9002 133.663 26.9246C133.934 26.9603 134.169 26.9852 134.369 26.9993V27.7025H129.012V26.9993C129.17 26.9852 129.333 26.971 129.501 26.9567C129.65 26.9463 129.797 26.9177 129.939 26.8714C130.117 26.819 130.27 26.6994 130.367 26.5362C130.467 26.3456 130.515 26.1306 130.506 25.914V19.4346C130.504 19.2092 130.453 18.9871 130.356 18.7853C130.263 18.5796 130.119 18.4029 129.939 18.2729C129.796 18.183 129.639 18.12 129.475 18.0868C129.285 18.0464 129.092 18.0197 128.898 18.0071V17.3043L132.278 17.0699L132.422 17.219V18.6997H132.474C132.855 18.1656 133.339 17.7194 133.896 17.3893C134.329 17.1178 134.822 16.9639 135.328 16.942C135.523 16.9345 135.718 16.9695 135.9 17.0447C136.082 17.12 136.246 17.2337 136.383 17.3787C136.522 17.5365 136.63 17.7213 136.7 17.9224C136.77 18.1235 136.8 18.3369 136.79 18.5503Z" fill="#059586"/>
<path d="M155.522 27.7018H149.062V26.9454C149.297 26.9382 149.597 26.9133 149.963 26.8707C150.224 26.8558 150.48 26.7945 150.721 26.6896C150.911 26.5772 151.072 26.4183 151.19 26.2267C151.296 26.0261 151.347 25.7998 151.339 25.5715V14.5767H151.184L146.197 27.4568H145.681L140.931 14.3102H140.797V23.3351C140.779 24.0032 140.833 24.6713 140.957 25.3272C141.02 25.6978 141.191 26.0397 141.447 26.3074C141.726 26.5184 142.046 26.6638 142.385 26.7335C142.687 26.8312 142.998 26.9025 143.312 26.9468V27.7031H137.408V26.9468C137.735 26.9154 138.06 26.862 138.381 26.7868C138.667 26.7338 138.937 26.6136 139.17 26.4354C139.432 26.1979 139.606 25.8742 139.664 25.519C139.774 24.8362 139.819 24.144 139.798 23.4522V15.7175C139.81 15.3452 139.757 14.9738 139.644 14.6203C139.553 14.3554 139.401 14.1176 139.201 13.9277C138.973 13.7279 138.706 13.5824 138.418 13.5016C138.119 13.4109 137.811 13.3572 137.5 13.3416V12.5852H142.486L146.674 23.9325L150.249 14.4401C150.382 14.0833 150.494 13.7185 150.584 13.3475C150.652 13.0977 150.702 12.8429 150.733 12.5852H155.501V13.3416C155.253 13.3559 155.007 13.3879 154.764 13.4375C154.543 13.4749 154.324 13.5283 154.11 13.5975C154.006 13.6291 153.91 13.6835 153.828 13.7571C153.746 13.8306 153.681 13.9215 153.636 14.0236C153.552 14.2292 153.51 14.4504 153.512 14.6735V25.5719C153.506 25.7883 153.548 26.0033 153.636 26.2C153.745 26.3965 153.911 26.5528 154.11 26.6473C154.32 26.7459 154.542 26.8127 154.769 26.8456C155.018 26.8972 155.269 26.9311 155.522 26.9471L155.522 27.7018Z" fill="#059586"/>
<path d="M162.147 27.7018H157.243V26.9987C157.403 26.9844 157.563 26.9702 157.733 26.956C157.882 26.9456 158.029 26.917 158.171 26.8707C158.349 26.8183 158.502 26.6987 158.599 26.5355C158.699 26.3449 158.747 26.1299 158.738 25.9133V19.4339C158.74 19.2166 158.688 19.0022 158.588 18.8111C158.487 18.6216 158.344 18.4595 158.171 18.338C157.995 18.2345 157.803 18.1608 157.604 18.1198C157.381 18.0635 157.153 18.0261 156.924 18.0081V17.3043L160.51 17.0699L160.654 17.219V25.7844C160.646 25.9994 160.694 26.2127 160.792 26.4023C160.891 26.5725 161.045 26.7012 161.227 26.7659C161.37 26.8274 161.517 26.8789 161.667 26.9203C161.825 26.9618 161.986 26.9885 162.148 27.0003L162.147 27.7018ZM160.86 12.9247C160.864 13.3157 160.726 13.6941 160.473 13.9846C160.357 14.1285 160.211 14.2438 160.046 14.3222C159.881 14.4005 159.702 14.4399 159.52 14.4375C159.347 14.4375 159.176 14.3989 159.019 14.3244C158.861 14.2499 158.721 14.1412 158.608 14.0057C158.36 13.742 158.221 13.3885 158.222 13.0206C158.218 12.6408 158.356 12.2742 158.608 11.9978C158.72 11.861 158.86 11.7512 159.018 11.6758C159.175 11.6003 159.347 11.5612 159.52 11.5611C159.7 11.5551 159.878 11.5886 160.044 11.6592C160.21 11.7299 160.36 11.8361 160.483 11.971C160.604 12.0966 160.699 12.2456 160.763 12.4094C160.828 12.5732 160.861 12.7485 160.86 12.9254V12.9247Z" fill="#059586"/>
<path d="M174.625 27.7018H169.659V26.9987C169.817 26.9846 169.991 26.9703 170.179 26.956C170.338 26.9474 170.496 26.9187 170.648 26.8707C170.826 26.8182 170.979 26.6985 171.076 26.5352C171.176 26.3444 171.224 26.129 171.215 25.912V20.511C171.254 19.8904 171.072 19.2765 170.703 18.785C170.553 18.5939 170.363 18.4401 170.148 18.335C169.933 18.2299 169.697 18.1761 169.459 18.1777C169.118 18.1735 168.778 18.233 168.457 18.3536C168.172 18.4612 167.901 18.6062 167.652 18.785C167.444 18.929 167.261 19.1071 167.11 19.3123C167.003 19.4572 166.905 19.6084 166.815 19.7652V25.8056C166.807 26.0147 166.857 26.2218 166.959 26.4023C167.064 26.5666 167.215 26.6935 167.392 26.7659C167.541 26.8388 167.699 26.8924 167.861 26.9256C168.033 26.9617 168.206 26.9867 168.381 27.0003V27.7035H163.405V27.0003C163.563 26.9862 163.726 26.972 163.894 26.9577C164.043 26.9473 164.19 26.9187 164.332 26.8724C164.51 26.82 164.663 26.7004 164.76 26.5372C164.86 26.3466 164.908 26.1316 164.899 25.915V19.4356C164.901 19.2047 164.85 18.9766 164.749 18.7704C164.653 18.5715 164.509 18.401 164.332 18.2746C164.189 18.1845 164.032 18.1215 163.868 18.0884C163.678 18.0481 163.486 18.0215 163.293 18.0088V17.3043L166.673 17.0699L166.817 17.219V18.6997H166.868C167.033 18.5296 167.239 18.3254 167.487 18.0871C167.704 17.8737 167.938 17.6796 168.187 17.5066C168.469 17.3228 168.774 17.1795 169.094 17.0805C169.478 16.9618 169.878 16.9042 170.279 16.9099C171.254 16.9099 171.977 17.2242 172.448 17.8527C172.949 18.5836 173.197 19.4673 173.153 20.3619V25.8267C173.145 26.0349 173.187 26.2419 173.277 26.4284C173.374 26.5941 173.523 26.7201 173.7 26.7854C173.838 26.8474 173.981 26.8973 174.127 26.9345C174.292 26.969 174.459 26.9904 174.627 26.9987L174.625 27.7018Z" fill="#059586"/>
<path d="M187 27.5101L183.446 27.7445L183.29 27.5954V26.6152L183.208 26.5937C182.836 27.0175 182.387 27.3614 181.886 27.6059C181.382 27.8637 180.828 27.9985 180.265 28C179.686 27.9994 179.114 27.8627 178.593 27.6003C178.053 27.3329 177.575 26.9498 177.189 26.4763C176.766 25.9527 176.44 25.3532 176.227 24.7077C175.983 23.974 175.863 23.2024 175.872 22.4267C175.868 21.6877 175.997 20.9544 176.252 20.264C176.492 19.6055 176.848 18.9987 177.302 18.4742C177.733 17.9886 178.257 17.6004 178.84 17.3341C179.422 17.0557 180.056 16.9104 180.697 16.9079C181.168 16.9078 181.637 16.9704 182.092 17.0944C182.502 17.2003 182.898 17.3595 183.27 17.5684V13.9089C183.273 13.6295 183.224 13.3521 183.126 13.092C183.046 12.8695 182.907 12.6751 182.724 12.5317C182.487 12.3795 182.222 12.2795 181.946 12.2381C181.597 12.1753 181.245 12.1311 180.891 12.1059V11.4447L185.053 11.2103L185.208 11.37V25.5292C185.202 25.7493 185.25 25.9674 185.348 26.1629C185.446 26.3427 185.585 26.4944 185.754 26.6043C185.929 26.7026 186.123 26.7574 186.321 26.7643C186.568 26.7863 186.795 26.8005 187.001 26.8069L187 27.5101ZM183.269 25.6681V19.5192C183.203 19.31 183.114 19.1097 183.002 18.9225C182.875 18.7055 182.719 18.5083 182.539 18.3367C182.33 18.1525 182.094 18.0032 181.839 17.8944C181.542 17.7714 181.224 17.7117 180.904 17.7189C180.502 17.716 180.108 17.8306 179.767 18.0494C179.398 18.2932 179.084 18.6166 178.847 18.9976C178.565 19.4648 178.362 19.9779 178.245 20.5153C178.092 21.1836 178.018 21.8687 178.024 22.5556C178.019 23.1018 178.074 23.6469 178.189 24.1801C178.297 24.6626 178.485 25.1223 178.744 25.5388C178.975 25.9275 179.29 26.2556 179.664 26.4975C180.066 26.7474 180.528 26.8735 180.996 26.8611C181.476 26.8805 181.951 26.7506 182.359 26.4882C182.697 26.2593 183.003 25.9833 183.269 25.6681Z" fill="#059586"/>
<path fill-rule="evenodd" clip-rule="evenodd" d="M67.3889 8.87773C67.1705 11.53 66.5704 12.207 64.4417 12.5472C66.5704 12.8857 67.1705 13.5628 67.3889 16.215C67.6073 13.5628 68.2077 12.8857 70.3361 12.5472C68.2077 12.207 67.6073 11.53 67.3889 8.87773Z" fill="#059586"/>
<path fill-rule="evenodd" clip-rule="evenodd" d="M70.3361 8.93425C70.2268 10.0629 70.0087 10.3449 69.1353 10.4579C70.0087 10.5706 70.2815 10.8546 70.3361 11.9816C70.4452 10.853 70.6635 10.5706 71.5367 10.4579C70.6635 10.3449 70.3905 10.0645 70.3361 8.93425Z" fill="#059586"/>
<path fill-rule="evenodd" clip-rule="evenodd" d="M68.7536 8.25722C68.808 7.46713 68.9717 7.24134 69.6268 7.12861C68.9717 7.01555 68.808 6.84629 68.7536 6C68.6989 6.78976 68.5352 7.01555 67.8801 7.12861C68.5352 7.24134 68.6989 7.46713 68.7536 8.25722Z" fill="#059586"/>
</g>
<g clip-path="url(#clip1_12_7236)">
<mask id="mask0_12_7236" style="mask-type:luminance" maskUnits="userSpaceOnUse" x="251" y="6" width="102" height="23">
<path d="M251.032 6.47273H352.054V28.7273H251.032V6.47273Z" fill="white"/>
</mask>
<g mask="url(#mask0_12_7236)">
<mask id="mask1_12_7236" style="mask-type:luminance" maskUnits="userSpaceOnUse" x="251" y="6" width="102" height="23">
<path d="M251.032 6.47273H352.054V28.7273H251.032V6.47273Z" fill="white"/>
</mask>
<g mask="url(#mask1_12_7236)">
<path d="M304.871 10.8364H306.873V22.8909H304.871V10.8364ZM297.566 10.5636C296.268 10.5636 295.077 11 294.103 11.8182V10.8364H292.101V22.8909H294.103V16.0727C294.103 14.1091 295.672 12.5818 297.566 12.5818C299.46 12.5818 301.029 14.1636 301.029 16.0727V22.8909H303.031V16.0727C303.031 13.0182 300.596 10.5636 297.566 10.5636ZM288.097 10.7818H290.099V22.4C290.045 25.8364 287.286 28.6182 283.877 28.6727C281.171 28.7273 278.682 26.9273 277.925 24.3091H280.089C280.792 25.7818 282.253 26.7091 283.877 26.6546C286.203 26.6 288.043 24.6909 288.151 22.3455V21.3636C285.608 23.7091 281.658 23.6 279.332 21.0364C277.005 18.4727 277.113 14.4909 279.656 12.1455C282.037 9.9091 285.77 9.9091 288.151 12.1455L288.097 10.7818ZM288.097 16.8364C288.097 14.4909 286.203 12.5273 283.877 12.5273C281.55 12.5273 279.602 14.4364 279.602 16.7818C279.602 19.1273 281.496 21.0909 283.877 21.0909C286.203 21.0909 288.097 19.1818 288.097 16.8364ZM257.255 12.5273C258.878 12.5273 260.393 13.5091 261.097 14.9818H263.207C262.233 11.6546 258.716 9.74546 255.415 10.7818C252.115 11.7636 250.221 15.3091 251.249 18.6364C252.277 21.9636 255.74 23.8727 259.041 22.8364C261.043 22.2364 262.612 20.6546 263.207 18.6364H261.097C260.123 20.7636 257.58 21.6909 255.469 20.7091C253.359 19.7273 252.439 17.1636 253.413 15.0364C254.117 13.5091 255.578 12.5273 257.255 12.5273ZM276.68 16.8364C276.68 20.3273 273.866 23.1091 270.458 23.1091C266.995 23.1091 264.235 20.2727 264.235 16.8364C264.235 13.4 266.941 10.5636 270.404 10.5636C273.866 10.5636 276.68 13.3455 276.68 16.8364ZM274.678 16.8364C274.678 14.4909 272.784 12.5273 270.458 12.5273C268.131 12.5273 266.183 14.4364 266.183 16.7818C266.183 19.1273 268.077 21.0909 270.404 21.0909C272.784 21.0909 274.678 19.1818 274.678 16.8364ZM339.88 10.5636C338.581 10.5636 337.39 11 336.417 11.8182V10.8364H334.414V22.8909H336.417V16.0727C336.417 14.1091 337.986 12.5273 339.88 12.5273C341.827 12.5273 343.397 14.1091 343.397 16.0182V22.8364H345.399V16.0727C345.345 13.0182 342.91 10.5636 339.88 10.5636ZM330.41 10.8364H332.412V22.8909H330.41V21.4727C327.867 23.8182 323.917 23.7091 321.591 21.1455C319.264 18.5818 319.372 14.6 321.915 12.2546C323.052 11.1636 324.567 10.5636 326.136 10.5636C327.705 10.5636 329.22 11.1636 330.41 12.2546V10.8364ZM330.41 16.8364C330.41 14.4909 328.517 12.5818 326.136 12.5818C323.809 12.5818 321.915 14.4909 321.915 16.8909C321.915 19.2364 323.809 21.1455 326.136 21.1455C328.517 21.0909 330.41 19.1818 330.41 16.8364ZM352 12.8V10.7818H349.024V7.5091H347.022V18.8546C347.022 21.0909 348.808 22.8909 351.026 22.8909H352V20.8727H351.026C349.944 20.8727 349.024 19.9455 349.024 18.8546V12.8H352ZM305.845 6.47273C305.087 6.47273 304.546 7.07273 304.546 7.78182C304.546 8.54546 305.142 9.09091 305.845 9.09091C306.602 9.09091 307.144 8.49091 307.144 7.78182C307.198 7.07273 306.602 6.47273 305.845 6.47273C305.899 6.47273 305.899 6.47273 305.845 6.47273ZM318.831 10.8364H308.875V12.8546H316.234L308.875 20.8727V22.8909H318.831V20.8727H311.418L318.777 12.8546L318.831 10.8364Z" fill="#000048"/>
</g>
</g>
<mask id="mask2_12_7236" style="mask-type:luminance" maskUnits="userSpaceOnUse" x="219" y="5" width="29" height="24">
<path d="M219 5H247.191V29H219V5Z" fill="white"/>
</mask>
<g mask="url(#mask2_12_7236)">
<mask id="mask3_12_7236" style="mask-type:luminance" maskUnits="userSpaceOnUse" x="219" y="17" width="17" height="12">
<path d="M219 17L227.279 29L235.828 23.8182L231.012 17H219Z" fill="white"/>
</mask>
<g mask="url(#mask3_12_7236)">
<path d="M219 17H235.828V29H219V17Z" fill="url(#paint0_linear_12_7236)"/>
</g>
<mask id="mask4_12_7236" style="mask-type:luminance" maskUnits="userSpaceOnUse" x="227" y="17" width="21" height="12">
<path d="M227.279 29H239.074L247.191 17L227.279 29Z" fill="white"/>
</mask>
<g mask="url(#mask4_12_7236)">
<path d="M227.279 17H247.191V29H227.279V17Z" fill="url(#paint1_linear_12_7236)"/>
</g>
<mask id="mask5_12_7236" style="mask-type:luminance" maskUnits="userSpaceOnUse" x="219" y="5" width="17" height="12">
<path d="M227.279 5L219 17H231.012L235.828 10.1818L227.279 5Z" fill="white"/>
</mask>
<g mask="url(#mask5_12_7236)">
<path d="M219 5H235.828V17H219V5Z" fill="url(#paint2_linear_12_7236)"/>
</g>
<mask id="mask6_12_7236" style="mask-type:luminance" maskUnits="userSpaceOnUse" x="227" y="5" width="21" height="12">
<path d="M227.279 5L247.191 17L239.074 5H227.279Z" fill="white"/>
</mask>
<g mask="url(#mask6_12_7236)">
<path d="M227.279 5H247.191V17H227.279V5Z" fill="url(#paint3_linear_12_7236)"/>
</g>
</g>
</g>
<rect x="202" width="2" height="33" fill="#D9D9D9"/>
<defs>
<linearGradient id="paint0_linear_12_7236" x1="219.004" y1="22.9865" x2="235.835" y2="22.9865" gradientUnits="userSpaceOnUse">
<stop stop-color="#3D54CE"/>
<stop offset="1" stop-color="#35CACF"/>
</linearGradient>
<linearGradient id="paint1_linear_12_7236" x1="227.275" y1="22.9865" x2="247.212" y2="22.9865" gradientUnits="userSpaceOnUse">
<stop stop-color="#13457D"/>
<stop offset="1" stop-color="#279698"/>
</linearGradient>
<linearGradient id="paint2_linear_12_7236" x1="218.997" y1="10.991" x2="235.842" y2="10.991" gradientUnits="userSpaceOnUse">
<stop stop-color="#090086"/>
<stop offset="1" stop-color="#2F96A9"/>
</linearGradient>
<linearGradient id="paint3_linear_12_7236" x1="227.275" y1="10.991" x2="247.212" y2="10.991" gradientUnits="userSpaceOnUse">
<stop stop-color="#3B62CA"/>
<stop offset="1" stop-color="#93DFE3"/>
</linearGradient>
<clipPath id="clip0_12_7236">
<rect width="187" height="22" fill="white" transform="translate(0 6)"/>
</clipPath>
<clipPath id="clip1_12_7236">
<rect width="133" height="24" fill="white" transform="translate(219 5)"/>
</clipPath>
</defs>
</svg>
