<svg width="187" height="23" viewBox="0 0 187 23" fill="none" xmlns="http://www.w3.org/2000/svg">
<g id="Layer_1" clip-path="url(#clip0_21_2911)">
<path id="Vector" fill-rule="evenodd" clip-rule="evenodd" d="M10.907 10.1064L8.80128 12.3395C7.67148 11.1701 6.21979 10.3901 4.64485 10.1064C3.06737 9.82368 1.44387 10.0579 0.00146484 10.7762C0.309955 8.8836 1.13403 7.12122 2.37703 5.69578C3.58538 4.23236 5.18046 3.16527 6.9667 2.62532C8.73499 2.1129 10.6079 2.13229 12.3659 2.68119C14.133 3.22993 15.7085 4.29643 16.9015 5.75165C18.1041 7.2128 18.8893 8.99132 19.1693 10.8879C19.4275 12.7804 19.1844 14.7099 18.466 16.4708C17.716 18.2198 16.4983 19.7109 14.9563 20.7684C13.4203 21.8378 11.6238 22.4377 9.77293 22.499C10.6858 21.0149 11.12 19.2698 11.0132 17.5145C10.9064 15.7591 10.2641 14.084 9.17856 12.7299L11.2302 10.5527C11.5668 10.8782 12.0112 11.0581 12.4721 11.0552C12.8988 11.0633 13.3162 10.9259 13.6598 10.6641C14.0157 10.4155 14.2671 10.0364 14.3632 9.60361C14.4818 9.18106 14.4628 8.72993 14.3092 8.31962C14.1476 7.91975 13.8629 7.58614 13.4993 7.37052C13.143 7.14686 12.7261 7.04883 12.3112 7.09118C11.8982 7.13729 11.515 7.33547 11.2315 7.64953C10.9374 7.95005 10.7475 8.34263 10.6915 8.76624C10.5943 9.22498 10.6717 9.70481 10.9076 10.1061L10.907 10.1064Z" fill="white"/>
<path id="Vector_2" d="M2.80739 15.2982C3.11724 15.2982 3.42014 15.2032 3.67777 15.0252C3.93541 14.8472 4.1362 14.5942 4.25478 14.2982C4.37336 14.0022 4.40439 13.6765 4.34394 13.3623C4.28349 13.0481 4.13427 12.7595 3.91517 12.5329C3.69607 12.3064 3.41693 12.1521 3.11302 12.0896C2.80912 12.0271 2.49411 12.0592 2.20784 12.1818C1.92157 12.3044 1.6769 12.512 1.50475 12.7784C1.33261 13.0448 1.24072 13.358 1.24072 13.6783C1.24985 14.105 1.41783 14.5115 1.70968 14.8133C2.00153 15.1151 2.39475 15.2888 2.80739 15.2982Z" fill="white"/>
<path id="Vector_3" d="M7.07301 20.4903C7.38287 20.4903 7.68576 20.3953 7.9434 20.2173C8.20103 20.0393 8.40183 19.7864 8.5204 19.4904C8.63898 19.1944 8.67002 18.8687 8.60957 18.5545C8.54912 18.2402 8.39989 17.9516 8.18079 17.7251C7.96169 17.4985 7.68255 17.3442 7.37865 17.2817C7.07475 17.2192 6.75974 17.2513 6.47347 17.3739C6.1872 17.4965 5.94253 17.7041 5.77038 17.9705C5.59823 18.2369 5.50635 18.5501 5.50635 18.8705C5.51555 19.2971 5.68356 19.7036 5.9754 20.0054C6.26723 20.3071 6.6604 20.4808 7.07301 20.4903Z" fill="white"/>
<path id="Vector_4" d="M35.3711 15.1598C35.8036 15.4653 36.1659 15.8654 36.4323 16.3317C36.7268 16.8663 36.873 17.4745 36.8547 18.0894C36.8699 18.7304 36.7169 19.3636 36.4119 19.9218C36.1243 20.4318 35.7299 20.8688 35.2576 21.2005C34.7802 21.5355 34.2529 21.7873 33.6967 21.946C33.1118 22.1172 32.5066 22.2033 31.8986 22.2019H24.9746V21.4455C25.1396 21.4312 25.38 21.4009 25.6959 21.3546C25.9285 21.3298 26.1571 21.2743 26.376 21.1893C26.5653 21.111 26.7246 20.9706 26.8293 20.7896C26.9259 20.59 26.972 20.3683 26.9633 20.1453V9.27903C26.9674 9.05968 26.927 8.84187 26.8447 8.63967C26.7466 8.43634 26.5798 8.27722 26.376 8.1924C26.1567 8.08124 25.9248 7.99895 25.6857 7.94743C25.475 7.89764 25.2614 7.86198 25.0462 7.84066V7.08428H31.7956C32.2995 7.08228 32.802 7.13592 33.2948 7.24429C33.7771 7.35267 34.2385 7.5435 34.6601 7.80892C35.0667 8.0587 35.4095 8.40572 35.6595 8.82083C35.9317 9.28973 36.0676 9.82966 36.0512 10.3762C36.0598 10.8654 35.9648 11.3506 35.7727 11.7977C35.5903 12.2094 35.3231 12.5748 34.9897 12.8685C34.6622 13.1602 34.2961 13.4023 33.9026 13.5875C33.4786 13.7883 33.0345 13.9402 32.5783 14.0404V14.1363C33.0559 14.1996 33.5269 14.3084 33.9851 14.4613C34.4801 14.6165 34.9479 14.8523 35.3711 15.1598ZM32.8792 12.8787C33.1243 12.5882 33.305 12.2458 33.4087 11.8754C33.5151 11.4539 33.5652 11.0194 33.5577 10.5838C33.5975 9.86666 33.3609 9.16238 32.8997 8.62514C32.461 8.1524 31.7689 7.91592 30.8234 7.91569C30.6036 7.91569 30.3277 7.92099 29.9956 7.93156L29.1579 7.95834V13.7766H30.4633C30.9537 13.7882 31.4424 13.7124 31.9079 13.5525C32.2835 13.4203 32.6186 13.1881 32.8792 12.8787ZM34.3097 17.7053C34.3224 17.2951 34.2515 16.8867 34.1015 16.5067C33.9515 16.1268 33.7258 15.7837 33.439 15.4999C32.8584 14.9247 32.0289 14.6371 30.9506 14.6371C30.5111 14.6371 30.1402 14.6424 29.838 14.653C29.5357 14.6636 29.309 14.6725 29.1579 14.6798V20.0065C29.1488 20.2086 29.1928 20.4095 29.2854 20.5877C29.378 20.766 29.5156 20.9149 29.6835 21.0187C30.1313 21.2703 30.6378 21.3883 31.1466 21.3595C32.1697 21.3595 32.9527 21.051 33.4956 20.4339C34.0385 19.8168 34.3095 18.9075 34.3087 17.7059L34.3097 17.7053Z" fill="white"/>
<path id="Vector_5" d="M47.5603 19.7301C47.162 20.5358 46.5737 21.2247 45.8498 21.7331C45.1215 22.2345 44.2627 22.4947 43.3879 22.4789C42.6485 22.4956 41.9148 22.3428 41.2393 22.0313C40.6491 21.7528 40.1291 21.3371 39.7197 20.8167C39.3118 20.2864 39.0089 19.6783 38.8283 19.0269C38.6299 18.3245 38.5311 17.596 38.5348 16.8643C38.5348 16.1817 38.6409 15.5037 38.8491 14.856C39.0517 14.2127 39.3639 13.612 39.7711 13.0824C40.1682 12.5734 40.6652 12.1575 41.2294 11.8622C41.8346 11.5475 42.5044 11.3888 43.1817 11.3994C43.8346 11.3822 44.4839 11.5061 45.0879 11.763C45.5879 11.9821 46.0297 12.3223 46.3761 12.7548C46.7004 13.1697 46.9405 13.648 47.082 14.1611C47.2405 14.7324 47.3184 15.3244 47.3135 15.9188V16.6219H40.5845C40.5788 17.2539 40.6431 17.8845 40.7764 18.5013C40.8892 19.0295 41.0933 19.5322 41.379 19.9853C41.6451 20.3961 42.0063 20.7317 42.4297 20.9615C42.9083 21.2111 43.4394 21.334 43.9752 21.3192C44.5332 21.3345 45.0832 21.1799 45.5569 20.8746C46.1022 20.4547 46.5421 19.9056 46.8397 19.2736L47.5603 19.7301ZM45.2832 15.7244C45.2808 15.2977 45.2481 14.8718 45.1854 14.45C45.1369 14.0568 45.0309 13.6735 44.8711 13.3131C44.7206 12.997 44.4977 12.7236 44.2217 12.5168C43.9088 12.2998 43.537 12.1918 43.1606 12.2087C42.8111 12.2054 42.4659 12.288 42.1533 12.4495C41.8407 12.6111 41.5697 12.847 41.3624 13.1379C40.8423 13.8919 40.5697 14.7984 40.5845 15.7244H45.2832Z" fill="white"/>
<path id="Vector_6" d="M56.5145 13.0503C56.5204 13.3906 56.4309 13.7254 56.2569 14.0143C56.1735 14.1518 56.0557 14.2635 55.9161 14.3376C55.7764 14.4118 55.62 14.4456 55.4633 14.4354C55.304 14.4469 55.1441 14.4254 54.993 14.3724C54.8418 14.3193 54.7024 14.2357 54.5828 14.1263C54.4894 14.0405 54.4142 13.9357 54.3618 13.8184C54.3094 13.7011 54.281 13.5738 54.2784 13.4447C54.2772 13.3018 54.2894 13.1591 54.3148 13.0186C54.3385 12.8907 54.3608 12.7628 54.3817 12.6348C53.9757 12.6629 53.5844 12.8027 53.2482 13.0397C52.7979 13.3277 52.4201 13.7219 52.1458 14.1902V20.306C52.1371 20.5177 52.1851 20.7279 52.2846 20.9132C52.388 21.0783 52.5424 21.2023 52.7226 21.265C52.9369 21.3466 53.1602 21.4002 53.3873 21.4246C53.6584 21.4603 53.8937 21.4853 54.0929 21.4994V22.2025H48.7353V21.4994C48.8932 21.4851 49.055 21.4709 49.2248 21.4567C49.3735 21.4463 49.5204 21.4177 49.6625 21.3714C49.8407 21.319 49.9933 21.1994 50.0903 21.0362C50.1901 20.8456 50.2381 20.6306 50.2291 20.414V13.9346C50.2278 13.7092 50.1767 13.4872 50.0797 13.2853C49.9866 13.0805 49.8434 12.9045 49.6641 12.7746C49.5215 12.6847 49.3645 12.6216 49.2005 12.5885C49.0107 12.5481 48.8184 12.5215 48.625 12.5088V11.8043L52.0045 11.5699L52.149 11.719V13.1997H52.2005C52.5814 12.6657 53.0656 12.2194 53.6223 11.8893C54.0556 11.6179 54.5482 11.464 55.0544 11.442C55.25 11.4346 55.4449 11.4696 55.6266 11.5448C55.8084 11.6201 55.9728 11.7338 56.1095 11.8787C56.2483 12.0367 56.3556 12.2216 56.4251 12.4227C56.4947 12.6238 56.525 12.837 56.5145 13.0503Z" fill="white"/>
<path id="Vector_7" d="M65.1594 13.0503C65.1652 13.3906 65.0757 13.7254 64.9017 14.0143C64.8183 14.1518 64.7006 14.2635 64.561 14.3376C64.4214 14.4117 64.2651 14.4455 64.1084 14.4355C63.9491 14.4469 63.7892 14.4255 63.638 14.3724C63.4867 14.3194 63.3472 14.2357 63.2276 14.1264C63.1342 14.0405 63.059 13.9357 63.0066 13.8184C62.9542 13.7011 62.9258 13.5739 62.9232 13.4447C62.922 13.3018 62.9342 13.1591 62.9597 13.0186C62.9833 12.8907 63.0056 12.7628 63.0265 12.6348C62.6205 12.6629 62.2292 12.8027 61.893 13.0397C61.4428 13.3277 61.0649 13.7219 60.7906 14.1902V20.306C60.7819 20.5177 60.8299 20.7279 60.9294 20.9132C61.0328 21.0783 61.1872 21.2023 61.3674 21.265C61.5817 21.3466 61.805 21.4002 62.0321 21.4246C62.3033 21.4604 62.5385 21.4853 62.7378 21.4994V22.2025H57.3801V21.4994C57.5381 21.4852 57.6998 21.4709 57.8696 21.4567C58.0183 21.4463 58.1652 21.4177 58.3073 21.3714C58.4855 21.3191 58.6382 21.1995 58.7351 21.0362C58.8349 20.8456 58.8829 20.6306 58.8739 20.4141V13.9346C58.8726 13.7093 58.8215 13.4872 58.7246 13.2854C58.6311 13.0803 58.4872 12.9042 58.3073 12.7746C58.1647 12.6847 58.0077 12.6217 57.8437 12.5885C57.6534 12.5481 57.4605 12.5214 57.2666 12.5088V11.8043L60.6461 11.57L60.7906 11.719V13.1997H60.8421C61.223 12.6657 61.7072 12.2194 62.2639 11.8893C62.6972 11.6179 63.1898 11.464 63.696 11.442C63.8916 11.4346 64.0865 11.4696 64.2683 11.5448C64.45 11.62 64.6145 11.7338 64.7511 11.8787C64.8905 12.0365 64.9984 12.2212 65.0684 12.4223C65.1385 12.6234 65.1694 12.8368 65.1594 13.0503Z" fill="white"/>
<path id="Vector_8" d="M70.9493 22.2018H66.0447V21.4987C66.2026 21.4846 66.3658 21.4704 66.5342 21.456C66.683 21.4457 66.83 21.4171 66.9722 21.3707C67.1503 21.3183 67.3029 21.1987 67.3997 21.0355C67.4996 20.845 67.5477 20.63 67.5388 20.4134V13.9339C67.5411 13.7165 67.4896 13.5021 67.3891 13.3111C67.2886 13.1217 67.1462 12.9596 66.9735 12.8381C66.797 12.7346 66.6056 12.661 66.4066 12.6199C66.1833 12.5635 65.9558 12.5261 65.7266 12.5081V11.8043L69.3123 11.5699L69.4565 11.719V20.2845C69.4487 20.4994 69.4964 20.7127 69.5946 20.9023C69.6938 21.0725 69.8477 21.2012 70.0294 21.266C70.1726 21.3274 70.3196 21.379 70.4694 21.4203C70.6266 21.4617 70.7871 21.4885 70.949 21.5003L70.9493 22.2018Z" fill="white"/>
<path id="Vector_9" d="M90.0732 22.2018H83.6128V21.4454C83.8473 21.4381 84.1479 21.4132 84.5145 21.3707C84.7751 21.3557 85.0314 21.2945 85.2719 21.1896C85.4624 21.0771 85.6234 20.9182 85.7409 20.7267C85.8465 20.5261 85.898 20.2998 85.8899 20.0715V9.07665H85.7355L80.7478 21.9568H80.2327L75.4829 8.8102H75.3489V17.8351C75.3308 18.5032 75.3844 19.1713 75.5088 19.8272C75.5716 20.1979 75.7423 20.5398 75.9983 20.8074C76.2771 21.0183 76.5971 21.1638 76.936 21.2335C77.2388 21.3312 77.5489 21.4025 77.8632 21.4467V22.2031H71.9595V21.4467C72.287 21.4154 72.6122 21.3619 72.933 21.2867C73.2185 21.2338 73.4883 21.1136 73.7215 20.9353C73.9835 20.6979 74.1582 20.3742 74.2161 20.0189C74.3255 19.3361 74.3703 18.6439 74.3501 17.9521V10.2175C74.3613 9.84518 74.309 9.47374 74.1953 9.12028C74.1048 8.85541 73.9527 8.61758 73.7525 8.42771C73.5249 8.22785 73.2574 8.08236 72.9692 8.00158C72.6707 7.91088 72.3629 7.85717 72.0522 7.84158V7.08521H77.0374L81.2258 18.4325L84.8009 8.94011C84.9337 8.58326 85.0454 8.2184 85.1354 7.84753C85.2038 7.59768 85.2538 7.34285 85.285 7.08521H90.0528V7.84158C89.8053 7.85586 89.559 7.8879 89.3158 7.93745C89.0944 7.97489 88.8758 8.02836 88.6616 8.09746C88.5577 8.12914 88.4616 8.1836 88.3798 8.25713C88.298 8.33066 88.2326 8.42154 88.1878 8.52358C88.104 8.72919 88.0619 8.95039 88.0641 9.17351V20.0719C88.0576 20.2883 88.1 20.5033 88.1878 20.7C88.2969 20.8964 88.4625 21.0527 88.6616 21.1472C88.8711 21.2458 89.0933 21.3126 89.3212 21.3456C89.5693 21.3972 89.8206 21.4311 90.0732 21.4471V22.2018Z" fill="white"/>
<path id="Vector_10" d="M101.397 22.0101C101.074 22.1308 100.791 22.2285 100.547 22.303C100.277 22.381 99.9977 22.4186 99.7175 22.4147C99.2596 22.4392 98.8072 22.3021 98.4345 22.0259C98.1004 21.7401 97.8818 21.3354 97.8216 20.8914H97.7595C97.3534 21.3698 96.8657 21.767 96.3208 22.0633C95.744 22.3478 95.11 22.4865 94.4711 22.4679C94.1271 22.481 93.7839 22.4238 93.4612 22.2995C93.1386 22.1752 92.8428 21.9863 92.5908 21.7436C92.3458 21.4991 92.1537 21.2037 92.0269 20.8769C91.9002 20.55 91.8418 20.1992 91.8555 19.8474C91.85 19.4781 91.9057 19.1106 92.0201 18.7608C92.1293 18.4426 92.2973 18.1495 92.5148 17.8976C92.7069 17.6674 92.9372 17.4744 93.1948 17.3277C93.4494 17.1744 93.7146 17.0409 93.9884 16.9283C94.2972 16.8073 94.924 16.5835 95.8687 16.2569C96.523 16.0497 97.1618 15.7934 97.78 15.49V14.4354C97.7713 14.2568 97.7524 14.0788 97.7234 13.9025C97.6859 13.6411 97.6038 13.3885 97.481 13.1567C97.3374 12.8868 97.1389 12.6523 96.8992 12.4694C96.5836 12.2553 96.2093 12.1526 95.8326 12.1769C95.5314 12.1741 95.2324 12.2302 94.9514 12.3422C94.7396 12.4152 94.5449 12.5331 94.3797 12.6883C94.3901 12.9007 94.4229 13.1113 94.4775 13.3164C94.5395 13.5671 94.5723 13.8246 94.5754 14.0833C94.5718 14.2144 94.5409 14.3432 94.4849 14.4609C94.4289 14.5785 94.3491 14.6824 94.2509 14.7653C93.9999 14.984 93.6772 15.0946 93.3495 15.0741C93.2023 15.0851 93.0549 15.056 92.922 14.9896C92.7891 14.9232 92.6753 14.822 92.5921 14.6959C92.4195 14.4278 92.3352 14.1092 92.3518 13.7875C92.3685 13.4658 92.4852 13.1583 92.6845 12.9108C92.9278 12.5942 93.2225 12.3238 93.5555 12.1117C93.9072 11.8936 94.2847 11.7235 94.6787 11.6056C95.0956 11.4708 95.5296 11.4008 95.9665 11.398C96.4723 11.3921 96.9776 11.4331 97.4763 11.5203C97.9005 11.6002 98.3009 11.7813 98.6455 12.0493C99.0036 12.3217 99.2805 12.6925 99.4448 13.1197C99.6445 13.6765 99.7373 14.2683 99.7182 14.8619C99.7182 15.8774 99.7075 16.7776 99.6862 17.5624C99.6649 18.3472 99.6542 19.2048 99.6542 20.1353C99.6436 20.3645 99.6916 20.5926 99.7933 20.7965C99.8981 20.9715 100.046 21.1149 100.221 21.212C100.374 21.2878 100.542 21.3243 100.711 21.3185C100.933 21.3253 101.162 21.3288 101.395 21.3291L101.397 22.0101ZM97.8008 16.3849C97.2169 16.5627 96.7054 16.737 96.2661 16.9078C95.8357 17.0739 95.4245 17.2887 95.04 17.5485C94.7132 17.7727 94.4358 18.0656 94.2259 18.408C94.0202 18.7641 93.9165 19.1733 93.927 19.5879C93.9072 19.8254 93.9369 20.0646 94.0141 20.2893C94.0913 20.514 94.2143 20.719 94.3746 20.8904C94.689 21.174 95.0962 21.3229 95.5131 21.3069C95.968 21.3166 96.4156 21.1886 96.801 20.9387C97.1587 20.7052 97.4757 20.4111 97.7388 20.0686L97.8008 16.3849Z" fill="white"/>
<path id="Vector_11" d="M109.115 17.056C109.388 17.3007 109.609 17.6019 109.764 17.9403C109.925 18.3266 110.002 18.7448 109.99 19.1654C110.002 19.62 109.913 20.0713 109.73 20.4848C109.547 20.8984 109.275 21.2634 108.935 21.5519C108.317 22.029 107.591 22.3343 106.826 22.4388C106.061 22.5432 105.283 22.4433 104.567 22.1486C104.186 21.9971 103.827 21.7928 103.5 21.5413L103.294 22.2336H102.521L102.418 18.5796H103.129C103.206 18.9181 103.324 19.245 103.481 19.5525C103.654 19.915 103.873 20.2527 104.13 20.5572C104.405 20.8764 104.73 21.1441 105.093 21.3486C105.48 21.5654 105.915 21.6757 106.355 21.6689C106.901 21.7058 107.442 21.5406 107.88 21.2028C108.062 21.0372 108.205 20.8309 108.298 20.5997C108.39 20.3685 108.431 20.1184 108.416 19.8685C108.423 19.6004 108.365 19.3347 108.246 19.096C108.124 18.8691 107.953 18.6742 107.747 18.5264C107.486 18.345 107.206 18.1965 106.912 18.0841C106.582 17.9518 106.215 17.8222 105.809 17.6953C105.443 17.5795 105.084 17.4425 104.733 17.285C104.369 17.1299 104.027 16.9238 103.718 16.6725C103.414 16.4215 103.161 16.11 102.976 15.7564C102.777 15.3625 102.678 14.9225 102.688 14.4781C102.683 14.0666 102.762 13.6587 102.922 13.2819C103.082 12.9051 103.319 12.5682 103.615 12.2939C104.299 11.6726 105.19 11.3515 106.099 11.399C106.51 11.4007 106.92 11.4544 107.319 11.5587C107.672 11.6411 108.013 11.7701 108.334 11.9425L108.571 11.3884H109.313L109.468 14.7657H108.754C108.638 14.0648 108.312 13.4193 107.822 12.9204C107.591 12.6877 107.317 12.505 107.018 12.3828C106.718 12.2606 106.397 12.2014 106.075 12.2086C105.595 12.1803 105.121 12.337 104.746 12.6486C104.594 12.7772 104.471 12.9393 104.388 13.1231C104.304 13.3068 104.261 13.5076 104.262 13.7108C104.252 13.9865 104.307 14.2605 104.421 14.5098C104.534 14.7302 104.699 14.9173 104.901 15.0533C105.145 15.2153 105.406 15.3492 105.679 15.4526C105.991 15.5769 106.377 15.7172 106.838 15.8735C107.277 16.0166 107.705 16.1911 108.121 16.3954C108.48 16.5662 108.815 16.7885 109.115 17.056Z" fill="white"/>
<path id="Vector_12" d="M117.8 21.7437C117.354 21.9354 116.931 22.0969 116.533 22.2283C116.058 22.3709 115.564 22.4378 115.07 22.4266C114.217 22.4266 113.618 22.2046 113.272 21.7605C112.894 21.2143 112.711 20.5502 112.751 19.8801V12.763H110.917V11.7402H112.793V8.46973H114.668V11.7402H117.584V12.763H114.688V18.6332C114.684 19.0013 114.7 19.3693 114.734 19.7357C114.758 20.0058 114.833 20.2685 114.956 20.5083C115.067 20.7158 115.241 20.8802 115.45 20.977C115.731 21.0953 116.033 21.1498 116.336 21.1367C116.508 21.1367 116.76 21.1207 117.093 21.0888C117.332 21.0741 117.569 21.0331 117.799 20.9664L117.8 21.7437Z" fill="white"/>
<path id="Vector_13" d="M127.836 19.7301C127.438 20.5359 126.85 21.2248 126.126 21.7331C125.397 22.2345 124.539 22.4947 123.664 22.4789C122.924 22.4956 122.191 22.3428 121.515 22.0313C120.925 21.7527 120.405 21.337 119.996 20.8167C119.588 20.2863 119.285 19.6782 119.104 19.0269C118.906 18.3245 118.807 17.596 118.811 16.8643C118.811 16.1818 118.917 15.5037 119.125 14.856C119.328 14.2126 119.64 13.6119 120.047 13.0824C120.444 12.5734 120.941 12.1574 121.505 11.8622C122.111 11.5475 122.78 11.3888 123.458 11.3994C124.111 11.3823 124.76 11.5061 125.364 11.763C125.864 11.9821 126.306 12.3223 126.652 12.7548C126.976 13.1697 127.216 13.648 127.358 14.1611C127.516 14.7324 127.594 15.3244 127.589 15.9188V16.6219H120.861C120.855 17.2539 120.92 17.8845 121.053 18.5013C121.166 19.0294 121.37 19.5321 121.656 19.9853C121.922 20.3965 122.283 20.7324 122.707 20.9625C123.185 21.212 123.716 21.335 124.252 21.3202C124.81 21.3356 125.36 21.181 125.834 20.8756C126.379 20.4557 126.819 19.9066 127.116 19.2745L127.836 19.7301ZM125.559 15.7244C125.557 15.2974 125.525 14.8711 125.463 14.449C125.414 14.0558 125.308 13.6725 125.148 13.3121C124.998 12.9959 124.775 12.7225 124.499 12.5158C124.186 12.2987 123.814 12.1908 123.438 12.2077C123.088 12.2044 122.743 12.287 122.43 12.4485C122.118 12.6101 121.847 12.846 121.64 13.1369C121.119 13.8909 120.847 14.7974 120.862 15.7234L125.559 15.7244Z" fill="white"/>
<path id="Vector_14" d="M136.79 13.0503C136.796 13.3906 136.706 13.7254 136.532 14.0143C136.449 14.1518 136.331 14.2635 136.192 14.3376C136.052 14.4117 135.896 14.4455 135.739 14.4355C135.58 14.4469 135.42 14.4254 135.269 14.3724C135.117 14.3193 134.978 14.2357 134.858 14.1264C134.765 14.0405 134.69 13.9356 134.637 13.8183C134.585 13.701 134.557 13.5738 134.554 13.4447C134.553 13.3018 134.565 13.1591 134.59 13.0186C134.614 12.8907 134.636 12.7628 134.657 12.6348C134.251 12.6629 133.86 12.8027 133.524 13.0397C133.073 13.3277 132.696 13.7219 132.421 14.1902V20.306C132.413 20.5177 132.461 20.7279 132.56 20.9132C132.663 21.0783 132.818 21.2023 132.998 21.265C133.212 21.3466 133.436 21.4002 133.663 21.4246C133.934 21.4604 134.169 21.4853 134.368 21.4994V22.2025H129.011V21.4994C129.169 21.4853 129.333 21.471 129.501 21.4567C129.65 21.4463 129.797 21.4177 129.939 21.3714C130.117 21.3191 130.27 21.1995 130.366 21.0362C130.466 20.8456 130.514 20.6306 130.506 20.4141V13.9346C130.504 13.7092 130.453 13.4872 130.356 13.2854C130.263 13.0797 130.119 12.903 129.939 12.773C129.796 12.683 129.639 12.62 129.475 12.5868C129.285 12.5464 129.092 12.5198 128.898 12.5072V11.8043L132.277 11.57L132.422 11.719V13.1997H132.473C132.854 12.6657 133.339 12.2194 133.895 11.8893C134.329 11.6178 134.821 11.464 135.328 11.442C135.523 11.4346 135.718 11.4696 135.9 11.5448C136.082 11.62 136.246 11.7338 136.383 11.8787C136.522 12.0366 136.63 12.2214 136.7 12.4224C136.77 12.6235 136.8 12.8369 136.79 13.0503Z" fill="white"/>
<path id="Vector_15" d="M155.522 22.2018H149.062V21.4454C149.297 21.4381 149.597 21.4132 149.963 21.3707C150.224 21.3557 150.48 21.2945 150.721 21.1896C150.911 21.0771 151.072 20.9182 151.19 20.7267C151.296 20.5261 151.347 20.2998 151.339 20.0715V9.07665H151.184L146.197 21.9568H145.681L140.931 8.8102H140.797V17.8351C140.779 18.5032 140.833 19.1713 140.957 19.8272C141.02 20.1978 141.191 20.5397 141.447 20.8074C141.726 21.0183 142.046 21.1638 142.385 21.2335C142.687 21.3312 142.998 21.4025 143.312 21.4467V22.2031H137.408V21.4467C137.735 21.4154 138.06 21.3619 138.381 21.2867C138.667 21.2338 138.937 21.1136 139.17 20.9353C139.432 20.6979 139.606 20.3742 139.664 20.0189C139.774 19.3361 139.819 18.6439 139.798 17.9521V10.2175C139.81 9.84518 139.757 9.47374 139.644 9.12028C139.553 8.85541 139.401 8.61758 139.201 8.42771C138.973 8.22792 138.706 8.08243 138.418 8.00158C138.119 7.91091 137.811 7.8572 137.5 7.84158V7.08521H142.486L146.674 18.4325L150.249 8.94011C150.382 8.58331 150.494 8.21844 150.584 7.84753C150.652 7.59773 150.702 7.34288 150.733 7.08521H155.501V7.84158C155.253 7.85588 155.007 7.88792 154.764 7.93745C154.543 7.97484 154.324 8.02831 154.11 8.09746C154.006 8.1291 153.91 8.18353 153.828 8.25707C153.746 8.3306 153.681 8.4215 153.636 8.52358C153.552 8.72919 153.51 8.95039 153.512 9.17351V20.0719C153.506 20.2883 153.548 20.5033 153.636 20.7C153.745 20.8964 153.911 21.0528 154.11 21.1472C154.32 21.2459 154.542 21.3127 154.769 21.3456C155.018 21.3972 155.269 21.4311 155.522 21.4471L155.522 22.2018Z" fill="white"/>
<path id="Vector_16" d="M162.147 22.2018H157.243V21.4987C157.403 21.4845 157.563 21.4703 157.733 21.456C157.882 21.4457 158.029 21.417 158.171 21.3707C158.349 21.3183 158.502 21.1987 158.599 21.0355C158.698 20.8449 158.746 20.6299 158.737 20.4134V13.9339C158.74 13.7166 158.688 13.5022 158.588 13.3111C158.487 13.1217 158.344 12.9596 158.171 12.8381C157.994 12.7345 157.803 12.6608 157.604 12.6199C157.381 12.5635 157.153 12.5261 156.924 12.5081V11.8043L160.51 11.5699L160.654 11.719V20.2845C160.646 20.4994 160.694 20.7127 160.792 20.9023C160.891 21.0725 161.045 21.2012 161.227 21.266C161.37 21.3274 161.517 21.379 161.667 21.4203C161.824 21.4618 161.985 21.4886 162.148 21.5003L162.147 22.2018ZM160.859 7.42476C160.864 7.81571 160.726 8.19415 160.473 8.48461C160.357 8.62854 160.211 8.74386 160.046 8.8222C159.881 8.90054 159.701 8.93993 159.52 8.93751C159.347 8.93749 159.176 8.89892 159.018 8.82442C158.861 8.74992 158.721 8.64124 158.608 8.50576C158.36 8.24206 158.221 7.88854 158.222 7.52063C158.217 7.14087 158.356 6.77424 158.608 6.4978C158.72 6.36105 158.86 6.25118 159.018 6.17578C159.175 6.10038 159.346 6.06125 159.52 6.0611C159.699 6.05513 159.878 6.08858 160.044 6.15925C160.21 6.22991 160.36 6.33617 160.483 6.47102C160.603 6.59667 160.699 6.74566 160.763 6.90943C160.828 7.07321 160.86 7.24856 160.859 7.42542V7.42476Z" fill="white"/>
<path id="Vector_17" d="M174.625 22.2018H169.659V21.4987C169.817 21.4846 169.99 21.4703 170.179 21.456C170.338 21.4474 170.495 21.4187 170.648 21.3707C170.826 21.3182 170.978 21.1985 171.075 21.0352C171.176 20.8444 171.224 20.629 171.215 20.4121V15.011C171.254 14.3904 171.072 13.7765 170.703 13.285C170.553 13.0939 170.363 12.9401 170.148 12.835C169.932 12.7299 169.697 12.6762 169.459 12.6777C169.117 12.6735 168.778 12.7331 168.457 12.8536C168.172 12.9612 167.901 13.1062 167.651 13.285C167.444 13.429 167.261 13.6071 167.109 13.8123C167.003 13.9572 166.904 14.1084 166.815 14.2652V20.3056C166.807 20.5147 166.857 20.7218 166.959 20.9023C167.064 21.0666 167.215 21.1936 167.392 21.266C167.541 21.3388 167.699 21.3924 167.86 21.4256C168.032 21.4617 168.206 21.4867 168.381 21.5003V22.2035H163.404V21.5003C163.562 21.4862 163.726 21.472 163.894 21.4577C164.043 21.4474 164.189 21.4187 164.332 21.3724C164.51 21.32 164.662 21.2004 164.759 21.0372C164.859 20.8466 164.907 20.6316 164.898 20.415V13.9356C164.901 13.7047 164.85 13.4766 164.749 13.2704C164.652 13.0715 164.509 12.901 164.332 12.7746C164.189 12.6846 164.032 12.6215 163.868 12.5885C163.678 12.5481 163.486 12.5215 163.292 12.5088V11.8043L166.672 11.5699L166.817 11.719V13.1997H166.868C167.033 13.0296 167.239 12.8254 167.486 12.5871C167.704 12.3738 167.938 12.1796 168.187 12.0066C168.469 11.8228 168.774 11.6795 169.094 11.5805C169.478 11.4618 169.877 11.4043 170.279 11.4099C171.254 11.4099 171.977 11.7242 172.448 12.3528C172.948 13.0836 173.197 13.9673 173.153 14.8619V20.3268C173.144 20.5349 173.187 20.742 173.277 20.9284C173.374 21.0941 173.523 21.2202 173.699 21.2854C173.837 21.3474 173.98 21.3973 174.127 21.4346C174.292 21.469 174.459 21.4904 174.627 21.4987L174.625 22.2018Z" fill="white"/>
<path id="Vector_18" d="M187 22.0101L183.446 22.2445L183.291 22.0954V21.1152L183.208 21.0937C182.836 21.5175 182.387 21.8614 181.886 22.1059C181.382 22.3637 180.828 22.4985 180.265 22.5C179.686 22.4994 179.114 22.3627 178.594 22.1003C178.054 21.8329 177.575 21.4498 177.189 20.9763C176.766 20.4527 176.44 19.8532 176.227 19.2077C175.983 18.474 175.863 17.7024 175.872 16.9267C175.868 16.1877 175.997 15.4544 176.253 14.764C176.493 14.1055 176.849 13.4987 177.302 12.9742C177.734 12.4886 178.257 12.1004 178.84 11.8341C179.423 11.5557 180.056 11.4104 180.698 11.4079C181.168 11.4078 181.637 11.4704 182.092 11.5944C182.503 11.7003 182.898 11.8595 183.27 12.0684V8.40888C183.274 8.12952 183.225 7.85213 183.126 7.59201C183.046 7.36951 182.907 7.17513 182.724 7.03167C182.487 6.87948 182.222 6.77954 181.946 6.73811C181.597 6.67526 181.245 6.63112 180.891 6.60588V5.94472L185.054 5.71033L185.208 5.87V20.0292C185.202 20.2493 185.25 20.4674 185.348 20.6629C185.446 20.8427 185.586 20.9944 185.754 21.1043C185.929 21.2026 186.123 21.2574 186.321 21.2643C186.568 21.2863 186.795 21.3005 187.001 21.3069L187 22.0101ZM183.269 20.1681V14.0192C183.203 13.81 183.114 13.6097 183.002 13.4225C182.875 13.2055 182.72 13.0083 182.539 12.8367C182.33 12.6525 182.094 12.5032 181.84 12.3944C181.542 12.2714 181.224 12.2117 180.904 12.2189C180.503 12.216 180.109 12.3306 179.768 12.5494C179.398 12.7932 179.084 13.1166 178.847 13.4976C178.566 13.9648 178.362 14.4779 178.246 15.0153C178.092 15.6836 178.018 16.3687 178.024 17.0556C178.019 17.6018 178.074 18.1469 178.189 18.6801C178.297 19.1626 178.485 19.6223 178.744 20.0388C178.975 20.4275 179.29 20.7556 179.665 20.9975C180.066 21.2474 180.528 21.3735 180.996 21.3611C181.476 21.3805 181.951 21.2506 182.359 20.9882C182.697 20.7593 183.004 20.4833 183.269 20.1681Z" fill="white"/>
<path id="Vector_19" fill-rule="evenodd" clip-rule="evenodd" d="M67.3891 3.37769C67.1708 6.02996 66.5706 6.70699 64.4419 7.04716C66.5706 7.38568 67.1708 8.06272 67.3891 10.715C67.6075 8.06272 68.2079 7.38568 70.3364 7.04716C68.2079 6.70699 67.6075 6.02996 67.3891 3.37769Z" fill="white"/>
<path id="Vector_20" fill-rule="evenodd" clip-rule="evenodd" d="M70.3361 3.4342C70.2268 4.56282 70.0087 4.84481 69.1353 4.95787C70.0087 5.07059 70.2815 5.35457 70.3361 6.48153C70.4452 5.35292 70.6635 5.07059 71.5367 4.95787C70.6635 4.84481 70.3905 4.56447 70.3361 3.4342Z" fill="white"/>
<path id="Vector_21" fill-rule="evenodd" clip-rule="evenodd" d="M68.7534 2.75722C68.8077 1.96713 68.9714 1.74134 69.6265 1.62861C68.9714 1.51555 68.8077 1.34629 68.7534 0.5C68.6987 1.28976 68.535 1.51555 67.8799 1.62861C68.535 1.74134 68.6987 1.96713 68.7534 2.75722Z" fill="white"/>
</g>
<defs>
<clipPath id="clip0_21_2911">
<rect width="187" height="22" fill="white" transform="translate(0 0.5)"/>
</clipPath>
</defs>
</svg>
