<?xml version="1.0" encoding="utf-8"?>
<!-- Generator: Adobe Illustrator 25.4.1, SVG Export Plug-In . SVG Version: 6.00 Build 0)  -->
<svg version="1.1" id="Layer_1" xmlns="http://www.w3.org/2000/svg" xmlns:xlink="http://www.w3.org/1999/xlink" x="0px" y="0px"
	 viewBox="0 0 24.04 24.41" style="enable-background:new 0 0 24.04 24.41;" xml:space="preserve">
<style type="text/css">
	.st0{opacity:0.3;fill:#E6E6E6;enable-background:new    ;}
	.st1{fill-rule:evenodd;clip-rule:evenodd;fill:#079585;}
	.st2{fill:#079585;}
</style>
<g>
	<circle class="st0" cx="11.6" cy="12.8" r="11.6"/>
	<g>
		<path class="st1" d="M13.55,9.41l-2.62,2.67c-1.39-1.42-3.2-2.37-5.15-2.72C3.81,9.02,1.79,9.28,0,10.13
			c0.39-2.27,1.42-4.41,2.95-6.13s3.53-2.95,5.73-3.57c2.23-0.6,4.57-0.58,6.75,0.09c2.2,0.67,4.18,1.95,5.66,3.69
			c1.51,1.74,2.48,3.9,2.81,6.17c0.35,2.3,0.02,4.62-0.91,6.73c-0.93,2.11-2.44,3.92-4.34,5.2c-1.9,1.28-4.13,2-6.43,2.04
			c1.14-1.79,1.67-3.9,1.53-6.01s-0.95-4.13-2.32-5.76l2.58-2.62c0.44,0.39,1,0.6,1.58,0.6c0.53,0,1.02-0.16,1.44-0.49
			s0.72-0.77,0.86-1.28c0.14-0.44,0.12-1-0.09-1.49c-0.19-0.49-0.56-0.91-1-1.16s-0.97-0.37-1.49-0.3c-0.51,0.07-1,0.3-1.37,0.67
			s-0.6,0.86-0.7,1.37C13.18,8.44,13.27,8.95,13.55,9.41L13.55,9.41z"/>
		<path class="st2" d="M3.53,15.66c1.07,0,1.93-0.88,1.93-1.97s-0.86-1.97-1.93-1.97s-1.95,0.91-1.95,2
			C1.58,14.78,2.46,15.66,3.53,15.66z"/>
		<path class="st2" d="M8.82,21.88c1.07,0,1.93-0.88,1.93-1.97c0-1.09-0.86-1.97-1.93-1.97s-1.93,0.88-1.93,1.97
			C6.89,20.99,7.75,21.88,8.82,21.88z"/>
	</g>
</g>
</svg>
