<svg width="187" height="22" viewBox="0 0 187 22" fill="none" xmlns="http://www.w3.org/2000/svg">
<g id="Layer_1" clip-path="url(#clip0_12_7178)">
<path id="Vector" fill-rule="evenodd" clip-rule="evenodd" d="M10.907 9.60643L8.80128 11.8395C7.67148 10.6701 6.21979 9.89013 4.64485 9.60643C3.06737 9.32368 1.44387 9.55786 0.00146484 10.2762C0.309955 8.3836 1.13403 6.62122 2.37703 5.19578C3.58538 3.73236 5.18046 2.66527 6.9667 2.12532C8.73499 1.6129 10.6079 1.63229 12.3659 2.18119C14.133 2.72993 15.7085 3.79643 16.9015 5.25165C18.1041 6.7128 18.8893 8.49132 19.1693 10.3879C19.4275 12.2804 19.1844 14.2099 18.466 15.9708C17.716 17.7198 16.4983 19.2109 14.9563 20.2684C13.4203 21.3378 11.6238 21.9377 9.77293 21.999C10.6858 20.5149 11.12 18.7698 11.0132 17.0145C10.9064 15.2591 10.2641 13.584 9.17856 12.2299L11.2302 10.0527C11.5668 10.3782 12.0112 10.5581 12.4721 10.5552C12.8988 10.5633 13.3162 10.4259 13.6598 10.1641C14.0157 9.91546 14.2671 9.53645 14.3632 9.10361C14.4818 8.68106 14.4628 8.22993 14.3092 7.81962C14.1476 7.41975 13.8629 7.08614 13.4993 6.87052C13.143 6.64686 12.7261 6.54883 12.3112 6.59118C11.8982 6.63729 11.515 6.83547 11.2315 7.14953C10.9374 7.45005 10.7475 7.84263 10.6915 8.26624C10.5943 8.72498 10.6717 9.20481 10.9076 9.60609L10.907 9.60643Z" fill="#059586"/>
<path id="Vector_2" d="M2.80763 14.7982C3.11749 14.7982 3.42038 14.7032 3.67802 14.5252C3.93565 14.3473 4.13645 14.0943 4.25502 13.7983C4.3736 13.5023 4.40464 13.1766 4.34419 12.8624C4.28374 12.5481 4.13451 12.2595 3.91541 12.033C3.69631 11.8064 3.41717 11.6521 3.11327 11.5896C2.80937 11.5271 2.49436 11.5592 2.20809 11.6818C1.92182 11.8044 1.67714 12.012 1.505 12.2784C1.33285 12.5448 1.24097 12.858 1.24097 13.1784C1.25009 13.605 1.41807 14.0116 1.70992 14.3134C2.00177 14.6151 2.39499 14.7888 2.80763 14.7982Z" fill="#059586"/>
<path id="Vector_3" d="M7.07301 19.9904C7.38287 19.9904 7.68576 19.8954 7.9434 19.7174C8.20103 19.5394 8.40183 19.2864 8.5204 18.9904C8.63898 18.6944 8.67002 18.3687 8.60957 18.0545C8.54912 17.7403 8.39989 17.4516 8.18079 17.2251C7.96169 16.9986 7.68255 16.8443 7.37865 16.7818C7.07475 16.7193 6.75974 16.7514 6.47347 16.874C6.1872 16.9966 5.94253 17.2042 5.77038 17.4706C5.59823 17.737 5.50635 18.0501 5.50635 18.3705C5.51555 18.7971 5.68356 19.2037 5.9754 19.5054C6.26723 19.8071 6.6604 19.9809 7.07301 19.9904Z" fill="#059586"/>
<path id="Vector_4" d="M35.3714 14.6597C35.8039 14.9653 36.1661 15.3654 36.4326 15.8316C36.7271 16.3662 36.8732 16.9744 36.8549 17.5894C36.8702 18.2303 36.7172 18.8636 36.4121 19.4218C36.1245 19.9318 35.7301 20.3687 35.2579 20.7005C34.7804 21.0354 34.2532 21.2873 33.697 21.446C33.112 21.6172 32.5068 21.7033 31.8988 21.7018H24.9749V20.9454C25.1398 20.9311 25.3803 20.9008 25.6961 20.8545C25.9287 20.8298 26.1573 20.7742 26.3762 20.6892C26.5656 20.6109 26.7249 20.4705 26.8296 20.2896C26.9261 20.0899 26.9722 19.8683 26.9636 19.6453V8.77898C26.9677 8.55964 26.9273 8.34183 26.8449 8.13963C26.7468 7.9363 26.5801 7.77718 26.3762 7.69235C26.1569 7.58119 25.925 7.4989 25.6859 7.44739C25.4752 7.3976 25.2616 7.36193 25.0465 7.34061V6.58424H31.7959C32.2997 6.58223 32.8023 6.63587 33.2951 6.74424C33.7774 6.85263 34.2388 7.04345 34.6603 7.30887C35.067 7.55866 35.4097 7.90568 35.6598 8.32079C35.9319 8.78968 36.0679 9.32961 36.0514 9.87619C36.06 10.3654 35.965 10.8505 35.773 11.2977C35.5905 11.7093 35.3233 12.0748 34.99 12.3685C34.6624 12.6602 34.2964 12.9023 33.9029 13.0875C33.4789 13.2883 33.0348 13.4402 32.5786 13.5404V13.6362C33.0562 13.6996 33.5271 13.8083 33.9854 13.9612C34.4803 14.1165 34.9482 14.3523 35.3714 14.6597ZM32.8794 12.3787C33.1246 12.0882 33.3053 11.7457 33.4089 11.3754C33.5153 10.9539 33.5654 10.5193 33.5579 10.0838C33.5977 9.36661 33.3611 8.66233 32.8999 8.12509C32.4612 7.65236 31.7691 7.41587 30.8236 7.41565C30.6039 7.41565 30.3279 7.42094 29.9958 7.43152L29.1581 7.45829V13.2766H30.4636C30.954 13.2881 31.4426 13.2123 31.9081 13.0524C32.2837 12.9202 32.6188 12.688 32.8794 12.3787ZM34.3099 17.2052C34.3227 16.795 34.2518 16.3867 34.1018 16.0067C33.9518 15.6267 33.726 15.2837 33.4393 14.9999C32.8587 14.4247 32.0292 14.1371 30.9508 14.1371C30.5113 14.1371 30.1405 14.1424 29.8382 14.1529C29.536 14.1635 29.3093 14.1724 29.1581 14.1797V19.5064C29.149 19.7085 29.1931 19.9094 29.2856 20.0877C29.3782 20.2659 29.5158 20.4149 29.6838 20.5187C30.1315 20.7702 30.638 20.8882 31.1468 20.8595C32.17 20.8595 32.953 20.5509 33.4959 19.9339C34.0388 19.3168 34.3098 18.4074 34.3089 17.2059L34.3099 17.2052Z" fill="black"/>
<path id="Vector_5" d="M47.5606 19.23C47.1623 20.0358 46.574 20.7247 45.85 21.233C45.1217 21.7345 44.263 21.9946 43.3881 21.9788C42.6488 21.9956 41.915 21.8427 41.2396 21.5312C40.6494 21.2527 40.1293 20.837 39.7199 20.3167C39.3121 19.7863 39.0092 19.1782 38.8285 18.5269C38.6302 17.8244 38.5313 17.096 38.535 16.3642C38.535 15.6817 38.6411 15.0036 38.8493 14.3559C39.0519 13.7126 39.3642 13.1119 39.7714 12.5823C40.1684 12.0734 40.6655 11.6575 41.2297 11.3622C41.8348 11.0475 42.5046 10.8887 43.1819 10.8993C43.8349 10.8822 44.4841 11.006 45.0881 11.263C45.5882 11.4821 46.03 11.8222 46.3763 12.2547C46.7007 12.6696 46.9408 13.1479 47.0823 13.661C47.2407 14.2324 47.3187 14.8244 47.3137 15.4187V16.1219H40.5848C40.579 16.7539 40.6434 17.3845 40.7766 18.0013C40.8894 18.5294 41.0936 19.0322 41.3793 19.4852C41.6454 19.8961 42.0065 20.2316 42.4299 20.4615C42.9086 20.711 43.4396 20.8339 43.9755 20.8191C44.5334 20.8344 45.0835 20.6798 45.5572 20.3745C46.1024 19.9546 46.5423 19.4056 46.8399 18.7735L47.5606 19.23ZM45.2835 15.2244C45.281 14.7977 45.2483 14.3717 45.1856 13.95C45.1371 13.5567 45.0311 13.1734 44.8713 12.8131C44.7208 12.4969 44.4979 12.2235 44.222 12.0167C43.9091 11.7997 43.5373 11.6918 43.1608 11.7086C42.8114 11.7054 42.4662 11.7879 42.1536 11.9495C41.841 12.111 41.5699 12.3469 41.3627 12.6379C40.8426 13.3919 40.5699 14.2984 40.5848 15.2244H45.2835Z" fill="black"/>
<path id="Vector_6" d="M56.5145 12.5503C56.5204 12.8906 56.4309 13.2254 56.2569 13.5142C56.1735 13.6518 56.0557 13.7635 55.9161 13.8376C55.7764 13.9117 55.62 13.9455 55.4633 13.9354C55.304 13.9469 55.1441 13.9254 54.993 13.8724C54.8418 13.8193 54.7024 13.7357 54.5828 13.6263C54.4894 13.5405 54.4142 13.4356 54.3618 13.3183C54.3094 13.201 54.281 13.0738 54.2784 12.9447C54.2772 12.8017 54.2894 12.659 54.3148 12.5185C54.3385 12.3907 54.3608 12.2628 54.3817 12.1347C53.9757 12.1629 53.5844 12.3027 53.2482 12.5397C52.7979 12.8276 52.4201 13.2219 52.1458 13.6901V19.8059C52.1371 20.0177 52.1851 20.2279 52.2846 20.4132C52.388 20.5782 52.5424 20.7022 52.7226 20.7649C52.9369 20.8465 53.1602 20.9002 53.3873 20.9246C53.6584 20.9603 53.8937 20.9852 54.0929 20.9993V21.7025H48.7353V20.9993C48.8932 20.9851 49.055 20.9709 49.2248 20.9567C49.3735 20.9463 49.5204 20.9177 49.6625 20.8714C49.8407 20.819 49.9933 20.6993 50.0903 20.5362C50.1901 20.3456 50.2381 20.1306 50.2291 19.914V13.4346C50.2278 13.2092 50.1767 12.9871 50.0797 12.7853C49.9866 12.5805 49.8434 12.4044 49.6641 12.2746C49.5215 12.1846 49.3645 12.1216 49.2005 12.0884C49.0107 12.0481 48.8184 12.0215 48.625 12.0088V11.3043L52.0045 11.0699L52.149 11.219V12.6997H52.2005C52.5814 12.1656 53.0656 11.7194 53.6223 11.3893C54.0556 11.1179 54.5482 10.964 55.0544 10.942C55.25 10.9346 55.4449 10.9696 55.6266 11.0448C55.8084 11.12 55.9728 11.2337 56.1095 11.3787C56.2483 11.5367 56.3556 11.7216 56.4251 11.9227C56.4947 12.1237 56.525 12.337 56.5145 12.5503Z" fill="black"/>
<path id="Vector_7" d="M65.1591 12.5503C65.165 12.8906 65.0755 13.2254 64.9014 13.5142C64.8181 13.6517 64.7004 13.7634 64.5608 13.8376C64.4212 13.9117 64.2648 13.9455 64.1082 13.9354C63.9489 13.9469 63.7889 13.9255 63.6377 13.8724C63.4865 13.8193 63.347 13.7357 63.2273 13.6263C63.134 13.5405 63.0587 13.4356 63.0063 13.3183C62.954 13.201 62.9256 13.0738 62.923 12.9446C62.9218 12.8017 62.934 12.659 62.9594 12.5185C62.9831 12.3907 63.0053 12.2628 63.0262 12.1347C62.6203 12.1629 62.229 12.3027 61.8928 12.5397C61.4425 12.8276 61.0647 13.2219 60.7904 13.6901V19.8059C60.7816 20.0177 60.8296 20.2279 60.9291 20.4132C61.0325 20.5782 61.1869 20.7022 61.3672 20.7649C61.5815 20.8465 61.8048 20.9002 62.0319 20.9246C62.303 20.9603 62.5382 20.9852 62.7375 20.9993V21.7025H57.3799V20.9993C57.5378 20.9851 57.6996 20.9709 57.8694 20.9567C58.018 20.9463 58.165 20.9177 58.3071 20.8714C58.4853 20.819 58.6379 20.6994 58.7349 20.5362C58.8347 20.3456 58.8826 20.1306 58.8736 19.914V13.4346C58.8724 13.2092 58.8213 12.9871 58.7243 12.7853C58.6309 12.5802 58.487 12.4041 58.3071 12.2746C58.1644 12.1846 58.0074 12.1216 57.8435 12.0884C57.6531 12.048 57.4603 12.0214 57.2664 12.0088V11.3043L60.6459 11.0699L60.7904 11.219V12.6997H60.8419C61.2228 12.1656 61.7069 11.7194 62.2637 11.3893C62.697 11.1179 63.1896 10.964 63.6957 10.942C63.8913 10.9345 64.0863 10.9695 64.268 11.0447C64.4498 11.12 64.6142 11.2337 64.7508 11.3787C64.8903 11.5365 64.9981 11.7212 65.0682 11.9223C65.1383 12.1234 65.1692 12.3368 65.1591 12.5503Z" fill="black"/>
<path id="Vector_8" d="M70.9493 21.7018H66.0447V20.9987C66.2026 20.9846 66.3658 20.9703 66.5342 20.956C66.683 20.9457 66.83 20.917 66.9722 20.8707C67.1503 20.8183 67.3029 20.6987 67.3997 20.5355C67.4996 20.3449 67.5477 20.1299 67.5388 19.9133V13.4339C67.5411 13.2165 67.4896 13.0021 67.3891 12.8111C67.2886 12.6217 67.1462 12.4596 66.9735 12.338C66.797 12.2346 66.6056 12.1609 66.4066 12.1198C66.1833 12.0635 65.9558 12.0261 65.7266 12.0081V11.3043L69.3123 11.0699L69.4565 11.219V19.7844C69.4487 19.9994 69.4964 20.2127 69.5946 20.4023C69.6938 20.5725 69.8477 20.7012 70.0294 20.7659C70.1726 20.8274 70.3196 20.8789 70.4694 20.9203C70.6266 20.9617 70.7871 20.9885 70.949 21.0003L70.9493 21.7018Z" fill="black"/>
<path id="Vector_9" d="M90.0732 21.7018H83.6128V20.9454C83.8473 20.9382 84.1479 20.9133 84.5145 20.8707C84.7751 20.8558 85.0314 20.7945 85.2719 20.6896C85.4624 20.5772 85.6234 20.4183 85.7409 20.2267C85.8465 20.0261 85.898 19.7998 85.8899 19.5715V8.57666H85.7355L80.7478 21.4568H80.2327L75.4829 8.31021H75.3489V17.3351C75.3308 18.0032 75.3844 18.6713 75.5088 19.3272C75.5716 19.6979 75.7423 20.0399 75.9983 20.3074C76.2771 20.5184 76.5971 20.6638 76.936 20.7335C77.2388 20.8312 77.5489 20.9025 77.8632 20.9468V21.7031H71.9595V20.9468C72.287 20.9154 72.6122 20.862 72.933 20.7868C73.2185 20.7338 73.4883 20.6136 73.7215 20.4354C73.9835 20.1979 74.1582 19.8742 74.2161 19.519C74.3255 18.8362 74.3703 18.144 74.3501 17.4522V9.7175C74.3613 9.3452 74.309 8.97376 74.1953 8.62029C74.1048 8.35542 73.9527 8.1176 73.7525 7.92772C73.5249 7.72787 73.2574 7.58237 72.9692 7.5016C72.6707 7.4109 72.3629 7.35718 72.0522 7.34159V6.58522H77.0374L81.2258 17.9325L84.8009 8.44012C84.9337 8.08327 85.0454 7.71841 85.1354 7.34755C85.2038 7.0977 85.2538 6.84287 85.285 6.58522H90.0528V7.34159C89.8053 7.35588 89.559 7.38792 89.3158 7.43747C89.0944 7.4749 88.8758 7.52837 88.6616 7.59747C88.5577 7.62915 88.4616 7.68361 88.3798 7.75714C88.298 7.83067 88.2326 7.92155 88.1878 8.02359C88.104 8.2292 88.0619 8.45041 88.0641 8.67352V19.5719C88.0576 19.7883 88.1 20.0033 88.1878 20.2C88.2969 20.3964 88.4625 20.5527 88.6616 20.6473C88.8711 20.7459 89.0933 20.8127 89.3212 20.8456C89.5693 20.8972 89.8206 20.9311 90.0732 20.9471V21.7018Z" fill="#059586"/>
<path id="Vector_10" d="M101.397 21.5101C101.074 21.6308 100.791 21.7285 100.547 21.803C100.277 21.881 99.998 21.9186 99.7178 21.9147C99.2598 21.9392 98.8074 21.8021 98.4347 21.5259C98.1007 21.2401 97.882 20.8354 97.8218 20.3914H97.7598C97.3536 20.8698 96.866 21.267 96.321 21.5633C95.7442 21.8478 95.1102 21.9865 94.4714 21.9679C94.1273 21.981 93.7841 21.9238 93.4615 21.7995C93.1388 21.6752 92.843 21.4863 92.5911 21.2436C92.3461 20.9991 92.1539 20.7037 92.0272 20.3769C91.9004 20.05 91.842 19.6992 91.8557 19.3474C91.8502 18.9781 91.9059 18.6106 92.0204 18.2608C92.1296 17.9426 92.2976 17.6495 92.515 17.3976C92.7071 17.1674 92.9374 16.9744 93.1951 16.8277C93.4496 16.6744 93.7149 16.5409 93.9886 16.4283C94.2975 16.3073 94.9242 16.0835 95.8689 15.7569C96.5232 15.5497 97.162 15.2934 97.7803 14.99V13.9354C97.7715 13.7568 97.7527 13.5788 97.7237 13.4025C97.6862 13.1411 97.6041 12.8885 97.4813 12.6567C97.3377 12.3868 97.1392 12.1523 96.8994 11.9694C96.5838 11.7553 96.2096 11.6526 95.8328 11.6769C95.5316 11.6741 95.2327 11.7302 94.9516 11.8422C94.7399 11.9152 94.5452 12.0331 94.38 12.1883C94.3903 12.4007 94.4231 12.6113 94.4778 12.8164C94.5397 13.0671 94.5726 13.3246 94.5756 13.5833C94.572 13.7144 94.5412 13.8432 94.4852 13.9609C94.4292 14.0785 94.3494 14.1824 94.2511 14.2653C94.0001 14.484 93.6774 14.5946 93.3498 14.5741C93.2026 14.5851 93.0551 14.556 92.9222 14.4896C92.7893 14.4232 92.6756 14.322 92.5924 14.1959C92.4197 13.9278 92.3354 13.6092 92.3521 13.2875C92.3687 12.9658 92.4854 12.6583 92.6848 12.4108C92.9281 12.0942 93.2228 11.8238 93.5557 11.6117C93.9074 11.3936 94.2849 11.2235 94.6789 11.1056C95.0959 10.9708 95.5299 10.9008 95.9667 10.898C96.4725 10.8921 96.9778 10.9331 97.4765 11.0203C97.9008 11.1002 98.3011 11.2813 98.6457 11.5493C99.0038 11.8217 99.2808 12.1925 99.4451 12.6197C99.6447 13.1765 99.7376 13.7683 99.7184 14.3619C99.7184 15.3774 99.7078 16.2776 99.6864 17.0624C99.6651 17.8472 99.6545 18.7048 99.6545 19.6353C99.6438 19.8645 99.6918 20.0926 99.7936 20.2965C99.8983 20.4715 100.046 20.6149 100.221 20.712C100.374 20.7878 100.542 20.8243 100.711 20.8185C100.934 20.8253 101.162 20.8288 101.396 20.8291L101.397 21.5101ZM97.801 15.8849C97.2172 16.0627 96.7056 16.237 96.2663 16.4078C95.836 16.5739 95.4247 16.7887 95.0402 17.0485C94.7135 17.2727 94.4361 17.5656 94.2262 17.908C94.0204 18.2641 93.9167 18.6733 93.9272 19.0879C93.9074 19.3254 93.9372 19.5646 94.0144 19.7893C94.0916 20.014 94.2145 20.219 94.3748 20.3904C94.6893 20.674 95.0964 20.8229 95.5134 20.8069C95.9682 20.8166 96.4158 20.6886 96.8012 20.4387C97.1589 20.2052 97.476 19.9111 97.739 19.5686L97.801 15.8849Z" fill="#059586"/>
<path id="Vector_11" d="M109.114 16.556C109.388 16.8007 109.609 17.1019 109.763 17.4403C109.925 17.8266 110.002 18.2448 109.99 18.6654C110.002 19.12 109.912 19.5713 109.73 19.9848C109.547 20.3984 109.275 20.7634 108.935 21.0519C108.317 21.529 107.591 21.8343 106.826 21.9388C106.061 22.0432 105.283 21.9433 104.566 21.6486C104.186 21.4971 103.827 21.2928 103.5 21.0413L103.293 21.7336H102.521L102.418 18.0796H103.129C103.205 18.4181 103.324 18.745 103.481 19.0525C103.654 19.415 103.872 19.7527 104.13 20.0572C104.404 20.3764 104.73 20.6441 105.093 20.8486C105.48 21.0654 105.915 21.1757 106.355 21.1689C106.901 21.2058 107.442 21.0406 107.88 20.7028C108.062 20.5372 108.204 20.3309 108.297 20.0997C108.39 19.8685 108.431 19.6184 108.416 19.3685C108.423 19.1004 108.364 18.8347 108.246 18.596C108.124 18.3691 107.953 18.1742 107.746 18.0264C107.486 17.845 107.206 17.6965 106.912 17.5841C106.582 17.4518 106.214 17.3222 105.809 17.1953C105.443 17.0795 105.084 16.9425 104.733 16.785C104.369 16.6299 104.027 16.4238 103.717 16.1725C103.413 15.9215 103.161 15.61 102.976 15.2564C102.776 14.8625 102.677 14.4225 102.688 13.9781C102.682 13.5666 102.762 13.1587 102.922 12.7819C103.082 12.4051 103.318 12.0682 103.615 11.7939C104.299 11.1726 105.19 10.8515 106.098 10.899C106.51 10.9007 106.92 10.9544 107.319 11.0587C107.672 11.1411 108.013 11.2701 108.334 11.4425L108.571 10.8884H109.313L109.468 14.2657H108.754C108.638 13.5648 108.311 12.9193 107.821 12.4204C107.591 12.1877 107.317 12.005 107.017 11.8828C106.717 11.7606 106.397 11.7014 106.075 11.7086C105.594 11.6803 105.121 11.837 104.746 12.1486C104.594 12.2772 104.471 12.4393 104.387 12.6231C104.304 12.8068 104.26 13.0076 104.261 13.2108C104.252 13.4865 104.307 13.7605 104.421 14.0098C104.534 14.2302 104.699 14.4173 104.901 14.5533C105.145 14.7153 105.406 14.8492 105.679 14.9526C105.991 15.0769 106.377 15.2172 106.838 15.3735C107.276 15.5166 107.705 15.6911 108.12 15.8954C108.48 16.0662 108.815 16.2885 109.114 16.556Z" fill="#059586"/>
<path id="Vector_12" d="M117.8 21.2436C117.354 21.4354 116.932 21.5969 116.533 21.7283C116.058 21.8709 115.565 21.9378 115.07 21.9266C114.217 21.9266 113.618 21.7046 113.272 21.2605C112.895 20.7143 112.711 20.0502 112.752 19.3801V12.263H110.918V11.2402H112.793V7.96971H114.668V11.2402H117.584V12.263H114.688V18.1332C114.685 18.5013 114.7 18.8693 114.734 19.2357C114.758 19.5058 114.833 19.7685 114.956 20.0082C115.067 20.2157 115.241 20.3802 115.45 20.477C115.731 20.5953 116.033 20.6497 116.336 20.6367C116.508 20.6367 116.761 20.6207 117.094 20.5887C117.332 20.5741 117.569 20.5331 117.8 20.4664L117.8 21.2436Z" fill="#059586"/>
<path id="Vector_13" d="M127.836 19.2301C127.438 20.0359 126.85 20.7248 126.126 21.233C125.398 21.7345 124.539 21.9947 123.664 21.9789C122.925 21.9956 122.191 21.8427 121.515 21.5312C120.925 21.2526 120.405 20.837 119.996 20.3167C119.588 19.7863 119.285 19.1781 119.104 18.5269C118.906 17.8244 118.807 17.096 118.811 16.3642C118.811 15.6817 118.917 15.0037 119.125 14.3559C119.328 13.7125 119.64 13.1118 120.048 12.5823C120.444 12.0733 120.941 11.6574 121.506 11.3622C122.111 11.0475 122.781 10.8887 123.458 10.8993C124.111 10.8822 124.76 11.006 125.364 11.263C125.864 11.4821 126.306 11.8222 126.652 12.2547C126.977 12.6696 127.217 13.1479 127.358 13.661C127.517 14.2324 127.595 14.8244 127.59 15.4187V16.1219H120.861C120.856 16.7539 120.92 17.3845 121.053 18.0013C121.166 18.5293 121.37 19.032 121.656 19.4853C121.922 19.8965 122.283 20.2324 122.707 20.4625C123.185 20.712 123.716 20.8349 124.252 20.8202C124.81 20.8356 125.36 20.6809 125.834 20.3755C126.379 19.9556 126.819 19.4066 127.117 18.7745L127.836 19.2301ZM125.559 15.2244C125.557 14.7974 125.525 14.3711 125.463 13.949C125.414 13.5557 125.308 13.1724 125.148 12.8121C124.998 12.4959 124.775 12.2225 124.499 12.0157C124.186 11.7987 123.814 11.6907 123.438 11.7076C123.089 11.7044 122.743 11.7869 122.431 11.9485C122.118 12.11 121.847 12.346 121.64 12.6369C121.12 13.3909 120.847 14.2974 120.862 15.2234L125.559 15.2244Z" fill="#059586"/>
<path id="Vector_14" d="M136.79 12.5503C136.796 12.8906 136.707 13.2254 136.533 13.5142C136.449 13.6517 136.332 13.7634 136.192 13.8376C136.052 13.9117 135.896 13.9455 135.739 13.9354C135.58 13.9468 135.42 13.9254 135.269 13.8723C135.118 13.8193 134.978 13.7356 134.859 13.6263C134.765 13.5405 134.69 13.4356 134.638 13.3183C134.585 13.201 134.557 13.0738 134.554 12.9446C134.553 12.8017 134.565 12.659 134.591 12.5185C134.614 12.3907 134.637 12.2628 134.657 12.1347C134.251 12.1629 133.86 12.3027 133.524 12.5397C133.074 12.8276 132.696 13.2219 132.422 13.6901V19.8059C132.413 20.0177 132.461 20.2279 132.56 20.4132C132.664 20.5782 132.818 20.7022 132.998 20.7649C133.213 20.8465 133.436 20.9002 133.663 20.9246C133.934 20.9603 134.169 20.9852 134.369 20.9993V21.7025H129.012V20.9993C129.17 20.9852 129.333 20.971 129.501 20.9567C129.65 20.9463 129.797 20.9177 129.939 20.8714C130.117 20.819 130.27 20.6994 130.367 20.5362C130.467 20.3456 130.515 20.1306 130.506 19.914V13.4346C130.504 13.2092 130.453 12.9871 130.356 12.7853C130.263 12.5796 130.119 12.4029 129.939 12.2729C129.796 12.183 129.639 12.12 129.475 12.0868C129.285 12.0464 129.092 12.0197 128.898 12.0071V11.3043L132.278 11.0699L132.422 11.219V12.6997H132.474C132.855 12.1656 133.339 11.7194 133.896 11.3893C134.329 11.1178 134.822 10.9639 135.328 10.942C135.523 10.9345 135.718 10.9695 135.9 11.0447C136.082 11.12 136.246 11.2337 136.383 11.3787C136.522 11.5365 136.63 11.7213 136.7 11.9224C136.77 12.1235 136.8 12.3369 136.79 12.5503Z" fill="#059586"/>
<path id="Vector_15" d="M155.522 21.7018H149.062V20.9454C149.297 20.9382 149.597 20.9133 149.963 20.8707C150.224 20.8558 150.48 20.7945 150.721 20.6896C150.911 20.5772 151.072 20.4183 151.19 20.2267C151.296 20.0261 151.347 19.7998 151.339 19.5715V8.57666H151.184L146.197 21.4568H145.681L140.931 8.31021H140.797V17.3351C140.779 18.0032 140.833 18.6713 140.957 19.3272C141.02 19.6978 141.191 20.0397 141.447 20.3074C141.726 20.5184 142.046 20.6638 142.385 20.7335C142.687 20.8312 142.998 20.9025 143.312 20.9468V21.7031H137.408V20.9468C137.735 20.9154 138.06 20.862 138.381 20.7868C138.667 20.7338 138.937 20.6136 139.17 20.4354C139.432 20.1979 139.606 19.8742 139.664 19.519C139.774 18.8362 139.819 18.144 139.798 17.4522V9.7175C139.81 9.3452 139.757 8.97376 139.644 8.62029C139.553 8.35542 139.401 8.1176 139.201 7.92772C138.973 7.72794 138.706 7.58245 138.418 7.5016C138.119 7.41093 137.811 7.35722 137.5 7.34159V6.58522H142.486L146.674 17.9325L150.249 8.44012C150.382 8.08333 150.494 7.71845 150.584 7.34755C150.652 7.09774 150.702 6.84289 150.733 6.58522H155.501V7.34159C155.253 7.3559 155.007 7.38794 154.764 7.43747C154.543 7.47485 154.324 7.52832 154.11 7.59747C154.006 7.62911 153.91 7.68355 153.828 7.75708C153.746 7.83062 153.681 7.92152 153.636 8.02359C153.552 8.2292 153.51 8.45041 153.512 8.67352V19.5719C153.506 19.7883 153.548 20.0033 153.636 20.2C153.745 20.3965 153.911 20.5528 154.11 20.6473C154.32 20.7459 154.542 20.8127 154.769 20.8456C155.018 20.8972 155.269 20.9311 155.522 20.9471L155.522 21.7018Z" fill="#059586"/>
<path id="Vector_16" d="M162.147 21.7018H157.243V20.9987C157.403 20.9844 157.563 20.9702 157.733 20.956C157.882 20.9456 158.029 20.917 158.171 20.8707C158.349 20.8183 158.502 20.6987 158.599 20.5355C158.699 20.3449 158.747 20.1299 158.738 19.9133V13.4339C158.74 13.2166 158.688 13.0022 158.588 12.8111C158.487 12.6216 158.344 12.4595 158.171 12.338C157.995 12.2345 157.803 12.1608 157.604 12.1198C157.381 12.0635 157.153 12.0261 156.924 12.0081V11.3043L160.51 11.0699L160.654 11.219V19.7844C160.646 19.9994 160.694 20.2127 160.792 20.4023C160.891 20.5725 161.045 20.7012 161.227 20.7659C161.37 20.8274 161.517 20.8789 161.667 20.9203C161.825 20.9618 161.986 20.9885 162.148 21.0003L162.147 21.7018ZM160.86 6.92473C160.864 7.31568 160.726 7.69412 160.473 7.98458C160.357 8.12851 160.211 8.24383 160.046 8.32217C159.881 8.40051 159.702 8.4399 159.52 8.43748C159.347 8.43746 159.176 8.39889 159.019 8.32439C158.861 8.24989 158.721 8.1412 158.608 8.00573C158.36 7.74203 158.221 7.38851 158.222 7.0206C158.218 6.64084 158.356 6.27421 158.608 5.99777C158.72 5.86102 158.86 5.75115 159.018 5.67575C159.175 5.60035 159.347 5.56122 159.52 5.56107C159.7 5.5551 159.878 5.58855 160.044 5.65922C160.21 5.72988 160.36 5.83614 160.483 5.97099C160.604 6.09664 160.699 6.24563 160.763 6.4094C160.828 6.57318 160.861 6.74853 160.86 6.92539V6.92473Z" fill="#059586"/>
<path id="Vector_17" d="M174.625 21.7018H169.659V20.9987C169.817 20.9846 169.991 20.9703 170.179 20.956C170.338 20.9474 170.496 20.9187 170.648 20.8707C170.826 20.8182 170.979 20.6985 171.076 20.5352C171.176 20.3444 171.224 20.129 171.215 19.912V14.511C171.254 13.8904 171.072 13.2765 170.703 12.785C170.553 12.5939 170.363 12.4401 170.148 12.335C169.933 12.2299 169.697 12.1761 169.459 12.1777C169.118 12.1735 168.778 12.233 168.457 12.3536C168.172 12.4612 167.901 12.6062 167.652 12.785C167.444 12.929 167.261 13.1071 167.11 13.3123C167.003 13.4572 166.905 13.6084 166.815 13.7652V19.8056C166.807 20.0147 166.857 20.2218 166.959 20.4023C167.064 20.5666 167.215 20.6935 167.392 20.7659C167.541 20.8388 167.699 20.8924 167.861 20.9256C168.033 20.9617 168.206 20.9867 168.381 21.0003V21.7035H163.405V21.0003C163.563 20.9862 163.726 20.972 163.894 20.9577C164.043 20.9473 164.19 20.9187 164.332 20.8724C164.51 20.82 164.663 20.7004 164.76 20.5372C164.86 20.3466 164.908 20.1316 164.899 19.915V13.4356C164.901 13.2047 164.85 12.9766 164.749 12.7704C164.653 12.5715 164.509 12.401 164.332 12.2746C164.189 12.1845 164.032 12.1215 163.868 12.0884C163.678 12.0481 163.486 12.0215 163.293 12.0088V11.3043L166.673 11.0699L166.817 11.219V12.6997H166.868C167.033 12.5296 167.239 12.3254 167.487 12.0871C167.704 11.8737 167.938 11.6796 168.187 11.5066C168.469 11.3228 168.774 11.1795 169.094 11.0805C169.478 10.9618 169.878 10.9042 170.279 10.9099C171.254 10.9099 171.977 11.2242 172.448 11.8527C172.949 12.5836 173.197 13.4673 173.153 14.3619V19.8267C173.145 20.0349 173.187 20.2419 173.277 20.4284C173.374 20.5941 173.523 20.7201 173.7 20.7854C173.838 20.8474 173.981 20.8973 174.127 20.9345C174.292 20.969 174.459 20.9904 174.627 20.9987L174.625 21.7018Z" fill="#059586"/>
<path id="Vector_18" d="M187 21.5101L183.446 21.7445L183.29 21.5954V20.6152L183.208 20.5937C182.836 21.0175 182.387 21.3614 181.886 21.6059C181.382 21.8637 180.828 21.9985 180.265 22C179.686 21.9994 179.114 21.8627 178.593 21.6003C178.053 21.3329 177.575 20.9498 177.189 20.4763C176.766 19.9527 176.44 19.3532 176.227 18.7077C175.983 17.974 175.863 17.2024 175.872 16.4267C175.868 15.6877 175.997 14.9544 176.252 14.264C176.492 13.6055 176.848 12.9987 177.302 12.4742C177.733 11.9886 178.257 11.6004 178.84 11.3341C179.422 11.0557 180.056 10.9104 180.697 10.9079C181.168 10.9078 181.637 10.9704 182.092 11.0944C182.502 11.2003 182.898 11.3595 183.27 11.5684V7.90888C183.273 7.62952 183.224 7.35213 183.126 7.09201C183.046 6.86951 182.907 6.67513 182.724 6.53167C182.487 6.37948 182.222 6.27954 181.946 6.23811C181.597 6.17526 181.245 6.13112 180.891 6.10588V5.44472L185.053 5.21033L185.208 5.37V19.5292C185.202 19.7493 185.25 19.9674 185.348 20.1629C185.446 20.3427 185.585 20.4944 185.754 20.6043C185.929 20.7026 186.123 20.7574 186.321 20.7643C186.568 20.7863 186.795 20.8005 187.001 20.8069L187 21.5101ZM183.269 19.6681V13.5192C183.203 13.31 183.114 13.1097 183.002 12.9225C182.875 12.7055 182.719 12.5083 182.539 12.3367C182.33 12.1525 182.094 12.0032 181.839 11.8944C181.542 11.7714 181.224 11.7117 180.904 11.7189C180.502 11.716 180.108 11.8306 179.767 12.0494C179.398 12.2932 179.084 12.6166 178.847 12.9976C178.565 13.4648 178.362 13.9779 178.245 14.5153C178.092 15.1836 178.018 15.8687 178.024 16.5556C178.019 17.1018 178.074 17.6469 178.189 18.1801C178.297 18.6626 178.485 19.1223 178.744 19.5388C178.975 19.9275 179.29 20.2556 179.664 20.4975C180.066 20.7474 180.528 20.8735 180.996 20.8611C181.476 20.8805 181.951 20.7506 182.359 20.4882C182.697 20.2593 183.003 19.9833 183.269 19.6681Z" fill="#059586"/>
<path id="Vector_19" fill-rule="evenodd" clip-rule="evenodd" d="M67.3889 2.87773C67.1705 5.53 66.5704 6.20704 64.4417 6.54721C66.5704 6.88573 67.1705 7.56276 67.3889 10.215C67.6073 7.56276 68.2077 6.88573 70.3361 6.54721C68.2077 6.20704 67.6073 5.53 67.3889 2.87773Z" fill="#059586"/>
<path id="Vector_20" fill-rule="evenodd" clip-rule="evenodd" d="M70.3361 2.93425C70.2268 4.06286 70.0087 4.34485 69.1353 4.45791C70.0087 4.57064 70.2815 4.85461 70.3361 5.98157C70.4452 4.85296 70.6635 4.57064 71.5367 4.45791C70.6635 4.34485 70.3905 4.06451 70.3361 2.93425Z" fill="#059586"/>
<path id="Vector_21" fill-rule="evenodd" clip-rule="evenodd" d="M68.7536 2.25722C68.808 1.46713 68.9717 1.24134 69.6268 1.12861C68.9717 1.01555 68.808 0.846294 68.7536 0C68.6989 0.789764 68.5352 1.01555 67.8801 1.12861C68.5352 1.24134 68.6989 1.46713 68.7536 2.25722Z" fill="#059586"/>
</g>
<defs>
<clipPath id="clip0_12_7178">
<rect width="187" height="22" fill="white"/>
</clipPath>
</defs>
</svg>
