<svg width="28" height="28" viewBox="0 0 28 28" fill="none" xmlns="http://www.w3.org/2000/svg">
<g clip-path="url(#clip0_6_1006)">
<path d="M26.0905 24.09C27.1434 24.09 28 23.2333 28 22.1804V2.73438C28 1.22664 26.7734 0 25.2656 0H2.73438C1.22664 0 0 1.22664 0 2.73438V22.1804C0 23.2333 0.856625 24.09 1.90952 24.09H2.51562V26.9062H0.546875C0.244836 26.9062 0 27.1511 0 27.4531C0 27.7551 0.244836 28 0.546875 28H27.4531C27.7552 28 28 27.7551 28 27.4531C28 27.1511 27.7552 26.9062 27.4531 26.9062H25.4844V24.09H26.0905ZM1.09375 2.73438C1.09375 1.82973 1.82973 1.09375 2.73438 1.09375H25.2656C26.1703 1.09375 26.9062 1.82973 26.9062 2.73438V3.9375H1.14866C1.13012 3.9375 1.1118 3.93848 1.09375 3.94029V2.73438ZM6.01562 26.9062H3.60938V21.9844H6.01562V26.9062ZM12.1406 26.9062H9.73438V15.9377H12.1406V26.9062ZM18.2656 26.9062H15.8594V20.5625H18.2656V26.9062ZM24.9375 14.0273H21.4375C21.1355 14.0273 20.8906 14.2722 20.8906 14.5742V17.3359C20.8906 17.6379 21.1355 17.8828 21.4375 17.8828C21.7395 17.8828 21.9844 17.6379 21.9844 17.3359V15.1211H24.3906V26.9062H21.9844V21.0137C21.9844 20.7117 21.7395 20.4668 21.4375 20.4668C21.1355 20.4668 20.8906 20.7117 20.8906 21.0137V26.9062H19.3594V20.0156C19.3594 19.7136 19.1145 19.4688 18.8125 19.4688H15.3125C15.0105 19.4688 14.7656 19.7136 14.7656 20.0156V26.9062H13.2344V15.3908C13.2344 15.0888 12.9895 14.8439 12.6875 14.8439H9.1875C8.88546 14.8439 8.64062 15.0888 8.64062 15.3908V26.9062H7.10938V21.4375C7.10938 21.1355 6.86454 20.8906 6.5625 20.8906H3.0625C2.76046 20.8906 2.51562 21.1355 2.51562 21.4375V22.9962H1.90952C1.45966 22.9962 1.09375 22.6302 1.09375 22.1804V5.02846C1.1118 5.03027 1.13012 5.03125 1.14866 5.03125H26.9062V22.1804C26.9062 22.6302 26.5403 22.9962 26.0905 22.9962H25.4844V14.5742C25.4844 14.2722 25.2395 14.0273 24.9375 14.0273Z" fill="#212B36"/>
<path d="M24.5 1.96875H12.1442C11.8421 1.96875 11.5973 2.21364 11.5973 2.51562C11.5973 2.81761 11.8421 3.0625 12.1442 3.0625H24.5C24.802 3.0625 25.0469 2.81761 25.0469 2.51562C25.0469 2.21364 24.802 1.96875 24.5 1.96875Z" fill="#212B36"/>
<path d="M6.07414 2.12898C5.97242 2.02727 5.83133 1.96875 5.6875 1.96875C5.54367 1.96875 5.40258 2.02721 5.30086 2.12898C5.19914 2.2307 5.14062 2.3718 5.14062 2.51562C5.14062 2.65945 5.19914 2.80055 5.30086 2.90221C5.40258 3.00398 5.54367 3.0625 5.6875 3.0625C5.83133 3.0625 5.97242 3.00398 6.07414 2.90221C6.17586 2.80055 6.23438 2.65945 6.23438 2.51562C6.23438 2.3718 6.17586 2.2307 6.07414 2.12898Z" fill="#212B36"/>
<path d="M3.88664 2.12898C3.78492 2.02727 3.64383 1.96875 3.5 1.96875C3.35617 1.96875 3.21508 2.02721 3.11336 2.12898C3.01164 2.2307 2.95312 2.3718 2.95312 2.51562C2.95312 2.65945 3.01164 2.80055 3.11336 2.90221C3.21508 3.00398 3.35617 3.0625 3.5 3.0625C3.64383 3.0625 3.78492 3.00398 3.88664 2.90221C3.98836 2.80055 4.04688 2.65945 4.04688 2.51562C4.04688 2.3718 3.98836 2.2307 3.88664 2.12898Z" fill="#212B36"/>
<path d="M8.26164 2.12898C8.15992 2.02727 8.01938 1.96875 7.875 1.96875C7.73117 1.96875 7.59008 2.02721 7.48836 2.12898C7.38664 2.2307 7.32812 2.3718 7.32812 2.51562C7.32812 2.65945 7.38664 2.80055 7.48836 2.90221C7.59008 3.00398 7.73117 3.0625 7.875 3.0625C8.01883 3.0625 8.15992 3.00398 8.26164 2.90221C8.36336 2.80055 8.42188 2.65945 8.42188 2.51562C8.42188 2.3718 8.36336 2.2307 8.26164 2.12898Z" fill="#212B36"/>
<path d="M21.8241 18.8984C21.7224 18.7961 21.5813 18.7381 21.4375 18.7381C21.2937 18.7381 21.1526 18.7962 21.0509 18.8984C20.9491 19.0001 20.8906 19.1412 20.8906 19.285C20.8906 19.4288 20.9491 19.5699 21.0509 19.6716C21.1526 19.7733 21.2937 19.8319 21.4375 19.8319C21.5813 19.8319 21.7224 19.7734 21.8241 19.6716C21.9259 19.5699 21.9844 19.4288 21.9844 19.285C21.9844 19.1406 21.9259 19.0001 21.8241 18.8984Z" fill="#212B36"/>
<path d="M23.1876 7.43416C22.102 7.43416 21.2188 8.31731 21.2188 9.40291C21.2188 9.83412 21.3585 10.2331 21.5946 10.5578L17.9619 14.1904C17.68 14.0344 17.3562 13.9453 17.0118 13.9453C16.7014 13.9453 16.4077 14.0177 16.1464 14.1462L12.3533 10.3531C12.5093 10.0712 12.5985 9.74733 12.5985 9.40291C12.5985 8.31731 11.7153 7.43416 10.6297 7.43416C9.54412 7.43416 8.66097 8.31731 8.66097 9.40291C8.66097 9.78233 8.76914 10.1368 8.95585 10.4377L5.72639 13.6671C5.44447 13.5111 5.12061 13.4219 4.77625 13.4219C3.69064 13.4219 2.8075 14.3051 2.8075 15.3907C2.8075 16.4763 3.69064 17.3594 4.77625 17.3594C5.86185 17.3594 6.745 16.4763 6.745 15.3907C6.745 15.0463 6.65585 14.7224 6.49983 14.4405L9.76785 11.1725C10.0283 11.2999 10.3208 11.3716 10.6297 11.3716C10.9741 11.3716 11.2979 11.2825 11.5799 11.1264L15.3358 14.8823C15.1504 15.1826 15.043 15.5358 15.043 15.9139C15.043 16.9995 15.9262 17.8826 17.0118 17.8826C18.0974 17.8826 18.9805 16.9995 18.9805 15.9139C18.9805 15.5695 18.8914 15.2456 18.7353 14.9637L22.4653 11.2337C22.6891 11.3224 22.9327 11.3717 23.1876 11.3717C24.2732 11.3717 25.1563 10.4885 25.1563 9.40291C25.1563 8.31731 24.2732 7.43416 23.1876 7.43416ZM4.7763 16.2658C4.29385 16.2658 3.9013 15.8733 3.9013 15.3908C3.9013 14.9084 4.29385 14.5158 4.7763 14.5158C5.25875 14.5158 5.6513 14.9084 5.6513 15.3908C5.6513 15.8733 5.25875 16.2658 4.7763 16.2658ZM10.6298 10.2779C10.1473 10.2779 9.75478 9.88536 9.75478 9.40291C9.75478 8.92046 10.1473 8.52791 10.6298 8.52791C11.1122 8.52791 11.5048 8.92046 11.5048 9.40291C11.5048 9.88536 11.1122 10.2779 10.6298 10.2779ZM17.0118 16.789C16.5294 16.789 16.1368 16.3965 16.1368 15.914C16.1368 15.4315 16.5294 15.039 17.0118 15.039C17.4943 15.039 17.8868 15.4315 17.8868 15.914C17.8868 16.3965 17.4943 16.789 17.0118 16.789ZM23.1876 10.2779C22.7051 10.2779 22.3126 9.88536 22.3126 9.40291C22.3126 8.92046 22.7051 8.52791 23.1876 8.52791C23.67 8.52791 24.0626 8.92046 24.0626 9.40291C24.0626 9.88536 23.67 10.2779 23.1876 10.2779Z" fill="#212B36"/>
<path d="M8.11174 7.05201C8.00947 6.95029 7.86893 6.89172 7.7251 6.89172C7.58072 6.89172 7.43963 6.95024 7.33791 7.05201C7.23619 7.15368 7.17822 7.29477 7.17822 7.4386C7.17822 7.58243 7.23619 7.72352 7.33791 7.82524C7.44018 7.92696 7.58072 7.98547 7.7251 7.98547C7.86893 7.98547 8.00947 7.92701 8.11174 7.82524C8.21346 7.72352 8.27197 7.58243 8.27197 7.4386C8.27197 7.29477 8.21346 7.15368 8.11174 7.05201Z" fill="#212B36"/>
<path d="M5.6875 6.89177H3.0625C2.76046 6.89177 2.51562 7.13666 2.51562 7.43864C2.51562 7.74063 2.76046 7.98552 3.0625 7.98552H5.6875C5.98954 7.98552 6.23438 7.74063 6.23438 7.43864C6.23438 7.13666 5.98954 6.89177 5.6875 6.89177Z" fill="#212B36"/>
<path d="M5.6875 9.51677H3.0625C2.76046 9.51677 2.51562 9.76166 2.51562 10.0636C2.51562 10.3656 2.76046 10.6105 3.0625 10.6105H5.6875C5.98954 10.6105 6.23438 10.3656 6.23438 10.0636C6.23438 9.76166 5.98954 9.51677 5.6875 9.51677Z" fill="#212B36"/>
</g>
<defs>
<clipPath id="clip0_6_1006">
<rect width="28" height="28" fill="white"/>
</clipPath>
</defs>
</svg>
