<svg xmlns="http://www.w3.org/2000/svg" width="28" height="28" viewBox="0 0 28 28" fill="none">
  <g clip-path="url(#clip0_6_989)">
    <path d="M14.8363 16.2479C14.8363 16.4744 15.0199 16.6581 15.2464 16.6581C15.473 16.6581 15.6566 16.4744 15.6566 16.2479C15.6566 15.5103 15.0829 14.959 14.4102 14.9964V14.7696C14.4102 14.5431 14.2266 14.3595 14 14.3595C13.7735 14.3595 13.5899 14.5431 13.5899 14.7696V14.9964C12.9134 14.9508 12.3422 15.5218 12.3434 16.2479V16.8088C12.34 17.5257 12.9134 18.1124 13.5899 18.0603V19.4836C13.3569 19.5117 13.1637 19.3371 13.1637 19.0524C13.1637 18.8259 12.9801 18.6422 12.7536 18.6422C12.5271 18.6422 12.3434 18.8259 12.3434 19.0524C12.3434 19.7693 12.9134 20.356 13.5899 20.3039V20.5308C13.5899 20.7573 13.7735 20.9409 14 20.9409C14.2266 20.9409 14.4102 20.7573 14.4102 20.5308V20.3039C15.0802 20.3412 15.6584 19.7846 15.6566 19.0524V18.4915C15.6582 17.7537 15.0828 17.2028 14.4102 17.2399V15.8167C14.6361 15.7779 14.8363 15.9711 14.8363 16.2479ZM13.5899 17.2401C13.357 17.2682 13.1641 17.0935 13.1637 16.8088V16.248C13.1632 15.9772 13.3646 15.7748 13.5899 15.8168V17.2401ZM14.8363 18.4915V19.0524C14.8328 19.3217 14.6386 19.5269 14.4102 19.4837V18.0604C14.6361 18.0214 14.8367 18.2148 14.8363 18.4915ZM15.8867 4.36918C15.8867 3.32887 15.0403 2.48247 14 2.48247C12.9597 2.48247 12.1133 3.32887 12.1133 4.36918C12.1133 5.4095 12.9597 6.25589 14 6.25589C15.0403 6.25589 15.8867 5.4095 15.8867 4.36918ZM12.9336 4.36918C12.9336 3.78119 13.412 3.30278 14 3.30278C14.588 3.30278 15.0664 3.78119 15.0664 4.36918C15.0664 4.95718 14.588 5.43559 14 5.43559C13.412 5.43559 12.9336 4.95718 12.9336 4.36918ZM14 12.9505C11.4086 12.9505 9.30029 15.0588 9.30029 17.6502C9.30029 20.2416 11.4086 22.3499 14 22.3499C16.5915 22.3499 18.6997 20.2416 18.6997 17.6502C18.6997 15.0588 16.5915 12.9505 14 12.9505ZM14 21.5296C11.8609 21.5296 10.1206 19.7893 10.1206 17.6502C10.1206 15.5111 11.8609 13.7708 14 13.7708C16.1391 13.7708 17.8794 15.5111 17.8794 17.6502C17.8794 19.7893 16.1391 21.5296 14 21.5296ZM26.1609 10.5872C27.1102 10.6466 28.008 9.95631 28 8.94662V7.71615C27.9932 7.59863 27.9545 7.44972 27.7845 7.35511L14.9943 0.26452C14.3718 -0.080666 13.6283 -0.080666 13.0057 0.26452L7.84539 3.12532C7.64726 3.23513 7.57568 3.48478 7.68554 3.68291C7.79535 3.88105 8.04506 3.95269 8.24313 3.84276L13.4034 0.981963C13.7771 0.774862 14.2231 0.774916 14.5966 0.981963L26.0041 7.306H1.99599L6.55013 4.78125C6.74826 4.67144 6.81984 4.42179 6.70998 4.22366C6.60016 4.02553 6.35052 3.95394 6.15238 4.06381L0.215642 7.35505C0.121362 7.41029 -0.0015754 7.52841 6.52156e-05 7.71615V8.94662C-0.00868475 9.9124 0.864343 10.6927 1.83909 10.5872L3.2813 12.6173V22.6831L1.83909 24.7131H0.957093C0.429415 24.7131 6.52156e-05 25.1425 6.52156e-05 25.6702V27.0373C6.52156e-05 27.565 0.429415 27.9944 0.957093 27.9944H27.0429C27.5706 27.9944 28 27.565 28 27.0373V25.6702C28 25.1425 27.5706 24.7131 27.0429 24.7131H26.1609L24.7187 22.6831V12.6173L26.1609 10.5872ZM1.64068 9.76693C1.18837 9.76693 0.820374 9.39894 0.820374 8.94662V8.12631H27.1796V8.94662C27.1796 9.39894 26.8117 9.76693 26.3593 9.76693H1.64068ZM21.0136 18.0024C21.2402 18.0024 21.4238 17.8188 21.4238 17.5922V12.8966H23.8984V22.4038H21.4238V19.5063C21.4238 19.2798 21.2402 19.0961 21.0136 19.0961C20.787 19.0961 20.6034 19.2798 20.6034 19.5063V22.6831L19.1612 24.7131H8.83884L7.39663 22.6831V12.6173L8.83884 10.5872H19.1613L20.6035 12.6173V17.5922C20.6034 17.8188 20.7871 18.0024 21.0136 18.0024ZM2.84539 10.5872H7.8326L6.77478 12.0763H3.90321L2.84539 10.5872ZM6.57632 12.8966V22.4038H4.10161V12.8966H6.57632ZM3.90321 23.2242H6.77473L7.83254 24.7131H2.84539L3.90321 23.2242ZM27.0429 25.5334C27.1183 25.5334 27.1796 25.5948 27.1796 25.6702V27.0373C27.1796 27.1127 27.1183 27.1741 27.0429 27.1741H0.957093C0.881734 27.1741 0.820374 27.1127 0.820374 27.0373V25.6702C0.820374 25.5948 0.881734 25.5334 0.957093 25.5334H27.0429ZM25.1547 24.7131H20.1675L21.2254 23.2242H24.0969L25.1547 24.7131ZM24.0968 12.0763H21.2253L20.1675 10.5872H25.1546L24.0968 12.0763Z" fill="#212B36"/>
  </g>
  <defs>
    <clipPath id="clip0_6_989">
      <rect width="28" height="28" fill="white"/>
    </clipPath>
  </defs>
</svg>