<svg xmlns="http://www.w3.org/2000/svg" width="28" height="28" viewBox="0 0 28 28" fill="none">
  <g clip-path="url(#clip0_6_983)">
    <path d="M22.0829 18.2929L20.4396 17.8104L16.8644 15.4752V14.9401C17.8995 14.1594 18.6103 12.9659 18.7425 11.5979C19.2616 11.5143 19.6594 11.0632 19.6594 10.5209V9.04958C19.6594 9.04389 19.6587 9.03831 19.6585 9.03262V7.16876C19.8653 7.02067 19.9966 6.77944 19.9966 6.50885V4.80315L22.4639 4.38287C22.8694 4.3138 23.161 3.99175 23.1896 3.58143C23.2182 3.17111 22.9741 2.8117 22.5822 2.68707L14.2644 0.0413969C14.0908 -0.0138375 13.9075 -0.0137828 13.734 0.0413422L5.4161 2.68707C5.02416 2.8117 4.78003 3.17111 4.80863 3.58137C4.82679 3.84207 4.95137 4.06683 5.14365 4.21405V6.44459H5.1233C4.65491 6.44459 4.27384 6.82565 4.27384 7.29405V8.40126L3.72549 11.6197C3.63072 12.1764 4.05947 12.6859 4.62548 12.6859H6.48207C7.04683 12.6859 7.47705 12.1776 7.38206 11.6197L6.83371 8.40126V7.29405C6.83371 6.82565 6.45265 6.44459 5.98425 6.44459H5.96396V4.45599L8.00348 4.80337V6.50885C8.00348 6.7783 8.13412 7.01914 8.33997 7.16745L8.34073 9.04974V10.5209C8.34073 11.0633 8.73848 11.5143 9.25762 11.5979C9.38969 12.9651 10.0998 14.158 11.1339 14.9389V15.4764L7.55941 17.8112L5.91742 18.2932C4.16037 18.8089 2.91973 20.422 2.91973 22.2971V23.5195C2.91973 23.746 3.10331 23.9297 3.32988 23.9297C3.55645 23.9297 3.74004 23.7461 3.74004 23.5195V22.2971C3.74004 20.8193 4.73037 19.4964 6.14848 19.0802L7.67841 18.6312L13.7906 22.2631C13.9147 22.3368 14.0789 22.3408 14.2096 22.2631L20.3222 18.6309L21.852 19.08C23.2699 19.4963 24.2602 20.8191 24.2602 22.2969V26.2583C24.2602 26.7664 23.8468 27.1798 23.3387 27.1798H21.5309V25.4119C21.5309 25.1853 21.3473 25.0017 21.1208 25.0017C20.8943 25.0017 20.7106 25.1853 20.7106 25.4119V27.1798H7.28767V25.4119C7.28767 25.1853 7.10409 25.0017 6.87752 25.0017C6.65094 25.0017 6.46736 25.1853 6.46736 25.4119V27.1798H4.66141C4.15331 27.1798 3.73993 26.7664 3.73993 26.2583V25.4368C3.73993 25.2103 3.55634 25.0266 3.32977 25.0266C3.1032 25.0266 2.91962 25.2102 2.91962 25.4368V26.2583C2.91962 27.2187 3.70094 28 4.66136 28H23.3386C24.299 28 25.0804 27.2187 25.0804 26.2583V22.2968C25.0804 20.4659 23.882 18.8211 22.0829 18.2929ZM6.48202 11.8656H4.62548C4.56812 11.8656 4.52437 11.8144 4.5341 11.7574L5.03012 8.84608H6.07738L6.5734 11.7574C6.58308 11.8142 6.53966 11.8656 6.48202 11.8656ZM6.0134 7.29405V8.02583H5.09405V7.29405C5.09405 7.27792 5.10712 7.26485 5.12325 7.26485H5.98414C6.00033 7.2648 6.0134 7.27792 6.0134 7.29405ZM12.5331 20.4078L12.6964 20.6587L8.50901 18.1706L11.1669 16.4345C11.2874 17.8487 11.7536 19.2096 12.5331 20.4078ZM12.5303 18.6373C13.4957 18.7744 14.5038 18.7745 15.4697 18.6373C15.2831 19.0965 15.0531 19.5397 14.7794 19.9605L14 21.1584L13.2207 19.9605C12.947 19.5397 12.7169 19.0965 12.5303 18.6373ZM15.4669 20.4078C16.2465 19.2096 16.7126 17.8487 16.8331 16.4345L19.491 18.1705L15.3037 20.6587L15.4669 20.4078ZM17.8661 7.32151H18.8382V8.63937H18.3557C18.0857 8.63937 17.866 8.41974 17.866 8.14975V7.32151H17.8661ZM5.66471 3.46877L13.9827 0.822991C13.9934 0.8196 14.0049 0.819545 14.0157 0.823045L22.3337 3.46877C22.3509 3.47424 22.3744 3.48168 22.3714 3.52439C22.3684 3.56705 22.3441 3.57115 22.3262 3.57421L19.5761 4.04261L18.5436 3.91491C18.319 3.88708 18.1141 4.04687 18.0863 4.27164C18.0585 4.49646 18.2182 4.70121 18.443 4.72899L19.1764 4.81972V6.50125L8.82373 6.50087V4.81966L13.0679 4.2945C13.6861 4.2181 14.3128 4.2181 14.9305 4.2945L16.5369 4.49318C16.7616 4.52101 16.9664 4.36127 16.9943 4.13651C17.0221 3.91169 16.8624 3.70694 16.6376 3.6791L15.0313 3.48042C14.3467 3.39571 13.6522 3.39571 12.9672 3.48042L8.42298 4.04272L5.67204 3.57421C5.65421 3.57115 5.62987 3.56705 5.62687 3.52439C5.62391 3.48168 5.64748 3.47419 5.66471 3.46877ZM9.16077 8.63937L9.16023 7.32151H10.1339V8.1498C10.1339 8.41974 9.91431 8.63942 9.64427 8.63942L9.16077 8.63937ZM10.0635 11.3871C10.0424 11.0531 9.7648 10.7915 9.43159 10.7915C9.28234 10.7915 9.16094 10.6701 9.16094 10.5209V9.45968H9.64427C10.3665 9.45968 10.9542 8.87206 10.9542 8.1498V7.32151H17.0458V8.1498C17.0458 8.87206 17.6335 9.45968 18.3557 9.45968H18.839V10.5209C18.839 10.6701 18.7176 10.7915 18.5684 10.7915C18.2352 10.7915 17.9576 11.0531 17.9365 11.3871C17.8058 13.4581 16.0767 15.0804 14 15.0804C11.9232 15.0804 10.1941 13.4581 10.0635 11.3871ZM14 15.9007C14.7295 15.9007 15.4228 15.7339 16.0441 15.4373V15.6972C16.0441 16.3985 15.9495 17.0902 15.7674 17.7574C14.6527 17.9699 13.3925 17.9785 12.2327 17.7574C12.0505 17.0903 11.9559 16.3985 11.9559 15.6972C11.9559 15.6885 11.9547 15.6801 11.9542 15.6715C11.954 15.6698 11.9542 15.6681 11.9541 15.6664V15.4365C12.5758 15.7335 13.2698 15.9007 14 15.9007Z" fill="#212B36"/>
  </g>
  <defs>
    <clipPath id="clip0_6_983">
      <rect width="28" height="28" fill="white"/>
    </clipPath>
  </defs>
</svg>