<svg xmlns="http://www.w3.org/2000/svg" width="28" height="28" viewBox="0 0 28 28" fill="none">
  <g clip-path="url(#clip0_6_1047)">
    <path d="M6.34485 24.357C6.11828 24.357 5.93469 24.5407 5.93469 24.7672V27.5898C5.93469 27.8163 6.11828 27.9999 6.34485 27.9999C6.57142 27.9999 6.755 27.8163 6.755 27.5898V24.7672C6.755 24.5407 6.57142 24.357 6.34485 24.357Z" fill="#212B36"/>
    <path d="M25.2891 21.4457H23.9753C23.5235 20.5174 22.765 19.7826 21.8095 19.3592L16.4612 17.0667C16.4601 17.0663 16.4591 17.066 16.4581 17.0656L16.4292 17.0532C16.43 17.0221 16.432 16.991 16.432 16.96V14.802C17.5288 13.8399 18.2225 12.4289 18.2225 10.8589V10.4716H18.7611C19.3907 10.4716 19.9027 9.95948 19.9027 9.32998V7.88377C19.9027 7.35899 19.5463 6.91696 19.0632 6.78407V5.9467C19.0632 2.66765 16.3954 0 13.1162 0H12.8407C9.56154 0 6.89368 2.66765 6.89368 5.9467V6.78401C6.41046 6.91685 6.05395 7.35894 6.05395 7.88383V9.33003C6.05395 9.95954 6.56605 10.4716 7.19555 10.4716H7.7322V10.8589C7.7322 12.4301 8.42684 13.8419 9.5249 14.804V16.9601C9.5249 16.9979 9.52561 17.0357 9.52682 17.0733L4.21788 19.3817C2.58908 20.067 1.53662 21.6517 1.53662 23.4188V27.5895C1.53662 27.816 1.72021 27.9996 1.94678 27.9996C2.17335 27.9996 2.35693 27.816 2.35693 27.5895V23.4188C2.35693 21.9826 3.21229 20.6948 4.54048 20.1359L7.97217 18.6438L8.40518 19.3835C8.51964 19.579 8.77093 19.6447 8.96638 19.5303C9.16183 19.4158 9.22757 19.1646 9.11316 18.9691L8.72997 18.3145L9.61546 17.9295L9.78445 18.0597C9.78571 18.0607 9.78696 18.0617 9.78822 18.0626L12.3372 20.0268L10.6285 21.5577L9.8451 20.2194C9.73064 20.0239 9.47946 19.9582 9.2839 20.0726C9.08844 20.187 9.02271 20.4383 9.13711 20.6338L10.1742 22.4054C10.2364 22.5117 10.3431 22.5844 10.4648 22.6035C10.4859 22.6068 10.5071 22.6084 10.5282 22.6084C10.6284 22.6084 10.7261 22.5716 10.8019 22.5037L12.3445 21.1217L11.1095 27.5119C11.0665 27.7343 11.2119 27.9495 11.4343 27.9925C11.6568 28.0355 11.8719 27.8899 11.9148 27.6676L12.9783 22.1647L14.0418 27.6676C14.0796 27.8637 14.2515 28 14.444 28C14.4698 28 14.496 27.9975 14.5223 27.9925C14.7447 27.9495 14.8902 27.7343 14.8471 27.5119L13.6121 21.1217L15.1547 22.5037C15.2305 22.5716 15.3281 22.6084 15.4284 22.6084C15.4495 22.6084 15.4707 22.6067 15.4918 22.6035C15.6135 22.5844 15.7202 22.5117 15.7824 22.4054L17.9991 18.6188L21.4817 20.1112C22.1275 20.3974 22.6636 20.8612 23.0369 21.4457H18.5924C17.9448 21.4457 17.418 21.9725 17.418 22.62V26.8255C17.418 27.4731 17.9448 27.9999 18.5924 27.9999H25.2891C25.9366 27.9999 26.4634 27.4731 26.4634 26.8255V22.62C26.4634 21.9725 25.9366 21.4457 25.2891 21.4457ZM19.0824 9.32998C19.0824 9.50711 18.9382 9.65127 18.7611 9.65127H18.2234V7.56249H18.7611C18.9382 7.56249 19.0824 7.70664 19.0824 7.88377V9.32998ZM7.19555 9.65127C7.01842 9.65127 6.87426 9.50711 6.87426 9.32998V7.88377C6.87426 7.70664 7.01842 7.56249 7.19555 7.56249H7.7322V9.65127H7.19555ZM8.55251 10.8589L8.55349 7.15233C8.55349 7.14965 8.55316 7.14703 8.55311 7.14435C8.56235 6.87704 8.63262 6.3854 8.98683 5.96463C9.34312 5.54152 9.79648 5.41054 9.94539 5.3675C10.5359 5.19688 10.908 5.36723 11.4229 5.60293C11.9218 5.83136 12.487 6.09058 13.3219 6.04902C13.9575 6.01762 14.4205 5.82234 14.7896 5.63542C14.9917 5.53304 15.0725 5.28629 14.9702 5.08417C14.8678 4.8821 14.621 4.80132 14.419 4.90359C14.0645 5.08313 13.7353 5.20732 13.2815 5.22969C12.6467 5.26108 12.2182 5.06481 11.7645 4.85711C11.2191 4.6074 10.6011 4.32429 9.71784 4.5794C9.15932 4.74073 8.7023 5.02904 8.35935 5.4363C7.98808 5.87724 7.83337 6.36385 7.77108 6.74196H7.7141V5.9467C7.7141 3.12002 10.0139 0.820309 12.8408 0.820309H13.1163C15.9431 0.820309 18.2429 3.11996 18.2429 5.9467V6.74196H18.206C18.1725 6.4502 18.0865 6.10977 17.8958 5.76666C17.5681 5.17714 16.9878 4.71032 16.3434 4.51804C16.1265 4.4534 15.8979 4.57678 15.8331 4.79378C15.7683 5.01083 15.8918 5.23932 16.1089 5.30412C16.2752 5.35372 16.8438 5.56252 17.1788 6.16523C17.3812 6.52939 17.4122 6.89421 17.4026 7.13609C17.4024 7.1415 17.4023 7.14697 17.4023 7.15239V10.8589C17.4023 13.2986 15.4173 15.2835 12.9774 15.2835C10.5375 15.2835 8.55251 13.2986 8.55251 10.8589ZM10.4018 17.4998C10.3869 17.4281 10.3739 17.3556 10.3651 17.2818C10.3519 17.1774 10.3453 17.0692 10.3453 16.9601V15.3941C11.1194 15.8451 12.0187 16.1039 12.9774 16.1039C13.937 16.1039 14.837 15.8447 15.6117 15.3929V16.9601C15.6117 17.0628 15.6056 17.1665 15.5936 17.2692C15.5846 17.3469 15.5718 17.4236 15.5561 17.4988L12.9783 19.4853L10.4018 17.4998ZM15.3282 21.5577L13.6194 20.0268L16.3592 17.9156L17.045 18.2094L17.2395 18.2927L15.3282 21.5577ZM25.6431 26.8255C25.6431 27.0208 25.4843 27.1796 25.2891 27.1796H18.5924C18.3972 27.1796 18.2383 27.0208 18.2383 26.8255V22.62C18.2383 22.4248 18.3972 22.266 18.5924 22.266H23.7105C23.7107 22.266 23.711 22.266 23.7112 22.266C23.7116 22.266 23.712 22.266 23.7124 22.266H25.2891C25.4842 22.266 25.6431 22.4248 25.6431 22.62V26.8255Z" fill="#212B36"/>
    <path d="M24.8734 24.0923C24.8734 23.4767 24.3546 22.9758 23.7168 22.9758H22.9945C22.9944 22.9758 22.9943 22.9758 22.9941 22.9758C22.9939 22.9758 22.9938 22.9758 22.9937 22.9758C22.7671 22.9758 22.5835 23.1594 22.5835 23.3859V26.1039C22.5835 26.3305 22.7671 26.5141 22.9937 26.5141C23.2202 26.5141 23.4038 26.3305 23.4038 26.1039V25.521L24.1554 26.3749C24.2364 26.4671 24.3497 26.5141 24.4634 26.5141C24.5597 26.5141 24.6563 26.4804 24.7342 26.4118C24.9043 26.2622 24.9208 26.003 24.7712 25.833L24.1497 25.127C24.5734 24.9611 24.8734 24.5602 24.8734 24.0923ZM23.7168 23.7961C23.8991 23.7961 24.0531 23.9317 24.0531 24.0923C24.0531 24.2529 23.8991 24.3886 23.7168 24.3886C23.6428 24.3886 23.5258 24.389 23.4075 24.3895C23.4069 24.2754 23.4065 24.1633 23.4065 24.0924C23.4065 24.0315 23.4062 23.9162 23.4059 23.7961H23.7168V23.7961Z" fill="#212B36"/>
    <path d="M21.3412 22.9758C21.1147 22.9758 20.9311 23.1594 20.9311 23.3859V24.2882H19.8704V23.3859C19.8704 23.1594 19.6868 22.9758 19.4602 22.9758C19.2336 22.9758 19.05 23.1594 19.05 23.3859V26.1039C19.05 26.3305 19.2336 26.5141 19.4602 26.5141C19.6868 26.5141 19.8704 26.3305 19.8704 26.1039V25.1085H20.9311V26.1039C20.9311 26.3305 21.1147 26.5141 21.3412 26.5141C21.5678 26.5141 21.7514 26.3305 21.7514 26.1039V23.3859C21.7514 23.1594 21.5678 22.9758 21.3412 22.9758Z" fill="#212B36"/>
  </g>
  <defs>
    <clipPath id="clip0_6_1047">
      <rect width="28" height="28" fill="white"/>
    </clipPath>
  </defs>
</svg>