<svg xmlns="http://www.w3.org/2000/svg" width="16" height="16" viewBox="0 0 16 16" fill="none">
  <g clip-path="url(#clip0_22_1279)">
    <path d="M12.2584 1.20316H9.5614C9.61693 0.933937 9.55918 0.650406 9.39806 0.423094C9.21028 0.158187 8.90396 0 8.57868 0H7.42171C7.09643 0 6.79012 0.158187 6.60234 0.423094C6.44121 0.650406 6.38347 0.933969 6.439 1.20316H3.74203C2.92875 1.20316 2.26709 1.86481 2.26709 2.67809V14.5251C2.26709 15.3383 2.92875 16 3.74203 16H12.2584C13.0717 16 13.7333 15.3383 13.7333 14.5251V2.67812C13.7333 1.86481 13.0717 1.20316 12.2584 1.20316ZM7.11222 0.784531C7.18409 0.683156 7.29687 0.625 7.42168 0.625H8.57865C8.70346 0.625 8.81628 0.683156 8.88812 0.784531C8.95921 0.884844 8.97668 1.00881 8.93603 1.12466L8.40421 2.63972H7.59606L7.06425 1.12469C7.02365 1.00881 7.04112 0.884844 7.11222 0.784531ZM3.742 1.82816H6.64887L6.93371 2.63969H5.6734C5.50084 2.63969 5.3609 2.77959 5.3609 2.95219C5.3609 3.12478 5.50084 3.26469 5.6734 3.26469H10.327C10.4995 3.26469 10.6395 3.12478 10.6395 2.95219C10.6395 2.77959 10.4995 2.63969 10.327 2.63969H9.06665L9.3515 1.82816H12.2584C12.727 1.82816 13.1083 2.20944 13.1083 2.67809V10.4704H2.89206V2.67812C2.89206 2.20947 3.27334 1.82816 3.742 1.82816ZM12.2584 15.375H3.742C3.27334 15.375 2.89206 14.9937 2.89206 14.5251V11.0954H13.1083V14.5251C13.1083 14.9937 12.727 15.375 12.2584 15.375Z" fill="#919EAB"/>
    <path d="M3.80518 9.13553C3.80518 9.30812 3.94511 9.44803 4.11768 9.44803H7.79355C7.96611 9.44803 8.10605 9.30812 8.10605 9.13553C8.10605 8.32621 7.6538 7.62021 6.98802 7.25546C7.36699 6.95293 7.61008 6.48793 7.61008 5.9674C7.61008 5.05787 6.86789 4.3179 5.95564 4.3179C5.04336 4.3179 4.30118 5.05787 4.30118 5.9674C4.30118 6.48796 4.5443 6.95293 4.92327 7.25546C4.25743 7.62025 3.80518 8.32625 3.80518 9.13553ZM4.92614 5.96743C4.92614 5.40253 5.38796 4.94293 5.95561 4.94293C6.52324 4.94293 6.98505 5.40253 6.98505 5.96743C6.98505 6.53234 6.52324 6.99193 5.95561 6.99193C5.38796 6.9919 4.92614 6.53234 4.92614 5.96743ZM5.95561 7.6169C6.68921 7.6169 7.30346 8.13506 7.44855 8.82303H4.46261C4.60774 8.13506 5.22205 7.6169 5.95561 7.6169Z" fill="#919EAB"/>
    <path d="M9.36816 9.44803H11.883C12.0556 9.44803 12.1955 9.30812 12.1955 9.13553C12.1955 8.96293 12.0556 8.82303 11.883 8.82303H9.36816C9.1956 8.82303 9.05566 8.96293 9.05566 9.13553C9.05566 9.30812 9.19557 9.44803 9.36816 9.44803Z" fill="#919EAB"/>
    <path d="M9.36816 7.94949H11.883C12.0556 7.94949 12.1955 7.80959 12.1955 7.63699C12.1955 7.4644 12.0556 7.32449 11.883 7.32449H9.36816C9.1956 7.32449 9.05566 7.4644 9.05566 7.63699C9.05566 7.80959 9.19557 7.94949 9.36816 7.94949Z" fill="#919EAB"/>
    <path d="M10.8384 12.2222H5.16211C4.98955 12.2222 4.84961 12.3621 4.84961 12.5347C4.84961 12.7073 4.98955 12.8472 5.16211 12.8472H10.8385C11.011 12.8472 11.151 12.7073 11.151 12.5347C11.151 12.3621 11.011 12.2222 10.8384 12.2222Z" fill="#919EAB"/>
    <path d="M10.8384 13.6233H5.16211C4.98955 13.6233 4.84961 13.7632 4.84961 13.9358C4.84961 14.1084 4.98955 14.2483 5.16211 14.2483H10.8385C11.011 14.2483 11.151 14.1084 11.151 13.9358C11.151 13.7632 11.011 13.6233 10.8384 13.6233Z" fill="#919EAB"/>
  </g>
  <defs>
    <clipPath id="clip0_22_1279">
      <rect width="16" height="16" fill="white"/>
    </clipPath>
  </defs>
</svg>