<svg xmlns="http://www.w3.org/2000/svg" width="22" height="12" viewBox="0 0 22 12" fill="none">
  <path d="M21.1406 5.14062H2.94088L5.95574 2.14037C6.29215 1.80556 6.29343 1.26145 5.95862 0.925044C5.62381 0.588598 5.07965 0.587353 4.74325 0.922122L0.252844 5.39087C0.252544 5.39113 0.252329 5.39143 0.252071 5.39169C-0.083472 5.7265 -0.0845462 6.27238 0.251985 6.60831C0.252286 6.60856 0.252501 6.60886 0.252758 6.60912L4.74317 11.0779C5.07952 11.4126 5.62368 11.4114 5.95854 11.075C6.29335 10.7385 6.29206 10.1944 5.95566 9.85962L2.94088 6.85937H21.1406C21.6153 6.85937 22 6.47463 22 6C22 5.52536 21.6153 5.14062 21.1406 5.14062Z" fill="#637381"/>
</svg>