<svg width="64" height="64" viewBox="0 0 64 64" fill="none" xmlns="http://www.w3.org/2000/svg">
<path d="M63.1899 31.595C63.1899 49.0444 49.0444 63.1899 31.595 63.1899C14.1455 63.1899 0 49.0444 0 31.595C0 14.1455 14.1455 0 31.595 0C49.0444 0 63.1899 14.1455 63.1899 31.595ZM9.44773 31.595C9.44773 43.8265 19.3634 53.7422 31.595 53.7422C43.8265 53.7422 53.7422 43.8265 53.7422 31.595C53.7422 19.3634 43.8265 9.44773 31.595 9.44773C19.3634 9.44773 9.44773 19.3634 9.44773 31.595Z" fill="url(#paint0_angular_42_2076)"/>
<circle cx="31.9111" cy="58.4507" r="4.73924" fill="#00A76F"/>
<defs>
<radialGradient id="paint0_angular_42_2076" cx="0" cy="0" r="1" gradientUnits="userSpaceOnUse" gradientTransform="translate(31.595 31.595) rotate(90) scale(31.595)">
<stop stop-color="#00A76F"/>
<stop offset="0.175675" stop-color="#00A76F"/>
<stop offset="1" stop-color="white" stop-opacity="0"/>
</radialGradient>
</defs>
</svg>
