<svg xmlns="http://www.w3.org/2000/svg" width="16" height="16" viewBox="0 0 16 16" fill="none">
  <path d="M8 1.33334C9.5913 1.33334 11.1174 1.96548 12.2426 3.0907C13.3679 4.21592 14 5.74204 14 7.33334C14 9.38268 12.8827 11.06 11.7053 12.2633C11.117 12.8579 10.4752 13.3971 9.788 13.874L9.504 14.0673L9.37067 14.156L9.11933 14.316L8.89533 14.4527L8.618 14.614C8.42967 14.7212 8.2167 14.7776 8 14.7776C7.7833 14.7776 7.57033 14.7212 7.382 14.614L7.10467 14.4527L6.758 14.2393L6.63 14.156L6.35667 13.974C5.61532 13.4722 4.92471 12.8993 4.29467 12.2633C3.11733 11.0587 2 9.38268 2 7.33334C2 5.74204 2.63214 4.21592 3.75736 3.0907C4.88258 1.96548 6.4087 1.33334 8 1.33334ZM8 5.33334C7.73736 5.33334 7.47728 5.38508 7.23463 5.48558C6.99198 5.58609 6.7715 5.73341 6.58579 5.91913C6.40007 6.10485 6.25275 6.32533 6.15224 6.56798C6.05173 6.81063 6 7.0707 6 7.33334C6 7.59599 6.05173 7.85606 6.15224 8.09871C6.25275 8.34136 6.40007 8.56184 6.58579 8.74756C6.7715 8.93327 6.99198 9.08059 7.23463 9.1811C7.47728 9.28161 7.73736 9.33334 8 9.33334C8.53043 9.33334 9.03914 9.12263 9.41421 8.74756C9.78929 8.37248 10 7.86378 10 7.33334C10 6.80291 9.78929 6.2942 9.41421 5.91913C9.03914 5.54406 8.53043 5.33334 8 5.33334Z" fill="#919EAB"/>
</svg>