<svg width="954" height="86" viewBox="0 0 954 86" fill="none" xmlns="http://www.w3.org/2000/svg">
<g clip-path="url(#clip0_1_209)">
<path d="M150.21 54.36C152.08 55.62 153.63 57.28 154.86 59.33C156.09 61.38 156.71 63.86 156.71 66.78C156.71 69.76 156.06 72.35 154.77 74.55C153.48 76.75 151.79 78.55 149.71 79.97C147.69 81.35 145.41 82.41 142.87 83.13C140.33 83.85 137.7 84.21 134.99 84.21H104.65V81C105.37 80.94 106.43 80.81 107.81 80.62C109.19 80.42 110.19 80.19 110.79 79.92C111.72 79.5 112.39 78.93 112.78 78.23C113.17 77.52 113.37 76.61 113.37 75.5V29.44C113.37 28.42 113.2 27.51 112.85 26.73C112.5 25.95 111.82 25.32 110.8 24.83C109.9 24.38 108.89 24.03 107.78 23.79C106.67 23.55 105.73 23.4 104.98 23.34V20.13H134.55C136.84 20.13 139.03 20.36 141.12 20.81C143.21 21.26 145.21 22.06 147.1 23.2C148.88 24.25 150.34 25.68 151.48 27.49C152.62 29.3 153.2 31.49 153.2 34.08C153.2 36.34 152.79 38.35 151.98 40.11C151.17 41.87 150.02 43.38 148.55 44.65C147.17 45.85 145.58 46.87 143.79 47.7C142 48.53 140.06 49.17 137.99 49.62V50.03C139.83 50.24 141.88 50.7 144.15 51.41C146.41 52.11 148.44 53.1 150.21 54.36ZM139.29 44.69C140.4 43.39 141.17 41.98 141.61 40.44C142.05 38.9 142.26 37.08 142.26 34.97C142.26 31.44 141.3 28.68 139.38 26.67C137.46 24.67 134.42 23.66 130.28 23.66C129.32 23.66 128.11 23.68 126.65 23.73C125.19 23.78 123.97 23.81 122.98 23.84V48.49H128.7C131.16 48.49 133.27 48.17 135.03 47.54C136.79 46.91 138.21 45.96 139.29 44.69ZM145.56 65.15C145.56 61.36 144.29 58.24 141.74 55.8C139.2 53.36 135.56 52.14 130.84 52.14C128.91 52.14 127.29 52.16 125.96 52.21C124.63 52.26 123.64 52.29 122.98 52.32V74.9C122.98 76.8 123.75 78.23 125.28 79.19C126.81 80.15 128.95 80.63 131.69 80.63C136.17 80.63 139.61 79.32 141.98 76.7C144.37 74.09 145.56 70.24 145.56 65.15Z" fill="white"/>
<path d="M203.62 73.73C201.75 77.28 199.26 80.11 196.13 82.22C193 84.33 189.4 85.38 185.34 85.38C181.76 85.38 178.62 84.75 175.93 83.48C173.24 82.22 171.02 80.5 169.27 78.33C167.52 76.16 166.22 73.63 165.36 70.75C164.5 67.86 164.07 64.81 164.07 61.59C164.07 58.7 164.53 55.86 165.45 53.08C166.37 50.3 167.72 47.79 169.49 45.56C171.21 43.42 173.33 41.7 175.88 40.39C178.42 39.08 181.27 38.43 184.43 38.43C187.68 38.43 190.46 38.94 192.78 39.97C195.1 40.99 196.98 42.39 198.42 44.17C199.8 45.86 200.83 47.84 201.51 50.13C202.19 52.42 202.53 54.9 202.53 57.58V60.56H173.05C173.05 63.49 173.33 66.14 173.89 68.52C174.45 70.9 175.33 73 176.53 74.81C177.7 76.56 179.24 77.94 181.14 78.95C183.04 79.96 185.29 80.47 187.91 80.47C190.59 80.47 192.9 79.84 194.84 78.59C196.78 77.33 198.65 75.07 200.46 71.81L203.62 73.73ZM193.64 56.75C193.64 55.07 193.5 53.27 193.21 51.35C192.92 49.43 192.46 47.82 191.83 46.53C191.14 45.15 190.19 44.02 188.99 43.15C187.79 42.28 186.24 41.84 184.34 41.84C181.18 41.84 178.55 43.15 176.46 45.78C174.37 48.41 173.23 52.06 173.05 56.74H193.64V56.75Z" fill="white"/>
<path d="M242.86 45.42C242.86 46.96 242.48 48.32 241.73 49.51C240.98 50.7 239.82 51.29 238.25 51.29C236.56 51.29 235.28 50.85 234.39 49.98C233.5 49.11 233.06 48.14 233.06 47.09C233.06 46.43 233.11 45.83 233.22 45.28C233.32 44.74 233.42 44.2 233.51 43.65C232.1 43.65 230.44 44.22 228.54 45.37C226.64 46.51 225.03 48.14 223.71 50.25V76.16C223.71 77.21 223.91 78.07 224.32 78.73C224.73 79.39 225.37 79.89 226.24 80.22C226.99 80.52 227.96 80.75 229.15 80.9C230.34 81.05 231.37 81.16 232.24 81.22V84.2H208.76V81.22C209.45 81.16 210.17 81.1 210.91 81.04C211.65 80.98 212.29 80.86 212.83 80.68C213.67 80.41 214.3 79.94 214.7 79.26C215.1 78.58 215.31 77.7 215.31 76.62V49.16C215.31 48.23 215.09 47.31 214.65 46.41C214.21 45.51 213.6 44.79 212.82 44.25C212.25 43.89 211.57 43.63 210.79 43.46C210.01 43.3 209.16 43.18 208.26 43.12V40.14L223.07 39.15L223.7 39.78V46.06H223.93C225.8 43.62 227.87 41.77 230.16 40.51C232.45 39.25 234.54 38.61 236.44 38.61C238.34 38.61 239.88 39.23 241.07 40.46C242.26 41.69 242.86 43.35 242.86 45.42Z" fill="white"/>
<path d="M280.73 45.42C280.73 46.96 280.35 48.32 279.6 49.51C278.85 50.7 277.69 51.29 276.12 51.29C274.43 51.29 273.15 50.85 272.26 49.98C271.37 49.11 270.93 48.14 270.93 47.09C270.93 46.43 270.98 45.83 271.09 45.28C271.19 44.74 271.29 44.2 271.38 43.65C269.97 43.65 268.31 44.22 266.41 45.37C264.51 46.51 262.9 48.14 261.58 50.25V76.16C261.58 77.21 261.78 78.07 262.19 78.73C262.6 79.39 263.24 79.89 264.11 80.22C264.86 80.52 265.83 80.75 267.02 80.9C268.21 81.05 269.24 81.16 270.11 81.22V84.2H246.63V81.22C247.32 81.16 248.04 81.1 248.78 81.04C249.52 80.98 250.16 80.86 250.7 80.68C251.54 80.41 252.17 79.94 252.57 79.26C252.97 78.58 253.18 77.7 253.18 76.62V49.16C253.18 48.23 252.96 47.31 252.52 46.41C252.08 45.51 251.47 44.79 250.69 44.25C250.12 43.89 249.44 43.63 248.66 43.46C247.88 43.3 247.03 43.18 246.13 43.12V40.14L260.94 39.15L261.57 39.78V46.06H261.8C263.67 43.62 265.74 41.77 268.03 40.51C270.32 39.25 272.41 38.61 274.31 38.61C276.21 38.61 277.75 39.23 278.94 40.46C280.14 41.69 280.73 43.35 280.73 45.42Z" fill="white"/>
<path d="M306.11 84.2H284.62V81.22C285.31 81.16 286.03 81.1 286.77 81.04C287.51 80.98 288.15 80.86 288.69 80.68C289.53 80.41 290.16 79.94 290.56 79.26C290.96 78.58 291.17 77.7 291.17 76.62V49.16C291.17 48.2 290.95 47.32 290.51 46.52C290.07 45.72 289.46 45.05 288.68 44.51C288.11 44.15 287.28 43.84 286.2 43.59C285.12 43.34 284.12 43.18 283.22 43.12V40.14L298.93 39.15L299.56 39.78V76.08C299.56 77.13 299.76 78.01 300.16 78.7C300.56 79.39 301.2 79.9 302.07 80.24C302.73 80.51 303.37 80.73 304 80.89C304.63 81.06 305.33 81.17 306.11 81.23V84.2ZM300.46 21.58C300.46 23.3 299.89 24.79 298.77 26.07C297.64 27.35 296.25 27.99 294.59 27.99C293.05 27.99 291.72 27.38 290.59 26.16C289.46 24.94 288.9 23.55 288.9 21.98C288.9 20.32 289.47 18.88 290.59 17.65C291.72 16.42 293.05 15.8 294.59 15.8C296.31 15.8 297.71 16.38 298.81 17.54C299.91 18.7 300.46 20.05 300.46 21.58Z" fill="white"/>
<path d="M352.65 54.81C354 56.31 355 57.96 355.65 59.75C356.3 61.54 356.62 63.63 356.62 66C356.62 71.66 354.53 76.32 350.34 80C346.16 83.67 340.96 85.51 334.76 85.51C331.9 85.51 329.04 85.07 326.18 84.18C323.32 83.29 320.85 82.22 318.78 80.95L316.84 84.25H313.23L312.6 62.31H316.26C317.01 65.02 317.89 67.46 318.9 69.65C319.91 71.83 321.24 73.87 322.89 75.77C324.46 77.55 326.28 78.96 328.38 80.01C330.47 81.06 332.9 81.59 335.67 81.59C337.75 81.59 339.56 81.32 341.11 80.78C342.66 80.24 343.92 79.47 344.88 78.47C345.84 77.48 346.56 76.31 347.02 74.97C347.49 73.63 347.72 72.08 347.72 70.33C347.72 67.77 347 65.38 345.55 63.17C344.1 60.96 341.95 59.27 339.09 58.13C337.13 57.35 334.89 56.49 332.36 55.54C329.83 54.6 327.65 53.7 325.81 52.87C322.2 51.24 319.39 49.12 317.39 46.48C315.39 43.85 314.39 40.41 314.39 36.17C314.39 33.73 314.89 31.46 315.88 29.36C316.87 27.25 318.29 25.37 320.12 23.72C321.87 22.15 323.93 20.93 326.31 20.04C328.69 19.15 331.17 18.71 333.76 18.71C336.71 18.71 339.35 19.16 341.68 20.06C344.01 20.96 346.14 22.02 348.07 23.22L349.92 20.15H353.53L353.89 41.41H350.23C349.57 38.97 348.82 36.64 347.99 34.41C347.16 32.18 346.09 30.17 344.76 28.36C343.47 26.61 341.89 25.22 340.02 24.18C338.15 23.14 335.87 22.62 333.16 22.62C330.3 22.62 327.86 23.54 325.85 25.37C323.83 27.21 322.83 29.45 322.83 32.1C322.83 34.87 323.48 37.16 324.77 38.98C326.06 40.8 327.95 42.3 330.41 43.47C332.61 44.52 334.77 45.43 336.89 46.2C339.01 46.97 341.07 47.79 343.05 48.66C344.86 49.44 346.59 50.33 348.26 51.32C349.97 52.33 351.42 53.49 352.65 54.81Z" fill="white"/>
<path d="M403.04 73.73C401.17 77.28 398.68 80.11 395.55 82.22C392.42 84.33 388.82 85.38 384.76 85.38C381.18 85.38 378.04 84.75 375.35 83.48C372.66 82.22 370.44 80.5 368.69 78.33C366.94 76.16 365.64 73.63 364.78 70.75C363.92 67.86 363.49 64.81 363.49 61.59C363.49 58.7 363.95 55.86 364.87 53.08C365.79 50.3 367.14 47.79 368.91 45.56C370.63 43.42 372.75 41.7 375.3 40.39C377.84 39.08 380.69 38.43 383.85 38.43C387.1 38.43 389.88 38.94 392.2 39.97C394.52 40.99 396.4 42.39 397.84 44.17C399.22 45.86 400.25 47.84 400.93 50.13C401.61 52.42 401.95 54.9 401.95 57.58V60.56H372.47C372.47 63.49 372.75 66.14 373.31 68.52C373.87 70.9 374.75 73 375.95 74.81C377.12 76.56 378.66 77.94 380.56 78.95C382.46 79.96 384.71 80.47 387.33 80.47C390.01 80.47 392.32 79.84 394.26 78.59C396.2 77.33 398.07 75.07 399.88 71.81L403.04 73.73ZM393.06 56.75C393.06 55.07 392.92 53.27 392.63 51.35C392.34 49.43 391.88 47.82 391.25 46.53C390.56 45.15 389.61 44.02 388.41 43.15C387.21 42.28 385.66 41.84 383.76 41.84C380.6 41.84 377.97 43.15 375.88 45.78C373.79 48.41 372.65 52.06 372.47 56.74H393.06V56.75Z" fill="white"/>
<path d="M450.35 83.39C448.94 83.9 447.69 84.31 446.63 84.63C445.56 84.94 444.35 85.1 442.99 85.1C440.64 85.1 438.77 84.55 437.37 83.45C435.97 82.35 435.08 80.75 434.68 78.64H434.41C432.45 80.81 430.35 82.46 428.11 83.61C425.87 84.75 423.17 85.33 420.01 85.33C416.67 85.33 413.92 84.31 411.77 82.26C409.62 80.21 408.54 77.53 408.54 74.22C408.54 72.5 408.78 70.97 409.26 69.61C409.74 68.26 410.46 67.04 411.43 65.95C412.18 65.05 413.18 64.24 414.41 63.53C415.64 62.82 416.8 62.26 417.89 61.84C419.24 61.33 421.99 60.38 426.13 59C430.27 57.62 433.06 56.53 434.5 55.75V51.28C434.5 50.89 434.42 50.14 434.25 49.02C434.08 47.91 433.73 46.85 433.19 45.86C432.59 44.75 431.74 43.78 430.64 42.95C429.54 42.12 427.98 41.71 425.97 41.71C424.59 41.71 423.3 41.94 422.11 42.41C420.92 42.88 420.09 43.37 419.6 43.88C419.6 44.48 419.74 45.37 420.03 46.54C420.32 47.71 420.46 48.8 420.46 49.79C420.46 50.84 419.99 51.81 419.04 52.68C418.09 53.55 416.78 53.99 415.09 53.99C413.59 53.99 412.48 53.46 411.77 52.39C411.06 51.32 410.71 50.13 410.71 48.8C410.71 47.42 411.2 46.09 412.18 44.83C413.16 43.57 414.43 42.44 416 41.44C417.35 40.6 418.99 39.88 420.92 39.29C422.85 38.7 424.73 38.41 426.56 38.41C429.09 38.41 431.29 38.58 433.17 38.93C435.05 39.28 436.76 40.02 438.29 41.17C439.83 42.28 440.99 43.8 441.79 45.71C442.59 47.62 442.99 50.08 442.99 53.09C442.99 57.39 442.94 61.21 442.85 64.53C442.76 67.86 442.71 71.49 442.71 75.43C442.71 76.6 442.91 77.54 443.32 78.23C443.73 78.92 444.35 79.51 445.19 79.99C445.64 80.26 446.36 80.41 447.34 80.44C448.32 80.47 449.32 80.49 450.34 80.49V83.39H450.35ZM434.6 59.55C432.04 60.3 429.8 61.04 427.87 61.77C425.94 62.49 424.15 63.4 422.5 64.48C421 65.51 419.81 66.72 418.93 68.12C418.05 69.52 417.62 71.19 417.62 73.12C417.62 75.62 418.28 77.46 419.58 78.64C420.89 79.82 422.55 80.4 424.57 80.4C426.71 80.4 428.59 79.88 430.21 78.84C431.84 77.8 433.2 76.57 434.32 75.15L434.6 59.55Z" fill="white"/>
<path d="M488.87 45.42C488.87 46.96 488.49 48.32 487.74 49.51C486.99 50.7 485.83 51.29 484.26 51.29C482.57 51.29 481.29 50.85 480.4 49.98C479.51 49.11 479.07 48.14 479.07 47.09C479.07 46.43 479.12 45.83 479.23 45.28C479.33 44.74 479.43 44.2 479.52 43.65C478.11 43.65 476.45 44.22 474.55 45.37C472.65 46.52 471.04 48.14 469.72 50.25V76.16C469.72 77.21 469.92 78.07 470.33 78.73C470.74 79.39 471.38 79.89 472.25 80.22C473 80.52 473.97 80.75 475.16 80.9C476.35 81.05 477.38 81.16 478.25 81.22V84.2H454.77V81.22C455.46 81.16 456.18 81.1 456.92 81.04C457.66 80.98 458.3 80.86 458.84 80.68C459.68 80.41 460.31 79.94 460.71 79.26C461.11 78.58 461.32 77.7 461.32 76.62V49.16C461.32 48.23 461.1 47.31 460.66 46.41C460.22 45.51 459.61 44.79 458.83 44.25C458.26 43.89 457.58 43.63 456.8 43.46C456.02 43.3 455.17 43.18 454.27 43.12V40.14L469.08 39.15L469.71 39.78V46.06H469.94C471.81 43.62 473.88 41.77 476.17 40.51C478.46 39.25 480.55 38.61 482.45 38.61C484.35 38.61 485.89 39.23 487.08 40.46C488.27 41.69 488.87 43.35 488.87 45.42Z" fill="white"/>
<path d="M513.25 85.38C506.81 85.38 501.77 83.24 498.13 78.97C494.49 74.7 492.67 68.96 492.67 61.77C492.67 58.64 493.16 55.71 494.14 52.99C495.12 50.27 496.54 47.79 498.41 45.56C500.19 43.42 502.41 41.7 505.09 40.39C507.77 39.08 510.69 38.43 513.85 38.43C518.21 38.43 521.77 39.48 524.5 41.57C527.24 43.66 528.61 46.51 528.61 50.13C528.61 51.63 528.25 52.97 527.53 54.12C526.81 55.28 525.62 55.86 523.96 55.86C522.18 55.86 520.81 55.41 519.83 54.51C518.85 53.61 518.36 52.61 518.36 51.49C518.36 50.14 518.54 48.75 518.9 47.33C519.26 45.91 519.47 44.86 519.53 44.2C518.99 43.27 518.19 42.65 517.12 42.33C516.05 42.02 514.9 41.86 513.68 41.86C512.24 41.86 510.86 42.17 509.56 42.78C508.25 43.4 506.99 44.53 505.76 46.19C504.65 47.69 503.75 49.73 503.06 52.28C502.37 54.84 502.02 57.89 502.02 61.44C502.02 67.04 503.26 71.61 505.74 75.14C508.22 78.68 511.47 80.45 515.5 80.45C518.41 80.45 520.86 79.74 522.82 78.32C524.79 76.9 526.61 74.76 528.3 71.92L531.19 73.82C529.2 77.37 526.58 80.19 523.33 82.26C520.06 84.34 516.71 85.38 513.25 85.38Z" fill="white"/>
<path d="M583.09 84.2H561.19V81.22C561.88 81.16 562.65 81.1 563.49 81.04C564.33 80.98 565.03 80.86 565.57 80.68C566.41 80.41 567.04 79.93 567.44 79.26C567.85 78.58 568.05 77.7 568.05 76.62V53.73C568.05 50.57 567.3 48.13 565.81 46.42C564.32 44.7 562.5 43.85 560.36 43.85C558.79 43.85 557.34 44.1 555.99 44.59C554.65 45.09 553.45 45.7 552.39 46.42C551.36 47.17 550.58 47.92 550.04 48.68C549.5 49.44 549.08 50.06 548.77 50.58V76.18C548.77 77.2 548.97 78.05 549.38 78.71C549.79 79.37 550.41 79.88 551.25 80.25C551.91 80.55 552.6 80.78 553.3 80.93C554.01 81.08 554.78 81.19 555.62 81.25V84.23H533.81V81.25C534.5 81.19 535.22 81.12 535.96 81.05C536.71 80.98 537.33 80.86 537.84 80.71C538.68 80.44 539.3 79.97 539.72 79.29C540.14 78.61 540.35 77.73 540.35 76.65V24.75C540.35 23.73 540.12 22.7 539.65 21.68C539.18 20.66 538.57 19.89 537.82 19.37C537.28 18.98 536.32 18.7 534.95 18.54C533.58 18.37 532.47 18.26 531.63 18.2V15.31L548.11 14.32L548.74 15V46.06H548.92C549.91 45.07 550.82 44.19 551.63 43.42C552.44 42.65 553.51 41.85 554.84 41.01C555.99 40.29 557.33 39.69 558.89 39.2C560.44 38.72 562.18 38.48 564.11 38.48C568.09 38.48 571.15 39.74 573.29 42.25C575.43 44.76 576.5 48.38 576.5 53.11V76.27C576.5 77.32 576.69 78.17 577.07 78.82C577.45 79.47 578.08 79.97 578.96 80.33C579.66 80.6 580.29 80.8 580.85 80.94C581.41 81.08 582.15 81.17 583.06 81.23V84.2H583.09Z" fill="white"/>
<path d="M673.16 46.82C671.38 46.97 669.59 47.32 667.79 47.88C665.98 48.44 664.6 49.32 663.64 50.52C663.01 51.24 662.37 52.31 661.72 53.73C661.07 55.14 660.3 56.82 659.4 58.74C658.5 60.67 657.58 62.56 656.65 64.43C655.72 66.3 654.52 68.16 653.05 70.03C654.25 71.47 655.73 73.05 657.47 74.75C659.21 76.45 660.7 77.68 661.94 78.43C663.14 79.12 664.85 79.71 667.06 80.19C669.27 80.67 671.08 80.94 672.5 81V84.21H653.9L647.17 76.53C646.18 77.61 645.04 78.74 643.76 79.89C642.48 81.05 641.13 82.05 639.72 82.89C638.15 83.79 636.58 84.5 635 85.01C633.42 85.52 631.56 85.78 629.42 85.78C627.19 85.78 624.98 85.46 622.78 84.81C620.58 84.16 618.58 83.13 616.78 81.72C615.03 80.34 613.62 78.56 612.54 76.39C611.46 74.22 610.91 71.63 610.91 68.62C610.91 64.89 611.9 61.51 613.87 58.48C615.84 55.45 619.52 52.24 624.91 48.84C622.47 45.62 620.58 42.84 619.22 40.49C617.87 38.14 617.19 35.51 617.19 32.59C617.19 30.51 617.6 28.61 618.43 26.88C619.26 25.15 620.42 23.64 621.93 22.34C623.31 21.17 625 20.25 626.99 19.59C628.98 18.93 630.99 18.6 633.04 18.6C635.45 18.6 637.56 18.98 639.38 19.75C641.2 20.52 642.68 21.52 643.83 22.75C644.88 23.89 645.69 25.22 646.25 26.72C646.81 28.22 647.08 29.73 647.08 31.23C647.08 34.84 645.96 37.95 643.73 40.55C641.49 43.15 638.41 45.49 634.48 47.57C637.31 51.39 640.07 54.88 642.78 58.02C645.49 61.17 648.09 64.26 650.58 67.3C652.59 64.08 654.15 61.05 655.26 58.2C656.37 55.36 656.92 52.85 656.92 50.68C656.92 49.72 656.22 48.96 654.82 48.4C653.42 47.84 651.49 47.31 649.02 46.8V43.59H673.17V46.82H673.16ZM644.76 73.91C641.96 70.36 638.81 66.47 635.3 62.24C631.79 58.01 628.99 54.44 626.88 51.52C624.44 53.21 622.72 55.18 621.71 57.46C620.7 59.73 620.2 62.33 620.2 65.25C620.2 69.34 621.37 72.74 623.7 75.43C626.03 78.12 629.16 79.47 633.07 79.47C635.27 79.47 637.43 79 639.55 78.05C641.67 77.09 643.41 75.72 644.76 73.91ZM641.24 32.15C641.24 29.08 640.56 26.73 639.21 25.08C637.86 23.44 635.94 22.62 633.45 22.62C632.04 22.62 630.87 22.91 629.94 23.48C629.01 24.05 628.21 24.77 627.55 25.65C626.95 26.49 626.51 27.4 626.24 28.36C625.97 29.32 625.84 30.18 625.84 30.93C625.84 33.01 626.38 35.11 627.46 37.23C628.54 39.35 630.23 41.92 632.51 44.93C635.6 43.18 637.82 41.29 639.18 39.26C640.54 37.23 641.24 34.86 641.24 32.15Z" fill="white"/>
<path d="M777.04 84.2H748.73V81C749.75 80.97 751.07 80.86 752.68 80.68C754.29 80.5 755.4 80.24 756 79.91C756.93 79.34 757.62 78.68 758.05 77.95C758.49 77.21 758.7 76.29 758.7 75.17V28.58H758.02L736.17 83.16H733.91L713.1 27.45H712.51V65.69C712.51 69.39 712.74 72.21 713.21 74.13C713.68 76.06 714.39 77.44 715.36 78.28C716.02 78.91 717.39 79.51 719.47 80.09C721.55 80.67 722.9 80.96 723.53 80.99V84.2H697.66V81C699.01 80.88 700.44 80.65 701.93 80.32C703.42 79.99 704.57 79.49 705.38 78.83C706.43 77.99 707.16 76.69 707.55 74.95C707.94 73.2 708.14 70.28 708.14 66.19V33.41C708.14 31.51 707.91 29.96 707.46 28.76C707.01 27.56 706.36 26.58 705.52 25.83C704.59 25.02 703.44 24.42 702.09 24.02C700.74 23.63 699.4 23.4 698.07 23.34V20.13H719.91L738.26 68.22L753.94 28C754.51 26.53 755 24.98 755.41 23.37C755.82 21.76 756.04 20.68 756.07 20.14H776.96V23.35C776.12 23.38 775.04 23.52 773.73 23.76C772.42 24 771.47 24.23 770.86 24.44C769.84 24.8 769.14 25.4 768.78 26.25C768.42 27.09 768.24 28.01 768.24 29V75.19C768.24 76.24 768.42 77.13 768.78 77.85C769.14 78.57 769.83 79.2 770.86 79.75C771.4 80.05 772.36 80.33 773.75 80.58C775.13 80.84 776.23 80.98 777.05 81.01V84.2H777.04Z" fill="white"/>
<path d="M826.66 83.39C825.25 83.9 824 84.31 822.94 84.63C821.87 84.94 820.66 85.1 819.3 85.1C816.95 85.1 815.08 84.55 813.68 83.45C812.28 82.35 811.39 80.75 810.99 78.64H810.72C808.76 80.81 806.66 82.46 804.42 83.61C802.18 84.75 799.48 85.33 796.32 85.33C792.98 85.33 790.23 84.31 788.08 82.26C785.93 80.21 784.85 77.53 784.85 74.22C784.85 72.5 785.09 70.97 785.57 69.61C786.05 68.26 786.77 67.04 787.74 65.95C788.49 65.05 789.49 64.24 790.72 63.53C791.95 62.82 793.11 62.26 794.2 61.84C795.55 61.33 798.3 60.38 802.44 59C806.58 57.62 809.37 56.53 810.81 55.75V51.28C810.81 50.89 810.73 50.14 810.56 49.02C810.39 47.91 810.04 46.85 809.5 45.86C808.9 44.75 808.05 43.78 806.95 42.95C805.85 42.12 804.29 41.71 802.28 41.71C800.9 41.71 799.61 41.94 798.42 42.41C797.23 42.88 796.4 43.37 795.91 43.88C795.91 44.48 796.05 45.37 796.34 46.54C796.63 47.71 796.77 48.8 796.77 49.79C796.77 50.84 796.3 51.81 795.35 52.68C794.4 53.55 793.09 53.99 791.4 53.99C789.9 53.99 788.79 53.46 788.08 52.39C787.37 51.32 787.02 50.13 787.02 48.8C787.02 47.42 787.51 46.09 788.49 44.83C789.47 43.57 790.74 42.44 792.31 41.44C793.66 40.6 795.3 39.88 797.23 39.29C799.16 38.7 801.04 38.41 802.87 38.41C805.4 38.41 807.6 38.58 809.48 38.93C811.36 39.28 813.07 40.02 814.6 41.17C816.14 42.28 817.3 43.8 818.1 45.71C818.9 47.62 819.3 50.08 819.3 53.09C819.3 57.39 819.25 61.21 819.16 64.53C819.07 67.86 819.02 71.49 819.02 75.43C819.02 76.6 819.22 77.54 819.63 78.23C820.04 78.92 820.66 79.51 821.5 79.99C821.95 80.26 822.67 80.41 823.65 80.44C824.63 80.47 825.63 80.49 826.65 80.49V83.39H826.66ZM810.9 59.55C808.34 60.3 806.1 61.04 804.17 61.77C802.24 62.49 800.45 63.4 798.8 64.48C797.3 65.51 796.11 66.72 795.23 68.12C794.35 69.52 793.92 71.19 793.92 73.12C793.92 75.62 794.58 77.46 795.88 78.64C797.19 79.82 798.85 80.4 800.87 80.4C803.01 80.4 804.89 79.88 806.51 78.84C808.14 77.8 809.5 76.57 810.62 75.15L810.9 59.55Z" fill="white"/>
<path d="M858.58 82.26C856.62 83.07 854.77 83.76 853.03 84.31C851.28 84.87 849.15 85.15 846.62 85.15C842.89 85.15 840.26 84.21 838.74 82.33C837.22 80.45 836.46 77.79 836.46 74.36V44.2H828.42V39.87H836.64V26.01H844.86V39.87H857.64V44.2H844.95V69.08C844.95 70.95 845.02 72.5 845.15 73.75C845.28 75 845.61 76.09 846.12 77.02C846.6 77.89 847.32 78.56 848.29 79.01C849.25 79.46 850.55 79.69 852.17 79.69C852.92 79.69 854.03 79.62 855.49 79.49C856.95 79.35 857.98 79.18 858.58 78.97V82.26Z" fill="white"/>
<path d="M883.59 85.38C877.15 85.38 872.11 83.24 868.47 78.97C864.83 74.7 863 68.96 863 61.77C863 58.64 863.49 55.71 864.47 52.99C865.45 50.27 866.87 47.79 868.74 45.56C870.52 43.42 872.74 41.7 875.42 40.39C878.1 39.08 881.02 38.43 884.18 38.43C888.54 38.43 892.1 39.48 894.83 41.57C897.57 43.66 898.94 46.51 898.94 50.13C898.94 51.63 898.58 52.97 897.86 54.12C897.14 55.28 895.95 55.86 894.29 55.86C892.51 55.86 891.14 55.41 890.16 54.51C889.18 53.61 888.69 52.61 888.69 51.49C888.69 50.14 888.87 48.75 889.23 47.33C889.59 45.91 889.8 44.86 889.86 44.2C889.32 43.27 888.52 42.65 887.45 42.33C886.38 42.02 885.24 41.86 884.01 41.86C882.57 41.86 881.19 42.17 879.89 42.78C878.58 43.4 877.32 44.53 876.09 46.19C874.98 47.69 874.08 49.73 873.39 52.28C872.7 54.84 872.35 57.89 872.35 61.44C872.35 67.04 873.59 71.61 876.07 75.14C878.55 78.68 881.8 80.45 885.83 80.45C888.74 80.45 891.19 79.74 893.15 78.32C895.12 76.9 896.94 74.76 898.63 71.92L901.52 73.82C899.53 77.37 896.91 80.19 893.66 82.26C890.41 84.34 887.05 85.38 883.59 85.38Z" fill="white"/>
<path d="M953.43 84.2H931.53V81.22C932.22 81.16 932.99 81.1 933.83 81.04C934.67 80.98 935.36 80.86 935.91 80.68C936.75 80.41 937.38 79.93 937.78 79.26C938.19 78.58 938.39 77.7 938.39 76.62V53.73C938.39 50.57 937.64 48.13 936.15 46.42C934.66 44.7 932.84 43.85 930.7 43.85C929.13 43.85 927.68 44.1 926.33 44.59C924.99 45.09 923.79 45.7 922.73 46.42C921.7 47.17 920.92 47.92 920.38 48.68C919.84 49.44 919.42 50.06 919.11 50.58V76.18C919.11 77.2 919.31 78.05 919.72 78.71C920.13 79.37 920.75 79.88 921.59 80.25C922.25 80.55 922.94 80.78 923.64 80.93C924.35 81.08 925.12 81.19 925.96 81.25V84.23H904.15V81.25C904.84 81.19 905.56 81.12 906.3 81.05C907.05 80.98 907.67 80.86 908.18 80.71C909.02 80.44 909.64 79.97 910.06 79.29C910.48 78.61 910.69 77.73 910.69 76.65V24.75C910.69 23.73 910.46 22.7 909.99 21.68C909.52 20.66 908.91 19.89 908.16 19.37C907.62 18.98 906.66 18.7 905.29 18.54C903.92 18.37 902.81 18.26 901.97 18.2V15.31L918.45 14.32L919.08 15V46.06H919.26C920.25 45.07 921.16 44.19 921.97 43.42C922.78 42.65 923.85 41.85 925.18 41.01C926.33 40.29 927.67 39.69 929.23 39.2C930.79 38.71 932.52 38.48 934.45 38.48C938.43 38.48 941.49 39.74 943.63 42.25C945.77 44.76 946.84 48.38 946.84 53.11V76.27C946.84 77.32 947.03 78.17 947.41 78.82C947.79 79.47 948.42 79.97 949.3 80.33C950 80.6 950.63 80.8 951.19 80.94C951.75 81.08 952.49 81.17 953.4 81.23V84.2H953.43Z" fill="white"/>
<path opacity="0.3" d="M40.41 85.0001C62.7278 85.0001 80.82 66.9079 80.82 44.5901C80.82 22.2722 62.7278 4.18005 40.41 4.18005C18.0922 4.18005 0 22.2722 0 44.5901C0 66.9079 18.0922 85.0001 40.41 85.0001Z" fill="#E6E6E6"/>
<path fill-rule="evenodd" clip-rule="evenodd" d="M47.2 32.79L38.07 42.08C33.22 37.15 26.92 33.84 20.13 32.62C13.25 31.41 6.22 32.3 0 35.29C1.37 27.37 4.93 19.93 10.26 13.95C15.59 7.97003 22.55 3.69003 30.23 1.51003C37.99 -0.589973 46.15 -0.509973 53.75 1.83003C61.43 4.17003 68.3 8.62003 73.47 14.68C78.72 20.74 82.12 28.26 83.25 36.18C84.46 44.18 83.33 52.26 80.1 59.62C76.87 66.97 71.61 73.28 64.99 77.72C58.36 82.17 50.6 84.67 42.6 84.83C46.56 78.61 48.42 71.25 47.93 63.9C47.45 56.55 44.62 49.51 39.85 43.86L48.82 34.73C50.36 36.1 52.3 36.83 54.32 36.83C56.18 36.83 57.88 36.26 59.33 35.13C60.78 34 61.84 32.46 62.32 30.68C62.8 29.14 62.72 27.2 62 25.51C61.35 23.81 60.06 22.36 58.52 21.47C56.98 20.58 55.13 20.18 53.35 20.42C51.57 20.66 49.87 21.47 48.58 22.76C47.29 24.05 46.48 25.75 46.16 27.53C45.91 29.39 46.23 31.17 47.2 32.79Z" fill="white"/>
<path d="M12.28 54.53C16 54.53 18.99 51.46 18.99 47.66C18.99 43.86 16 40.79 12.28 40.79C8.56 40.79 5.5 43.94 5.5 47.74C5.5 51.45 8.57 54.53 12.28 54.53Z" fill="white"/>
<path d="M30.71 76.19C34.43 76.19 37.42 73.12 37.42 69.32C37.42 65.52 34.43 62.45 30.71 62.45C26.99 62.45 24 65.52 24 69.32C24 73.11 26.99 76.19 30.71 76.19Z" fill="white"/>
</g>
<defs>
<clipPath id="clip0_1_209">
<rect width="953.43" height="85.78" fill="white"/>
</clipPath>
</defs>
</svg>
