<svg xmlns="http://www.w3.org/2000/svg" width="28" height="28" viewBox="0 0 28 28" fill="none">
  <g clip-path="url(#clip0_6_1056)">
    <path d="M19.8891 4.2454C18.0694 4.36035 16.6105 5.81925 16.4955 7.63892C16.3571 9.82806 18.1647 11.6425 20.3599 11.5034C22.1795 11.3884 23.6384 9.92951 23.7534 8.10983C23.8918 5.92108 22.0849 4.10633 19.8891 4.2454ZM22.9349 8.0581C22.8459 9.46652 21.7167 10.5957 20.3082 10.6847C18.5999 10.7916 17.2072 9.3829 17.3141 7.69065C17.4031 6.28218 18.5323 5.15299 19.9408 5.06396C21.64 4.9571 23.0423 6.35765 22.9349 8.0581Z" fill="#212B36"/>
    <path d="M26.3858 5.94234C25.7947 5.9401 25.5022 5.22884 25.9201 4.81086C26.2242 4.5068 26.3916 4.10249 26.3916 3.67243C26.3916 3.24237 26.2242 2.83812 25.9201 2.53405L25.4462 2.06019C24.8206 1.43462 23.8277 1.44359 23.1858 2.08064C22.7662 2.49698 22.0564 2.20101 22.0564 1.60989C22.0563 0.722203 21.3341 0 20.4464 0H19.8023C18.9146 0 18.1923 0.722203 18.1923 1.60995C18.1923 2.20161 17.4805 2.49823 17.0609 2.07862C16.7568 1.7745 16.3525 1.60705 15.9225 1.60705C15.4924 1.60705 15.0882 1.7745 14.7841 2.07862L14.3287 2.53405C14.2036 2.65913 14.1017 2.80208 14.025 2.95706C13.4351 2.59492 12.7416 2.38569 12.0002 2.38569H8.41942C7.6095 2.38569 6.88598 2.89926 6.619 3.66368C6.60046 3.71678 6.54818 3.75249 6.48884 3.75249C5.43069 3.75249 4.5698 4.61338 4.5698 5.67153C4.5698 5.89805 4.75344 6.08163 4.9799 6.08163C5.20642 6.08163 5.39001 5.89799 5.39001 5.67153C5.39001 5.06565 5.8829 4.57275 6.48879 4.57275C6.89637 4.57275 7.25988 4.31616 7.39332 3.93416C7.54546 3.49858 7.95775 3.20595 8.41936 3.20595H12.0001C13.6885 3.20595 15.0621 4.57953 15.0621 6.26784V8.48619C14.427 8.66463 14.3421 8.90258 13.8573 8.92806V7.07055C13.8573 6.12741 13.09 5.36009 12.1469 5.36009H12.1312C11.4289 5.36009 11.1421 5.65228 10.3065 5.65228H10.1458C9.31886 5.65228 9.01775 5.36009 8.32104 5.36009H8.3054C7.36226 5.36009 6.59493 6.12741 6.59493 7.07055V8.66945C6.20665 8.50516 5.73257 8.44304 5.39017 8.42018V7.61195C5.39017 7.38544 5.20653 7.20185 4.98007 7.20185C4.75355 7.20185 4.56997 7.38549 4.56997 7.61195V8.60158C4.29122 8.83318 4.12568 9.17744 4.12568 9.54942V10.463C4.12568 11.1192 4.64018 11.6574 5.28692 11.6955C5.40986 12.8841 5.9639 13.9731 6.84136 14.7287C6.97425 14.8431 7.11025 14.9494 7.24883 15.0487V16.7738C7.24883 16.9363 7.1271 17.0747 6.96561 17.0957C6.96555 17.0957 6.96555 17.0957 6.9655 17.0957C5.76429 17.2516 3.56935 17.5931 2.36508 18.1293C0.928981 18.7687 0.00109864 20.1976 0.00109864 21.7696V25.8477C0.000989267 27.0345 0.966497 28 2.15327 28H18.2987C19.4855 28 20.451 27.0345 20.451 25.8477V24.4627C20.451 24.2362 20.2674 24.0526 20.0409 24.0526C19.8144 24.0526 19.6308 24.2362 19.6308 24.4627V25.8477C19.6308 26.5822 19.0332 27.1797 18.2988 27.1797H17.245V24.9433C17.245 24.7168 17.0614 24.5332 16.8349 24.5332C16.6084 24.5332 16.4248 24.7168 16.4248 24.9433V27.1797H12.1615L11.4047 21.5859L11.7887 21.0464C11.8885 21.0735 11.9907 21.0878 12.0929 21.0878C12.3643 21.0878 12.6348 20.9929 12.8534 20.8053L14.6971 19.2228C15.0063 18.9574 15.1503 18.5666 15.0929 18.1734C16.0386 18.3444 17.0872 18.582 17.7535 18.8787C18.894 19.3864 19.6309 20.5212 19.6309 21.7696V22.5461C19.6309 22.7726 19.8145 22.9562 20.041 22.9562C20.2675 22.9562 20.4511 22.7726 20.4511 22.5461V21.7696C20.4511 20.1976 19.5232 18.7687 18.0871 18.1293C16.8829 17.5932 14.6879 17.2516 13.4867 17.0957H13.4867C13.3252 17.0747 13.2034 16.9364 13.2034 16.7738V15.0487C13.342 14.9494 13.478 14.8431 13.6109 14.7287C14.0156 14.3802 14.3504 13.9602 14.607 13.4929L14.7841 13.67C15.4133 14.2992 16.4317 14.2993 17.0609 13.67C17.4793 13.2516 18.1924 13.5452 18.1924 14.1387C18.1924 15.0264 18.9146 15.7486 19.8023 15.7486H20.4465C21.3342 15.7486 22.0564 15.0264 22.0564 14.1387C22.0564 13.5468 22.7685 13.2506 23.1879 13.67C23.492 13.9741 23.8963 14.1416 24.3263 14.1416C24.7564 14.1416 25.1606 13.9741 25.4647 13.6701L25.9201 13.2146C26.5478 12.5869 26.5478 11.5655 25.9201 10.9378C25.5022 10.5199 25.7948 9.80859 26.3859 9.80634C27.2903 9.80295 27.9987 9.10716 27.9987 8.22248V7.52626C27.9987 6.64152 27.2903 5.94579 26.3858 5.94234ZM10.765 21.07H9.68708L9.37279 20.6285L10.2261 20.0141L11.0794 20.6285L10.765 21.07ZM8.56248 20.2012C8.43183 20.2954 8.25525 20.2878 8.13302 20.1829L6.28929 18.6004C6.13195 18.4653 6.16739 18.2905 6.18199 18.2401C6.19648 18.1902 6.25926 18.0261 6.46013 17.9938C6.63212 17.9686 6.7894 17.9466 6.92568 17.9284L9.49086 19.5328L8.56248 20.2012ZM0.821247 25.8477V21.7697C0.821247 20.5213 1.55816 19.3866 2.69861 18.8787C3.36498 18.582 4.41356 18.3445 5.35922 18.1735C5.30179 18.5666 5.4459 18.9574 5.75504 19.2228L7.59878 20.8053C7.81736 20.9929 8.08779 21.0879 8.35915 21.0879C8.46136 21.0879 8.56358 21.0736 8.66338 21.0465L9.0474 21.5859L8.29058 27.1798H4.0273V24.9434C4.0273 24.7168 3.84366 24.5333 3.6172 24.5333C3.39074 24.5333 3.2071 24.7169 3.2071 24.9434V27.1798H2.15327C1.41882 27.1797 0.821247 26.5822 0.821247 25.8477ZM9.11827 27.1797L9.83391 21.8903H10.6181L11.3337 27.1797H9.11827ZM14.2701 18.2401C14.2847 18.2905 14.32 18.4653 14.1627 18.6004L12.319 20.1829C12.1968 20.2877 12.0202 20.2953 11.8896 20.2012L10.9612 19.5327L13.5264 17.9283C13.6626 17.9465 13.82 17.9685 13.992 17.9937C14.1928 18.0261 14.2556 18.1902 14.2701 18.2401ZM12.6518 17.5078L10.226 19.0251L7.80019 17.5078C7.96803 17.3077 8.06893 17.051 8.06893 16.7739V15.5333C9.4453 16.1856 11.0065 16.1857 12.3831 15.5333V16.7739C12.3831 17.051 12.484 17.3077 12.6518 17.5078ZM13.0757 14.1072C11.3822 15.5654 9.0702 15.5656 7.37642 14.1072C6.5776 13.4194 6.10581 12.3884 6.08197 11.2788C6.07721 11.0557 5.89504 10.8775 5.67197 10.8775H5.36015C5.13166 10.8775 4.94578 10.6916 4.94578 10.4631V9.54948C4.94578 9.42309 5.00358 9.30677 5.09972 9.2289C5.57151 9.23951 6.25986 9.33466 6.46379 9.5358C6.62501 9.69478 6.86394 9.74116 7.07258 9.65388C7.28066 9.56681 7.41514 9.36469 7.41514 9.13894V7.0706C7.41514 6.57973 7.81447 6.1804 8.30534 6.1804C9.05948 6.2358 9.23574 6.47259 10.1457 6.47259H10.3064C11.2478 6.47259 11.6037 6.1804 12.1312 6.1804H12.1468C12.6377 6.1804 13.037 6.57973 13.037 7.0706V8.98915C13.037 9.40866 13.3783 9.74996 13.7993 9.74996C14.5755 9.74996 14.7851 9.38935 15.3795 9.25209C15.4594 9.32898 15.5063 9.43534 15.5063 9.54953V10.4631C15.5063 10.6916 15.3204 10.8775 15.0919 10.8775H14.7801C14.5571 10.8775 14.3749 11.0558 14.3701 11.2788C14.3463 12.3885 13.8745 13.4194 13.0757 14.1072ZM27.1784 8.22248C27.1784 8.64899 26.8289 8.98444 26.3827 8.98614C25.0633 8.99112 24.4079 10.5858 25.3401 11.5179C25.648 11.8258 25.648 12.3268 25.3401 12.6347L24.8846 13.0902C24.7355 13.2393 24.5372 13.3215 24.3262 13.3215C24.1153 13.3215 23.917 13.2394 23.7678 13.0902C22.8338 12.1562 21.2361 12.8161 21.2361 14.1389C21.2361 14.5743 20.8818 14.9285 20.4464 14.9285H19.8023C19.3669 14.9285 19.0126 14.5743 19.0126 14.1389C19.0126 12.8177 17.4161 12.155 16.4808 13.0902C16.1722 13.3988 15.6727 13.3988 15.3641 13.0902L14.9563 12.6824C15.059 12.3651 15.1302 12.0346 15.1653 11.6956C15.812 11.6575 16.3265 11.1193 16.3265 10.4632V9.54959C16.3265 9.17766 16.161 8.83334 15.8822 8.60174V6.26801C15.8822 5.17672 15.4289 4.18983 14.7015 3.48381C14.7354 3.34458 14.8058 3.21688 14.9085 3.11418L15.364 2.65874C15.5132 2.50961 15.7114 2.42741 15.9224 2.42741C16.1333 2.42741 16.3317 2.50955 16.4808 2.65874C17.4148 3.5927 19.0125 2.93284 19.0125 1.61005C19.0125 1.17463 19.3668 0.820367 19.8022 0.820367H20.4463C20.8817 0.820367 21.236 1.17463 21.236 1.61005C21.236 2.92999 22.8282 3.59116 23.7634 2.66295C24.0802 2.34872 24.5645 2.33871 24.866 2.64026L25.3399 3.11418C25.489 3.26331 25.5712 3.46161 25.5712 3.67254C25.5712 3.88347 25.4891 4.08182 25.3399 4.23095C24.4065 5.1643 25.0649 6.75768 26.3826 6.76266C26.8288 6.76435 27.1783 7.0998 27.1783 7.52631V8.22248H27.1784Z" fill="#212B36"/>
  </g>
  <defs>
    <clipPath id="clip0_6_1056">
      <rect width="28" height="28" fill="white"/>
    </clipPath>
  </defs>
</svg>