<svg xmlns="http://www.w3.org/2000/svg" width="28" height="28" viewBox="0 0 28 28" fill="none">
  <g clip-path="url(#clip0_6_995)">
    <path d="M15.5155 12.3066C15.5155 10.2747 13.8625 8.62177 11.8307 8.62177C9.79893 8.62177 8.146 10.2747 8.146 12.3066C8.146 14.3384 9.79898 15.9913 11.8307 15.9913C13.8625 15.9913 15.5155 14.3384 15.5155 12.3066ZM11.8307 9.44525C12.0149 9.53373 12.426 10.346 12.4892 11.8965H11.1722C11.2355 10.346 11.6467 9.53373 11.8307 9.44525ZM12.4892 12.7167C12.4259 14.2672 12.0148 15.0794 11.8307 15.1679C11.6467 15.0794 11.2355 14.2671 11.1722 12.7167H12.4892ZM12.9024 14.9622C13.1437 14.3504 13.2764 13.536 13.3094 12.7168H14.6653C14.5183 13.7379 13.8306 14.5863 12.9024 14.9622ZM14.6654 11.8964H13.3095C13.2764 11.0771 13.1438 10.2627 12.9025 9.65087C13.8305 10.0269 14.5183 10.8752 14.6654 11.8964ZM10.759 9.65087C10.5177 10.2627 10.3851 11.0771 10.352 11.8964H8.99611C9.14322 10.8752 9.83092 10.0268 10.759 9.65087ZM8.99611 12.7167H10.352C10.3851 13.536 10.5177 14.3503 10.759 14.9622C9.83092 14.5863 9.14322 13.7379 8.99611 12.7167Z" fill="#212B36"/>
    <path d="M12.6474 19.7579H13.5347C14.1687 19.7579 14.706 19.3368 14.882 18.7597H16.3081C17.4689 18.7597 18.4132 17.8154 18.4132 16.6547V14.6763C18.7715 14.599 19.1012 14.421 19.3675 14.1552C19.7315 13.7904 19.9319 13.306 19.9319 12.7914C19.9319 11.7277 19.0666 10.8624 18.003 10.8624H17.2656C16.6165 8.42149 14.3835 6.68275 11.8307 6.68275C9.27815 6.68275 7.04532 8.42132 6.39596 10.8624H5.65855C4.59493 10.8624 3.72961 11.7277 3.72961 12.7914C3.72961 13.3061 3.9301 13.7904 4.2947 14.1559C4.65952 14.5199 5.14389 14.7204 5.65855 14.7204H7.01776C7.15497 14.7204 7.2831 14.6518 7.35911 14.5376C7.43518 14.4234 7.44913 14.2787 7.39619 14.1521C7.1513 13.5661 7.02716 12.9452 7.02716 12.3067C7.02716 12.2206 7.0299 12.1345 7.03449 12.0485C7.04696 11.8148 7.07589 11.5821 7.12183 11.3538C7.57311 9.12258 9.5535 7.50312 11.8308 7.50312C14.1082 7.50312 16.0886 9.12264 16.5397 11.3535C16.6026 11.6659 16.6344 11.9866 16.6344 12.3067C16.6344 12.9473 16.5103 13.568 16.2656 14.1516C16.2125 14.2782 16.2263 14.4231 16.3023 14.5374C16.3783 14.6517 16.5065 14.7204 16.6438 14.7204H17.5928V16.6548C17.5928 17.3632 17.0165 17.9395 16.3081 17.9395H14.882C14.706 17.3624 14.1687 16.9413 13.5347 16.9413H12.6474C11.8708 16.9413 11.239 17.5731 11.239 18.3497C11.239 19.1263 11.8708 19.7579 12.6474 19.7579ZM5.65855 13.9C5.36264 13.9 5.08406 13.7846 4.87477 13.5758C4.66526 13.3658 4.54993 13.0872 4.54993 12.7913C4.54993 12.1799 5.04726 11.6826 5.65855 11.6826H6.24136C6.1619 12.401 6.21686 13.1582 6.43686 13.8999H5.65855V13.9ZM17.4202 11.6826H18.003C18.6143 11.6826 19.1116 12.1799 19.1116 12.7913C19.1116 13.0872 18.9962 13.3658 18.7874 13.5751C18.5775 13.7846 18.2989 13.9 18.003 13.9H17.2251C17.4411 13.1719 17.501 12.4139 17.4202 11.6826ZM12.6474 17.7615H13.5347C13.859 17.7615 14.1228 18.0253 14.1228 18.3496C14.1228 18.6739 13.859 18.9376 13.5347 18.9376H12.6474C12.3231 18.9376 12.0593 18.6738 12.0593 18.3496C12.0593 18.0253 12.3231 17.7615 12.6474 17.7615Z" fill="#212B36"/>
    <path d="M26.9717 1.25836H19.709C19.142 1.25836 18.6808 1.71965 18.6808 2.28665V4.86057H1.05656C0.473977 4.86057 0 5.33455 0 5.91714V7.95698C0 8.18349 0.183641 8.36714 0.410156 8.36714C0.636672 8.36714 0.820312 8.18349 0.820312 7.95698V5.91714C0.820312 5.78687 0.926297 5.68088 1.05656 5.68088H18.6808V6.78098C18.6808 7.34798 19.142 7.80927 19.709 7.80927H20.3613V9.67696C20.3613 9.90878 20.4905 10.1164 20.6984 10.2189C20.7839 10.261 20.8753 10.2817 20.9661 10.2817C21.0963 10.2817 21.2252 10.2391 21.3334 10.156L22.8413 8.99719V20.7599H20.3164C20.0899 20.7599 19.9062 20.9435 19.9062 21.17C19.9062 21.3965 20.0899 21.5802 20.3164 21.5802H22.8412V22.8425C22.8412 22.9727 22.7352 23.0786 22.6049 23.0786H1.05645C0.926242 23.0786 0.820312 22.9727 0.820312 22.8425V21.5801H18.4023C18.6289 21.5801 18.8125 21.3965 18.8125 21.17C18.8125 20.9435 18.6289 20.7598 18.4023 20.7598H0.820312V9.87121C0.820312 9.64469 0.636672 9.46105 0.410156 9.46105C0.183641 9.46105 0 9.64469 0 9.87121V22.8424C0 23.4249 0.473922 23.8988 1.05645 23.8988H9.77184L9.31202 25.9212H6.33877C6.11226 25.9212 5.92862 26.1049 5.92862 26.3314C5.92862 26.5579 6.11226 26.7415 6.33877 26.7415H9.63834L9.63977 26.7416L9.6407 26.7415H14.0207L14.0216 26.7416L14.023 26.7415H17.3226C17.5491 26.7415 17.7327 26.5579 17.7327 26.3314C17.7327 26.1049 17.5491 25.9212 17.3226 25.9212H14.3493L13.8895 23.8988H22.6049C23.1875 23.8988 23.6615 23.4249 23.6615 22.8424V8.36675L24.387 7.80921H26.9717C27.5387 7.80921 27.9999 7.34792 27.9999 6.78092V2.28665C28 1.71965 27.5387 1.25836 26.9717 1.25836ZM13.5081 25.9213H10.1533L10.6131 23.8989H13.0483L13.5081 25.9213ZM27.1797 6.78098C27.1797 6.89566 27.0864 6.98896 26.9717 6.98896H24.3575C24.1968 6.98896 24.0381 7.04288 23.9107 7.14082L21.1816 9.23803V7.72226C21.1816 7.3179 20.8526 6.98896 20.4483 6.98896H19.709C19.5943 6.98896 19.501 6.89566 19.501 6.78098V2.28665C19.501 2.17197 19.5943 2.07867 19.709 2.07867H26.9717C27.0864 2.07867 27.1797 2.17197 27.1797 2.28665V6.78098Z" fill="#212B36"/>
    <path d="M21.5146 4.12366H21.45C21.2234 4.12366 21.0398 4.3073 21.0398 4.53381C21.0398 4.76033 21.2234 4.94397 21.45 4.94397H21.5146C21.7411 4.94397 21.9247 4.76033 21.9247 4.53381C21.9247 4.3073 21.7411 4.12366 21.5146 4.12366Z" fill="#212B36"/>
    <path d="M23.3726 4.12366H23.308C23.0815 4.12366 22.8978 4.3073 22.8978 4.53381C22.8978 4.76033 23.0815 4.94397 23.308 4.94397H23.3726C23.5991 4.94397 23.7828 4.76033 23.7828 4.53381C23.7828 4.3073 23.5991 4.12366 23.3726 4.12366Z" fill="#212B36"/>
    <path d="M25.2308 4.12366H25.1661C24.9396 4.12366 24.756 4.3073 24.756 4.53381C24.756 4.76033 24.9396 4.94397 25.1661 4.94397H25.2308C25.4573 4.94397 25.6409 4.76033 25.6409 4.53381C25.6409 4.3073 25.4573 4.12366 25.2308 4.12366Z" fill="#212B36"/>
  </g>
  <defs>
    <clipPath id="clip0_6_995">
      <rect width="28" height="28" fill="white"/>
    </clipPath>
  </defs>
</svg>