<svg xmlns="http://www.w3.org/2000/svg" width="16" height="16" viewBox="0 0 16 16" fill="none">
  <g clip-path="url(#clip0_23_1502)">
    <path d="M16 4.83594C16 4.06053 15.3692 3.42969 14.5938 3.42969H12.0938V2.42103C12.0938 1.60731 11.4318 0.945312 10.6181 0.945312H5.38197C4.56825 0.945312 3.90625 1.60731 3.90625 2.42103V3.42969H1.40625C0.630844 3.42969 0 4.06053 0 4.83594V7.05459C0 7.46803 0.134625 7.98362 0.625 8.48938V13.6484C0.625 14.4238 1.25584 15.0547 2.03125 15.0547H13.9688C14.7442 15.0547 15.375 14.4238 15.375 13.6484V8.48938C15.8652 7.98391 16 7.46847 16 7.05459V4.83594ZM4.84375 2.42103C4.84375 2.12425 5.08519 1.88281 5.38197 1.88281H10.6181C10.9148 1.88281 11.1563 2.12425 11.1563 2.42103V3.42969H4.84375V2.42103ZM0.9375 4.83594C0.9375 4.57747 1.14778 4.36719 1.40625 4.36719H14.5938C14.8522 4.36719 15.0625 4.57747 15.0625 4.83594V7.05459C15.0625 8.20797 12.8498 9.14919 9.625 9.39578V8.96094C9.625 8.70206 9.41512 8.49219 9.15625 8.49219H6.84375C6.58488 8.49219 6.375 8.70206 6.375 8.96094V9.39563C3.15316 9.14872 0.9375 8.20503 0.9375 7.05459V4.83594ZM8.6875 9.42969V10.0391C8.6875 10.3751 8.41413 10.6484 8.07812 10.6484H7.92188C7.58588 10.6484 7.3125 10.3751 7.3125 10.0391V9.42969H8.6875ZM13.9688 14.1172H2.03125C1.77278 14.1172 1.5625 13.9069 1.5625 13.6484V9.17734C2.95825 9.89256 4.42506 10.1683 6.40425 10.3379C6.54391 11.0483 7.17119 11.5859 7.92188 11.5859H8.07812C8.82887 11.5859 9.45619 11.0482 9.59578 10.3378C11.2307 10.2194 12.7066 9.91928 13.7843 9.48322C14.0266 9.38516 14.2434 9.28272 14.4375 9.17725V13.6484C14.4375 13.9069 14.2272 14.1172 13.9688 14.1172Z" fill="#637381"/>
  </g>
  <defs>
    <clipPath id="clip0_23_1502">
      <rect width="16" height="16" fill="white"/>
    </clipPath>
  </defs>
</svg>