<svg xmlns="http://www.w3.org/2000/svg" width="28" height="28" viewBox="0 0 28 28" fill="none">
  <g clip-path="url(#clip0_6_1040)">
    <path d="M25.3031 10.0629C26.3763 9.44327 26.7434 8.07335 26.1238 7C25.5042 5.92681 24.1342 5.55959 23.0609 6.1793C22.8369 6.30864 22.6406 6.47243 22.4772 6.66323L16.1132 2.989C16.1961 2.75521 16.2416 2.50398 16.2416 2.24219C16.2416 1.00587 15.2357 0 13.9994 0C12.7631 0 11.7572 1.00587 11.7572 2.24219C11.7572 2.50398 11.8028 2.75521 11.8856 2.989L5.52158 6.66323C5.35817 6.47243 5.1619 6.30864 4.9379 6.17936C3.86723 5.56112 2.49326 5.92927 1.87502 7C1.25683 8.07073 1.62509 9.44475 2.69577 10.0628C2.91977 10.1922 3.15979 10.2798 3.4067 10.3259V17.6736C3.15973 17.7197 2.91977 17.8078 2.69577 17.9371C1.62509 18.5553 1.25688 19.9292 1.87502 21C2.49337 22.071 3.86755 22.4387 4.93795 21.8207C5.16195 21.6914 5.35823 21.5276 5.52163 21.3368L11.8856 25.0111C11.8028 25.2448 11.7573 25.4961 11.7573 25.7579C11.7573 26.9942 12.7631 28.0001 13.9995 28.0001C15.2358 28.0001 16.2416 26.9942 16.2416 25.7579C16.2416 25.4961 16.1961 25.2448 16.1133 25.0111L22.4766 21.3371C22.626 21.5101 22.8044 21.6639 23.0108 21.7902C23.2038 21.9084 23.4564 21.8478 23.5747 21.6546C23.693 21.4614 23.6323 21.2089 23.4391 21.0906C22.788 20.6919 22.5568 19.8501 22.9506 19.168C23.3461 18.4829 24.2172 18.2574 24.8929 18.6475C25.2219 18.8374 25.4571 19.144 25.5554 19.5109C25.7252 20.1446 25.4393 20.7771 24.9251 21.0914C24.7319 21.2096 24.671 21.4621 24.7891 21.6553C24.9073 21.8486 25.1597 21.9095 25.353 21.7914C26.1694 21.2924 26.6143 20.2931 26.3478 19.2986C26.1928 18.7201 25.8218 18.2366 25.3031 17.9371C25.0791 17.8078 24.8391 17.7197 24.5921 17.6736V10.3259C24.8391 10.2798 25.0791 10.1922 25.3031 10.0629ZM23.4711 6.8897C24.1527 6.49622 25.0207 6.73006 25.4134 7.41016C25.8063 8.09069 25.5736 8.95951 24.8929 9.35249C24.217 9.74263 23.3462 9.51716 22.9506 8.83203C22.5553 8.14729 22.795 7.28 23.4711 6.8897ZM13.9994 0.820312C14.7835 0.820312 15.4213 1.45819 15.4213 2.24219C15.4213 3.02619 14.7835 3.66406 13.9994 3.66406C13.2153 3.66406 12.5775 3.02619 12.5775 2.24219C12.5775 1.45819 13.2153 0.820312 13.9994 0.820312ZM2.58541 7.41016C2.97752 6.73099 3.84896 6.4978 4.5278 6.8897C5.20357 7.27984 5.4437 8.14702 5.04826 8.83203C4.65216 9.51809 3.78077 9.74209 3.10592 9.35249C2.42692 8.96049 2.19341 8.08916 2.58541 7.41016ZM4.5278 21.1103C3.8488 21.5023 2.97746 21.2688 2.58541 20.5899C2.19341 19.9108 2.42692 19.0396 3.10592 18.6476C3.78 18.2585 4.65183 18.4815 5.04826 19.168C5.44354 19.8527 5.20379 20.7201 4.5278 21.1103ZM13.9994 27.1797C13.2153 27.1797 12.5775 26.5418 12.5775 25.7578C12.5775 24.9738 13.2153 24.3359 13.9994 24.3359C14.7835 24.3359 15.4213 24.9738 15.4213 25.7578C15.4213 26.5418 14.7835 27.1797 13.9994 27.1797ZM22.2402 18.7578C21.8968 19.3526 21.8525 20.0327 22.0638 20.6282L15.7019 24.3012C15.2904 23.8209 14.6801 23.5156 13.9994 23.5156C13.3187 23.5156 12.7084 23.8209 12.2969 24.3013L5.93048 20.6257C6.15398 19.9892 6.08262 19.3191 5.75859 18.7579C5.45913 18.2392 4.97563 17.8682 4.39709 17.7132C4.3406 17.698 4.28384 17.6858 4.22696 17.6752V10.3249C4.88726 10.201 5.43348 9.80525 5.75859 9.24219C6.08278 8.68071 6.15382 8.01057 5.93048 7.37439L12.2969 3.69879C12.7084 4.17911 13.3188 4.48438 13.9994 4.48438C14.68 4.48438 15.2903 4.17911 15.7019 3.69879L22.0683 7.37439C21.8455 8.00789 21.915 8.67891 22.2402 9.24219C22.5662 9.80684 23.1132 10.2013 23.7718 10.3249V17.6751C23.1115 17.799 22.5653 18.1947 22.2402 18.7578Z" fill="#212B36"/>
    <path d="M20.2732 9.71081L14.577 6.42212C14.2207 6.21639 13.7782 6.21639 13.4218 6.42212L7.72556 9.71087C7.37157 9.91534 7.14795 10.2954 7.14795 10.7113V17.2887C7.14795 17.7016 7.37195 18.0849 7.72556 18.2891C7.93004 18.4072 13.1896 21.4437 13.4218 21.5778C13.7842 21.7871 14.2282 21.7792 14.577 21.5778L20.2732 18.2891C20.6295 18.0834 20.8508 17.7001 20.8508 17.2887V15.4958C20.8508 15.2692 20.6672 15.0856 20.4406 15.0856C20.2141 15.0856 20.0305 15.2692 20.0305 15.4958V17.2887C20.0305 17.408 19.9663 17.5191 19.863 17.5788L14.4095 20.7273V14.2186C14.4674 14.1967 14.5241 14.1706 14.5786 14.1392L16.0069 13.3146V15.3524C16.0069 15.8202 16.5151 16.1066 16.9141 15.8761L18.223 15.1204C18.4634 14.9816 18.6127 14.723 18.6127 14.4455V11.8102L20.0305 10.9916V13.5818C20.0305 13.8083 20.2141 13.9919 20.4407 13.9919C20.6672 13.9919 20.8508 13.8083 20.8508 13.5818V10.7113C20.8509 10.2942 20.6248 9.91365 20.2732 9.71081ZM16.418 12.13L10.8044 8.88054L11.7688 8.32372L17.3825 11.5731C16.9791 11.8061 17.2181 11.6681 16.418 12.13ZM13.4202 14.1392C13.4749 14.1707 13.5488 14.204 13.5893 14.2193V20.7273L8.13577 17.5787C8.0323 17.5189 7.96832 17.4077 7.96832 17.2886V10.9915L13.4202 14.1392ZM14.1685 13.4288C14.0642 13.4891 13.9342 13.4888 13.8303 13.4288L8.37847 10.2811L9.98459 9.35387L15.5983 12.6033L14.1685 13.4288ZM17.7924 12.2837V14.4218L16.8274 14.979V12.8409L17.775 12.2938L17.7924 12.2837ZM18.2023 11.0999L12.5886 7.8504L13.8319 7.13257C13.9353 7.07296 14.0636 7.07296 14.1669 7.13257L19.6204 10.2812L18.2023 11.0999Z" fill="#212B36"/>
  </g>
  <defs>
    <clipPath id="clip0_6_1040">
      <rect width="28" height="28" fill="white"/>
    </clipPath>
  </defs>
</svg>