<svg width="352" height="108" viewBox="0 0 352 108" fill="none" xmlns="http://www.w3.org/2000/svg">
<rect width="352" height="108" rx="10" fill="None"/>
<path d="M35.6878 55.6881C36.9019 55.9458 37.8771 56.5504 38.6135 57.5019C39.3499 58.4336 39.7181 59.504 39.7181 60.7133C39.7181 62.4577 39.1011 63.8453 37.8671 64.8761C36.6531 65.8871 34.9514 66.3925 32.7622 66.3925H23V45.5189H32.4338C34.5633 45.5189 36.2252 46.0046 37.4193 46.9759C38.6334 47.9472 39.2404 49.2655 39.2404 50.9306C39.2404 52.1596 38.912 53.1805 38.2552 53.9932C37.6184 54.806 36.7626 55.3709 35.6878 55.6881ZM28.105 53.9635H31.4486C32.2845 53.9635 32.9214 53.7851 33.3592 53.4283C33.817 53.0517 34.0459 52.5065 34.0459 51.7929C34.0459 51.0793 33.817 50.5341 33.3592 50.1575C32.9214 49.7809 32.2845 49.5925 31.4486 49.5925H28.105V53.9635ZM31.8665 62.2892C32.7224 62.2892 33.3791 62.1009 33.8369 61.7242C34.3145 61.3278 34.5534 60.7628 34.5534 60.0294C34.5534 59.2959 34.3046 58.721 33.807 58.3048C33.3294 57.8885 32.6626 57.6803 31.8068 57.6803H28.105V62.2892H31.8665Z" fill="white"/>
<path d="M58.382 57.829C58.382 58.3048 58.3521 58.8003 58.2924 59.3157H46.739C46.8187 60.3465 47.147 61.1394 47.7242 61.6945C48.3213 62.2297 49.0477 62.4973 49.9035 62.4973C51.1773 62.4973 52.063 61.9621 52.5605 60.8917H57.9939C57.7153 61.9819 57.2077 62.9632 56.4713 63.8354C55.7549 64.7076 54.8493 65.3915 53.7547 65.8871C52.66 66.3826 51.436 66.6304 50.0827 66.6304C48.4507 66.6304 46.9978 66.2835 45.724 65.5897C44.4503 64.8959 43.4551 63.9048 42.7387 62.6163C42.0222 61.3278 41.6639 59.8212 41.6639 58.0966C41.6639 56.372 42.0122 54.8655 42.7088 53.577C43.4253 52.2885 44.4204 51.2973 45.6942 50.6035C46.9679 49.9097 48.4308 49.5628 50.0827 49.5628C51.6948 49.5628 53.1277 49.8998 54.3816 50.5738C55.6354 51.2478 56.6107 52.2092 57.3073 53.458C58.0237 54.7069 58.382 56.1639 58.382 57.829ZM53.1576 56.4909C53.1576 55.6187 52.8591 54.9249 52.262 54.4095C51.6649 53.8941 50.9186 53.6364 50.023 53.6364C49.1671 53.6364 48.4407 53.8842 47.8436 54.3798C47.2665 54.8754 46.9082 55.5791 46.7689 56.4909H53.1576Z" fill="white"/>
<path d="M66.1801 52.566C66.7772 51.6541 67.5235 50.9405 68.4191 50.4251C69.3147 49.8899 70.3099 49.6223 71.4045 49.6223V55.0042H70.0014C68.7276 55.0042 67.7723 55.2817 67.1354 55.8368C66.4985 56.372 66.1801 57.3235 66.1801 58.6913V66.3925H61.0751V49.8007H66.1801V52.566Z" fill="white"/>
<path d="M78.9495 52.566C79.5466 51.6541 80.293 50.9405 81.1886 50.4251C82.0842 49.8899 83.0793 49.6223 84.1739 49.6223V55.0042H82.7708C81.4971 55.0042 80.5417 55.2817 79.9049 55.8368C79.268 56.372 78.9495 57.3235 78.9495 58.6913V66.3925H73.8446V49.8007H78.9495V52.566Z" fill="white"/>
<path d="M89.1814 48.0761C88.2858 48.0761 87.5494 47.8184 86.9723 47.303C86.415 46.7678 86.1364 46.1136 86.1364 45.3405C86.1364 44.5476 86.415 43.8934 86.9723 43.378C87.5494 42.8428 88.2858 42.5752 89.1814 42.5752C90.0571 42.5752 90.7736 42.8428 91.3309 43.378C91.9081 43.8934 92.1967 44.5476 92.1967 45.3405C92.1967 46.1136 91.9081 46.7678 91.3309 47.303C90.7736 47.8184 90.0571 48.0761 89.1814 48.0761ZM91.719 49.8007V66.3925H86.614V49.8007H91.719Z" fill="white"/>
<path d="M96.5828 45.5189H101.807L98.4636 53.4878H95.0304L96.5828 45.5189Z" fill="white"/>
<path d="M111.583 66.6304C110.13 66.6304 108.836 66.3826 107.702 65.8871C106.567 65.3915 105.672 64.7175 105.015 63.8651C104.358 62.9929 103.99 62.0216 103.91 60.9511H108.956C109.015 61.526 109.284 61.9918 109.762 62.3486C110.239 62.7055 110.827 62.8839 111.523 62.8839C112.16 62.8839 112.648 62.7649 112.986 62.5271C113.344 62.2694 113.523 61.9423 113.523 61.5458C113.523 61.0701 113.275 60.7232 112.777 60.5051C112.279 60.2672 111.473 60.0095 110.359 59.732C109.165 59.4545 108.17 59.1671 107.374 58.8697C106.577 58.5525 105.891 58.0669 105.314 57.4127C104.736 56.7387 104.448 55.8368 104.448 54.7069C104.448 53.7554 104.707 52.8931 105.224 52.12C105.761 51.3271 106.538 50.7026 107.553 50.2467C108.588 49.7908 109.812 49.5628 111.225 49.5628C113.314 49.5628 114.956 50.0782 116.151 51.109C117.365 52.1398 118.061 53.5076 118.24 55.2124H113.523C113.444 54.6375 113.185 54.1816 112.747 53.8446C112.329 53.5076 111.772 53.3391 111.075 53.3391C110.478 53.3391 110.021 53.458 109.702 53.6959C109.384 53.914 109.224 54.2212 109.224 54.6177C109.224 55.0934 109.473 55.4502 109.971 55.6881C110.488 55.926 111.284 56.1639 112.359 56.4017C113.593 56.7189 114.598 57.0361 115.374 57.3532C116.151 57.6506 116.827 58.1462 117.404 58.84C118.001 59.514 118.31 60.4258 118.33 61.5756C118.33 62.5469 118.051 63.4191 117.494 64.1922C116.957 64.9455 116.17 65.5402 115.135 65.9763C114.12 66.4124 112.936 66.6304 111.583 66.6304Z" fill="white"/>
<path fill-rule="evenodd" clip-rule="evenodd" d="M328.999 37H126.243V72H328.999V37ZM276.026 47.3031C276.603 47.8185 277.339 48.0762 278.235 48.0762C279.111 48.0762 279.827 47.8185 280.385 47.3031C280.962 46.7679 281.25 46.1137 281.25 45.3406C281.25 44.5477 280.962 43.8935 280.385 43.3781C279.827 42.8429 279.111 42.5753 278.235 42.5753C277.339 42.5753 276.603 42.8429 276.026 43.3781C275.469 43.8935 275.19 44.5477 275.19 45.3406C275.19 46.1137 275.469 46.7679 276.026 47.3031ZM280.773 66.3927V49.8008H275.668V66.3927H280.773ZM158.063 66.3927V45.519H152.062L146.241 59.97L140.36 45.519H134.329V66.3927H139.434V53.8447L144.151 66.3927H148.271L152.958 53.8744V66.3927H158.063ZM161.674 53.5771C161.037 54.8656 160.719 56.3622 160.719 58.067C160.719 59.7718 161.037 61.2783 161.674 62.5866C162.331 63.8751 163.217 64.8762 164.331 65.5898C165.446 66.2836 166.68 66.6305 168.033 66.6305C169.207 66.6305 170.232 66.3927 171.108 65.9169C172.004 65.4412 172.7 64.8167 173.198 64.0436V66.3927H178.303V49.8008H173.198V52.1498C172.72 51.3767 172.033 50.7523 171.138 50.2766C170.262 49.8008 169.237 49.5629 168.063 49.5629C166.69 49.5629 165.446 49.9098 164.331 50.6036C163.217 51.2974 162.331 52.2886 161.674 53.5771ZM172.123 55.0935C172.839 55.827 173.198 56.8281 173.198 58.0967C173.198 59.3654 172.839 60.3665 172.123 61.0999C171.426 61.8334 170.571 62.2001 169.556 62.2001C168.54 62.2001 167.675 61.8334 166.958 61.0999C166.262 60.3466 165.913 59.3357 165.913 58.067C165.913 56.7983 166.262 55.8072 166.958 55.0935C167.675 54.3601 168.54 53.9934 169.556 53.9934C170.571 53.9934 171.426 54.3601 172.123 55.0935ZM188.773 66.6305C187.32 66.6305 186.026 66.3827 184.892 65.8872C183.757 65.3916 182.862 64.7176 182.205 63.8652C181.548 62.993 181.18 62.0217 181.1 60.9512H186.146C186.205 61.5261 186.474 61.9919 186.952 62.3488C187.429 62.7056 188.016 62.884 188.713 62.884C189.35 62.884 189.837 62.765 190.176 62.5272C190.534 62.2695 190.713 61.9424 190.713 61.5459C190.713 61.0702 190.464 60.7233 189.967 60.5052C189.469 60.2673 188.663 60.0096 187.549 59.7321C186.355 59.4546 185.359 59.1672 184.563 58.8698C183.767 58.5527 183.081 58.067 182.503 57.4128C181.926 56.7389 181.638 55.8369 181.638 54.707C181.638 53.7555 181.896 52.8932 182.414 52.1201C182.951 51.3272 183.727 50.7027 184.742 50.2468C185.777 49.7909 187.001 49.5629 188.414 49.5629C190.504 49.5629 192.146 50.0783 193.34 51.1091C194.554 52.1399 195.251 53.5077 195.43 55.2125H190.713C190.634 54.6376 190.375 54.1817 189.937 53.8447C189.519 53.5077 188.962 53.3392 188.265 53.3392C187.668 53.3392 187.21 53.4581 186.892 53.696C186.573 53.9141 186.414 54.2213 186.414 54.6178C186.414 55.0935 186.663 55.4504 187.161 55.6882C187.678 55.9261 188.474 56.164 189.549 56.4019C190.783 56.719 191.788 57.0362 192.564 57.3534C193.34 57.6507 194.017 58.1463 194.594 58.8401C195.191 59.5141 195.5 60.4259 195.52 61.5757C195.52 62.547 195.241 63.4192 194.684 64.1923C194.146 64.9456 193.36 65.5403 192.325 65.9764C191.31 66.4125 190.126 66.6305 188.773 66.6305ZM207.927 66.3927V62.0812H206.106C205.549 62.0812 205.151 61.9721 204.912 61.7541C204.673 61.536 204.554 61.1792 204.554 60.6836V54.0231H207.897V49.8008H204.554V45.7569H199.449V49.8008H197.419V54.0231H199.449V60.6242C199.449 62.6659 199.966 64.1427 201.001 65.0546C202.036 65.9466 203.479 66.3927 205.33 66.3927H207.927ZM226.474 57.8291C226.474 58.3049 226.444 58.8004 226.384 59.3158H214.831C214.911 60.3466 215.239 61.1396 215.816 61.6946C216.413 62.2298 217.14 62.4974 217.995 62.4974C219.269 62.4974 220.155 61.9622 220.652 60.8918H226.086C225.807 61.982 225.3 62.9633 224.563 63.8355C223.847 64.7077 222.941 65.3916 221.847 65.8872C220.752 66.3827 219.528 66.6305 218.175 66.6305C216.543 66.6305 215.09 66.2836 213.816 65.5898C212.542 64.896 211.547 63.9049 210.831 62.6164C210.114 61.3279 209.756 59.8213 209.756 58.0967C209.756 56.3721 210.104 54.8656 210.801 53.5771C211.517 52.2886 212.512 51.2974 213.786 50.6036C215.06 49.9098 216.523 49.5629 218.175 49.5629C219.787 49.5629 221.22 49.8999 222.474 50.5739C223.727 51.2479 224.703 52.2093 225.399 53.4581C226.116 54.707 226.474 56.164 226.474 57.8291ZM221.25 56.4911C221.25 55.6189 220.951 54.925 220.354 54.4096C219.757 53.8942 219.01 53.6365 218.115 53.6365C217.259 53.6365 216.533 53.8843 215.936 54.3799C215.358 54.8755 215 55.5792 214.861 56.4911H221.25ZM236.511 50.4252C235.615 50.9406 234.869 51.6543 234.272 52.5661V49.8008H229.167V66.3927H234.272V58.6914C234.272 57.3236 234.59 56.3721 235.227 55.8369C235.864 55.2819 236.82 55.0043 238.093 55.0043H239.496V49.6224C238.402 49.6224 237.407 49.89 236.511 50.4252ZM271.997 45.519V66.3927H266.892V53.8744L262.205 66.3927H258.085L253.368 53.8447V66.3927H248.263V45.519H254.293L260.175 59.97L265.996 45.519H271.997ZM294.622 49.6224C296.573 49.6224 298.125 50.2567 299.28 51.5254C300.454 52.7743 301.041 54.4989 301.041 56.6992V66.3927H295.966V57.3831C295.966 56.273 295.677 55.4107 295.1 54.7962C294.523 54.1817 293.747 53.8744 292.771 53.8744C291.796 53.8744 291.02 54.1817 290.443 54.7962C289.866 55.4107 289.577 56.273 289.577 57.3831V66.3927H284.472V49.8008H289.577V52.0012C290.095 51.2677 290.791 50.6928 291.667 50.2766C292.543 49.8404 293.528 49.6224 294.622 49.6224ZM304.529 53.5771C303.892 54.8656 303.573 56.3622 303.573 58.067C303.573 59.7718 303.892 61.2783 304.529 62.5866C305.185 63.8751 306.071 64.8762 307.186 65.5898C308.3 66.2836 309.544 66.6305 310.917 66.6305C312.092 66.6305 313.117 66.3927 313.992 65.9169C314.888 65.4412 315.575 64.8068 316.052 64.0139V66.3927H321.157V44.3891H316.052V52.0904C315.535 51.3173 314.818 50.7027 313.903 50.2468C313.007 49.7909 312.012 49.5629 310.917 49.5629C309.544 49.5629 308.3 49.9098 307.186 50.6036C306.071 51.2974 305.185 52.2886 304.529 53.5771ZM314.977 55.0935C315.694 55.827 316.052 56.8281 316.052 58.0967C316.052 59.3654 315.694 60.3665 314.977 61.0999C314.281 61.8334 313.425 62.2001 312.41 62.2001C311.395 62.2001 310.529 61.8334 309.813 61.0999C309.116 60.3466 308.768 59.3357 308.768 58.067C308.768 56.7983 309.116 55.8072 309.813 55.0935C310.529 54.3601 311.395 53.9934 312.41 53.9934C313.425 53.9934 314.281 54.3601 314.977 55.0935Z" fill="white"/>
</svg>
