<svg xmlns="http://www.w3.org/2000/svg" viewBox="0 0 500 500"><g id="freepik--Bars--inject-167"><g id="freepik--bar-graph--inject-167"><g style="opacity:0.30000000000000004"><path d="M258.66,369.92a.59.59,0,0,1-.29-.07l-36.71-21.2a.57.57,0,0,1,0-1l45.89-26.49a.53.53,0,0,1,.57,0l36.71,21.19a.57.57,0,0,1,0,1l-45.89,26.5A.58.58,0,0,1,258.66,369.92Zm-35.59-21.76,35.59,20.54,44.76-25.84-35.58-20.54Z" style="fill:#22AD7D"></path></g><polygon points="258.66 364.06 258.65 221.16 231.12 205.26 231.12 348.16 258.66 364.06" style="fill:#22AD7D"></polygon><polygon points="258.66 364.06 258.65 221.16 231.12 205.26 231.12 348.16 258.66 364.06" style="opacity:0.2"></polygon><polygon points="258.66 364.06 295.37 342.86 295.38 199.96 258.65 221.16 258.66 364.06" style="fill:#22AD7D"></polygon><polygon points="295.38 199.96 267.84 184.06 231.12 205.26 258.65 221.16 295.38 199.96" style="fill:#22AD7D"></polygon><polygon points="295.38 199.96 267.84 184.06 231.12 205.26 258.65 221.16 295.38 199.96" style="fill:#fff;opacity:0.25"></polygon><path d="M295.38,200l-37.09,20.45-12-6.73-15.13-8.42L246,214.15l12.18,7.27c-.29,4.13-.37,125.84-.31,130a109.82,109.82,0,0,0,.81,12.67,109.81,109.81,0,0,0,.8-12.67c.06-4,0-125.57-.29-129.57Z" style="fill:#fff;opacity:0.30000000000000004"></path><g style="opacity:0.30000000000000004"><path d="M189.82,409.66a.55.55,0,0,1-.28-.07l-36.72-21.2a.56.56,0,0,1-.28-.49.58.58,0,0,1,.28-.49l45.9-26.49a.56.56,0,0,1,.56,0L236,382.12a.55.55,0,0,1,0,1l-45.89,26.5A.53.53,0,0,1,189.82,409.66ZM154.24,387.9l35.58,20.55,44.76-25.84L199,362.06Z" style="fill:#22AD7D"></path></g><polygon points="189.82 403.8 189.82 317.36 162.28 301.46 162.29 387.9 189.82 403.8" style="fill:#22AD7D"></polygon><polygon points="189.82 403.8 189.82 317.36 162.28 301.46 162.29 387.9 189.82 403.8" style="fill:#fff;opacity:0.1"></polygon><polygon points="189.82 403.8 226.53 382.61 226.54 296.16 189.82 317.36 189.82 403.8" style="fill:#22AD7D"></polygon><polygon points="189.82 403.8 226.53 382.61 226.54 296.16 189.82 317.36 189.82 403.8" style="fill:#fff;opacity:0.30000000000000004"></polygon><polygon points="226.54 296.16 199 280.26 162.28 301.46 189.82 317.36 226.54 296.16" style="fill:#22AD7D"></polygon><polygon points="226.54 296.16 199 280.26 162.28 301.46 189.82 317.36 226.54 296.16" style="fill:#fff;opacity:0.55"></polygon><path d="M190.3,318l36.24-21.87-37.09,20.45c-4-2.27-8-4.49-12-6.73l-15.13-8.42,14.86,8.89c4.06,2.43,8.12,4.87,12.2,7.27-.13,4.28-.26,25-.3,29.25s-.07,26.31,0,30.69.1,8.75.24,13.12.29,8.75.57,13.12c.28-4.37.46-8.75.57-13.12s.21-8.75.24-13.12,0-26.32,0-30.69C190.56,342.72,190.43,322.18,190.3,318Z" style="fill:#fff;opacity:0.30000000000000004"></path><g style="opacity:0.30000000000000004"><path d="M121,449.41a.6.6,0,0,1-.28-.08L84,428.14a.57.57,0,0,1,0-1l45.89-26.5a.58.58,0,0,1,.57,0l36.71,21.2a.57.57,0,0,1,0,1l-45.89,26.49A.6.6,0,0,1,121,449.41ZM85.4,427.65,121,448.19l44.76-25.84L130.16,401.8Z" style="fill:#22AD7D"></path></g><polygon points="120.98 443.54 120.98 403.48 93.44 387.58 93.45 427.65 120.98 443.54" style="fill:#22AD7D"></polygon><polygon points="120.98 443.54 120.98 403.48 93.44 387.58 93.45 427.65 120.98 443.54" style="opacity:0.45"></polygon><polygon points="120.98 443.54 157.7 422.35 157.7 382.28 120.98 403.48 120.98 443.54" style="fill:#22AD7D"></polygon><polygon points="120.98 443.54 157.7 422.35 157.7 382.28 120.98 403.48 120.98 443.54" style="opacity:0.30000000000000004"></polygon><polygon points="157.7 382.28 130.17 366.39 93.44 387.58 120.98 403.48 157.7 382.28" style="fill:#22AD7D"></polygon><polygon points="157.7 382.28 130.17 366.39 93.44 387.58 120.98 403.48 157.7 382.28" style="opacity:0.15"></polygon><path d="M157.7,382.28l-37.08,20.45L108.57,396l-15.13-8.42,14.86,8.89,12.17,7.27c-.28,2.51-.35,29.48-.3,32a43,43,0,0,0,.81,7.8,42.15,42.15,0,0,0,.81-7.8c0-2.39,0-29.23-.27-31.62Z" style="fill:#fff;opacity:0.30000000000000004"></path><g style="opacity:0.30000000000000004"><path d="M327.49,330.18a.6.6,0,0,1-.28-.08L290.5,308.91a.57.57,0,0,1,0-1l45.89-26.5a.58.58,0,0,1,.57,0l36.71,21.2a.57.57,0,0,1,0,1L327.78,330.1A.6.6,0,0,1,327.49,330.18Zm-35.58-21.76L327.49,329l44.77-25.84-35.59-20.54Z" style="fill:#22AD7D"></path></g><polygon points="327.49 324.31 327.49 117.34 299.95 101.44 299.96 308.42 327.49 324.31" style="fill:#22AD7D"></polygon><polygon points="327.49 324.31 327.49 117.34 299.95 101.44 299.96 308.42 327.49 324.31" style="fill:#fff;opacity:0.30000000000000004"></polygon><polygon points="327.49 324.31 364.21 303.12 364.21 96.15 327.49 117.34 327.49 324.31" style="fill:#22AD7D"></polygon><polygon points="327.49 324.31 364.21 303.12 364.21 96.15 327.49 117.34 327.49 324.31" style="fill:#fff;opacity:0.55"></polygon><polygon points="364.21 96.15 336.68 80.25 299.95 101.44 327.49 117.34 364.21 96.15" style="fill:#22AD7D"></polygon><polygon points="364.21 96.15 336.68 80.25 299.95 101.44 327.49 117.34 364.21 96.15" style="fill:#fff;opacity:0.75"></polygon><path d="M328,118l36.23-21.87L327.12,116.6c-4-2.27-8-4.5-12-6.73L300,101.44l14.86,8.89c4.06,2.44,8.12,4.88,12.2,7.27-.13,4.86-.26,9.72-.3,14.58s-.06,157.52,0,162.46.1,9.89.24,14.84.29,9.89.57,14.84c.28-4.95.46-9.9.57-14.84s.22-9.89.24-14.84,0-157.52,0-162.46C328.23,127.46,328.1,122.74,328,118Z" style="fill:#fff;opacity:0.30000000000000004"></path></g></g><g id="freepik--Target--inject-167"><g id="freepik--target--inject-167"><g id="freepik--target--inject-167"><path d="M307.93,31.41c4.59-2.66,10.93-2.28,17.95,1.77,14,8.09,25.37,27.78,25.37,44,0,8.12-2.86,13.82-7.48,16.45-1.21.69-6.07,3.62-7.28,4.32-4.59,2.66-10.93,2.28-17.94-1.77-14-8.09-25.38-27.77-25.38-44,0-8.08,2.84-13.77,7.43-16.42" style="fill:#22AD7D"></path><path d="M351.25,77.14h0c0,8.12-2.86,13.82-7.48,16.45-1.21.69-6.07,3.62-7.28,4.32-4.59,2.66-10.93,2.28-17.94-1.76Z" style="opacity:0.65"></path><path d="M347.55,59.75a47.11,47.11,0,0,1,3.7,17.39l-32.7,19h0a46.84,46.84,0,0,1-13.2-11.9Z" style="opacity:0.55"></path><path d="M305.35,84.24c-7.3-9.36-12.18-21.46-12.18-32.06,0-8.08,2.84-13.77,7.43-16.42l7.33-4.35c4.59-2.66,10.93-2.28,17.95,1.77,9.18,5.3,17.21,15.57,21.67,26.57Z" style="opacity:0.4"></path><path d="M318.55,37.53c14,8.1,25.38,27.78,25.38,44s-11.37,22.75-25.38,14.65-25.39-27.77-25.38-44S304.55,29.44,318.55,37.53Z" style="fill:#22AD7D"></path><path d="M318.55,37.53c14,8.1,25.38,27.78,25.38,44s-11.37,22.75-25.38,14.65-25.39-27.77-25.38-44S304.55,29.44,318.55,37.53Z" style="opacity:0.2"></path><path d="M318.55,44.85c10.52,6.07,19,20.84,19,33s-8.53,17.06-19,11-19-20.83-19-33S308,38.78,318.55,44.85Z" style="fill:#fafafa"></path><path d="M318.55,51.52c7.33,4.23,13.27,14.52,13.27,23s-5.94,11.89-13.27,7.66-13.27-14.52-13.27-23S311.22,47.29,318.55,51.52Z" style="fill:#22AD7D"></path><path d="M318.55,51.52c7.33,4.23,13.27,14.52,13.27,23s-5.94,11.89-13.27,7.66-13.27-14.52-13.27-23S311.22,47.29,318.55,51.52Z" style="opacity:0.2"></path><path d="M318.55,58.36a16.2,16.2,0,0,1,7.34,12.72c0,4.68-3.28,6.58-7.34,4.24a16.22,16.22,0,0,1-7.34-12.72C311.21,57.91,314.5,56,318.55,58.36Z" style="fill:#fafafa"></path><path d="M318.55,63.26a6.86,6.86,0,0,1,3.1,5.37c0,2-1.39,2.77-3.1,1.78a6.84,6.84,0,0,1-3.1-5.36C315.45,63.07,316.84,62.27,318.55,63.26Z" style="fill:#455a64"></path></g><g id="freepik--Arrow--inject-167"><path d="M269,95.76s-.59,7.44-4,9.43-5.31-4-3.08-5.33Z" style="fill:#22AD7D"></path><path d="M269,95.76s-6.74-3.21-10.18-1.23.84,6.62,3.07,5.33Z" style="fill:#22AD7D"></path><path d="M269,95.76s-6.74-3.21-10.18-1.23.84,6.62,3.07,5.33Z" style="fill:#fff;opacity:0.5"></path><polygon points="309.73 73.07 256.78 103.65 256.03 102.33 309.84 71.25 309.73 73.07" style="fill:#37474f"></polygon><path d="M257.7,100.85a2.22,2.22,0,1,1-3,.81A2.22,2.22,0,0,1,257.7,100.85Z" style="fill:#263238"></path><path d="M308.4,73c-1.82,2.4,1.48,6.56,1.48,6.56l8.6-12.38Z" style="fill:#22AD7D"></path><path d="M308.4,73c-1.82,2.4,1.48,6.56,1.48,6.56l8.6-12.38Z" style="fill:#22AD7D"></path><path d="M303.46,68.39s2,4.94,4.94,4.57l10.08-5.82Z" style="fill:#22AD7D"></path><path d="M303.46,68.39s2,4.94,4.94,4.57l10.08-5.82Z" style="fill:#fff;opacity:0.5"></path></g></g></g><g id="freepik--Character--inject-167"><g id="freepik--character--inject-167"><path d="M57.62,314.4a19.74,19.74,0,0,1,2.17.83,2.14,2.14,0,0,0,2.47-.51c.57-.89-.1-2-.75-2.88-3.5-4.53-7.09-9.46-7.46-15.17A8.92,8.92,0,0,1,57.11,300a10,10,0,0,0,2.23,2.76,3.46,3.46,0,0,0,3.35.64.65.65,0,0,0,.35-.28.74.74,0,0,0,0-.56c-1.32-3.55-3.12-7-4.66-10.43a24.81,24.81,0,0,0-1.8-3.52c-1.55-2.39-4.59-5-5.21-7.82-.17-.79-.54-2.6-.54-2.6s-3.41.2-4.84.47a36.09,36.09,0,0,0-6.49,1.93c-.66.28-1.61.37-1.79,1.2a2.93,2.93,0,0,0,.14,1.37c1,3.67,1.91,7.35,2.59,11.09,1,5.44,1.67,10.5,5,15a7.74,7.74,0,0,0,4.32,3.1,8.73,8.73,0,0,1,2,.51,11.39,11.39,0,0,1,1.27.92,4,4,0,0,0,2.38.67,17.18,17.18,0,0,1,1.89-.15Z" style="fill:#ffa8a7"></path><path d="M45.51,202.34c-5.94,1.4-9.24,6.12-11.17,15.11s-4.46,23-5.58,28.33c-1.43,6.77-.61,7.31.91,13.7s7.92,25.18,7.92,25.18,10.84-.17,14.1-3.67c0-.46-6.48-30.49-6.48-30.49l5.57-26.2Z" style="fill:#37474f"></path><g id="freepik--Bottom--inject-167"><path d="M38.36,405.3c1.5-3.14,2-8.93,1.91-19.46l15.52,5.27s-3.29,15.37-3.51,18.78C51.71,418.64,38.36,405.3,38.36,405.3Z" style="fill:#ffa8a7"></path><path d="M34.41,410.5c-.18-.34-.69-1.08-.64-1.26A7.43,7.43,0,0,1,36,405.92a19.84,19.84,0,0,0,2.34-3.06c.4-.56.66-1.21,1.27-1.46,1.06-.43,4.52.2,6.61,1.3,3.42,1.8,4.46,4,4.27,6.31-.15,1.79-.51,2.92.34,2.67s1.46-1.78,1.46-1.79a11.88,11.88,0,0,0,.1,1.74,23.61,23.61,0,0,0,.1,4.45c.44,3,1.51,6.23,4,8.19,2,1.57,4.64,2.09,6.93,3.21A4.21,4.21,0,0,1,65,428.69a3.25,3.25,0,0,1-.12,3.56,6.23,6.23,0,0,1-2.76,2.29,13,13,0,0,1-4.18.14,37,37,0,0,1-8.62-1.3,13.4,13.4,0,0,1-4.93-2.28,11.73,11.73,0,0,1-3.26-4.64c-.74-1.76-1.25-3.61-1.88-5.41a60,60,0,0,0-3.16-7.15,31.44,31.44,0,0,1-1.65-3.28A.66.66,0,0,0,34.41,410.5Z" style="fill:#455a64"></path><path d="M38.39,425.26a14.18,14.18,0,0,0,.61,2.41A7,7,0,0,0,41.26,431a16.25,16.25,0,0,0,2.35,1.52,26.23,26.23,0,0,0,7.34,2.3,31.73,31.73,0,0,0,5.84.46,17.77,17.77,0,0,1-6.52-3.73,11.72,11.72,0,0,1-2.47-2.92c-.16-.27-.31-.54-.45-.82-1.31-2.58-1.82-5.46-2.64-8.21a19.15,19.15,0,0,0-1.59-3.93,14.86,14.86,0,0,0-2.76-3.22c-4.3-4.17-7.41-2.48-7.44-2.46-.55.28-.41,2-.09,2.73a16.73,16.73,0,0,0,1.94,3.25c.5.7,1,1.43,1.42,2.16a11.89,11.89,0,0,1,1.65,3.49,23.33,23.33,0,0,1,.39,2.64C38.28,424.57,38.33,424.92,38.39,425.26Z"></path><path d="M65.41,431.06a3.68,3.68,0,0,1-.58,1.1,6,6,0,0,1-3.12,1.63,15.06,15.06,0,0,1-7.42-.56,11.74,11.74,0,0,1-5.9-4.47,15.47,15.47,0,0,1-1.81-4.12,27.49,27.49,0,0,1-1-3.72,18,18,0,0,0-2.4-7.29c-2.26-3.47-5.86-5.16-8.65-4.91A2.69,2.69,0,0,0,32.92,410s2.8-.92,7.15,2.69a11.12,11.12,0,0,1,3.41,5.17c1.31,4,1.48,8.18,3.8,11.83a11.55,11.55,0,0,0,3.89,3.91A15,15,0,0,0,62,434.82c1.37-.31,3.45-1.53,3.44-2.23C65.46,432.25,65.46,431.39,65.41,431.06Z" style="fill:#263238"></path><path d="M44.38,271c-1.17,7.51-3.28,13.55-2,32.32.58,8.26,1.86,43.41,1.86,43.41a99.74,99.74,0,0,0-3.82,23c-.48,13-.62,25.7-.62,25.7a14.57,14.57,0,0,0,5.89,4,17.25,17.25,0,0,0,8.61.88s6.46-19.24,10.35-31c3.24-9.78,4.58-13.21,6.08-26.86,1.85-16.75,4.87-40.29,4.87-40.29L84.92,271Z" style="fill:#37474f"></path><path d="M64.94,310.32c5.1,4.5,6.19,8.24,6.47,10.94S70.09,347.9,70.09,348c.23-1.64.46-3.48.69-5.58,1.85-16.74,4.86-40.26,4.87-40.29h0L84.92,271H55.57l2.48,17.88C57.3,296.52,59.84,305.82,64.94,310.32Z" style="fill:#263238"></path><path d="M97.93,399.08c-.37,1.62-.81,2.84.69,4.78s4.72,3,7.93,2.88a10,10,0,0,0,6.21-2.54c1.86-1.44,3.16-2.69,3.85-3.28s3.46-1.36,6.08-1.89,8.07-1.7,10.77-5.65a11.44,11.44,0,0,0,2.23-7.39Z" style="fill:#263238"></path><path d="M118.22,383.49c-5.65,1.94-14.23,3.13-19.35,4.48-1.53,1.43-1.2,7.92-1.22,12.29,2,4.5,8.23,5.65,12.38,3.85,2.16-1.18,3.59-2.86,5.71-4.16a17,17,0,0,1,5.45-1.9,50.12,50.12,0,0,0,6.51-2c5.55-2.54,8.31-7.27,8-11.1C135.26,380.12,130.8,379.16,118.22,383.49Z" style="fill:#455a64"></path><path d="M98.7,383.49c0,.18.3,7.48.3,7.48s.46,1.81,5.49,2.45,9.19-1.47,10.15-2.81c0,0,.14-2.57.43-5.08Z" style="fill:#ffa8a7"></path><path d="M55.57,284.59c.55,8.64,4.22,19.82,16.69,28.25,5.68,4.4,9.81,8.83,14.52,13.49,5.83,5.77,11.16,11.41,11.16,11.41s-2.58,6.64-2,18.37,2.65,30.31,2.65,30.31A14,14,0,0,0,107.9,389c5.46-.53,7.43-2.58,7.43-2.58s5.88-43.1,6.61-50.25,1.3-11.75-3.21-20.25C114,306.91,98.28,274,97.66,271H55.57Z" style="fill:#37474f"></path></g><g id="freepik--Top--inject-167"><path d="M56.25,200.7c1.89-1.6,2.94-6.63,2-9.36s-4.8-9.24-5.32-17.08,10-19.89,19.14-18.94,13.94,6,16.39,12.78c1.5,4.14,0,5,.54,7.34,1.14,4.69,2.82,8.32.64,17.29-.8,3.28-3.58,4.55-6.19,5.18a18.78,18.78,0,0,1-5.89.2,56.83,56.83,0,0,0,0,6.09,2.79,2.79,0,0,0,2.63,2.7S54.36,202.3,56.25,200.7Z" style="fill:#ffa8a7"></path><path d="M82.85,187.86a2.8,2.8,0,1,1-5.38-1.55Z" style="fill:#b16668"></path><path d="M80.75,189.81a4,4,0,0,0-3.37-2.55,2.79,2.79,0,0,0,2,2.52A2.73,2.73,0,0,0,80.75,189.81Z" style="fill:#f28f8f"></path><path d="M77,177.17a1.46,1.46,0,1,1-1.84-1A1.48,1.48,0,0,1,77,177.17Z" style="fill:#263238"></path><path d="M76.92,171.74,73.6,173a1.87,1.87,0,0,1,1.07-2.36A1.73,1.73,0,0,1,76.92,171.74Z" style="fill:#263238"></path><path d="M88.18,173l-3.33-1.3a1.72,1.72,0,0,1,2.26-1.06A1.88,1.88,0,0,1,88.18,173Z" style="fill:#263238"></path><path d="M87.07,176.48a1.35,1.35,0,0,1-1.34,1.37,1.39,1.39,0,0,1,0-2.77A1.36,1.36,0,0,1,87.07,176.48Z" style="fill:#263238"></path><path d="M88.44,183l-5.19,2.32-1.64-10.18C83.54,174.45,86,179.13,88.44,183Z" style="fill:#f28f8f"></path><path d="M77.56,198.11s-4.92-.74-6.31-1.54c-3.78-2.15-5.16-3.82-6-6.19a10.06,10.06,0,0,0,5.56,7.53,33.16,33.16,0,0,0,6.64,2Z" style="fill:#f28f8f"></path><path d="M64,186c.06,1.45-.21,3.94-1.71,5s-2.36,1.62-3.77,1.24c-.47-1.32-1.95-4.7-3.38-7.58s-7.81-13.7-1.71-17.82c-1.34-4.4.78-8.83,4.64-11.54,3.25-2.29,10.86-2.41,16-1.59,12.16,1.92,14.09-1.43,15.81-.58s.52,5.05-.86,6.28c1.9-.4,3.3.59,2.33,2.94s-3.57,4-7.91,4.65A29.75,29.75,0,0,1,68,165.46a24.61,24.61,0,0,1,1.66,5.28,5.53,5.53,0,0,1-1.37,4.54c-.93.88.4,3.22.2,4.21s-1.39,2.92-3.2-.83-5.71-3.84-7.3-2-1.52,3.82,0,7.18C59.19,186.53,62.23,187.6,64,186Z" style="fill:#263238"></path><path d="M48.21,202.87c7.55-1.57,19.9.37,31.1,5.8,5.28,2.56,9.2,4,12.58,5.88s5,8.81,5.32,14.13c.93,13.58.15,20.87,0,29.66-.23,13.1.73,16.64.73,16.64s-16.48,12.17-41.46,4.62c-12.12-3.67-11.65-9.77-11.7-14.08s.44-19.3-2.39-31.56S39.05,204.78,48.21,202.87Z" style="fill:#f0f0f0"></path><path d="M82.38,209.26c-4.13-3.73-2.88-3.93-5.57-6.13-3.33-2.75-17.94-6.16-19.12-5a15.93,15.93,0,0,1-4.31,3.19s.7,2.25,9.52,4.38C71.31,207.77,74.63,207.48,82.38,209.26Z" style="fill:#f0f0f0"></path><path d="M55.66,199.93c4.59.77,14.07,3.8,18.43,5s10.32,5.14,10.32,5.14,8.37,3.64,9.4,4.79,3.13,6.42,4,17.88c.49,6.67-.24,21.39,1.13,33.09a58.76,58.76,0,0,0,4.26,15.58s-2.41,5.71-4.73,6.1l-5.68-8.58L96,289.11s-10.35,8.52-34.53,3.37c-13.17-2.81-19-11.24-19-11.24s2-27.63,1.44-32.34-4.66-24.54-4.2-32.33,1.73-13.51,6.54-14.23A41,41,0,0,0,55.66,199.93Z" style="fill:#455a64"></path><path d="M54.62,203.11c1.19.47,2.42.83,3.65,1.18s2.45.72,3.68,1.05c2.47.67,4.93,1.34,7.4,1.95s5,1.1,7.49,1.53l7.57,1.24c-2.56-.12-5.11-.37-7.65-.69A61.14,61.14,0,0,1,69.18,208c-2.49-.64-5-1.33-7.39-2.13A49.1,49.1,0,0,1,54.62,203.11Z" style="fill:#37474f"></path><path d="M59.38,219c1,5.16,1.88,10.37,2.43,15.61a101.93,101.93,0,0,1,.51,15.82l-.89,15.78-.5,7.88L60.35,282l.22-7.9.31-7.89.72-15.78a110.16,110.16,0,0,0-.34-15.73c-.21-2.62-.49-5.24-.82-7.85S59.75,221.62,59.38,219Z" style="fill:#37474f"></path><path d="M145.48,227.57c4.6-1.24,7.64-1.91,10.4-2.9A25.64,25.64,0,0,0,161,222c1.46-.88,4.36-4,6.83-4.33a52.43,52.43,0,0,1,5.51-.33s7.77-3.35,10-4.28,3.88-.78,4.15-.07c.52,1.31-.6,2.28-2.41,3.3S178.6,220,178.6,220s.88,2.22.26,3.62.34,2.78-.39,4.31.06,2.3-.78,4-1.43,2.31-6.17,3.15-4.31.07-8.66,1.58-14.49,5.23-14.49,5.23Z" style="fill:#ffa8a7"></path><path d="M91.23,213.26c4.71,2.24,8.28,4.16,14.76,7.9s18.74,10.54,18.74,10.54l28.45-7s3.68,2,5.32,4.9a13,13,0,0,1,1.25,9.75S136.59,249,131.12,250.8c-3.58,1.2-5.56,2.53-14.8-.75-10.47-3.72-23.78-9.16-23.78-9.16s-6-7.39-6.8-15S91.23,213.26,91.23,213.26Z" style="fill:#37474f"></path></g></g></g><g id="freepik--speech-bubble--inject-167"><g id="freepik--speech-bubble--inject-167"><g id="freepik--speech-bubble--inject-167"><path d="M42.11,98.82A29.65,29.65,0,0,0,50,119.14l2.45,2.35A29.67,29.67,0,0,0,94.53,79.9l-2.34-2.47A29.67,29.67,0,0,0,42.11,98.82Z" style="fill:#fff"></path><path d="M39.6,98.81A32.24,32.24,0,0,0,66.27,130.7l3.57,9.35a1.87,1.87,0,0,0,3.49,0L77,130.76A32.21,32.21,0,1,0,39.6,98.81ZM72,69.29a29.53,29.53,0,0,1,20.23,8.14l2.34,2.47a29.67,29.67,0,0,1-42.05,41.59L50,119.14A29.67,29.67,0,0,1,72,69.29Z" style="fill:#455a64"></path><path d="M72,69.29a29.53,29.53,0,0,1,20.23,8.14l2.34,2.47a29.67,29.67,0,0,1-42.05,41.59L50,119.14A29.67,29.67,0,0,1,72,69.29Z" style="fill:#fff;opacity:0.7000000000000001"></path></g><path d="M59.32,82.87l1.45,14.45a11.08,11.08,0,0,0,22,0l1.47-14.45ZM72.84,99.36v1.49H71V99.36a3.39,3.39,0,0,1-3.24-2.71L70,96.07a1.81,1.81,0,0,0,2,1.51c.89,0,1.5-.38,1.5-1.17,0-1.17-1.33-1.28-2.75-1.64s-2.81-1-2.81-3c0-1.71,1.1-2.74,2.92-3V87.32h1.87v1.52a3.33,3.33,0,0,1,3.09,2.47l-2.14.56c-.18-.8-.76-1.29-1.89-1.29s-1.53.49-1.53,1.11c0,.92.81,1.12,2.24,1.47s3.43.86,3.43,3.13C75.88,98.08,74.66,99.1,72.84,99.36Z" style="fill:#22AD7D"></path><path d="M71.8,106.92a3.75,3.75,0,0,0-3.75,3.76h7.5A3.75,3.75,0,0,0,71.8,106.92Z" style="fill:#22AD7D"></path><path d="M78,113.6H65.63a.87.87,0,0,1-.88-.87h0a.88.88,0,0,1,.88-.88H78a.88.88,0,0,1,.87.88h0A.87.87,0,0,1,78,113.6Z" style="fill:#22AD7D"></path><path d="M80.06,114.78H63.55a2.87,2.87,0,0,0-2.87,2.87H82.93A2.88,2.88,0,0,0,80.06,114.78Z" style="fill:#22AD7D"></path><path d="M61.38,102.84h-.56a8.48,8.48,0,0,1-8.16-6.24l-1.89-6.92a2.86,2.86,0,0,1,.48-2.48,2.8,2.8,0,0,1,2.27-1.12h4.95l.25,2.46h-5.2a.43.43,0,0,0-.31.15.39.39,0,0,0-.06.34L55,96a6,6,0,0,0,5.19,4.37A12.17,12.17,0,0,0,61.38,102.84Z" style="fill:#22AD7D"></path><path d="M82.23,102.84h.56A8.48,8.48,0,0,0,91,96.6l1.89-6.92a2.86,2.86,0,0,0-.48-2.48,2.82,2.82,0,0,0-2.27-1.12h-5l-.26,2.46h5.21a.41.41,0,0,1,.3.15.39.39,0,0,1,.07.34L88.57,96a6,6,0,0,1-5.19,4.37A12.72,12.72,0,0,1,82.23,102.84Z" style="fill:#22AD7D"></path></g></g></svg>
