<svg width="500" height="386" viewBox="0 0 500 386" fill="none" xmlns="http://www.w3.org/2000/svg">
<g clip-path="url(#clip0_1627_8591)">
<path d="M500 340.08H0V340.33H500V340.08Z" fill="#EBEBEB"/>
<path d="M449.9 356.17H416.78V356.42H449.9V356.17Z" fill="#EBEBEB"/>
<path d="M331.22 358.89H322.53V359.14H331.22V358.89Z" fill="#EBEBEB"/>
<path d="M415.78 346.89H396.59V347.14H415.78V346.89Z" fill="#EBEBEB"/>
<path d="M95.65 348.57H52.46V348.82H95.65V348.57Z" fill="#EBEBEB"/>
<path d="M110.89 348.57H104.56V348.82H110.89V348.57Z" fill="#EBEBEB"/>
<path d="M225.15 352.79H131.47V353.04H225.15V352.79Z" fill="#EBEBEB"/>
<path d="M237.01 295.48H43.9102C40.7602 295.48 38.2002 292.92 38.2002 289.77V18.3399C38.2002 15.1899 40.7602 12.6299 43.9102 12.6299H237.01C240.16 12.6299 242.72 15.1899 242.72 18.3399V289.77C242.72 292.92 240.16 295.48 237.01 295.48ZM43.9102 12.8799C40.9002 12.8799 38.4502 15.3299 38.4502 18.3399V289.77C38.4502 292.78 40.9002 295.23 43.9102 295.23H237.01C240.02 295.23 242.47 292.78 242.47 289.77V18.3399C242.47 15.3299 240.02 12.8799 237.01 12.8799H43.9102Z" fill="#EBEBEB"/>
<path d="M453.31 295.48H260.21C257.06 295.48 254.5 292.92 254.5 289.77V18.3399C254.5 15.1899 257.06 12.6299 260.21 12.6299H453.31C456.46 12.6299 459.02 15.1899 459.02 18.3399V289.77C459.02 292.92 456.46 295.48 453.31 295.48ZM260.21 12.8799C257.2 12.8799 254.75 15.3299 254.75 18.3399V289.77C254.75 292.78 257.2 295.23 260.21 295.23H453.31C456.32 295.23 458.77 292.78 458.77 289.77V18.3399C458.77 15.3299 456.32 12.8799 453.31 12.8799H260.21Z" fill="#EBEBEB"/>
<path d="M277.73 118.37L277.28 105.23L285.35 102.59C285.68 98.0996 286.43 93.6696 287.5 89.3896L280.66 84.3496L285.31 72.0096L293.77 72.6896C295.79 68.6996 298.16 64.8996 300.81 61.3396L296.43 54.0296L305.44 44.4196L313 48.2896C316.41 45.3996 320 42.7696 323.84 40.4596L322.62 32.0696L334.62 26.6196L340.12 33.0596C344.31 31.6996 348.65 30.6796 353.14 30.0096L355.18 21.7796L368.36 21.3296L370.96 29.3996C375.49 29.7696 379.88 30.4796 384.16 31.5496L389.24 24.7496L401.58 29.3596L400.9 37.8196C404.89 39.8696 408.69 42.2396 412.25 44.8896L419.53 40.5096L429.18 49.4796L425.31 57.0796C428.2 60.4496 430.83 64.0796 433.11 67.9196L441.5 66.6596L446.98 78.6596L440.5 84.1596C441.86 88.3496 442.91 92.7196 443.55 97.1796L451.81 99.2596L452.26 112.4L444.16 115.04C443.83 119.56 443.08 123.96 442.01 128.23L448.85 133.27L444.2 145.61L435.74 144.93C433.72 148.92 431.35 152.72 428.7 156.28L433.08 163.59L424.07 173.2L416.51 169.33C413.14 172.22 409.51 174.85 405.67 177.17L406.93 185.56L394.93 191.01L389.4 184.57C385.21 185.93 380.87 186.95 376.38 187.62L374.34 195.85L361.16 196.3L358.56 188.23C354.04 187.86 349.64 187.15 345.37 186.08L340.33 192.88L327.99 188.27L328.64 179.81C324.65 177.76 320.89 175.39 317.29 172.73L310.01 177.11L300.37 168.14L304.24 160.54C301.35 157.17 298.72 153.54 296.44 149.7L288.05 150.96L282.57 138.96L289.05 133.46C287.69 129.27 286.64 124.93 286 120.44L277.77 118.36L277.73 118.37ZM366.52 160.94C395.3 159.95 417.83 135.82 416.85 107.04C415.86 78.2296 391.73 55.6896 362.95 56.6796C334.17 57.6696 311.64 81.7996 312.62 110.61C313.61 139.39 337.74 161.92 366.52 160.94Z" fill="#EBEBEB"/>
<path d="M119.77 274.11L119.57 268.18L123.21 266.99C123.36 264.97 123.7 262.97 124.18 261.04L121.1 258.77L123.19 253.2L127 253.51C127.91 251.71 128.98 250 130.17 248.39L128.19 245.09L132.25 240.76L135.66 242.51C137.2 241.2 138.81 240.02 140.55 238.98L140 235.2L145.41 232.74L147.89 235.64C149.78 235.03 151.74 234.57 153.76 234.27L154.68 230.56L160.62 230.36L161.79 234C163.83 234.16 165.81 234.49 167.74 234.97L170.03 231.9L175.6 233.98L175.29 237.79C177.09 238.71 178.8 239.78 180.41 240.98L183.69 239.01L188.04 243.06L186.29 246.48C187.59 248 188.78 249.64 189.81 251.37L193.59 250.8L196.06 256.21L193.14 258.69C193.75 260.58 194.23 262.55 194.52 264.56L198.25 265.5L198.45 271.43L194.8 272.62C194.65 274.66 194.31 276.64 193.83 278.57L196.91 280.84L194.82 286.41L191.01 286.1C190.1 287.9 189.03 289.61 187.84 291.22L189.82 294.52L185.76 298.85L182.35 297.1C180.83 298.4 179.2 299.59 177.46 300.63L178.03 304.41L172.62 306.87L170.13 303.97C168.24 304.58 166.28 305.04 164.26 305.34L163.34 309.05L157.4 309.25L156.23 305.61C154.19 305.45 152.21 305.12 150.28 304.64L148.01 307.71L142.44 305.63L142.73 301.82C140.93 300.9 139.23 299.83 137.61 298.63L134.33 300.61L129.98 296.56L131.73 293.14C130.43 291.62 129.24 289.98 128.21 288.25L124.43 288.82L121.96 283.41L124.88 280.93C124.27 279.04 123.79 277.09 123.5 275.06L119.79 274.12L119.77 274.11ZM159.81 293.31C172.79 292.87 182.95 281.98 182.5 269.01C182.05 256.02 171.17 245.86 158.2 246.3C145.22 246.74 135.06 257.63 135.51 270.62C135.95 283.6 146.84 293.76 159.81 293.31Z" fill="#F5F5F5"/>
<path d="M117.69 53.7198L114.38 50.6298L115.7 48.0198C114.69 46.8398 113.79 45.5798 113.01 44.2798L110.11 44.7198L108.23 40.5798L110.46 38.6798C109.98 37.2198 109.63 35.7098 109.41 34.1998L106.56 33.4898L106.41 28.9498L109.2 28.0498C109.32 26.5098 109.56 24.9998 109.93 23.4998L107.58 21.7498L109.18 17.4998L112.09 17.7298C112.78 16.3798 113.59 15.0698 114.52 13.8098L113.01 11.3098L116.11 7.98978L118.71 9.31979C119.9 8.30978 121.15 7.40979 122.45 6.62979L122.03 3.72979L126.16 1.83979L128.06 4.06979C129.53 3.59979 131.04 3.24979 132.55 3.02979L133.26 0.189785L137.8 0.0297852L138.71 2.82979C140.24 2.94978 141.76 3.18979 143.26 3.56979L145 1.21979L149.26 2.80979L149.02 5.72978C150.37 6.41979 151.7 7.22979 152.94 8.15979L155.46 6.64979L158.77 9.73979L157.44 12.3598C158.46 13.5398 159.35 14.7998 160.13 16.0998L163.03 15.6598L164.91 19.7998L162.68 21.6998C163.16 23.1598 163.51 24.6698 163.73 26.1798L166.58 26.8898L166.73 31.4298L163.94 32.3298C163.82 33.8598 163.58 35.3798 163.21 36.8798L165.56 38.6198L163.96 42.8698L161.04 42.6498C160.35 43.9998 159.54 45.3098 158.61 46.5698L160.12 49.0698L157.02 52.3898L154.42 51.0598C153.23 52.0698 151.98 52.9698 150.68 53.7498L151.11 56.6398L146.98 58.5298L145.08 56.3098C143.61 56.7798 142.11 57.1198 140.59 57.3498L139.88 60.1898L135.34 60.3498L134.43 57.5498C132.9 57.4298 131.38 57.1898 129.88 56.8098L128.14 59.1598L123.88 57.5698L124.12 54.6498C122.77 53.9598 121.45 53.1598 120.2 52.2198L117.69 53.7198ZM141.31 34.5898C143.75 31.9798 143.61 27.8798 141 25.4498C138.39 23.0098 134.29 23.1498 131.85 25.7598C129.41 28.3698 129.55 32.4698 132.17 34.9098C134.78 37.3498 138.88 37.2098 141.31 34.5998V34.5898Z" fill="#EBEBEB"/>
<path d="M209.38 268.7L216.94 263.48C216.94 263.48 216.94 263.47 216.94 263.46C217.69 260.71 218.72 258.07 219.98 255.58L218.04 247.98L229.01 236.23L236.73 237.64C239.12 236.21 241.69 235 244.38 234.07C244.38 234.07 244.39 234.07 244.4 234.07L249.09 226.17L265.15 225.62L270.37 233.18C270.37 233.18 270.39 233.18 270.4 233.18C273.14 233.93 275.79 234.96 278.27 236.22L285.87 234.28L297.62 245.25L296.21 252.96C297.67 255.38 298.85 257.95 299.78 260.63L307.68 265.32L308.23 281.38L300.66 286.61C299.91 289.38 298.91 292.01 297.63 294.52L299.56 302.1L288.59 313.85L280.92 312.45C278.5 313.88 275.93 315.09 273.21 316.03L268.52 323.92L252.46 324.47L247.24 316.91C244.46 316.16 241.82 315.13 239.3 313.87L231.73 315.8L219.98 304.83L221.39 297.12C219.93 294.7 218.75 292.13 217.82 289.44L209.91 284.74L209.36 268.68L209.38 268.7ZM259.44 293.12C269.43 292.78 277.22 284.4 276.88 274.44C276.54 264.45 268.18 256.65 258.2 257C248.22 257.35 240.41 265.7 240.76 275.68C241.1 285.64 249.46 293.47 259.44 293.12Z" fill="#EBEBEB"/>
<path d="M74.1002 78.6298C73.7302 78.6298 73.3802 78.4498 73.1702 78.1398L70.3802 74.0998C69.0202 73.7098 67.6702 73.1898 66.3602 72.5598L62.3802 73.5698C62.0002 73.6598 61.6102 73.5698 61.3302 73.2998L54.5202 66.9498C54.2402 66.6898 54.1102 66.2998 54.1802 65.9198L54.9202 61.8698C54.2202 60.6598 53.6102 59.3498 53.1102 57.9798L48.8802 55.4698C48.5502 55.2698 48.3402 54.9198 48.3302 54.5298L48.0102 45.2198C48.0002 44.8298 48.1802 44.4698 48.5002 44.2498L52.5402 41.4598C52.9202 40.1198 53.4502 38.7698 54.0802 37.4598L53.0602 33.4598C52.9602 33.0898 53.0602 32.6898 53.3302 32.4098L59.6802 25.5998C59.9402 25.3198 60.3302 25.1898 60.7102 25.2598L64.7702 25.9998C66.0202 25.2798 67.3202 24.6798 68.6502 24.1898L71.1602 19.9598C71.3602 19.6298 71.7102 19.4198 72.1002 19.4098L81.4002 19.0898C81.7902 19.0898 82.1502 19.2598 82.3702 19.5798L85.1602 23.6198C86.5402 24.0198 87.8802 24.5398 89.1602 25.1598L93.1502 24.1398C93.5202 24.0498 93.9202 24.1398 94.2002 24.4098L101.01 30.7598C101.29 31.0198 101.42 31.4098 101.35 31.7898L100.61 35.8398C101.32 37.0798 101.92 38.3698 102.42 39.7298L106.65 42.2398C106.98 42.4398 107.19 42.7898 107.2 43.1798L107.52 52.4898C107.53 52.8798 107.35 53.2398 107.03 53.4598L102.98 56.2598C102.58 57.6698 102.06 59.0098 101.44 60.2698L102.45 64.2498C102.55 64.6198 102.45 65.0198 102.18 65.2998L95.8302 72.0998C95.5702 72.3798 95.1802 72.5098 94.8002 72.4398L90.7702 71.6998C89.5002 72.4198 88.1902 73.0298 86.8602 73.5198L84.3602 77.7398C84.1602 78.0698 83.8102 78.2798 83.4202 78.2898L74.1102 78.6098C74.1102 78.6098 74.0802 78.6098 74.0702 78.6098L74.1002 78.6298ZM66.4802 70.2198C66.6602 70.2198 66.8302 70.2598 66.9902 70.3398C68.4102 71.0598 69.8902 71.6198 71.3702 72.0198C71.6302 72.0898 71.8602 72.2498 72.0102 72.4698L74.6802 76.3398L82.7502 76.0598L85.1502 72.0198C85.2902 71.7798 85.5202 71.5998 85.7802 71.5198C87.2202 71.0198 88.6502 70.3598 90.0202 69.5498C90.2602 69.4098 90.5302 69.3598 90.8002 69.4098L94.6402 70.1098L100.15 64.2098L99.1802 60.4198C99.1102 60.1498 99.1402 59.8698 99.2702 59.6198C99.9602 58.2698 100.52 56.7998 100.94 55.2598C101.01 54.9998 101.17 54.7698 101.39 54.6198L105.26 51.9398L104.98 43.8698L100.93 41.4698C100.7 41.3298 100.53 41.1198 100.44 40.8698C99.9202 39.3698 99.2602 37.9598 98.4902 36.6598C98.3302 36.4198 98.2802 36.1298 98.3302 35.8398L99.0402 31.9898L93.1402 26.4798L89.3402 27.4498C89.0702 27.5198 88.7902 27.4898 88.5502 27.3598C87.1602 26.6498 85.7002 26.0898 84.2102 25.6798C83.9502 25.6098 83.7102 25.4498 83.5602 25.2298L80.8902 21.3598L72.8202 21.6398L70.4202 25.6898C70.3102 25.8698 70.1602 26.0098 69.9802 26.1098C69.9102 26.1498 69.8202 26.1798 69.7402 26.1998C68.3502 26.6898 66.9302 27.3498 65.5802 28.1498C65.3402 28.2898 65.0602 28.3398 64.7902 28.2898L60.9302 27.5798L55.4202 33.4798L56.3902 37.2798C56.4602 37.5498 56.4302 37.8298 56.3002 38.0698C55.5902 39.4698 55.0302 40.9298 54.6202 42.4198C54.5502 42.6798 54.3902 42.9098 54.1702 43.0698L50.3002 45.7398L50.5802 53.8098L54.6302 56.2098C54.8602 56.3498 55.0302 56.5598 55.1202 56.8098C55.6402 58.3198 56.3102 59.7498 57.0902 61.0398C57.2302 61.2798 57.2802 61.5598 57.2302 61.8298L56.5202 65.6898L62.4202 71.1998L66.2002 70.2398C66.2902 70.2198 66.3902 70.1998 66.4802 70.1998V70.2198ZM77.7602 65.8698C73.4402 65.8698 69.3402 64.2498 66.1602 61.2898C62.8402 58.1898 60.9302 53.9798 60.7702 49.4498C60.6102 44.8998 62.2402 40.5698 65.3302 37.2498C68.4302 33.9298 72.6402 32.0198 77.1802 31.8598C81.7302 31.6998 86.0602 33.3198 89.3802 36.4198C92.7002 39.5198 94.6102 43.7298 94.7702 48.2698C94.9302 52.8098 93.3002 57.1298 90.2102 60.4598C87.1102 63.7898 82.9002 65.6998 78.3602 65.8598C78.1602 65.8598 77.9602 65.8698 77.7602 65.8698ZM77.7902 34.1198C77.6202 34.1198 77.4402 34.1198 77.2702 34.1198C73.3302 34.2598 69.6802 35.9098 67.0002 38.7898C64.3102 41.6698 62.9102 45.4198 63.0502 49.3598C63.1802 53.2898 64.8402 56.9398 67.7202 59.6198C70.6002 62.3098 74.3502 63.7198 78.2902 63.5798C82.2302 63.4498 85.8702 61.7798 88.5602 58.8998C91.2502 56.0198 92.6502 52.2698 92.5202 48.3398C92.3802 44.3998 90.7302 40.7498 87.8502 38.0698C85.1002 35.4998 81.5502 34.1098 77.8002 34.1098L77.7902 34.1198Z" fill="#EBEBEB"/>
<path d="M250 385.24C357.082 385.24 443.89 380.172 443.89 373.92C443.89 367.668 357.082 362.6 250 362.6C142.917 362.6 56.1099 367.668 56.1099 373.92C56.1099 380.172 142.917 385.24 250 385.24Z" fill="black"/>
<path d="M416.41 40.1401H83.5903C75.4109 40.1401 68.7803 46.7708 68.7803 54.9501V267.74C68.7803 275.919 75.4109 282.55 83.5903 282.55H416.41C424.59 282.55 431.22 275.919 431.22 267.74V54.9501C431.22 46.7708 424.59 40.1401 416.41 40.1401Z" fill="#212B36"/>
<path d="M435.26 205.33H434.26V196.29H435.26V205.33ZM435.26 189.23H434.26V170.57H435.26V189.23Z" fill="#008659"/>
<path d="M416.41 283.09H83.5902C75.1302 283.09 68.2402 276.2 68.2402 267.74V54.9501C68.2402 46.4901 75.1302 39.6001 83.5902 39.6001H416.42C424.88 39.6001 431.77 46.4901 431.77 54.9501V267.74C431.77 276.2 424.88 283.09 416.42 283.09H416.41ZM83.5902 40.6801C75.7202 40.6801 69.3202 47.0801 69.3202 54.9501V267.74C69.3202 275.61 75.7202 282.01 83.5902 282.01H416.42C424.29 282.01 430.69 275.61 430.69 267.74V54.9501C430.69 47.0801 424.29 40.6801 416.42 40.6801H83.5902Z" fill="#008659"/>
<path opacity="0.5" d="M189.8 232.43H184.76V231.35H189.8L189.89 232.43H189.8ZM179.72 232.43H174.68V231.35H179.72V232.43ZM169.63 232.43H164.59V231.35H169.63V232.43ZM159.55 232.43H154.51V231.35H159.55V232.43ZM149.46 232.43H144.42V231.35H149.46V232.43ZM139.37 232.43H134.33V231.35H139.37V232.43ZM129.29 232.43H124.25V231.35H129.29V232.43ZM119.2 232.43H114.16V231.35H119.2V232.43ZM109.12 232.43H104.08V231.35H109.12V232.43ZM99.03 232.43H97.15C95.99 232.43 94.89 232.17 93.86 231.65L94.34 230.68C95.22 231.12 96.16 231.34 97.15 231.34H99.03V232.42V232.43ZM194.82 230.45L194.08 229.66C195.23 228.59 195.93 227.14 196.05 225.58L197.13 225.67C196.98 227.5 196.16 229.2 194.82 230.46V230.45ZM90.28 227.71C89.95 226.87 89.79 225.97 89.79 225.06V222.53H90.87V225.06C90.87 225.84 91.01 226.6 91.29 227.32L90.28 227.71ZM197.16 220.57H196.08V215.53H197.16V220.57ZM90.87 217.49H89.79V212.45H90.87V217.49ZM197.16 210.49H196.08V205.45H197.16V210.49ZM90.87 207.41H89.79V202.37H90.87V207.41ZM197.16 200.4H196.08V195.36H197.16V200.4ZM90.87 197.32H89.79V192.28H90.87V197.32ZM197.16 190.32H196.08V185.28H197.16V190.32ZM90.87 187.23H89.79V182.19H90.87V187.23ZM197.16 180.23H196.08V175.19H197.16V180.23ZM90.87 177.15H89.79V172.11H90.87V177.15ZM197.16 170.15H196.08V165.11H197.16V170.15ZM90.87 167.06H89.79V162.02H90.87V167.06ZM197.16 160.06H196.08V155.02H197.16V160.06ZM90.87 156.98H89.79V151.94H90.87V156.98ZM197.16 149.97H196.08V144.93H197.16V149.97ZM90.87 146.89H89.79V141.85H90.87V146.89ZM197.16 139.89H196.08V134.85H197.16V139.89ZM90.87 136.81H89.79V131.77H90.87V136.81ZM197.16 129.8H196.08V124.76H197.16V129.8ZM90.87 126.72H89.79V121.68H90.87V126.72ZM197.16 119.72H196.08V114.68H197.16V119.72ZM90.87 116.64H89.79V111.6H90.87V116.64ZM197.16 109.63H196.08V107.14C196.08 106.35 195.93 105.58 195.65 104.85L196.66 104.45C197 105.31 197.17 106.21 197.17 107.14V109.63H197.16ZM90.9 106.6L89.82 106.51C89.98 104.68 90.81 102.99 92.16 101.74L92.89 102.53C91.73 103.6 91.03 105.04 90.89 106.6H90.9ZM192.58 101.51C191.71 101.08 190.78 100.87 189.8 100.87H187.88V99.7903H189.8C190.94 99.7903 192.04 100.04 193.05 100.55L192.57 101.52L192.58 101.51ZM182.84 100.86H177.8V99.7803H182.84V100.86ZM172.75 100.86H167.71V99.7803H172.75V100.86ZM162.67 100.86H157.63V99.7803H162.67V100.86ZM152.58 100.86H147.54V99.7803H152.58V100.86ZM142.5 100.86H137.46V99.7803H142.5V100.86ZM132.41 100.86H127.37V99.7803H132.41V100.86ZM122.33 100.86H117.29V99.7803H122.33V100.86ZM112.24 100.86H107.2V99.7803H112.24V100.86ZM102.15 100.86H97.15L97.11 99.7803H102.15V100.86Z" fill="#008659"/>
<path d="M97.4204 55.7402C97.4204 58.3802 95.2804 60.5102 92.6504 60.5102C90.0204 60.5102 87.8804 58.3702 87.8804 55.7402C87.8804 53.1102 90.0204 50.9702 92.6504 50.9702C95.2804 50.9702 97.4204 53.1102 97.4204 55.7402Z" fill="#008659"/>
<path opacity="0.2" d="M128.76 58.5302H105.34C103.8 58.5302 102.55 57.2702 102.55 55.7402C102.55 54.2002 103.81 52.9502 105.34 52.9502H128.76C130.3 52.9502 131.55 54.2102 131.55 55.7402C131.55 57.2802 130.29 58.5302 128.76 58.5302Z" fill="#008659"/>
<path opacity="0.2" d="M241.66 57.27H225.23C224.38 57.27 223.7 56.58 223.7 55.74C223.7 54.89 224.39 54.21 225.23 54.21H241.66C242.51 54.21 243.19 54.9 243.19 55.74C243.19 56.59 242.5 57.27 241.66 57.27Z" fill="#008659"/>
<path opacity="0.2" d="M278.53 57.27H262.1C261.25 57.27 260.57 56.58 260.57 55.74C260.57 54.89 261.26 54.21 262.1 54.21H278.53C279.38 54.21 280.06 54.9 280.06 55.74C280.06 56.59 279.37 57.27 278.53 57.27Z" fill="#008659"/>
<path opacity="0.2" d="M315.4 57.27H298.97C298.12 57.27 297.44 56.58 297.44 55.74C297.44 54.89 298.13 54.21 298.97 54.21H315.4C316.25 54.21 316.93 54.9 316.93 55.74C316.93 56.59 316.24 57.27 315.4 57.27Z" fill="#008659"/>
<path opacity="0.2" d="M352.28 57.27H335.85C335 57.27 334.32 56.58 334.32 55.74C334.32 54.89 335.01 54.21 335.85 54.21H352.28C353.13 54.21 353.81 54.9 353.81 55.74C353.81 56.59 353.12 57.27 352.28 57.27Z" fill="#008659"/>
<path opacity="0.7" d="M399.46 58.44H374.6C373.11 58.44 371.9 57.23 371.9 55.74C371.9 54.25 373.11 53.04 374.6 53.04H399.46C400.95 53.04 402.16 54.25 402.16 55.74C402.16 57.23 400.95 58.44 399.46 58.44Z" fill="#008659"/>
<path opacity="0.7" d="M276.02 228.42H229.46C226.279 228.42 223.7 230.999 223.7 234.18V235.43C223.7 238.611 226.279 241.19 229.46 241.19H276.02C279.201 241.19 281.78 238.611 281.78 235.43V234.18C281.78 230.999 279.201 228.42 276.02 228.42Z" fill="#008659"/>
<path opacity="0.2" d="M399.1 171.37V122.75C399.1 121.9 399.79 121.22 400.63 121.22C401.48 121.22 402.16 121.91 402.16 122.75V171.37C402.16 172.22 401.47 172.9 400.63 172.9C399.78 172.9 399.1 172.21 399.1 171.37Z" fill="#008659"/>
<path opacity="0.2" d="M400.63 186.77C401.475 186.77 402.16 186.085 402.16 185.24C402.16 184.395 401.475 183.71 400.63 183.71C399.785 183.71 399.1 184.395 399.1 185.24C399.1 186.085 399.785 186.77 400.63 186.77Z" fill="#008659"/>
<path opacity="0.2" d="M400.63 208.39C401.475 208.39 402.16 207.705 402.16 206.86C402.16 206.015 401.475 205.33 400.63 205.33C399.785 205.33 399.1 206.015 399.1 206.86C399.1 207.705 399.785 208.39 400.63 208.39Z" fill="#008659"/>
<path opacity="0.2" d="M400.63 230.01C401.475 230.01 402.16 229.325 402.16 228.48C402.16 227.635 401.475 226.95 400.63 226.95C399.785 226.95 399.1 227.635 399.1 228.48C399.1 229.325 399.785 230.01 400.63 230.01Z" fill="#008659"/>
<path opacity="0.2" d="M354.44 100.32H235.98C229.198 100.32 223.7 105.816 223.7 112.595C223.7 119.375 229.198 124.87 235.98 124.87H354.44C361.222 124.87 366.72 119.375 366.72 112.595C366.72 105.816 361.222 100.32 354.44 100.32Z" fill="white"/>
<path opacity="0.2" d="M310.96 160.52H235.98C229.23 160.52 223.7 155 223.7 148.24C223.7 141.49 229.22 135.96 235.98 135.96H310.96C317.71 135.96 323.24 141.48 323.24 148.24C323.24 154.99 317.72 160.52 310.96 160.52Z" fill="white"/>
<path d="M333.04 189.23H226.57C224.99 189.23 223.7 187.94 223.7 186.36C223.7 184.78 224.99 183.49 226.57 183.49H333.04C334.62 183.49 335.91 184.78 335.91 186.36C335.91 187.94 334.62 189.23 333.04 189.23Z" fill="#EBEBEB"/>
<path d="M358.05 189.23H347.16C345.58 189.23 344.29 187.94 344.29 186.36C344.29 184.78 345.58 183.49 347.16 183.49H358.05C359.63 183.49 360.92 184.78 360.92 186.36C360.92 187.94 359.63 189.23 358.05 189.23Z" fill="#EBEBEB"/>
<path d="M273.47 195.37H319.24C320.82 195.37 322.11 196.66 322.11 198.24C322.11 199.82 320.82 201.11 319.24 201.11H273.47C271.89 201.11 270.6 199.82 270.6 198.24C270.6 196.66 271.89 195.37 273.47 195.37Z" fill="#EBEBEB"/>
<path d="M226.57 195.37H259.34C260.92 195.37 262.21 196.66 262.21 198.24C262.21 199.82 260.92 201.11 259.34 201.11H226.57C224.99 201.11 223.7 199.82 223.7 198.24C223.7 196.66 224.99 195.37 226.57 195.37Z" fill="#EBEBEB"/>
<path d="M291.06 212.99H226.57C224.99 212.99 223.7 211.7 223.7 210.12C223.7 208.54 224.99 207.25 226.57 207.25H291.06C292.64 207.25 293.93 208.54 293.93 210.12C293.93 211.7 292.64 212.99 291.06 212.99Z" fill="#EBEBEB"/>
<path d="M337.95 212.99H305.18C303.6 212.99 302.31 211.7 302.31 210.12C302.31 208.54 303.6 207.25 305.18 207.25H337.95C339.53 207.25 340.82 208.54 340.82 210.12C340.82 211.7 339.53 212.99 337.95 212.99Z" fill="#EBEBEB"/>
<path d="M195.257 84.5599L104.006 101.934C100.371 102.626 97.9854 106.134 98.6775 109.769L120.778 225.844C121.47 229.479 124.978 231.864 128.613 231.172L219.864 213.798C223.499 213.106 225.884 209.598 225.192 205.963L203.092 89.8885C202.4 86.2535 198.892 83.8678 195.257 84.5599Z" fill="#008659"/>
<g opacity="0.2">
<path d="M125.12 227.16C125.04 227.16 124.96 227.14 124.88 227.1C124.64 226.97 124.54 226.67 124.67 226.42L198.3 88.8401C198.43 88.6001 198.73 88.5001 198.98 88.6301C199.22 88.7601 199.32 89.0601 199.18 89.3101L125.55 226.89C125.46 227.06 125.29 227.15 125.11 227.15L125.12 227.16Z" fill="white"/>
<path d="M221.44 208.82C221.33 208.82 221.21 208.78 221.12 208.7L102.09 107.8C101.88 107.62 101.85 107.31 102.03 107.1C102.21 106.89 102.52 106.86 102.73 107.04L221.76 207.94C221.97 208.12 222 208.43 221.82 208.64C221.72 208.76 221.58 208.82 221.44 208.82Z" fill="white"/>
</g>
<path d="M209.77 221.75C209.77 221.75 222.82 267.08 228.11 289.34C233.67 312.72 250.21 348.06 251.58 363.56C253.01 364.13 257.64 363.49 260.11 362.29C260.11 362.29 257.84 312.88 244.41 290.37C247.44 234.99 232.41 221.74 232.41 221.74H209.76L209.77 221.75Z" fill="#008659"/>
<path opacity="0.1" d="M226.67 244.52L219.33 255.79C221.66 264.29 224.03 273.15 225.98 280.77C228.02 267.57 226.67 244.52 226.67 244.52Z" fill="black"/>
<path d="M236.69 182.69C236.9 183.31 237.05 183.76 237.2 184.27C237.35 184.77 237.48 185.26 237.62 185.75C237.89 186.73 238.1 187.72 238.31 188.71C238.71 190.69 239.02 192.7 239.21 194.72C239.42 196.74 239.5 198.79 239.47 200.85C239.47 202.91 239.25 205 238.97 207.07L238.92 207.41C238.89 207.64 238.83 207.88 238.75 208.09C238.26 209.4 237.55 210.51 236.76 211.38C235.98 212.25 235.15 212.92 234.34 213.48C232.71 214.58 231.09 215.23 229.52 215.75C227.94 216.25 226.39 216.57 224.84 216.79C223.28 216.99 221.81 217.1 220.16 217.06C218.66 217.02 217.47 215.77 217.51 214.26C217.54 213.19 218.18 212.27 219.1 211.85L219.33 211.75C220.47 211.23 221.76 210.68 222.92 210.1C224.1 209.52 225.23 208.93 226.24 208.28C227.26 207.66 228.15 206.95 228.77 206.32C229.39 205.68 229.55 205.11 229.45 205.06L229.24 206.07C229.27 204.42 229.26 202.76 229.13 201.08C229 199.4 228.82 197.71 228.56 196.02C228.29 194.33 227.99 192.64 227.62 190.96C227.44 190.12 227.23 189.29 227.03 188.46L226.71 187.23L226.41 186.12L226.33 185.83C225.55 182.94 227.27 179.97 230.16 179.19C232.93 178.45 235.77 180 236.69 182.67V182.69Z" fill="#FF8B7B"/>
<path d="M223.58 211.92L217.05 210.06C216.11 209.79 215.11 209.87 214.23 210.27L211.79 211.39C210.59 211.94 210.08 213.36 210.65 214.55L211.79 216.91C212.26 217.89 213.34 218.41 214.4 218.18L218.78 217.23C218.78 217.23 223.7 217.55 225.44 214.63L223.58 211.92Z" fill="#FF8B7B"/>
<path d="M229.49 173.51C225.99 177.15 224.12 182.61 226.95 193.06C230.69 194.91 239.75 192.51 239.75 192.51C239.75 192.51 239.88 176.81 229.49 173.51Z" fill="#008659"/>
<path opacity="0.7" d="M229.49 173.51C225.99 177.15 224.12 182.61 226.95 193.06C230.69 194.91 239.75 192.51 239.75 192.51C239.75 192.51 239.88 176.81 229.49 173.51Z" fill="white"/>
<path d="M235.84 180.81C235.66 180.81 235.52 180.97 235.52 181.15C235.52 181.33 235.67 181.47 235.85 181.47C235.85 181.47 235.85 181.47 235.86 181.47L237.5 181.41C237.41 181.19 237.31 180.98 237.21 180.76L235.85 180.81H235.84Z" fill="#263238"/>
<path d="M235.46 187.27C235.32 187.15 235.11 187.17 235 187.31C234.88 187.45 234.9 187.66 235.04 187.77L239.74 191.73C239.73 191.48 239.71 191.18 239.69 190.83L235.46 187.27Z" fill="#263238"/>
<path d="M225.96 188.43L231.25 185.11C231.4 185.01 231.45 184.81 231.35 184.66C231.25 184.51 231.05 184.46 230.9 184.56L225.85 187.74C225.88 187.97 225.93 188.21 225.96 188.45V188.43Z" fill="#008659"/>
<path d="M220.53 157.87C219.87 162.46 219.4 170.79 222.65 173.4C222.65 173.4 218.36 173.29 210.1 179.92C207.05 176.53 208.83 175.11 208.83 175.11C213.73 173.3 213.42 169.61 212.39 166.23L220.52 157.88L220.53 157.87Z" fill="#FF8B7B"/>
<path d="M207.56 152.26C207.41 152.86 206.97 153.29 206.59 153.22C206.2 153.15 206.01 152.61 206.16 152.01C206.31 151.41 206.75 150.98 207.13 151.05C207.52 151.12 207.71 151.66 207.56 152.26Z" fill="#263238"/>
<path d="M207.29 151.12L205.97 150.45C205.97 150.45 206.42 151.71 207.29 151.12Z" fill="#263238"/>
<path d="M207.3 153.4C207.3 153.4 205.65 155.8 204.23 156.85C204.83 157.73 206.24 157.63 206.24 157.63L207.3 153.4Z" fill="#FF5652"/>
<path d="M207.05 147.31C207.01 147.23 207 147.14 207.04 147.05C207.11 146.87 207.32 146.79 207.51 146.86C209.43 147.58 209.86 149.16 209.88 149.23C209.93 149.42 209.81 149.6 209.61 149.64C209.41 149.68 209.21 149.55 209.16 149.37C209.14 149.31 208.79 148.09 207.26 147.51C207.16 147.47 207.09 147.4 207.05 147.32V147.31Z" fill="#263238"/>
<path d="M227.63 153.58C225.53 160.63 224.79 163.65 220.33 166.68C213.61 171.23 205.42 167.6 205.37 160.18C205.33 153.5 208.77 143.09 216.43 141.49C223.98 139.91 229.73 146.53 227.63 153.59V153.58Z" fill="#FF8B7B"/>
<path d="M211.31 154.02C207.13 151.05 209.17 145.6 213 145.43C208 141.93 210.61 135.6 216.72 135.85C222.83 136.1 223.7 139.85 223.7 139.85C223.7 139.85 233.56 140.35 234.94 147.52C236.57 155.95 231.42 161.35 225.08 163.85C229.39 167.38 219.23 169.86 214.17 167.02C208.99 164.1 207.2 157.79 211.3 154.03L211.31 154.02Z" fill="#263238"/>
<path d="M234.5 144.55C229.12 143.56 226.43 150.99 229.93 155.33C230.54 156.09 231.15 156.64 231.73 157.03C233.92 158.5 236.9 156.99 237.12 154.36C237.41 150.79 237.41 145.09 234.51 144.55H234.5Z" fill="white"/>
<path d="M249.09 148.35C249.49 148.05 249.75 147.68 249.8 147.21C250.03 145.11 248.44 143.75 246.52 143.45C245.37 139.79 240.52 139.73 237.79 142.34C235.56 141.2 233.07 143.71 233.37 146.33C231.01 147.39 230.41 151.29 232.55 153.55C233 154.03 233.44 154.36 233.85 154.59C233.95 154.65 234.06 154.68 234.17 154.72C234.36 156.23 235.58 157.77 237.33 158.11C237.85 158.21 238.29 158.23 238.67 158.19C239.38 158.11 239.92 157.66 240.17 157.07C241.73 158.35 243.4 159.19 244.59 158.36C245.84 157.49 246.34 156.24 246.29 154.95C247.11 155.28 247.89 155.31 248.53 154.87C250.82 153.27 250.63 150.41 249.07 148.34L249.09 148.35Z" fill="#263238"/>
<path d="M213.6 155.08C212.73 156.49 211.43 157.29 210.29 157.48C208.57 157.77 208.02 155.78 208.75 153.92C209.41 152.24 211.1 150.06 212.7 150.63C214.28 151.19 214.59 153.47 213.6 155.08Z" fill="#FF8B7B"/>
<path d="M211.31 149.85C212.78 147.04 220.83 139.37 226.2 139.66C227.59 140.03 228.72 140.58 229.36 140.92C229.54 141.02 229.49 141.28 229.29 141.3C227.19 141.55 220.36 143.12 213.96 153.19C212.5 152.23 211.31 149.86 211.31 149.86V149.85Z" fill="#008659"/>
<path d="M214.52 155.56C213.23 158.43 210.63 160.07 208.73 159.21C206.82 158.35 206.32 155.33 207.61 152.45C208.9 149.57 211.5 147.94 213.4 148.8C215.31 149.66 215.81 152.68 214.52 155.56Z" fill="white"/>
<path d="M212.94 154.85C211.77 157.45 209.54 158.97 207.95 158.25C206.36 157.53 206.02 154.85 207.18 152.26C208.35 149.66 210.58 148.14 212.17 148.86C213.76 149.58 214.1 152.26 212.94 154.85Z" fill="#008659"/>
<path d="M247.27 373.89C252.89 373.06 253 372.12 256.01 371.07C258.59 370.16 259.31 370.29 261.4 369.59C263.14 369 262.55 367.35 261.4 365.59C260.83 364.71 260.74 363.87 260.12 362.3L251.59 363.57C250.76 365.95 250.47 369 245.6 370.74C242.7 371.78 245.04 374.23 247.28 373.89H247.27Z" fill="#263238"/>
<path d="M195.23 373.91C200.81 373.91 201.89 373.54 205.02 373.44C207.71 373.34 208.15 373.91 210.88 373.91C212.69 373.91 212.93 371.88 212.27 370.35C211.76 369.16 211.68 367.74 211.3 366.2H203.6C202.21 368.64 198.43 370.45 194.19 370.75C191.17 370.97 192.98 373.91 195.22 373.91H195.23Z" fill="#263238"/>
<path d="M201.75 221.75C201.75 221.75 200.64 261.91 203.02 287.42C202.87 311.37 203.61 366.2 203.61 366.2C203.8 367.42 210.22 366.94 211.31 366.2C211.31 366.2 223.34 326.26 218 287.42C231.37 246.91 228.48 221.75 228.48 221.75H201.76H201.75Z" fill="#008659"/>
<path d="M250.46 360.45C250.55 361.23 250.68 362.59 250.63 363.65C250.61 364.03 250.91 364.34 251.3 364.34C254.5 364.38 258.91 362.98 260.31 362.51C260.58 362.42 260.75 362.17 260.76 361.89L260.79 358.87C260.79 358.46 260.42 358.14 260.02 358.21L251.02 359.72C250.67 359.78 250.43 360.1 250.47 360.45H250.46Z" fill="#008659"/>
<path opacity="0.5" d="M250.46 360.45C250.55 361.23 250.68 362.59 250.63 363.65C250.61 364.03 250.91 364.34 251.3 364.34C254.5 364.38 258.91 362.98 260.31 362.51C260.58 362.42 260.75 362.17 260.76 361.89L260.79 358.87C260.79 358.46 260.42 358.14 260.02 358.21L251.02 359.72C250.67 359.78 250.43 360.1 250.47 360.45H250.46Z" fill="white"/>
<path d="M202.73 362.82C202.71 363.65 202.66 365.13 202.58 366.23C202.55 366.59 202.82 366.91 203.19 366.96C205.91 367.34 210.26 366.99 211.68 366.87C211.96 366.84 212.19 366.64 212.24 366.36L212.81 363.38C212.89 362.97 212.57 362.58 212.15 362.56L203.38 362.21C203.02 362.2 202.73 362.46 202.72 362.82H202.73Z" fill="#008659"/>
<path opacity="0.5" d="M202.73 362.82C202.71 363.65 202.66 365.13 202.58 366.23C202.55 366.59 202.82 366.91 203.19 366.96C205.91 367.34 210.26 366.99 211.68 366.87C211.96 366.84 212.19 366.64 212.24 366.36L212.81 363.38C212.89 362.97 212.57 362.58 212.15 362.56L203.38 362.21C203.02 362.2 202.73 362.46 202.72 362.82H202.73Z" fill="white"/>
<path d="M196.67 188.09C196.95 191.09 197.29 194.9 198.58 201.99C199.56 208.01 200.28 213.87 201.71 223.8C215.49 225.25 231.71 224.08 232.42 221.76C231.33 213.17 231.37 201.58 234.46 181.62C235.18 176.99 231.82 173.05 227.26 173.14C226.04 173.17 224.75 173.22 223.43 173.32C218.3 173.7 214.09 174.05 209.61 175.02C208.12 175.34 206.59 175.72 205.13 176.11C199.85 177.52 196.19 182.71 196.68 188.1L196.67 188.09Z" fill="#008659"/>
<path opacity="0.8" d="M196.67 188.09C196.95 191.09 197.29 194.9 198.58 201.99C199.56 208.01 200.28 213.87 201.71 223.8C215.49 225.25 231.71 224.08 232.42 221.76C231.33 213.17 231.37 201.58 234.46 181.62C235.18 176.99 231.82 173.05 227.26 173.14C226.04 173.17 224.75 173.22 223.43 173.32C218.3 173.7 214.09 174.05 209.61 175.02C208.12 175.34 206.59 175.72 205.13 176.11C199.85 177.52 196.19 182.71 196.68 188.1L196.67 188.09Z" fill="white"/>
<path d="M199.13 180.07L200.73 182.08C200.8 182.16 200.89 182.2 200.99 182.2C201.06 182.2 201.13 182.18 201.19 182.13C201.33 182.02 201.36 181.81 201.24 181.67L199.56 179.56C199.41 179.73 199.27 179.9 199.13 180.07Z" fill="#263238"/>
<path d="M206.469 178.89C206.469 178.89 206.479 178.89 206.489 178.89C206.659 178.89 206.809 178.76 206.819 178.58L207.009 175.62C206.779 175.68 206.559 175.73 206.339 175.79L206.169 178.54C206.159 178.72 206.299 178.88 206.479 178.89H206.469Z" fill="#008659"/>
<path d="M220.839 181.54C220.899 181.58 220.959 181.59 221.019 181.59C221.129 181.59 221.229 181.54 221.289 181.44C221.389 181.29 221.349 181.08 221.199 180.99L212.789 175.44C212.639 175.34 212.439 175.38 212.329 175.53C212.229 175.68 212.269 175.89 212.419 175.99L220.829 181.54H220.839Z" fill="#008659"/>
<path d="M206.499 183.4C206.429 183.57 206.519 183.76 206.689 183.83L216.069 187.5C216.069 187.5 216.149 187.52 216.189 187.52C216.319 187.52 216.449 187.44 216.499 187.31C216.569 187.14 216.479 186.95 216.309 186.88L206.929 183.21C206.759 183.14 206.569 183.23 206.499 183.4Z" fill="#263238"/>
<path d="M201.08 200.1C201.14 200.14 201.2 200.15 201.26 200.15C201.37 200.15 201.47 200.1 201.54 200L207.01 191.53C207.11 191.38 207.06 191.17 206.91 191.08C206.76 190.98 206.55 191.03 206.46 191.18L200.99 199.65C200.89 199.8 200.94 200.01 201.09 200.1H201.08Z" fill="#008659"/>
<path d="M198.4 192.71C198.46 192.77 198.54 192.8 198.62 192.8C198.71 192.8 198.8 192.76 198.86 192.7C198.98 192.57 198.98 192.36 198.84 192.24L196.87 190.4C196.9 190.72 196.94 191.05 196.98 191.4L198.39 192.72L198.4 192.71Z" fill="#008659"/>
<path d="M228.07 198.31C227.9 198.37 227.81 198.56 227.87 198.73C227.92 198.86 228.04 198.95 228.18 198.95C228.22 198.95 228.26 198.95 228.29 198.93L232.45 197.41C232.47 197.17 232.5 196.93 232.52 196.68L228.07 198.31Z" fill="#008659"/>
<path d="M226.29 191.54C226.35 191.54 226.41 191.52 226.46 191.49L233.67 186.96C233.71 186.68 233.75 186.4 233.79 186.11L226.11 190.93C225.96 191.03 225.91 191.23 226.01 191.38C226.07 191.48 226.18 191.53 226.29 191.53V191.54Z" fill="#008659"/>
<path d="M221.37 192.8C221.27 192.65 221.07 192.6 220.92 192.7L212.39 198.06C212.24 198.16 212.19 198.36 212.29 198.51C212.35 198.61 212.46 198.66 212.57 198.66C212.63 198.66 212.69 198.64 212.74 198.61L221.27 193.25C221.42 193.15 221.47 192.95 221.37 192.8Z" fill="#008659"/>
<path d="M228.559 181.45C228.559 181.45 228.639 181.45 228.679 181.43C228.849 181.37 228.939 181.18 228.869 181.01L225.919 173.18C225.689 173.18 225.459 173.2 225.229 173.21L228.259 181.24C228.309 181.37 228.43 181.45 228.57 181.45H228.559Z" fill="#263238"/>
<path d="M220.09 222.42C219.94 222.32 219.74 222.36 219.63 222.51C219.53 222.66 219.57 222.87 219.72 222.97L221.59 224.21C221.96 224.19 222.31 224.16 222.67 224.13L220.09 222.42Z" fill="#008659"/>
<path d="M232.149 219.31L224.869 216.46C224.699 216.39 224.509 216.48 224.439 216.65C224.369 216.82 224.459 217.01 224.629 217.08L232.219 220.05C232.199 219.81 232.169 219.56 232.149 219.32V219.31Z" fill="#008659"/>
<path d="M201.38 221.48C201.41 221.68 201.44 221.88 201.47 222.08C201.59 222.03 201.68 221.93 201.68 221.79C201.68 221.62 201.54 221.48 201.39 221.48H201.38Z" fill="#263238"/>
<path d="M201.29 211.42C201.38 211.42 201.48 211.38 201.54 211.3C201.66 211.16 201.64 210.95 201.5 210.84L199.68 209.31C199.73 209.63 199.77 209.95 199.82 210.28L201.08 211.34C201.14 211.39 201.22 211.42 201.29 211.42Z" fill="#008659"/>
<path d="M216.649 208.13C216.779 208.13 216.899 208.05 216.959 207.92C217.029 207.75 216.939 207.56 216.769 207.49L207.389 203.81C207.219 203.74 207.029 203.83 206.959 204C206.889 204.17 206.979 204.36 207.149 204.43L216.529 208.11C216.529 208.11 216.609 208.13 216.649 208.13Z" fill="#263238"/>
<path d="M214.48 212.47L205.95 217.83C205.8 217.93 205.75 218.13 205.85 218.28C205.91 218.38 206.02 218.43 206.13 218.43C206.19 218.43 206.25 218.41 206.3 218.38L214.83 213.02C214.98 212.92 215.03 212.72 214.93 212.57C214.83 212.42 214.63 212.37 214.48 212.47Z" fill="#008659"/>
<path d="M222.35 209.92C222.41 210.02 222.52 210.07 222.63 210.07C222.69 210.07 222.75 210.05 222.8 210.02L231.33 204.66C231.48 204.56 231.53 204.36 231.43 204.21C231.33 204.06 231.13 204.01 230.98 204.11L222.45 209.47C222.3 209.57 222.25 209.77 222.35 209.92Z" fill="#263238"/>
<path d="M212.69 222.72C212.63 222.55 212.44 222.46 212.27 222.53C212.1 222.59 212.01 222.78 212.08 222.95L212.63 224.41C212.87 224.41 213.1 224.41 213.34 224.41L212.7 222.71L212.69 222.72Z" fill="#263238"/>
<path d="M205.74 188.28C205.66 188.93 205.6 189.39 205.52 189.92C205.44 190.43 205.34 190.93 205.25 191.44C205.06 192.44 204.84 193.43 204.6 194.41C204.11 196.37 203.53 198.31 202.83 200.22C202.15 202.14 201.34 204.02 200.42 205.87C199.54 207.73 198.43 209.52 197.29 211.27L197.08 211.59C196.96 211.77 196.81 211.95 196.66 212.1C194.83 213.83 193.17 214.99 191.46 216.2C189.76 217.38 188.04 218.47 186.32 219.53C184.59 220.58 182.84 221.59 181.07 222.56C179.28 223.51 177.52 224.46 175.67 225.32C174.31 225.96 172.69 225.37 172.06 224.01C171.55 222.92 171.82 221.67 172.65 220.89L172.67 220.87C174.1 219.51 175.6 218.21 177.06 216.87L181.48 212.96C182.96 211.68 184.39 210.37 185.81 209.09C186.52 208.45 187.2 207.81 187.85 207.17L188.78 206.23C189.08 205.92 189.3 205.65 189.57 205.36L188.94 206.18C189.68 204.7 190.39 203.21 191 201.63C191.61 200.06 192.17 198.46 192.66 196.82C193.14 195.18 193.6 193.52 193.99 191.85C194.19 191.01 194.38 190.18 194.54 189.34L194.98 186.97L195.04 186.67C195.59 183.73 198.42 181.79 201.36 182.34C204.17 182.87 206.06 185.49 205.75 188.29L205.74 188.28Z" fill="#FF8B7B"/>
<path d="M175.28 220.65L169.67 218.99C168.74 218.71 167.74 218.78 166.85 219.18L164.4 220.27C163.2 220.81 162.67 222.23 163.23 223.42L164.35 225.79C164.81 226.77 165.89 227.31 166.95 227.09L171.34 226.18C171.34 226.18 173.52 226.34 175.5 225.6C177.07 225.01 177.65 223.09 176.72 221.7C176.38 221.19 175.87 220.82 175.29 220.65H175.28Z" fill="#FF8B7B"/>
<path d="M203.2 176.91C198.47 178.68 194.43 182.81 192.48 193.46C195.06 196.74 204.27 198.48 204.27 198.48C204.27 198.48 211.15 184.37 203.19 176.91H203.2Z" fill="#008659"/>
<path opacity="0.8" d="M203.2 176.91C198.47 178.68 194.43 182.81 192.48 193.46C195.06 196.74 204.27 198.48 204.27 198.48C204.27 198.48 211.15 184.37 203.19 176.91H203.2Z" fill="white"/>
<path d="M200.74 182.08C200.81 182.16 200.9 182.2 201 182.2C201.07 182.2 201.14 182.18 201.2 182.13C201.34 182.02 201.37 181.81 201.25 181.67L199.26 179.18C199.09 179.32 198.93 179.46 198.77 179.61L200.74 182.08Z" fill="#263238"/>
<path d="M206.5 183.4C206.43 183.57 206.52 183.76 206.69 183.83L206.8 183.87C206.76 183.65 206.72 183.44 206.68 183.22C206.6 183.25 206.54 183.32 206.51 183.4H206.5Z" fill="#263238"/>
<path d="M202.74 198.14L206.28 192.66C206.4 192.15 206.52 191.62 206.62 191.07C206.56 191.09 206.49 191.12 206.45 191.18L202.06 197.97C202.3 198.03 202.53 198.09 202.74 198.14Z" fill="#008659"/>
<path d="M198.4 192.71C198.46 192.77 198.54 192.8 198.62 192.8C198.71 192.8 198.8 192.76 198.86 192.7C198.98 192.57 198.98 192.36 198.84 192.24L193.94 187.66C193.86 187.89 193.79 188.11 193.71 188.35L198.39 192.73L198.4 192.71Z" fill="#008659"/>
<path d="M334.01 285.5C332.61 280.08 334.3 278.02 336.27 275.86C338.24 273.7 338.01 270.09 338.01 270.09C338.01 270.09 341.08 276.19 340.18 283.41C339.28 290.63 335.03 289.47 334.01 285.51V285.5Z" fill="#263238"/>
<path d="M342.59 329.2C340.52 325.73 331.71 318.41 325.02 321.28C330.37 323.5 336.27 337.03 344.19 336.46C342.83 330.26 342.59 329.2 342.59 329.2Z" fill="#263238"/>
<path d="M348.81 359.24C348.39 359.24 348 358.95 347.9 358.52C346.61 353.23 335.18 305.82 330.7 272.17C330.63 271.65 330.99 271.18 331.51 271.11C332.03 271.03 332.5 271.4 332.57 271.92C337.03 305.47 348.45 352.79 349.73 358.07C349.85 358.57 349.54 359.08 349.04 359.21C348.97 359.23 348.89 359.24 348.82 359.24H348.81Z" fill="#008659"/>
<path d="M333.02 274.22C333.14 270.25 331.29 267.81 326.64 267.38C321.99 266.95 320.52 265.01 319.65 263.2C321.22 272.34 332.18 274.63 333.25 279.14C333.03 275.76 333.03 274.22 333.03 274.22H333.02Z" fill="#008659"/>
<path d="M335.11 289.3C334.73 285.14 331.37 284.57 327.54 284.06C323.71 283.56 322.44 281.1 322.44 281.1C322.44 281.1 320.7 286.47 325.21 290.75C329.72 295.03 335.38 292.33 335.1 289.29L335.11 289.3Z" fill="#008659"/>
<path d="M341.47 326.03C340.81 321.38 344 319.46 343.5 312.64C352.63 328.25 342.5 333.33 341.47 326.03Z" fill="#008659"/>
<path d="M337.2 307.07C334.62 303.15 330.96 303.81 326.82 298.36C330.29 316.11 341.24 313.22 337.2 307.07Z" fill="#008659"/>
<path d="M356.45 308C356.68 301.72 350.86 298.41 346.4 292.14C349.11 304.62 356.09 317.85 356.45 308Z" fill="#263238"/>
<path d="M353.59 353.59C353.59 353.59 353.53 353.59 353.5 353.59C352.89 353.54 352.44 353.01 352.49 352.4C353.53 339.22 357.21 282.38 356.18 245.23C356.16 244.62 356.64 244.11 357.25 244.09C357.9 244.09 358.37 244.55 358.39 245.16C359.42 282.42 355.74 339.36 354.69 352.57C354.64 353.15 354.16 353.59 353.59 353.59Z" fill="#008659"/>
<path d="M356.439 248.2C355.039 240.6 357.899 235.35 366.719 233.17C375.539 230.99 377.809 226.83 378.949 223.09C378.609 241.13 358.189 248.74 357.449 257.73C356.879 251.16 356.429 248.2 356.429 248.2H356.439Z" fill="#008659"/>
<path d="M357.12 263.58C358.53 254.47 351.65 251.44 343.73 248.32C335.81 245.19 334.41 239.26 334.41 239.26C334.41 239.26 327.8 249.82 335.16 261.4C342.52 272.98 356.08 270.24 357.11 263.58H357.12Z" fill="#008659"/>
<path d="M357.079 286.86C358.599 279.63 364.609 279.31 371.429 279.21C378.249 279.11 380.979 275.06 380.979 275.06C380.979 275.06 382.939 284.85 374.149 291.44C365.359 298.04 355.969 292.14 357.079 286.87V286.86Z" fill="#008659"/>
<path d="M355.799 321.99C357.449 317.54 366.08 307.21 374.42 309.11C368.71 312.81 364.77 329.69 355.5 330.72C355.76 323.26 355.799 321.99 355.799 321.99Z" fill="#008659"/>
<path d="M363.78 343.83H335.95C334.41 343.83 333.3 345.31 333.74 346.79L341.27 372.25C341.56 373.23 342.46 373.9 343.48 373.9H356.24C357.26 373.9 358.16 373.23 358.45 372.25L365.98 346.79C366.42 345.31 365.31 343.83 363.77 343.83H363.78Z" fill="#008659"/>
<path opacity="0.2" d="M363.78 343.83H335.95C334.41 343.83 333.3 345.31 333.74 346.79L341.27 372.25C341.56 373.23 342.46 373.9 343.48 373.9H356.24C357.26 373.9 358.16 373.23 358.45 372.25L365.98 346.79C366.42 345.31 365.31 343.83 363.77 343.83H363.78Z" fill="#008659"/>
<path opacity="0.7" d="M363.78 343.83H335.95C334.41 343.83 333.3 345.31 333.74 346.79L341.27 372.25C341.56 373.23 342.46 373.9 343.48 373.9H356.24C357.26 373.9 358.16 373.23 358.45 372.25L365.98 346.79C366.42 345.31 365.31 343.83 363.77 343.83H363.78Z" fill="white"/>
</g>
<defs>
<clipPath id="clip0_1627_8591">
<rect width="500" height="385.24" fill="white"/>
</clipPath>
</defs>
</svg>
