<svg xmlns="http://www.w3.org/2000/svg" viewBox="0 0 500 500"><g id="freepik--Plants--inject-165"><g id="freepik--plants--inject-165"><path d="M451,254.43c-8.95.91-19.56,17.56-22.21,32.73a98.82,98.82,0,0,0-1.15,29l3.78,2.19,1.1.64,3.06,1.77,2.71,1.57.54.31.26-5.19s0,0,0,0v-.08h0l0-.76c-.68-7.55,3.79-17.78,8.74-27,3.31-6.14,6.83-11.82,9.18-15.94C462.94,263.39,459.37,253.57,451,254.43Z" style="fill:#e0e0e0"></path><path d="M452.84,260.7c-11,8.8-21.92,32.19-20.29,58.28l-1.1-.64c-1.42-26.17,9.59-49.61,20.72-58.48a.53.53,0,0,1,.76.09A.54.54,0,0,1,452.84,260.7Z" style="fill:#fff"></path><path d="M439.34,322.91h0l3.74,2.18a47.83,47.83,0,0,1,6.93-13c6.54-8.81,16.42-15.21,17.35-20.65,1.1-6.53-3.84-10.48-12.52-7a19.83,19.83,0,0,0-7,5.18c-5.42,6.66-11.56,16.11-12.29,31.14l2.71,1.57.54.31Z" style="fill:#f0f0f0"></path><path d="M439.34,322.91h0c2.12-19.32,13.63-30,19.92-33.13a.54.54,0,0,0,.25-.72.52.52,0,0,0-.72-.24c-6.3,3.1-16.27,12.27-19.68,28.6,0,0,0,0,0,0a48.24,48.24,0,0,0-.8,4.88l.54.31Z" style="fill:#fff"></path></g><g id="freepik--plants--inject-165"><path d="M88.47,303.92l-2.86,1.66-6.47,3.75c0-13.59-4.55-25.42-9.88-35a175,175,0,0,0-12.58-18.72c-7.64-10.48,3.9-16,13.16-11.08s16.4,16.61,18.86,31.51C90.46,286.76,89.27,298.28,88.47,303.92Z" style="fill:#e0e0e0"></path><path d="M84.42,305.49h.11a.55.55,0,0,0,.57-.54c.69-32.24-9.25-48.88-21.23-57.68a.55.55,0,0,0-.78.12.56.56,0,0,0,.12.78c11.82,8.68,21.45,25,20.77,56.75A.57.57,0,0,0,84.42,305.49Z" style="fill:#fff"></path><path d="M85.61,305.58l-6.47,3.75L76,311.15l-.84.48-9,5.24c-3.82-1.7-5.49-3.69-6.11-6.82-.55-2.8-.15-6-2-8.2a8.21,8.21,0,0,0-4.65-2.35,16,16,0,0,1-1.72-.51,34.23,34.23,0,0,1-3.39-1.65,5.61,5.61,0,0,1-2.79-3.43c-.74-3.54,3.61-6.6,3-10.17-.29-1.77-1.73-3.09-3-4.3s-2.69-2.65-2.78-4.44A5,5,0,0,1,45,270.91a9.41,9.41,0,0,1,8.15-1c2.77.84,5.21,2.56,7.86,3.68s5.48.13,8.28.72l.13,0c2.74.61,5.62,1.7,6.6,4.63s-.25,6.38,1.43,8.92c1.87,2.84,5.84,3.38,7.83,6.22C87.65,297.56,87.44,302,85.61,305.58Z" style="fill:#f0f0f0"></path><path d="M76,311.15l-.84.48a33.79,33.79,0,0,0-5-20.84A21.5,21.5,0,0,0,52,291a.38.38,0,0,1-.23.06.4.4,0,0,1-.17-.75,22.21,22.21,0,0,1,17.78-.67c-6.64-9.79-17-14.82-20.59-15.81a.4.4,0,0,1-.28-.5A.39.39,0,0,1,49,273c3.81,1,14.94,6.49,21.69,17.13a.38.38,0,0,1,.12.17A34.41,34.41,0,0,1,76,311.15Z" style="fill:#fff"></path></g></g><g id="freepik--Shine--inject-165"><path id="freepik--shine--inject-165" d="M347.72,182.31c14.1-.26,28.2-.43,42.3-.75l21.14-.49c7-.22,14.1-.39,21.15-.65v-.32c-7.05-.26-14.1-.43-21.15-.64L390,179c-14.1-.32-28.2-.49-42.3-.74s-28.19-.43-42.29-.5c-4.43,0-8.87,0-13.3,0,4.37-.76,8.73-1.54,13.1-2.31,13.87-2.52,27.72-5.18,41.57-7.83s27.69-5.32,41.51-8.08l20.74-4.16c6.91-1.44,13.82-2.83,20.71-4.31l-.05-.31c-7,1-14,2-20.94,3L387.86,157c-13.94,2.13-27.85,4.41-41.78,6.61s-27.83,4.48-41.73,6.86c-4.37.77-8.74,1.52-13.1,2.31,4.17-1.5,8.33-3,12.5-4.55,13.22-4.88,26.4-9.91,39.57-14.93s26.35-10,39.49-15.16l19.7-7.7c6.55-2.61,13.12-5.18,19.65-7.84l-.11-.29c-6.71,2.16-13.39,4.41-20.09,6.62l-20,6.77c-13.36,4.52-26.66,9.18-40,13.76s-26.63,9.25-39.91,14c-4.18,1.53-8.38,3-12.56,4.58q5.81-3.33,11.59-6.68c12.17-7.11,24.27-14.34,36.38-21.57s24.2-14.46,36.25-21.79l18.06-11c6-3.71,12-7.38,18-11.14l-.15-.27c-6.24,3.3-12.43,6.68-18.64,10L372.37,115.7c-12.37,6.77-24.66,13.67-37,20.5s-24.63,13.73-36.87,20.72q-5.82,3.36-11.64,6.73,5.17-4.31,10.31-8.63c10.76-9.11,21.41-18.34,32.08-27.56S350.58,109,361.17,99.7l15.88-14c5.26-4.69,10.55-9.35,15.78-14.09l-.2-.24c-5.57,4.33-11.08,8.74-16.62,13.1L359.5,97.71c-11,8.82-21.92,17.75-32.88,26.62s-21.87,17.79-32.71,26.8q-5.16,4.32-10.29,8.66l8.65-10.29c9-10.85,17.9-21.79,26.81-32.72s17.79-21.87,26.61-32.88L358.9,67.39c4.37-5.54,8.77-11,13.1-16.62l-.24-.2c-4.73,5.23-9.39,10.52-14.09,15.78l-14,15.89c-9.31,10.59-18.5,21.28-27.76,31.91s-18.44,21.33-27.56,32.08q-4.32,5.16-8.63,10.31c2.26-3.87,4.49-7.75,6.74-11.64,7-12.24,13.84-24.56,20.71-36.87s13.73-24.63,20.5-37l10.15-18.56c3.33-6.21,6.71-12.4,10-18.63l-.27-.16c-3.75,6-7.42,12-11.13,18l-11,18.07c-7.32,12-14.52,24.17-21.79,36.25s-14.46,24.2-21.57,36.38q-3.34,5.79-6.67,11.58c1.54-4.18,3.05-8.37,4.57-12.56,4.76-13.27,9.37-26.59,14-39.91s9.25-26.64,13.77-40l6.76-20c2.21-6.69,4.46-13.38,6.63-20.09l-.3-.11c-2.65,6.54-5.22,13.1-7.84,19.65l-7.69,19.7c-5.13,13.14-10.11,26.33-15.17,39.49s-10,26.35-14.93,39.57c-1.52,4.17-3.05,8.33-4.55,12.51.79-4.37,1.55-8.74,2.32-13.11,2.38-13.89,4.61-27.81,6.85-41.73s4.48-27.84,6.61-41.78l3.19-20.91c1-7,2.07-14,3-20.94l-.31,0c-1.48,6.89-2.87,13.81-4.31,20.71l-4.16,20.74c-2.76,13.83-5.38,27.68-8.07,41.52S270.5,124.3,268,138.17c-.77,4.37-1.56,8.74-2.31,13.11,0-4.44,0-8.87,0-13.31-.07-14.1-.29-28.19-.49-42.29s-.43-28.2-.75-42.29L264,32.24c-.22-7-.39-14.1-.65-21.14H263c-.27,7-.44,14.09-.65,21.14l-.5,21.15c-.32,14.09-.49,28.19-.74,42.29s-.43,28.19-.5,42.29c0,4.44,0,8.87,0,13.31-.76-4.37-1.54-8.74-2.31-13.11-2.52-13.87-5.18-27.71-7.83-41.56s-5.32-27.69-8.08-41.52l-4.16-20.74c-1.44-6.9-2.83-13.82-4.31-20.71l-.31,0c1,7,2,14,3,20.94l3.18,20.91c2.13,13.94,4.41,27.85,6.61,41.78s4.48,27.84,6.86,41.73c.77,4.37,1.53,8.74,2.31,13.11-1.5-4.18-3-8.34-4.55-12.51-4.88-13.22-9.91-26.39-14.92-39.57s-10-26.35-15.17-39.49l-7.7-19.7c-2.61-6.55-5.18-13.11-7.84-19.65l-.29.11c2.16,6.71,4.41,13.4,6.62,20.09l6.77,20c4.52,13.36,9.18,26.67,13.76,40s9.25,26.64,14,39.91c1.53,4.19,3,8.38,4.58,12.56q-3.33-5.79-6.68-11.58c-7.1-12.18-14.34-24.28-21.57-36.38s-14.46-24.21-21.79-36.25l-11-18.07c-3.71-6-7.38-12-11.14-18l-.27.16c3.3,6.23,6.68,12.42,10,18.63L198.58,71c6.77,12.37,13.67,24.67,20.5,37s13.73,24.63,20.72,36.87q3.36,5.83,6.73,11.64c-2.86-3.44-5.75-6.87-8.63-10.31-9.11-10.75-18.34-21.41-27.56-32.08s-18.45-21.32-27.76-31.91l-14-15.89c-4.69-5.26-9.35-10.55-14.09-15.78l-.24.2c4.33,5.57,8.74,11.08,13.1,16.62L180.59,83.9c8.82,11,17.75,21.92,26.62,32.88S225,138.65,234,149.5q4.32,5.15,8.66,10.29-5.14-4.35-10.29-8.66c-10.85-9-21.79-17.9-32.72-26.8s-21.87-17.8-32.87-26.62L150.27,84.5c-5.54-4.36-11.05-8.77-16.62-13.1l-.2.24c5.23,4.74,10.53,9.4,15.79,14.09l15.88,14C175.71,109,186.4,118.2,197,127.46s21.33,18.45,32.08,27.56l10.31,8.63q-5.8-3.37-11.63-6.73c-12.25-7-24.57-13.85-36.88-20.72s-24.63-13.73-37-20.5l-18.56-10.15c-6.22-3.33-12.41-6.71-18.64-10l-.16.27c6,3.76,12,7.43,18,11.14l18.07,11c12,7.33,24.17,14.52,36.25,21.79s24.2,14.46,36.38,21.57q5.79,3.34,11.59,6.68c-4.19-1.54-8.38-3.05-12.57-4.58-13.27-4.75-26.59-9.37-39.91-14s-26.64-9.24-40-13.76l-20-6.77c-6.69-2.21-13.37-4.46-20.09-6.62l-.11.29c6.54,2.66,13.1,5.23,19.65,7.84l19.71,7.7c13.13,5.12,26.32,10.1,39.48,15.16s26.35,10.05,39.57,14.93c4.17,1.52,8.33,3,12.51,4.55-4.37-.79-8.74-1.54-13.11-2.31-13.89-2.38-27.81-4.61-41.73-6.86s-27.84-4.48-41.78-6.61l-20.91-3.18c-7-1-14-2.07-20.94-3l0,.31c6.9,1.48,13.81,2.87,20.71,4.31L138,159.51c13.83,2.76,27.68,5.38,41.52,8.08s27.69,5.31,41.56,7.83c4.37.77,8.74,1.55,13.11,2.31-4.44,0-8.87,0-13.31,0-14.1.07-28.19.29-42.29.5s-28.2.42-42.29.74l-21.15.5c-7.05.21-14.09.38-21.14.64v.32c7,.26,14.09.43,21.14.65l21.15.49c14.09.32,28.19.49,42.29.75s28.19.42,42.29.49h13.31c-4.37.75-8.74,1.54-13.11,2.31-13.87,2.51-27.71,5.18-41.56,7.82S151.8,198.25,138,201l-20.74,4.16c-6.9,1.44-13.81,2.83-20.71,4.31l0,.31c7-1,14-2,20.94-3l20.91-3.19c13.94-2.13,27.85-4.41,41.78-6.61s27.84-4.48,41.73-6.86c4.37-.77,8.74-1.52,13.11-2.31-4.18,1.5-8.34,3-12.51,4.55-13.22,4.89-26.39,9.92-39.57,14.93s-26.35,10-39.48,15.16l-19.71,7.7c-6.55,2.62-13.11,5.18-19.65,7.84l.11.3c6.72-2.17,13.4-4.42,20.09-6.63l20-6.77c13.36-4.51,26.67-9.17,40-13.76s26.64-9.24,39.91-14q6.28-2.28,12.57-4.58-5.81,3.33-11.59,6.68c-12.18,7.11-24.27,14.35-36.38,21.57s-24.21,14.47-36.25,21.79l-18.07,11c-6,3.72-12,7.39-18,11.14l.16.27c6.23-3.3,12.42-6.68,18.64-10l18.56-10.15c12.36-6.77,24.66-13.67,37-20.5s24.63-13.73,36.88-20.71c3.88-2.25,7.76-4.48,11.63-6.74l-10.31,8.63c-10.75,9.12-21.41,18.35-32.08,27.56s-21.32,18.45-31.91,27.76l-15.88,14c-5.26,4.7-10.56,9.36-15.79,14.09l.2.24c5.57-4.33,11.08-8.73,16.62-13.1l16.52-13.21c11-8.82,21.91-17.75,32.87-26.61s21.87-17.8,32.72-26.81l10.29-8.65Q238.32,205.87,234,211c-9,10.84-17.9,21.78-26.8,32.71s-17.8,21.87-26.62,32.88l-13.21,16.51c-4.36,5.54-8.77,11.05-13.1,16.62l.24.2c4.74-5.23,9.4-10.52,14.09-15.78l14-15.88c9.31-10.6,18.5-21.28,27.76-31.92S228.79,225,237.9,214.29c2.88-3.43,5.77-6.86,8.63-10.31q-3.37,5.81-6.73,11.64c-7,12.24-13.85,24.56-20.72,36.87s-13.73,24.63-20.5,37l-10.14,18.56c-3.34,6.21-6.72,12.4-10,18.63l.27.16c3.76-6,7.43-12,11.14-18l11-18.06c7.33-12.05,14.52-24.17,21.79-36.26s14.47-24.2,21.57-36.37q3.34-5.79,6.68-11.59c-1.54,4.18-3.05,8.37-4.58,12.56-4.75,13.27-9.37,26.6-14,39.91s-9.24,26.64-13.76,40l-6.77,20c-2.21,6.7-4.46,13.38-6.62,20.09l.29.11c2.66-6.54,5.23-13.1,7.84-19.65l7.7-19.7c5.12-13.14,10.11-26.33,15.17-39.49s10-26.35,14.92-39.57c1.52-4.17,3.05-8.33,4.55-12.5-.78,4.36-1.54,8.73-2.31,13.1-2.38,13.89-4.61,27.82-6.86,41.73S242,291,239.83,305l-3.18,20.91c-1,7-2.07,13.95-3,20.94l.31.05c1.48-6.89,2.87-13.8,4.31-20.71l4.16-20.74c2.76-13.82,5.38-27.68,8.08-41.52s5.31-27.69,7.83-41.56c.77-4.37,1.55-8.73,2.31-13.1,0,4.43,0,8.87,0,13.3.07,14.1.29,28.2.5,42.29s.42,28.2.74,42.3l.5,21.14c.21,7.05.38,14.1.65,21.15h.31c.26-7.05.43-14.1.65-21.15l.49-21.14c.32-14.1.49-28.2.75-42.3s.42-28.19.49-42.29c0-4.43,0-8.87,0-13.3.75,4.37,1.54,8.73,2.31,13.1,2.51,13.87,5.18,27.72,7.83,41.56s5.31,27.7,8.07,41.52l4.16,20.74c1.44,6.91,2.83,13.82,4.31,20.71l.31-.05c-1-7-2-14-3-20.94L286.45,305c-2.13-13.94-4.41-27.85-6.61-41.78s-4.47-27.84-6.85-41.73c-.77-4.37-1.53-8.74-2.32-13.1,1.5,4.17,3,8.33,4.55,12.5,4.89,13.22,9.92,26.4,14.93,39.57s10,26.35,15.17,39.49l7.69,19.7c2.62,6.55,5.19,13.11,7.84,19.65l.3-.11c-2.17-6.71-4.42-13.39-6.63-20.09l-6.76-20c-4.52-13.36-9.18-26.66-13.77-40s-9.24-26.64-14-39.91c-1.52-4.19-3-8.38-4.57-12.56q3.31,5.81,6.67,11.59c7.11,12.17,14.35,24.27,21.57,36.37s14.47,24.21,21.79,36.26l11,18.06c3.71,6,7.38,12,11.13,18l.27-.16c-3.3-6.23-6.68-12.42-10-18.63L327.7,289.49c-6.77-12.37-13.67-24.67-20.5-37s-13.73-24.63-20.71-36.87c-2.25-3.88-4.48-7.77-6.74-11.64q4.31,5.18,8.63,10.31c9.12,10.75,18.35,21.41,27.56,32.08s18.45,21.32,27.76,31.92l14,15.88c4.7,5.26,9.36,10.55,14.09,15.78l.24-.2c-4.33-5.57-8.73-11.08-13.1-16.62l-13.21-16.51c-8.82-11-17.75-21.92-26.61-32.88s-17.8-21.87-26.81-32.71q-4.32-5.16-8.65-10.29,5.13,4.33,10.29,8.65c10.84,9,21.78,17.9,32.71,26.81S348.49,254,359.5,262.81L376,276c5.54,4.37,11.05,8.77,16.62,13.1l.2-.24c-5.23-4.73-10.52-9.39-15.78-14.09l-15.88-14c-10.59-9.31-21.28-18.5-31.92-27.76s-21.32-18.44-32.08-27.56q-5.15-4.32-10.31-8.63c3.87,2.26,7.76,4.49,11.64,6.74,12.24,7,24.56,13.84,36.87,20.71s24.63,13.73,37,20.5L390.93,255c6.21,3.33,12.4,6.71,18.64,10l.15-.27c-6-3.75-12-7.42-18-11.14l-18.06-11c-12.05-7.32-24.17-14.52-36.25-21.79S313.21,206.32,301,199.21q-5.79-3.35-11.59-6.68c4.18,1.54,8.38,3.06,12.56,4.58,13.28,4.76,26.6,9.37,39.91,14s26.64,9.25,40,13.76l20,6.77c6.7,2.21,13.38,4.46,20.09,6.63l.11-.3c-6.53-2.66-13.1-5.22-19.65-7.84l-19.7-7.7c-13.14-5.12-26.33-10.1-39.49-15.16s-26.35-10-39.57-14.93c-4.17-1.52-8.33-3.05-12.5-4.55,4.36.79,8.73,1.54,13.1,2.31,13.9,2.38,27.82,4.62,41.73,6.86s27.84,4.48,41.78,6.61l20.91,3.19c7,1,14,2.07,20.94,3l.05-.31c-6.89-1.48-13.8-2.87-20.71-4.31L388.31,201c-13.82-2.76-27.68-5.38-41.51-8.08s-27.7-5.31-41.57-7.82c-4.37-.77-8.73-1.56-13.1-2.31h13.3C319.53,182.73,333.63,182.51,347.72,182.31Z" style="fill:#00A76F;opacity:0.1"></path></g><g id="freepik--Arrows--inject-165"><g id="freepik--Arrow--inject-165"><polygon points="395.75 271.31 411.64 280.54 412.15 335.19 399.76 328.01 357.45 417.79 332.95 431.94 317.06 422.71 373.16 303.74 360.57 291.63 395.75 271.31" style="fill:#455a64"></polygon><polygon points="411.64 280.54 376.46 300.85 389.05 312.97 332.95 431.94 357.45 417.79 401.3 324.75 412.15 335.19 411.64 280.54" style="fill:#37474f"></polygon><polygon points="389.05 312.97 376.46 300.85 360.57 291.63 373.16 303.74 389.05 312.97" style="fill:#263238"></polygon><polygon points="399.76 328.01 401.3 324.75 412.15 335.19 399.76 328.01" style="fill:#263238"></polygon></g><g id="freepik--arrow--inject-165"><polygon points="152.34 272.08 174.28 284.82 174.99 360.3 157.88 350.39 142.13 383.75 108.29 403.28 86.35 390.54 121.15 316.87 103.76 300.13 152.34 272.08" style="fill:#00A76F"></polygon><polygon points="152.34 272.08 174.28 284.82 174.99 360.3 157.88 350.39 142.13 383.75 108.29 403.28 86.35 390.54 121.15 316.87 103.76 300.13 152.34 272.08" style="fill:#fff;opacity:0.8"></polygon><polygon points="174.28 284.82 125.7 312.88 143.09 329.61 108.29 403.28 142.13 383.75 160.01 345.89 174.99 360.3 174.28 284.82" style="fill:#00A76F"></polygon><polygon points="174.28 284.82 125.7 312.88 143.09 329.61 108.29 403.28 142.13 383.75 160.01 345.89 174.99 360.3 174.28 284.82" style="fill:#fff;opacity:0.6000000000000001"></polygon><polygon points="143.09 329.61 125.7 312.88 103.76 300.13 121.15 316.87 143.09 329.61" style="fill:#00A76F;opacity:0.6000000000000001"></polygon><polygon points="157.88 350.39 160.01 345.89 174.99 360.3 157.88 350.39" style="fill:#00A76F;opacity:0.6000000000000001"></polygon></g><g id="freepik--arrow--inject-165"><polygon points="262.59 207.45 347.57 256.7 348.8 389.22 318.77 371.81 291.36 429.86 231.95 464.15 146.97 414.9 207.82 286.08 177.28 256.7 262.59 207.45" style="fill:#00A76F"></polygon><polygon points="347.57 256.7 262.26 305.95 292.8 335.33 231.95 464.15 291.36 429.86 322.5 363.91 348.8 389.22 347.57 256.7" style="fill:#00A76F"></polygon><polygon points="262.26 305.95 177.28 256.7 262.59 207.45 347.57 256.7 262.26 305.95" style="fill:#fff;opacity:0.30000000000000004"></polygon><polygon points="207.82 286.08 292.8 335.33 231.95 464.15 146.97 414.9 207.82 286.08" style="fill:#fff;opacity:0.2"></polygon><polygon points="292.8 335.33 262.26 305.95 177.28 256.7 207.82 286.08 292.8 335.33" style="opacity:0.2"></polygon><polygon points="318.77 371.81 322.5 363.91 348.8 389.22 318.77 371.81" style="opacity:0.2"></polygon></g></g><g id="freepik--Target--inject-165"><g id="freepik--target--inject-165"><g id="freepik--target--inject-165"><path d="M112.38,343.2c4.34,2.5,7,7.86,7,15.49,0,15.26-10.71,33.82-23.93,41.45-6.63,3.83-12.63,4.17-17,1.64-1.13-.66-5.81-3.24-7-3.9-4.33-2.5-7-7.86-7-15.49,0-15.26,10.71-33.81,23.93-41.44,6.6-3.81,12.58-4.17,16.91-1.68" style="fill:#00A76F"></path><path d="M95.47,400.14h0c-6.63,3.83-12.63,4.17-17,1.64-1.13-.66-5.81-3.24-7-3.9-4.33-2.5-7-7.86-7-15.48Z" style="opacity:0.65"></path><path d="M107.92,388.92a44.48,44.48,0,0,1-12.45,11.22L64.54,382.4h0A44.56,44.56,0,0,1,68,366Z" style="opacity:0.55"></path><path d="M68,366C72.23,355.63,79.81,346,88.47,341c6.6-3.81,12.58-4.17,16.91-1.68l7,3.93c4.34,2.5,7,7.86,7,15.49,0,10-4.59,21.4-11.48,30.23Z" style="opacity:0.4"></path><path d="M112.4,354.76c0,15.26-10.72,33.82-23.93,41.45s-23.93,1.44-23.93-13.82S75.25,348.57,88.47,341,112.4,339.52,112.4,354.76Z" style="fill:#00A76F"></path><path d="M112.4,354.76c0,15.26-10.72,33.82-23.93,41.45s-23.93,1.44-23.93-13.82S75.25,348.57,88.47,341,112.4,339.52,112.4,354.76Z" style="opacity:0.2"></path><path d="M106.42,358.22c0,11.44-8,25.36-18,31.08s-18,1.09-18-10.36,8-25.36,18-31.09S106.42,346.77,106.42,358.22Z" style="fill:#fafafa"></path><path d="M101,361.36c0,8-5.6,17.67-12.51,21.66S76,383.78,76,375.8s5.6-17.68,12.51-21.66S101,353.38,101,361.36Z" style="fill:#00A76F"></path><path d="M101,361.36c0,8-5.6,17.67-12.51,21.66S76,383.78,76,375.8s5.6-17.68,12.51-21.66S101,353.38,101,361.36Z" style="opacity:0.2"></path><path d="M95.39,364.58a15.29,15.29,0,0,1-6.92,12c-3.83,2.21-6.93.42-6.92-4a15.32,15.32,0,0,1,6.92-12C92.29,358.38,95.39,360.17,95.39,364.58Z" style="fill:#fafafa"></path><path d="M91.39,366.89A6.47,6.47,0,0,1,88.47,372c-1.61.93-2.92.18-2.92-1.69a6.45,6.45,0,0,1,2.92-5.05C90.08,364.27,91.39,365,91.39,366.89Z" style="fill:#455a64"></path></g><g id="freepik--arrow--inject-165"><path d="M41.47,341.71s-6.35,3-9.6,1.16.8-6.24,2.9-5Z" style="fill:#00A76F"></path><path d="M41.47,341.71s-.55-7-3.8-8.89-5,3.81-2.9,5Z" style="fill:#00A76F"></path><path d="M41.47,341.71s-.55-7-3.8-8.89-5,3.81-2.9,5Z" style="fill:#fff;opacity:0.5"></path><polygon points="79.22 364.31 29.29 335.49 30.01 334.26 80.76 363.55 79.22 364.31" style="fill:#37474f"></polygon><path d="M32,334.92a2.1,2.1,0,1,1-2.09-2.1A2.1,2.1,0,0,1,32,334.92Z" style="fill:#263238"></path><path d="M78.69,363.18c-2.83-.36-4.67,4.3-4.67,4.3l14.16,1.18Z" style="fill:#00A76F"></path><path d="M78.69,363.18c-2.83-.36-4.67,4.3-4.67,4.3l14.16,1.18Z" style="fill:#00A76F"></path><path d="M80.08,357s-3.11,3.92-1.39,6.19l9.49,5.48Z" style="fill:#00A76F"></path><path d="M80.08,357s-3.11,3.92-1.39,6.19l9.49,5.48Z" style="fill:#fff;opacity:0.5"></path></g></g></g><g id="freepik--Trophy--inject-165"><g id="freepik--trophy--inject-165"><ellipse id="freepik--Shadow--inject-165" cx="403.53" cy="420.18" rx="22.42" ry="12.95" style="fill:#e0e0e0"></ellipse><g id="freepik--trophy--inject-165"><path d="M415.41,380.57l2.17,1.25c8.63-5,19.41-23.66,19.41-33.63l-2.17-1.25-14.56,8.41s0,1-.11,2.82l2.28-1.31c0,.4,0,1.27-.1,2.56l9.5-5.49a39.55,39.55,0,0,1-2.61,7.07,52.79,52.79,0,0,1-7.36,11.48,28.51,28.51,0,0,1-3.17,3.16,26.2,26.2,0,0,1-2.22,1.67C416.15,378.37,415.79,379.46,415.41,380.57Z" style="fill:#00A76F"></path><path d="M422.43,356.6s0,1-.1,2.82l12.2-7.05a33,33,0,0,1-3.13,9.88A52.82,52.82,0,0,1,424,373.73a28.48,28.48,0,0,1-3.16,3.16c-1,.8-1.76,1.35-2.22,1.67-.33,1.06-.69,2.15-1.07,3.26,8.63-5,19.41-23.66,19.41-33.63Z" style="fill:#00A76F"></path><path d="M422.43,356.6s0,1-.1,2.82l12.2-7.05a33,33,0,0,1-3.13,9.88A52.82,52.82,0,0,1,424,373.73a28.48,28.48,0,0,1-3.16,3.16c-1,.8-1.76,1.35-2.22,1.67-.33,1.06-.69,2.15-1.07,3.26,8.63-5,19.41-23.66,19.41-33.63Z" style="fill:#fff;opacity:0.4"></path><polygon points="436.99 348.19 422.43 356.6 420.26 355.35 434.82 346.94 436.99 348.19" style="fill:#00A76F"></polygon><polygon points="436.99 348.19 422.43 356.6 420.26 355.35 434.82 346.94 436.99 348.19" style="fill:#fff;opacity:0.6000000000000001"></polygon><path d="M390.55,417.17c0-1.92,1.26-3.84,3.8-5.3,5.07-2.94,13.3-2.94,18.37,0,2.38,1.37,3.64,3.14,3.79,4.94v.1a2.26,2.26,0,0,1,0,.26v2.49a2.35,2.35,0,0,1,0,.26v.1c-.15,1.79-1.41,3.56-3.79,4.94-5.07,2.93-13.3,2.93-18.37,0-2.54-1.47-3.8-3.38-3.8-5.3Z" style="fill:#00A76F"></path><path d="M390.55,417.17c0-1.92,1.26-3.84,3.8-5.3,5.07-2.94,13.3-2.94,18.37,0,2.38,1.37,3.64,3.14,3.79,4.94v.1a2.26,2.26,0,0,1,0,.26v2.49a2.35,2.35,0,0,1,0,.26v.1c-.15,1.79-1.41,3.56-3.79,4.94-5.07,2.93-13.3,2.93-18.37,0-2.54-1.47-3.8-3.38-3.8-5.3Z" style="opacity:0.30000000000000004"></path><path d="M401.85,427.08a17.72,17.72,0,0,1-7.5-2.12,9.85,9.85,0,0,1-2.12-1.62v-9.86a10.16,10.16,0,0,1,2.12-1.61,17.87,17.87,0,0,1,7.5-2.13Z" style="fill:#00A76F;opacity:0.7000000000000001"></path><path d="M410.88,411a15.59,15.59,0,0,1,1.84.88c2.38,1.37,3.64,3.14,3.79,4.94v.1a2.26,2.26,0,0,1,0,.26v2.49a2.35,2.35,0,0,1,0,.26v.1c-.15,1.79-1.41,3.56-3.79,4.94a14.11,14.11,0,0,1-1.84.87Z" style="opacity:0.2"></path><path d="M415.6,419.6c.13-.19.24-.38.35-.57s.05-.11.07-.16a3.74,3.74,0,0,0,.22-.51l.06-.16a5,5,0,0,0,.16-.64v0a4.91,4.91,0,0,0,.06-.66c0-.06,0-.13,0-.19s0-.31,0-.46a2,2,0,0,0,0-.24,4,4,0,0,0-.11-.44l-.06-.21a5.45,5.45,0,0,0-.26-.62l-.11-.19c-.08-.14-.16-.28-.26-.43l-.18-.25-.14-.19-.22-.25-.12-.13c-2.78-3.2-6.87-4.26-11.44-4.26s-8.67,1.06-11.45,4.27l-.1.11c-.08.09-.15.18-.23.26s-.09.14-.14.2l-.17.24a3.14,3.14,0,0,0-.28.46.83.83,0,0,0-.09.16,4.85,4.85,0,0,0-.27.62,1.46,1.46,0,0,0-.05.2,3.9,3.9,0,0,0-.12.46c0,.07,0,.15,0,.22s0,.32,0,.49v.17a4.41,4.41,0,0,0,.22,1.33,1.21,1.21,0,0,0,.05.14c.06.17.14.35.22.53l.07.14a6.62,6.62,0,0,0,.37.61l0,0a6.17,6.17,0,0,0,.52.65l0,0a6,6,0,0,0,.57.55.86.86,0,0,0,.14.13,7.09,7.09,0,0,0,.59.46l.15.11c.27.19.54.37.84.54,5.07,2.93,13.3,2.93,18.36,0,.3-.17.57-.35.83-.53l.18-.13c.2-.14.39-.29.57-.44a1.07,1.07,0,0,1,.16-.14c.19-.17.37-.35.54-.53l.06-.06a7.14,7.14,0,0,0,.51-.64A.21.21,0,0,1,415.6,419.6Z" style="fill:#00A76F"></path><g style="opacity:0.8"><path d="M415.6,419.6c.13-.19.24-.38.35-.57s.05-.11.07-.16a3.74,3.74,0,0,0,.22-.51l.06-.16a5,5,0,0,0,.16-.64v0a4.91,4.91,0,0,0,.06-.66c0-.06,0-.13,0-.19s0-.31,0-.46a2,2,0,0,0,0-.24,4,4,0,0,0-.11-.44l-.06-.21a5.45,5.45,0,0,0-.26-.62l-.11-.19c-.08-.14-.16-.28-.26-.43l-.18-.25-.14-.19-.22-.25-.12-.13c-2.78-3.2-6.87-4.26-11.44-4.26s-8.67,1.06-11.45,4.27l-.1.11c-.08.09-.15.18-.23.26s-.09.14-.14.2l-.17.24a3.14,3.14,0,0,0-.28.46.83.83,0,0,0-.09.16,4.85,4.85,0,0,0-.27.62,1.46,1.46,0,0,0-.05.2,3.9,3.9,0,0,0-.12.46c0,.07,0,.15,0,.22s0,.32,0,.49v.17a4.41,4.41,0,0,0,.22,1.33,1.21,1.21,0,0,0,.05.14c.06.17.14.35.22.53l.07.14a6.62,6.62,0,0,0,.37.61l0,0a6.17,6.17,0,0,0,.52.65l0,0a6,6,0,0,0,.57.55.86.86,0,0,0,.14.13,7.09,7.09,0,0,0,.59.46l.15.11c.27.19.54.37.84.54,5.07,2.93,13.3,2.93,18.36,0,.3-.17.57-.35.83-.53l.18-.13c.2-.14.39-.29.57-.44a1.07,1.07,0,0,1,.16-.14c.19-.17.37-.35.54-.53l.06-.06a7.14,7.14,0,0,0,.51-.64A.21.21,0,0,1,415.6,419.6Z" style="fill:#fff"></path></g><path d="M397.73,413.57v-3.81a19.63,19.63,0,0,1,4.94-.73v6.46l-.81,8.77a17.92,17.92,0,0,1-7.51-2.13c-.3-.17-.57-.35-.84-.54l-.15-.11a7.09,7.09,0,0,1-.59-.46.86.86,0,0,1-.14-.13l-.4-.37Z" style="fill:#fff;opacity:0.30000000000000004"></path><path d="M407.3,414.85V409.3a12.42,12.42,0,0,1,7.67,4l.12.13.22.25.14.19.18.25c.1.15.18.29.26.43l.11.19a5.45,5.45,0,0,1,.26.62l.06.21a4,4,0,0,1,.11.44,2,2,0,0,1,0,.24c0,.15,0,.3,0,.46s0,.13,0,.19a4.91,4.91,0,0,1-.06.66v0a5,5,0,0,1-.16.64l-.06.16a3.74,3.74,0,0,1-.22.51c0,.05,0,.1-.07.16s-.22.38-.35.57a.21.21,0,0,0,0,.06,7.14,7.14,0,0,1-.51.64l-.06.06c-.17.18-.35.36-.54.53a1.07,1.07,0,0,0-.16.14c-.18.15-.37.3-.57.44l-.18.13c-.26.18-.53.36-.83.53a14.73,14.73,0,0,1-1.83.88Z" style="fill:#00A76F;opacity:0.15"></path><path d="M396.3,410a3.6,3.6,0,0,1,2.11-3,11.33,11.33,0,0,1,10.24,0,3.72,3.72,0,0,1,2.11,2.76v0a.76.76,0,0,1,0,.15v2.15a.76.76,0,0,1,0,.15v0a3.72,3.72,0,0,1-2.11,2.76,11.33,11.33,0,0,1-10.24,0,3.6,3.6,0,0,1-2.11-3Z" style="fill:#00A76F"></path><path d="M396.3,410a3.6,3.6,0,0,1,2.11-3,11.33,11.33,0,0,1,10.24,0,3.72,3.72,0,0,1,2.11,2.76v0a.76.76,0,0,1,0,.15v2.15a.76.76,0,0,1,0,.15v0a3.72,3.72,0,0,1-2.11,2.76,11.33,11.33,0,0,1-10.24,0,3.6,3.6,0,0,1-2.11-3Z" style="opacity:0.30000000000000004"></path><path d="M402.59,416.28a10.07,10.07,0,0,1-4.18-1.18,5.31,5.31,0,0,1-1.17-.9v-6.27a5.63,5.63,0,0,1,1.17-.9,9.92,9.92,0,0,1,4.18-1.18Z" style="fill:#00A76F;opacity:0.7000000000000001"></path><path d="M407.63,406.54a9.63,9.63,0,0,1,1,.49,3.72,3.72,0,0,1,2.11,2.76v0a.76.76,0,0,1,0,.15v2.15a.76.76,0,0,1,0,.15v0a3.72,3.72,0,0,1-2.11,2.76,9.63,9.63,0,0,1-1,.49Z" style="opacity:0.2"></path><path d="M396.3,409.79h0c.16-2.75,7.23-7.63,7.23-7.63s7.08,4.88,7.23,7.63h0a1.93,1.93,0,0,1,0,.34v.06a3.69,3.69,0,0,1-2.11,2.75,11.33,11.33,0,0,1-10.24,0,3.71,3.71,0,0,1-2.11-2.75v-.06A1.93,1.93,0,0,1,396.3,409.79Z" style="fill:#00A76F"></path><path d="M396.3,409.79h0c.16-2.75,7.23-7.63,7.23-7.63s7.08,4.88,7.23,7.63h0a1.93,1.93,0,0,1,0,.34v.06a3.69,3.69,0,0,1-2.11,2.75,11.33,11.33,0,0,1-10.24,0,3.71,3.71,0,0,1-2.11-2.75v-.06A1.93,1.93,0,0,1,396.3,409.79Z" style="fill:#fff;opacity:0.8"></path><path d="M398.41,412.94a6.06,6.06,0,0,1-1.06-.78c0-3.42,6.18-10,6.18-10s-.94,9.39-.94,12A10.08,10.08,0,0,1,398.41,412.94Z" style="fill:#fff;opacity:0.30000000000000004"></path><path d="M410.76,409.78h0a1.93,1.93,0,0,1,0,.34v.06a3.69,3.69,0,0,1-2.11,2.75,7.82,7.82,0,0,1-1.13.53c0-2.28-4-11.32-4-11.32S410.61,407,410.76,409.78Z" style="fill:#00A76F;opacity:0.15"></path><path d="M378.71,359.05c0-3.67,2.42-7.33,7.27-10.13,9.69-5.6,25.41-5.6,35.11,0,4.84,2.8,7.27,6.46,7.27,10.13v4.39c0,3.66-2.43,7.33-7.28,10.13-9.69,5.6-25.41,5.6-35.1,0-4.85-2.8-7.27-6.47-7.27-10.13Z" style="fill:#00A76F"></path><path d="M378.71,359.05c0-3.67,2.42-7.33,7.27-10.13,9.69-5.6,25.41-5.6,35.11,0,4.84,2.8,7.27,6.46,7.27,10.13v4.39c0,3.66-2.43,7.33-7.28,10.13-9.69,5.6-25.41,5.6-35.1,0-4.85-2.8-7.27-6.47-7.27-10.13Z" style="opacity:0.30000000000000004"></path><path d="M384.26,350v22.45c-3.7-2.63-5.55-5.83-5.55-9v-4.39C378.71,355.85,380.56,352.64,384.26,350Z" style="fill:#00A76F;opacity:0.7000000000000001"></path><path d="M403.53,377.77a38.41,38.41,0,0,1-14.11-2.55v-28a38.41,38.41,0,0,1,14.11-2.55Z" style="fill:#00A76F;opacity:0.7000000000000001"></path><path d="M419.63,348.15c.5.24,1,.5,1.46.77,4.84,2.8,7.27,6.46,7.27,10.13v4.39c0,3.66-2.43,7.33-7.28,10.13-.46.27-.95.52-1.45.77Z" style="opacity:0.2"></path><ellipse cx="403.53" cy="359.05" rx="24.82" ry="14.33" style="fill:#00A76F"></ellipse><ellipse cx="403.53" cy="359.05" rx="24.82" ry="14.33" style="opacity:0.15"></ellipse><path d="M381.25,359.05a6.25,6.25,0,0,0,.41,2.2c.79-2.1,2.72-4.09,5.59-5.75a36.26,36.26,0,0,1,32.56,0c2.88,1.66,4.8,3.65,5.59,5.75a6.25,6.25,0,0,0,.41-2.2c0-2.88-2.13-5.7-6-7.93-4.3-2.49-10.09-3.86-16.28-3.86a33.1,33.1,0,0,0-16.28,3.86C383.39,353.35,381.25,356.17,381.25,359.05Z" style="fill:#00A76F"></path><path d="M413.86,348.65a26.62,26.62,0,0,1,5.95,2.47c3.87,2.23,6,5.05,6,7.93a6.25,6.25,0,0,1-.41,2.2c-.79-2.1-2.71-4.09-5.59-5.75a27.1,27.1,0,0,0-5.95-2.47Z" style="opacity:0.1"></path><path d="M402.89,351.65a34.05,34.05,0,0,0-14.18,3.09v-4.39a34.05,34.05,0,0,1,14.18-3.08Z" style="fill:#fff;opacity:0.2"></path><path d="M428.36,363.44c0,3.66-2.43,7.33-7.28,10.13-9.69,5.6-25.41,5.6-35.1,0-4.85-2.8-7.27-6.47-7.27-10.13,0,23,11.72,42.11,24.82,42.11s24.83-19.08,24.83-42.11Z" style="fill:#00A76F"></path><path d="M428.36,363.44c0,3.66-2.43,7.33-7.28,10.13-9.69,5.6-25.41,5.6-35.1,0-4.85-2.8-7.27-6.47-7.27-10.13,0,23,11.72,42.11,24.82,42.11s24.83-19.08,24.83-42.11Z" style="fill:#fff;opacity:0.7000000000000001"></path><path d="M403.53,405.55c-5.81,0-11.35-3.76-15.71-9.95,5.9,7.71,17.38,6.59,22.16-3.31a50.32,50.32,0,0,0,3.88-15.82,29.55,29.55,0,0,0,7.22-2.9c4.85-2.8,7.28-6.47,7.28-10.13h0C428.36,386.47,416.64,405.55,403.53,405.55Z" style="fill:#00A76F;opacity:0.2"></path><path d="M420.69,386.1a72.71,72.71,0,0,0,2-13.53c3.79-2.64,5.7-5.89,5.7-9.13h0c0,22.59-11.27,41.35-24.07,42.07C411.57,404.89,418.32,395.53,420.69,386.1Z" style="fill:#00A76F;opacity:0.35000000000000003"></path><path d="M386,373.57c5.53,3.19,13,4.56,20.24,4.11-1.21,14.39-5.13,19.38-11.94,15.95-5.68-2.87-8.4-12.16-9.68-20.93Q385.26,373.15,386,373.57Z" style="fill:#fff;opacity:0.30000000000000004"></path><path d="M381.66,361.25c.8,2.09,2.72,4.07,5.59,5.74a36.35,36.35,0,0,0,32.56,0c2.88-1.67,4.8-3.65,5.59-5.74-.79-2.1-2.71-4.09-5.59-5.75a36.26,36.26,0,0,0-32.56,0C384.38,357.16,382.45,359.15,381.66,361.25Z" style="fill:#00A76F"></path><path d="M381.66,361.25c.8,2.09,2.72,4.07,5.59,5.74a36.35,36.35,0,0,0,32.56,0c2.88-1.67,4.8-3.65,5.59-5.74-.79-2.1-2.71-4.09-5.59-5.75a36.26,36.26,0,0,0-32.56,0C384.38,357.16,382.45,359.15,381.66,361.25Z" style="fill:#fff;opacity:0.7000000000000001"></path><path d="M392.8,369.34a26.32,26.32,0,0,1-5.55-2.35c-2.87-1.67-4.79-3.65-5.59-5.74.79-2.1,2.72-4.09,5.59-5.75a26,26,0,0,1,4.4-2A78.57,78.57,0,0,0,392.8,369.34Z" style="fill:#00A76F;opacity:0.1"></path><path d="M385.61,356.57a73.71,73.71,0,0,0,1.15,10.11,11.78,11.78,0,0,1-5.1-5.43A10.77,10.77,0,0,1,385.61,356.57Z" style="fill:#00A76F;opacity:0.15"></path><path d="M371.71,383.38h0l14.56-8.4h0l2.17,1.25h0s0,1,.11,2.7l-12.2,7a10.42,10.42,0,0,0,3.13,6.26,10.21,10.21,0,0,0,1,.85,10.37,10.37,0,0,0,7.33.39,17.89,17.89,0,0,0,2.22-.9l2.18,1.25c.32.68.68,1.36,1.06,2a12.78,12.78,0,0,1-12.92,0l-2.19-1.25a12.81,12.81,0,0,1-6.47-11.19Z" style="fill:#00A76F"></path><polygon points="388.44 376.22 373.88 384.63 371.71 383.38 386.27 374.97 388.44 376.22" style="fill:#00A76F"></polygon><polygon points="388.44 376.22 373.88 384.63 371.71 383.38 386.27 374.97 388.44 376.22" style="fill:#fff;opacity:0.6000000000000001"></polygon><path d="M373.89,384.62a12.94,12.94,0,0,0,19.4,11.22c-.38-.67-.74-1.35-1.06-2a19.31,19.31,0,0,1-2.22.9,10.55,10.55,0,0,1-3.17.49,10.77,10.77,0,0,1-7.36-3,10.42,10.42,0,0,1-3.13-6.26l12.2-7c-.12-1.67-.11-2.7-.11-2.7Z" style="fill:#00A76F"></path><path d="M373.89,384.62a12.94,12.94,0,0,0,19.4,11.22c-.38-.67-.74-1.35-1.06-2a19.31,19.31,0,0,1-2.22.9,10.55,10.55,0,0,1-3.17.49,10.77,10.77,0,0,1-7.36-3,10.42,10.42,0,0,1-3.13-6.26l12.2-7c-.12-1.67-.11-2.7-.11-2.7Z" style="fill:#fff;opacity:0.4"></path></g></g><g id="freepik--Ribbon--inject-165"><polygon points="424.77 383.26 428.38 399.15 429.82 395.33 431.12 391.86 433.24 392.13 435.57 392.43 431.96 376.54 424.77 383.26" style="fill:#00A76F"></polygon><g style="opacity:0.2"><polygon points="424.77 383.26 428.38 399.15 429.82 395.33 431.12 391.86 433.24 392.13 435.57 392.43 431.96 376.54 424.77 383.26" style="fill:#fff"></polygon></g><polygon points="428.72 394.57 425.95 382.4 426.31 382.07 428.86 393.31 430.47 389.06 433.07 389.37 430.52 378.14 430.87 377.81 433.63 389.99 430.59 389.62 428.72 394.57" style="fill:#00A76F"></polygon><g style="opacity:0.2"><polygon points="428.72 394.57 425.95 382.4 426.31 382.07 428.86 393.31 430.47 389.06 433.07 389.37 430.52 378.14 430.87 377.81 433.63 389.99 430.59 389.62 428.72 394.57"></polygon></g><polygon points="427.49 395.21 430.17 380.27 427.28 380.91 424.77 383.26 427.49 395.21" style="opacity:0.30000000000000004"></polygon><polygon points="429.6 380.47 425.99 400.53 424.55 398.37 423.25 396.41 421.13 399.13 418.8 402.11 422.41 382.05 429.6 380.47" style="fill:#00A76F"></polygon><g style="opacity:0.4"><polygon points="429.6 380.47 425.99 400.53 424.55 398.37 423.25 396.41 421.13 399.13 418.8 402.11 422.41 382.05 429.6 380.47" style="fill:#fff"></polygon></g><polygon points="425.65 396.35 423.78 393.56 420.74 397.43 423.5 382.06 423.86 381.98 421.3 396.17 423.9 392.85 425.51 395.25 428.06 381.06 428.42 380.98 425.65 396.35" style="fill:#00A76F"></polygon><path d="M432,376.54,427.19,381l-4.78,1.05-1.2,6.69a1,1,0,0,0,.93-.11,1.76,1.76,0,0,0,.4-.29l.11-.09a.26.26,0,0,1,.42.19.92.92,0,0,0,1.49.65,2.83,2.83,0,0,0,.87-.86.66.66,0,0,1,.25-.25.25.25,0,0,1,.36,0,.9.9,0,0,0,1.25.14,3.27,3.27,0,0,0,1.25-1.59,1,1,0,0,1,.36-.46.29.29,0,0,1,.25,0,1,1,0,0,0,.87-.14,3.6,3.6,0,0,0,1.48-2.36,1,1,0,0,1,.43-.68l.11,0a1.29,1.29,0,0,0,.39-.16,2.55,2.55,0,0,0,.77-.71Z" style="opacity:0.30000000000000004"></path><path d="M428.09,363.56h0c.32.41.93.2,1.37-.47h0c.56-.84,1.34-.91,1.52-.14h0c.14.62.68.72,1.2.23h0c.66-.61,1.29-.26,1.23.67h0c0,.75.36,1.15.9.91h0c.67-.31,1.09.4.8,1.39h0c-.23.79,0,1.44.48,1.47h0c.61,0,.76,1,.28,1.95h0c-.38.73-.38,1.56,0,1.85h0c.48.37.33,1.54-.28,2.28h0a2.21,2.21,0,0,0-.48,2h0a2.26,2.26,0,0,1-.8,2.32h0a2.42,2.42,0,0,0-.9,1.93h0a2.17,2.17,0,0,1-1.23,2.1h0a2,2,0,0,0-1.2,1.62h0c-.18,1-1,1.8-1.52,1.61h0c-.44-.16-1,.34-1.37,1.11h0c-.39,1-1.21,1.44-1.61.93h0c-.31-.41-.92-.2-1.36.47h0c-.56.84-1.34.91-1.52.14h0c-.14-.62-.68-.72-1.2-.24h0c-.66.62-1.29.27-1.24-.66h0c0-.75-.35-1.15-.89-.91h0c-.68.31-1.09-.4-.8-1.39h0c.22-.79,0-1.44-.48-1.47h0c-.62,0-.76-1-.28-1.95h0c.38-.73.38-1.56,0-1.85h0c-.48-.37-.34-1.54.28-2.28h0a2.24,2.24,0,0,0,.48-2h0a2.23,2.23,0,0,1,.8-2.32h0a2.39,2.39,0,0,0,.89-1.94h0a2.19,2.19,0,0,1,1.24-2.09h0a2,2,0,0,0,1.2-1.62h0c.18-1,1-1.8,1.52-1.61h0c.44.16,1.05-.34,1.36-1.11h0C426.88,363.52,427.7,363.05,428.09,363.56Z" style="fill:#263238"></path><path d="M419.9,379.71c0-5.44,3.31-11.75,7.39-14.11s7.39.14,7.39,5.58-3.31,11.76-7.39,14.12S419.9,385.15,419.9,379.71Z" style="fill:#00A76F"></path><path d="M422.34,378.31c0-3.65,2.22-7.88,5-9.45s4.94.09,4.94,3.73-2.21,7.88-4.94,9.45S422.34,382,422.34,378.31Z" style="fill:#fafafa"></path><path d="M425.19,375.36a.29.29,0,0,1,0-.22.62.62,0,0,1,.09-.26l1.67-2.95c0-.07.09-.16.15-.25a.64.64,0,0,1,.21-.22l1-.55a.12.12,0,0,1,.15,0,.27.27,0,0,1,.06.19v7.75a.62.62,0,0,1-.06.26.35.35,0,0,1-.15.18l-1,.59a.11.11,0,0,1-.15,0,.25.25,0,0,1-.06-.19v-5.24l-.93,1.62a.35.35,0,0,1-.15.15.11.11,0,0,1-.14,0Z" style="fill:#455a64"></path><path d="M427.29,382.55c-2.94,1.7-5.33-.11-5.33-4s2.39-8.49,5.33-10.18,5.33.11,5.33,4S430.23,380.86,427.29,382.55Zm0-13.19c-2.52,1.46-4.57,5.37-4.57,8.72s2,4.91,4.57,3.46,4.56-5.37,4.56-8.73S429.81,367.91,427.29,369.36Z" style="fill:#00A76F"></path><g style="opacity:0.30000000000000004"><path d="M427.29,382.55c-2.94,1.7-5.33-.11-5.33-4s2.39-8.49,5.33-10.18,5.33.11,5.33,4S430.23,380.86,427.29,382.55Zm0-13.19c-2.52,1.46-4.57,5.37-4.57,8.72s2,4.91,4.57,3.46,4.56-5.37,4.56-8.73S429.81,367.91,427.29,369.36Z"></path></g><path d="M433.73,370.74l.17.36.38-.15c.09,0,.13.1.06.22l-.27.52.06.47c0,.11-.08.26-.16.25l-.34-.05-.34.44c-.08.1-.17.07-.16-.06l.07-.55-.28-.2c-.07,0,0-.21.06-.28l.38-.3.17-.56C433.57,370.72,433.69,370.65,433.73,370.74Z" style="fill:#fafafa"></path><path d="M433.37,374l.12.25.25-.1c.07,0,.09.06.05.14l-.19.35,0,.32c0,.07-.05.17-.1.16l-.23,0-.23.3c-.05.07-.12,0-.11-.05l0-.36-.19-.13s0-.15,0-.2l.26-.19.11-.38C433.27,374,433.35,373.93,433.37,374Z" style="fill:#fafafa"></path><path d="M433.37,368.48l.12.24.25-.1c.07,0,.09.07.05.15l-.19.34,0,.32c0,.07-.05.17-.1.17l-.23,0-.23.29c-.05.07-.12,0-.11,0l0-.37-.19-.13s0-.15,0-.19l.26-.2.11-.38C433.27,368.47,433.35,368.42,433.37,368.48Z" style="fill:#fafafa"></path><path d="M420.85,378.18l-.17.56-.39.29c-.09.07-.12.24-.06.29l.28.2-.07.54c0,.13.08.17.16.06l.35-.43.34,0c.08,0,.17-.14.16-.25l-.07-.47.28-.51c.06-.13,0-.26-.06-.22l-.38.15-.18-.37C421,378,420.89,378,420.85,378.18Z" style="fill:#fafafa"></path><path d="M421.2,381l-.11.38-.26.19c-.06.05-.08.16,0,.2l.19.13-.05.36c0,.09.06.12.11.05l.23-.3.23,0c.05,0,.12-.09.11-.16l-.05-.32.19-.34c0-.09,0-.17,0-.15l-.26.1-.11-.24C421.31,380.88,421.23,380.92,421.2,381Z" style="fill:#fafafa"></path><path d="M421.2,375.51l-.11.37-.26.2c-.06,0-.08.16,0,.19l.19.13-.05.37c0,.08.06.11.11,0l.23-.29.23,0c.05,0,.12-.1.11-.17l-.05-.31.19-.35c0-.08,0-.17,0-.15l-.26.1-.11-.24C421.31,375.37,421.23,375.42,421.2,375.51Z" style="fill:#fafafa"></path></g></g><g id="freepik--Character--inject-165"><g id="freepik--Chartacter--inject-165"><path id="freepik--shadow--inject-165" d="M273.22,241.51c-24.55-3.52-44.88,6.17-55.07,11.49-6.32,3.3-7.52,13.74,9.61,13.9s30.06-5.72,37.49-2.06c7.19,3.54,13.15,14.58,21.34,13.36s12.14-7.05,9-17.88C292.75,250.71,286.86,243.46,273.22,241.51Z" style="fill:#00A76F;opacity:0.5"></path><g id="freepik--Bottom--inject-165"><path d="M248.9,240.76l1.93-11.14-13.49.8s-.18,5.87-.63,9.91c-.22,2-2.44,5.47-2.44,5.47s7,3.18,10.19,2a8.32,8.32,0,0,0,4.74-6C249.12,240.92,248.9,240.76,248.9,240.76Z" style="fill:#ffa8a7"></path><path d="M218.34,258.79a2.62,2.62,0,0,0,.64,2.87c1.3,1,5.08,2.53,10,1.86s7.62-2.1,9.58-3.63,4.71-3.69,6.95-4.18a14.52,14.52,0,0,0,5-1.93c.66-.59.52-3.17.52-3.17Z" style="fill:#263238"></path><path d="M248.9,240.74a.78.78,0,0,1,.76.59c.17.7.37,2.76.71,3.92a18.64,18.64,0,0,1,.6,6.25c-.26,1.33-3.64,2.31-5.8,3.09a27.92,27.92,0,0,0-7,4.13,21.2,21.2,0,0,1-10.41,3.69c-3.83,0-8.16-1-9.17-2.56-1.26-2-2.18-4.23,3.45-6.7,1.07-.46,4.81-2.54,6.08-3.29,3.45-2,5.86-3.89,7.41-7.4a2,2,0,0,1,.8-1.08,2,2,0,0,1,1.1-.11,41.4,41.4,0,0,1,5.59.85c.77.32,1.85.68,1.85,1.55a2.56,2.56,0,0,1-.2.9c-.06.18-.11.42.06.52s.39,0,.53-.14a13.25,13.25,0,0,0,1.5-1.68,5.44,5.44,0,0,1,.89-.84c.3-.22.69-.34,1-.58S248.89,241.15,248.9,240.74Z" style="fill:#455a64"></path><path d="M238.2,258.72c1-.76,2-1.48,3.06-2.14h0s-6.61,3.77-9.34,2.16c-1.75-1-.95-2.34-.91-2.76s-6.15-3.22-7.84-3.37h0c-.46.24-.85.44-1.1.54-5.63,2.47-4.71,4.75-3.45,6.7,1,1.58,4.15,2.76,9.1,2.67A21.88,21.88,0,0,0,238.2,258.72Z" style="fill:#37474f"></path><path d="M231.46,254.77c-3.51,1.33-2,1.89-1,2s6.88-3.12,10.46-5.76c3.73-2.76,6.07-5.74,7.45-6.75.52-.38,1.08-.84,1.57-1.27-.1-.7-.19-1.33-.27-1.66a.78.78,0,0,0-.76-.59l-.15.89c-.27.25-.77.58-1.07.8a5.44,5.44,0,0,0-.89.84,13.25,13.25,0,0,1-1.5,1.68C242.27,248.52,235,253.43,231.46,254.77Z" style="fill:#37474f"></path><path d="M230.7,256.3a.38.38,0,0,0,.22-.07.31.31,0,0,0,0-.45c-1-1.07-5.78-3.59-8.37-3.28a.32.32,0,0,0-.3.35.32.32,0,0,0,.38.27c2.42-.28,7,2.22,7.75,3.07A.36.36,0,0,0,230.7,256.3Z" style="fill:#263238"></path><path d="M233.75,254.54a.38.38,0,0,0,.22-.07.3.3,0,0,0,0-.44c-1-1.08-5.78-3.59-8.37-3.29a.32.32,0,0,0-.3.35.33.33,0,0,0,.38.27c2.43-.27,6.95,2.22,7.75,3.07A.36.36,0,0,0,233.75,254.54Z" style="fill:#263238"></path><path d="M236.8,252.87a.36.36,0,0,0,.22-.07.3.3,0,0,0,0-.44c-1-1.08-5.78-3.6-8.37-3.29a.32.32,0,0,0-.3.35.34.34,0,0,0,.39.27c2.42-.28,6.94,2.22,7.75,3.07A.32.32,0,0,0,236.8,252.87Z" style="fill:#263238"></path><path d="M239.62,251a.37.37,0,0,0,.22-.08.29.29,0,0,0,0-.44c-1-1.08-5.79-3.59-8.37-3.28a.32.32,0,0,0-.3.35.34.34,0,0,0,.39.27c2.42-.28,6.94,2.21,7.75,3.07A.39.39,0,0,0,239.62,251Z" style="fill:#263238"></path><path d="M242.38,249.09a.42.42,0,0,0,.22-.08.29.29,0,0,0,.05-.44c-1.4-1.53-6.37-3.61-9-3.3a.32.32,0,0,0-.3.35.35.35,0,0,0,.39.27c2.33-.27,7.1,1.73,8.34,3.08A.36.36,0,0,0,242.38,249.09Z" style="fill:#263238"></path><path d="M277.75,244.12,275,233.79l13.2-1.73.4,10s1.33,3.57.5,4.87-9.6,2.62-10.4,1.75S277.75,244.12,277.75,244.12Z" style="fill:#ffa8a7"></path><path d="M278.68,266.57c.37,3.19,1.05,5.26,2.48,7s4,2,6.53,1.2,5.58-3,6.35-5.55c.85-2.8.37-4.74-.35-7.66Z" style="fill:#263238"></path><path d="M288.6,242c1.06-.05.77,4.32,1.58,8.58.86,4.56,2.58,6.29,3.34,10,.86,4.27.69,6.24-1,9.07s-7.88,6.12-11.17,2.71c-2.68-2.78-2.95-6.17-2.92-10.53a93,93,0,0,0-.27-11.07c-.36-3.23-1.32-6.1-.42-6.57.09.47.19,1.07.28,1.53s.26,2.1.86,2.05a6.23,6.23,0,0,0,0-1.22,1.38,1.38,0,0,1,.24-1.09,5,5,0,0,1,1.71-.82c1-.29,2.87-.65,3.92-.86.53-.1,1-.18,1.58-.23a4.69,4.69,0,0,1,1.35,0,.8.8,0,0,1,.59.38,1.33,1.33,0,0,1,.08.49,2.86,2.86,0,0,0,.17.87c0,.13.16.27.31.22a.28.28,0,0,0,.16-.28c0-.52-.12-.9-.18-1.5,0-.28-.1-.66-.11-.94S288.63,242.3,288.6,242Z" style="fill:#455a64"></path><path d="M293.22,259.43c.13.61.95,4.69-.35,5.59s-2.33-2.2-2.33-2.2-3.41-.5-8.23,1.89c.28.64-.37,3-1.74,2.63s-2.11-5-2.12-5.07c0,4.18.31,7.45,2.92,10.15,3.29,3.41,9.5.11,11.17-2.71s1.84-4.8,1-9.07C293.43,260.21,293.33,259.81,293.22,259.43Z" style="fill:#37474f"></path><path d="M290.16,263.14c.1,1.57,1.9.83,1.87-1.39s-1.69-7.33-1.85-11.14c-.29-5.24-.52-8.63-1.58-8.58a.76.76,0,0,1,0,.15l.24,2.19a8.78,8.78,0,0,1,.11.93c.17,3.2.18,9.42.64,12.31A42.39,42.39,0,0,1,290.16,263.14Z" style="fill:#37474f"></path><path d="M282.87,264.6a45.83,45.83,0,0,1-1.26-5.4c-.5-2.86-2.25-8.59-3.12-11.67a7.14,7.14,0,0,1-.45-1.75c-.09-.43-.18-1-.26-1.43l0-.09c-.65.34-.44,2.82-.1,4.11s.75,2.66,1.17,4.5c1.08,3.64,1.16,9.08,1.85,11.18S283.29,266.1,282.87,264.6Z" style="fill:#37474f"></path><path d="M282.21,264.84a.24.24,0,0,0,.14,0,15,15,0,0,1,8.1-1.64.43.43,0,0,0,.47-.29.31.31,0,0,0-.3-.37,15.67,15.67,0,0,0-8.66,1.75.32.32,0,0,0-.14.47A.36.36,0,0,0,282.21,264.84Z" style="fill:#263238"></path><path d="M281.17,261.54l.13-.05a18.51,18.51,0,0,1,9.07-1.83.45.45,0,0,0,.46-.3.32.32,0,0,0-.32-.37,19.12,19.12,0,0,0-9.58,1.94.33.33,0,0,0-.16.46A.39.39,0,0,0,281.17,261.54Z" style="fill:#263238"></path><path d="M290,256.45a.41.41,0,0,0,.32-.26.31.31,0,0,0-.26-.4c-4.8-.83-9.38,1.75-9.57,1.86a.33.33,0,0,0-.15.47.42.42,0,0,0,.54.08s4.49-2.52,9-1.75Z" style="fill:#263238"></path><path d="M289.55,253.43a.45.45,0,0,0,.32-.26.31.31,0,0,0-.26-.4,14.47,14.47,0,0,0-9.76,1.86.32.32,0,0,0-.11.47.41.41,0,0,0,.54.05,13.82,13.82,0,0,1,9.1-1.72Z" style="fill:#263238"></path><path d="M289.07,250a.45.45,0,0,0,.32-.26.31.31,0,0,0-.25-.4c-4.95-1-9.64,1.84-9.83,2a.32.32,0,0,0-.13.47.41.41,0,0,0,.54.06s4.58-2.77,9.17-1.83A.54.54,0,0,0,289.07,250Z" style="fill:#263238"></path><path d="M282.57,135.59c2,25.26,2.48,59.83,2.48,59.83.18,1.92,1.55,5.21,2.48,14.67,1,10,.75,24.07.75,24.07s-7,3.73-12.71,1.84c0,0-5.32-22.16-8.25-33.92-2.77-11.14-6.52-29.76-6.52-29.76l-5.33,24s.39,7.2.17,12.24c-.26,5.86-5.31,24.84-5.31,24.84s-7.43,4.32-13.39-.17c0,0,.49-32.88.33-39.93-.31-13.82.5-42.87,1-60.72Z" style="fill:#00A76F"></path><path d="M282.57,135.59c2,25.26,2.48,59.83,2.48,59.83.18,1.92,1.55,5.21,2.48,14.67,1,10,.75,24.07.75,24.07s-7,3.73-12.71,1.84c0,0-5.32-22.16-8.25-33.92-2.77-11.14-6.52-29.76-6.52-29.76l-5.33,24s.39,7.2.17,12.24c-.26,5.86-5.31,24.84-5.31,24.84s-7.43,4.32-13.39-.17c0,0,.49-32.88.33-39.93-.31-13.82.5-42.87,1-60.72Z" style="opacity:0.30000000000000004"></path><path d="M260.8,172.32,257.73,156s-7-1-10.52-4.15c0,0,2.3,4.17,8.85,5.8L259,174l-3.52,22.28Z" style="opacity:0.2"></path><path d="M288.44,234.44c-1.44,1.88-7.84,3.75-13,2l-.89-3.88c3.88,1.21,10.62.07,13.79-2.38Z" style="fill:#00A76F"></path><path d="M250.22,234.48c-1.82,1.53-8.67,2.21-13.31-.55l-.07-4.57c3.52,2,10.79,2.67,14.42.95Z" style="fill:#00A76F"></path></g><g id="freepik--Top--inject-165"><path d="M204.07,132a42.26,42.26,0,0,0-4.46-.9c-1.13-.18-1.78.29-4.46,1.86s-3.25,2.35-3.48,3.22a1.88,1.88,0,0,0,.8,2.05,1.64,1.64,0,0,0,.53,2.76,1.48,1.48,0,0,0,.66,2.38,2,2,0,0,0,1.52,2.73,30,30,0,0,0,4.41.47Z" style="fill:#f28f8f"></path><g id="freepik--Flag--inject-165"><path d="M210.37,251.88,187.36,27l1.91-.2,23,224.93C212.34,252.45,210.43,252.61,210.37,251.88Z" style="fill:#455a64"></path><path d="M199.59,146.52c.54,0,1.21-.9,1.7-1.48s1.12-1.3,1.06-1.79c-.09-.69-1.07-.68-1.07-.68a2.78,2.78,0,0,0,.47-.44c.6-.61-.53-1.39-1.51-1,0,0,.42-.26.42-.54a1.27,1.27,0,0,0-1.4-1.19c.69-.37.42-1.35-.07-2.1a4.89,4.89,0,0,0-.54,0A17.57,17.57,0,0,0,199.59,146.52Z" style="fill:#f28f8f"></path><path d="M193.66,143.32a15.14,15.14,0,0,0,2,.51,20.23,20.23,0,0,0,2,.33,3,3,0,0,0,1.88-.51q.89-.5,1.74-1.08a11.12,11.12,0,0,1-1.65,1.24,3.08,3.08,0,0,1-2,.6,17.31,17.31,0,0,1-2-.39A9,9,0,0,1,193.66,143.32Z" style="fill:#b16668"></path><path d="M200.24,141.13a14.86,14.86,0,0,1-1.71.81,2.36,2.36,0,0,1-1,.2,7.09,7.09,0,0,1-.94-.17,34.93,34.93,0,0,1-3.63-1c1.24.21,2.46.52,3.68.79a7.7,7.7,0,0,0,.91.18,2.81,2.81,0,0,0,.88-.15C199.06,141.58,199.64,141.34,200.24,141.13Z" style="fill:#b16668"></path><path d="M199.26,139.4a3.66,3.66,0,0,1-1.73.42,10.29,10.29,0,0,1-1.74-.43c-1.12-.36-2.24-.74-3.32-1.21,1.15.27,2.27.64,3.4,1a15.06,15.06,0,0,0,1.68.47A4.45,4.45,0,0,0,199.26,139.4Z" style="fill:#b16668"></path><path d="M190.4,27.07a2.12,2.12,0,1,1-1.88-2.34A2.11,2.11,0,0,1,190.4,27.07Z" style="fill:#37474f"></path><path d="M189.93,23.09a2.12,2.12,0,0,1-4.22.49c-.35-3,1.33-7,1.33-7S189.58,20.1,189.93,23.09Z" style="fill:#37474f"></path><path d="M187.55,28.81c-12,17.77-32.22,12.49-48.36,13.19-17.49.75-27.48,7.46-32,15.62,4.88-1.85,19.09-2,23.91,1.18,0,0-16.51,13.41-14.57,32.37,4.32-8.57,12.66-15.54,30.37-13.77C162.5,79,182.51,84,191.87,71.14Z" style="fill:#00A76F"></path><path d="M175,72.92c-13.56,5.69-53.64-9-58.43,18.25,4.32-8.57,12.66-15.54,30.37-13.77C162.5,79,182.51,84,191.87,71.14l-4.32-42.33C189.21,45.48,188.56,67.23,175,72.92Z" style="opacity:0.1"></path><path d="M158,48.19l3.14,7,7.71.24a.51.51,0,0,1,.33.89l-5.72,5.17,2.15,7.4a.51.51,0,0,1-.75.59l-6.68-3.84L151.83,70a.52.52,0,0,1-.79-.54l1.59-7.54-6.09-4.72a.51.51,0,0,1,.26-.92l7.66-.82,2.61-7.25A.52.52,0,0,1,158,48.19Z" style="fill:#fff;opacity:0.7000000000000001"></path></g><path d="M223.29,135.89s-7,3.09-11.52,5.11c-3.44,1.55-3.47,2.07-4.58,3.3s-5.7,1.86-5.7,1.86l-.13-1.21c.48-.57,1-1.23,1-1.7-.08-.69-1.05-.68-1.05-.68a3.63,3.63,0,0,0,.47-.43c.44-.47-.09-1-.79-1.11l-.16-1.46a8.11,8.11,0,0,1-1.27-1.57h0a4.48,4.48,0,0,1-.35-.69,5.29,5.29,0,0,0-2.84.86c-.56,1.1-1.44,2.45-3,2.5-1.27,0-1.29-.55-.71-1.87a19.86,19.86,0,0,1,1.68-3.6c.64-.93,4.21-2.5,5.33-3s2-.49,4.14-.27a6.68,6.68,0,0,0,3.75-.43c1-.34,6.33-3.6,6.33-3.6Z" style="fill:#ffa8a7"></path><path d="M200.82,139.57c1.15,1.45,3.75,2.08,5.73,1.92a8.94,8.94,0,0,1-5.57-.3Z" style="fill:#f28f8f"></path><path d="M244.65,87.38C236.22,89.6,235,92.82,231.1,104c-3.45,10-5.31,15.65-5.31,15.65l-14.26,9.55s3,2.05,3.74,10.31c0,0,7.84-3.39,15.29-6.56,4.31-1.83,5.3-3.14,7.27-7.72,2.25-5.23,6.75-16.29,6.75-16.29Z" style="fill:#37474f"></path><path id="freepik--Chest--inject-165" d="M276.77,78.87c3.64-2.76,6.77,3.78,8,8.44s.85,10.8-1.89,22.14c-.63,2.56-1.15,8.4-.73,15.88.44,7.83.53,11.71.93,17.32,0,0-9.78,7.07-27.71,5.39-14.09-1.33-17.41-7.79-17.41-7.79s.24-20.53.8-30.92c.74-13.65,2.81-19.62,5.89-22,0,0,6.33-2.07,15.81-4.22C269.22,81.16,273,81.72,276.77,78.87Z" style="fill:#455a64"></path><g id="freepik--Head--inject-165"><path d="M249.58,54.79a4.76,4.76,0,0,0-3.27,3.07c-.59,1.38-.91,3.85,1.51,10.65a28,28,0,0,0,3.92,7.4,3.39,3.39,0,0,0,2.11,1.44L253.31,72l-.48-3.7s2.79-3,2.85-5.64a8.59,8.59,0,0,0-1.42-5.31Z" style="fill:#37474f"></path><path d="M248.86,55c.3-3,3.83-6.9,11.14-7.84,6-.77,9.66,1,12,4.37s1.32,8,1.32,8l-19,.18Z" style="fill:#37474f"></path><path d="M248.55,74c2.87,1.13,4-1.15,4-1.15l1.07,12.32c-4.63,7.07,6.17,8.83,13.1.06a3.22,3.22,0,0,0,.7-2.19l-.22-3.54a17.26,17.26,0,0,0,2.37-.41c2.42-.57,3.81-2.63,4.34-5.34a37.43,37.43,0,0,0-1.48-17.6,3.84,3.84,0,0,0-2.33-2.51c-2.92-1-5.44,1.24-9.29,3.08-1.64.79-5.73,1.39-6.85,1,1.54,1.47,1.53,6.4.19,8.55a9.16,9.16,0,0,1-1.19,1.53c-.83.85-1.72-1.1-2.53-1.84a3.09,3.09,0,0,0-4.71,1.47A5,5,0,0,0,248.55,74Z" style="fill:#ffa8a7"></path><path d="M267.16,79.46a22.45,22.45,0,0,1-8.05-.61c-2-.66-3.83-3.1-4.57-5.6.15,2,1.32,5.61,4.31,6.9s6.34,1.12,8.44,1Z" style="fill:#f28f8f"></path><path d="M261.06,60.47l-2.2,2A1.55,1.55,0,0,1,259,60.3,1.44,1.44,0,0,1,261.06,60.47Z" style="fill:#37474f"></path><path d="M271.2,60.05l-2.85-.8a1.56,1.56,0,0,1,1.88-1A1.46,1.46,0,0,1,271.2,60.05Z" style="fill:#37474f"></path><path d="M260.06,64.25a1.21,1.21,0,1,0,1.07-1.33A1.21,1.21,0,0,0,260.06,64.25Z" style="fill:#263238"></path><path d="M268.9,62.82A1.21,1.21,0,1,0,270,61.49,1.1,1.1,0,0,0,268.9,62.82Z" style="fill:#263238"></path><path d="M264.37,61.51l1.56,7.57,3.93-1.8A18,18,0,0,0,264.37,61.51Z" style="fill:#f28f8f"></path><path d="M263,71l3.2.8a1.61,1.61,0,0,1-2,1.25A1.73,1.73,0,0,1,263,71Z" style="fill:#b16668"></path><path d="M263.38,71.55a1.8,1.8,0,0,0-.4,0,1.7,1.7,0,0,0,1.26,1.52,1.55,1.55,0,0,0,.52,0A1.5,1.5,0,0,0,263.38,71.55Z" style="fill:#f28f8f"></path></g><path d="M302.57,14.93A2,2,0,0,1,304,17.78c1.24-1.32,1.63-1.64,2.75-.83.76.54.52,1.8.52,1.8a1.25,1.25,0,0,1,1.69,0,1.67,1.67,0,0,1,.56,1.7s.63-.49,1.32.32a2.83,2.83,0,0,1,.64,2.29l-.75-.39a1.75,1.75,0,0,1-.55.6,5.64,5.64,0,0,0-1.05,1.89c-.3.72-.57,1.6-1.31,1.71a1,1,0,0,1-1.28-.82,3.21,3.21,0,0,1,.14-.93s-.51,1.06-1.49.8-.89-1.17-.87-1.75c-.61.17-1.24.27-1.52-.21a7.51,7.51,0,0,1-.06-2.43L301.15,21s-1.43-.32-1.34-1.39C300,17.69,301.59,15,302.57,14.93Z" style="fill:#ffa8a7"></path><path d="M297.37,33.61a11,11,0,0,0-.76-4.53,7.68,7.68,0,0,1,.13-5.06,23.91,23.91,0,0,1,1.72-4.95,3.62,3.62,0,0,1,1.89-.92,3.88,3.88,0,0,1,1.67,0l2.58,2.27s-.11.9-.79,1.1a1.79,1.79,0,0,1-1.11,0s-.25,1.8.12,2.21.66.55,1.38.06c0,.67.05,1.71.83,1.9s1.65-.67,1.65-.67,0,1.79.56,1.89,2.64-5.43,2.64-5.43l1.6,1.48c-.44,1.48-1.71,6.09-2.53,7.89a13.2,13.2,0,0,0-1.76,5.86c-.25,3.16-1.43,22.08-1.43,22.08l-11.23-3.81S297.28,35.21,297.37,33.61Z" style="fill:#ffa8a7"></path><path d="M299.66,22.12a11.42,11.42,0,0,1,2.89,2.27,12.87,12.87,0,0,1,2.4,4,7.93,7.93,0,0,0-1.5-3.84,1.26,1.26,0,0,0,.62-.17c-.09.84,0,1.64,1,1.76a1.36,1.36,0,0,0,1.29-.43,1.14,1.14,0,0,0,.51,1.18,1.07,1.07,0,0,0,1.4-.14,1.59,1.59,0,0,0,.18-.27.08.08,0,0,0,0-.05l0,0-.13.1a1.21,1.21,0,0,1-1.09.25,1,1,0,0,1-.41-.75,4.26,4.26,0,0,1,.17-1.37v-.05c0-.05-.09,0-.13,0-.2.19-.35.42-.54.62a1.14,1.14,0,0,1-1,.35c-.75-.09-.83-1-.74-1.63,0-.2.06-.4.09-.6,0,0,0-.07,0-.07h0a.9.9,0,0,0-.28.27,1.42,1.42,0,0,1-.31.29.89.89,0,0,1-.5.21c-.4,0-.53-.35-.63-.67a3.25,3.25,0,0,1-.07-1.64s0,0,0,0l.14,0c1.43.35,2.08-1,1.66-1.44a16.31,16.31,0,0,0-2.72-2.24,3.79,3.79,0,0,0-1.57.1l1.47.09s2.63,2.12,2.56,2.45a1,1,0,0,1-1.18.75,9.06,9.06,0,0,1-2.08-.63C301,21.37,299.66,22.12,299.66,22.12Zm.94-.43a1.16,1.16,0,0,0,.55-.46s.33.12,1.43.4a5.64,5.64,0,0,0-.36.69,1.4,1.4,0,0,1-.26.34.53.53,0,0,1-.1.06A10.18,10.18,0,0,0,300.6,21.69Z" style="fill:#f28f8f"></path><path d="M276.77,78.87c3.2-4,5.88-5.28,7.5-7.3,2.65-3.29,8.36-12.17,8.36-12.17l3.67-18.89c1,3.35,8.38,6.11,10.47,4.42,0,0-.19,6.64-.95,17.89-.27,4-.41,4.72-5.58,12.35-2.44,3.6-4.9,7.49-8.81,13.51-2.83,4.35-5.39,8.39-6.8,12.7-.38,1.83-4.21,1.79-6.79-4.09C275,90.81,276.23,81.12,276.77,78.87Z" style="fill:#37474f"></path></g></g></g></svg>